<?xml version="1.0" standalone="no"?>
<!DOCTYPE svg PUBLIC "-//W3C//DTD SVG 1.1//EN" "http://www.w3.org/Graphics/SVG/1.1/DTD/svg11.dtd" >
<svg xmlns="http://www.w3.org/2000/svg" xmlns:xlink="http://www.w3.org/1999/xlink" version="1.1">
<metadata></metadata>
<defs>
<font id="urw_dockblack" horiz-adv-x="1320" >
<font-face units-per-em="2048" ascent="1638" descent="-410" />
<missing-glyph horiz-adv-x="438" />
<glyph unicode="&#xfb01;" horiz-adv-x="1202" d="M-2 735v279h131v84q0 364 371 364q99 0 211 -22l-43 -271q-79 13 -150 13q-35 0 -45 -13.5t-10 -58.5v-96h219v-279h-219v-735h-334v735h-131zM764 1092v274h340v-274h-340zM768 0v1014h332v-1014h-332z" />
<glyph unicode="&#xfb02;" horiz-adv-x="1208" d="M-2 735v279h131v84q0 364 371 364q99 0 211 -22l-43 -271q-79 13 -150 13q-35 0 -45 -13.5t-10 -58.5v-96h219v-279h-219v-735h-334v735h-131zM770 0v1434h334v-1434h-334z" />
<glyph unicode="&#xfb03;" horiz-adv-x="1841" d="M-2 735v279h131v67q0 365 371 365q67 0 211 -25l-43 -268q-73 12 -150 12q-35 0 -45 -13t-10 -58v-80h305v84q0 364 371 364q99 0 211 -22l-43 -271q-79 13 -148 13q-35 0 -46 -14t-11 -58v-96h219v-279h-219v-735h-334v735h-305v-735h-334v735h-131zM1405 1092v274h338 v-274h-338zM1407 0v1014h334v-1014h-334z" />
<glyph unicode="&#xfb04;" horiz-adv-x="1849" d="M-2 735v279h131v67q0 365 371 365q67 0 211 -25l-43 -268q-73 12 -150 12q-35 0 -45 -13t-10 -58v-80h305v84q0 364 371 364q99 0 211 -22l-43 -271q-79 13 -148 13q-35 0 -46 -14t-11 -58v-96h219v-279h-219v-735h-334v735h-305v-735h-334v735h-131zM1411 0v1434h332 v-1434h-332z" />
<glyph horiz-adv-x="0" />
<glyph horiz-adv-x="682" />
<glyph unicode=" "  horiz-adv-x="438" />
<glyph unicode="&#x09;" horiz-adv-x="438" />
<glyph unicode="&#xa0;" horiz-adv-x="438" />
<glyph unicode="!" horiz-adv-x="616" d="M125 1366h367l-33 -989h-301zM135 0v311h346v-311h-346z" />
<glyph unicode="&#x22;" horiz-adv-x="849" d="M78 1434h309l-25 -459h-258zM463 1434h309l-24 -459h-259z" />
<glyph unicode="#" horiz-adv-x="1294" d="M29 311l63 256h141l56 230h-139l63 258h139l76 311h299l-76 -311h187l75 311h297l-77 -311h139l-64 -258h-139l-55 -230h139l-63 -256h-140l-78 -311h-294l75 311h-186l-76 -311h-299l78 311h-141zM530 567h187l57 230h-186z" />
<glyph unicode="$" d="M106 467h363q2 -40 3.5 -63t7 -47t9 -35t17 -22.5t23 -15t35 -7t45.5 -3.5h61q63 0 94 3t50 17t22.5 34t3.5 63q0 54 -18 75t-79 40l-284 92q-157 49 -232 145.5t-75 247.5q7 192 98 285q78 75 225 104v140h359v-138q171 -27 266 -133q44 -52 61 -113t29 -214h-359 q-2 37 -3 57.5t-6 42.5t-7 32t-14 20t-19.5 13t-30 6t-38 3h-51.5h-53t-39.5 -2.5t-29.5 -4t-18.5 -8.5t-12.5 -12t-6 -19t-3 -24.5v-32.5q0 -45 16.5 -65t65.5 -35l284 -90q182 -58 258 -152t76 -254q0 -245 -170 -350q-83 -52 -196 -65v-136h-359v138q-179 23 -278 141 q-45 55 -63.5 120.5t-27.5 221.5z" />
<glyph unicode="%" horiz-adv-x="1931" d="M162 1008q0 110 9 166t32 94q37 60 101.5 83t195.5 23t195.5 -23t101.5 -83q23 -38 32 -94t9 -166q0 -99 -6 -150t-23 -86q-34 -75 -100 -103t-209 -28t-209.5 28t-100.5 103q-17 34 -22.5 84.5t-5.5 151.5zM395 1008q0 -151 17 -168q15 -15 88 -15t88 15q16 16 16 168 q0 154 -16 170q-12 12 -88 12t-88 -12q-17 -17 -17 -170zM424 0l819 1366h262l-819 -1366h-262zM1094 358q0 110 9 166t32 94q37 60 102 83.5t195 23.5t195 -23.5t102 -83.5q23 -38 31.5 -93.5t8.5 -166.5q0 -100 -5.5 -150.5t-22.5 -84.5q-34 -75 -100 -103t-209 -28 t-209.5 28t-100.5 103q-17 34 -22.5 84.5t-5.5 150.5zM1327 358q0 -152 16 -168q14 -14 89 -14q74 0 88 14q16 16 16 168q0 154 -16 170q-13 13 -88 13q-76 0 -89 -13q-16 -16 -16 -170z" />
<glyph unicode="&#x26;" horiz-adv-x="1343" d="M80 412q0 102 33.5 172t105.5 123v4q-68 54 -95.5 113t-27.5 151q0 229 146 342q56 41 141 59.5t225 18.5q157 0 253 -27t153 -86q53 -56 73 -127.5t21 -216.5h-354q-1 90 -5.5 116.5t-17.5 32.5q-30 13 -123 13q-133 0 -147 -23q-12 -21 -12 -133q0 -70 12.5 -82 t89.5 -12h803v-283h-162v-127q0 -136 -23 -216.5t-79 -139.5q-63 -66 -164 -89.5t-314 -23.5q-175 0 -261 22t-150 83q-121 115 -121 336zM440 406q0 -55 6 -79.5t21 -33.5q37 -21 176 -21q151 0 172 27q19 25 19 141v127h-279q-92 0 -102 -16q-13 -19 -13 -145z" />
<glyph unicode="'" horiz-adv-x="464" d="M78 1434h309l-25 -459h-258z" />
<glyph unicode="(" horiz-adv-x="782" d="M96 45v1051q0 246 98.5 353t325.5 107l137 -4v-307l-112 4q-68 0 -86 -24q-6 -10 -7 -26.5t-1 -92.5v-1071q0 -79 1.5 -95t10.5 -26q16 -23 82 -23l112 5v-308l-137 -4q-227 0 -325.5 107.5t-98.5 353.5z" />
<glyph unicode=")" horiz-adv-x="782" d="M125 -104l113 -5q68 0 84 25q7 10 8.5 26.5t1.5 92.5v1071q0 77 -2 93.5t-11 27.5q-17 22 -81 22l-113 -4v307l137 4q227 0 325.5 -107t98.5 -353v-1051q0 -246 -98.5 -353.5t-325.5 -107.5l-137 4v308z" />
<glyph unicode="*" horiz-adv-x="923" d="M96 1100l74 213l180 -66v187h221v-187l179 66l75 -213l-188 -70l111 -158l-177 -133l-110 162l-121 -160l-176 131l117 158z" />
<glyph unicode="+" d="M106 547v293h404v407h303v-407h404v-293h-404v-410h-303v410h-404z" />
<glyph unicode="," horiz-adv-x="538" d="M16 -266l111 467h362l-204 -467h-269z" />
<glyph unicode="-" horiz-adv-x="669" d="M31 344v322h608v-322h-608z" />
<glyph unicode="." horiz-adv-x="526" d="M90 0v311h346v-311h-346z" />
<glyph unicode="/" horiz-adv-x="1280" d="M-45 -293l1010 1727h360l-1010 -1727h-360z" />
<glyph unicode="0" d="M80 682q0 244 26.5 385t106.5 213q72 66 167 90.5t279 24.5q185 0 281.5 -24.5t169.5 -90.5q80 -74 105.5 -213t25.5 -385q0 -245 -25.5 -383.5t-105.5 -212.5q-73 -66 -169.5 -90.5t-281.5 -24.5q-184 0 -279 24.5t-167 90.5q-80 72 -106.5 212t-26.5 384zM444 682 q0 -323 37 -369q17 -21 52 -27.5t126 -6.5q93 0 128.5 6.5t52.5 27.5q37 46 37 369q0 325 -37 371q-17 21 -52.5 27.5t-128.5 6.5q-91 0 -126 -6.5t-52 -27.5q-37 -46 -37 -371z" />
<glyph unicode="1" d="M201 0v305h313v684l-313 -112v340l399 149h274v-1061h265v-305h-938z" />
<glyph unicode="2" d="M123 0v231q0 155 25 232t96 139q36 32 82 57t137 64l270 115q67 28 91 57t24 82q0 34 -0.5 50t-7 32.5t-12.5 21.5t-27.5 10t-40.5 5h-62q-91 0 -122 -4.5t-46 -16.5q-16 -13 -22.5 -51t-9.5 -147h-353q0 55 0.5 86.5t4 80t10.5 78.5t20.5 68t32.5 63.5t48 50.5t67 42 q109 49 352 49q138 0 218 -14.5t140 -51.5q82 -51 125 -142t43 -212q0 -282 -323 -422l-277 -115q-66 -29 -94.5 -54t-28.5 -54v-25h731v-305h-1091z" />
<glyph unicode="3" d="M100 440h359l2 -63q2 -46 10.5 -66t30.5 -26q50 -13 153 -13h53.5t41.5 2t33.5 2t24 6.5t18.5 9t11 15t8.5 19.5t2.5 27.5t2 33.5v43v57t-5 36t-8.5 24t-20.5 10t-30.5 6h-48.5h-266v289h270h43.5t28 5.5t19 10t8 23.5t4.5 35v55q0 32 -0.5 49t-8.5 32t-15.5 20.5t-32 10 t-46 5t-69.5 0.5q-131 0 -158 -15q-17 -10 -25 -40t-12 -119h-354q3 151 24.5 224.5t79.5 131.5q62 60 169 87.5t280 27.5q150 0 238 -20t145 -66q137 -113 137 -334q0 -92 -27.5 -151t-95.5 -113v-4q72 -51 105.5 -121.5t33.5 -173.5q0 -222 -120 -336q-64 -61 -150 -83 t-260 -22q-215 0 -315.5 23.5t-163.5 89.5q-64 68 -84.5 151t-18.5 205z" />
<glyph unicode="4" d="M72 217v301l610 848h414v-852h172v-297h-170v-217h-361v217h-665zM489 514h261v432h-2l-259 -411v-21z" />
<glyph unicode="5" d="M98 430h357q2 -63 7 -90t21 -41q18 -15 58.5 -20t130.5 -5q130 0 155 25q29 29 29 168q0 115 -27 133q-29 18 -157 18q-105 0 -166.5 -11t-124.5 -40l-21 -10l-213 66v743h1010v-305h-653v-172h4q55 23 93 29t130 6q267 0 377.5 -103.5t110.5 -353.5q0 -143 -27 -236 t-92.5 -152t-167 -83.5t-258.5 -24.5q-214 0 -312.5 24t-162.5 93q-55 58 -77.5 132t-23.5 210z" />
<glyph unicode="6" d="M106 627q0 117 2 190.5t9.5 152t22.5 130t40 99t62 85.5q60 62 149 86.5t258 24.5q202 0 297 -23.5t156 -89.5q73 -76 92 -205q6 -36 8 -110h-352q-3 70 -10.5 90t-32.5 28q-42 11 -170 11q-108 0 -139 -27q-27 -25 -31 -217h4q47 29 97.5 40t131.5 11q146 0 234.5 -19 t146.5 -63q71 -54 103.5 -143.5t32.5 -231.5q0 -150 -36 -244t-114 -153q-61 -44 -152 -61t-266 -17q-128 0 -206 14.5t-136 49.5q-52 31 -88.5 74t-58.5 92t-34 119t-16 139t-4 168zM465 580q3 -131 9.5 -192t23.5 -85q14 -19 47.5 -24t116.5 -5q92 0 129.5 5.5t50.5 23.5 q22 31 22 164q0 69 -6.5 96t-26.5 33q-25 10 -153 10q-96 0 -133.5 -4t-79.5 -22z" />
<glyph unicode="7" d="M98 1057v309h1116v-258l-645 -1108h-419l620 1057h-672z" />
<glyph unicode="8" d="M96 406q0 105 35 178.5t109 124.5v2q-63 50 -92 114.5t-29 157.5q0 123 43.5 213t126.5 137q109 62 370 62q264 0 373 -62q83 -47 126.5 -137t43.5 -213q0 -92 -29.5 -157.5t-93.5 -114.5v-2q146 -101 146 -303q0 -265 -183 -373q-112 -62 -383 -62t-383 62 q-180 106 -180 373zM454.5 379q-0.5 -12 2.5 -32t3 -26t8 -18t11.5 -14.5t19.5 -8.5t25 -6t35.5 -2t43.5 -2h56h87.5t55.5 6.5t37.5 11.5t15.5 27.5t9 40.5v64q0 107 -25.5 125t-179.5 18h-68.5t-49.5 -3t-37.5 -4t-23 -11.5t-16 -16t-6 -26.5t-4 -34.5t0.5 -47.5 q0 -29 -0.5 -41zM464.5 929q-0.5 -12 4 -30t6 -23t15 -14t21.5 -10t36 -3.5t47 -2.5h65h53.5t41.5 1.5t33.5 1.5t24 5t18.5 7t11 12t8.5 15.5t2.5 21.5t2 26.5v34.5v35.5t-2 27t-2.5 22.5t-8.5 16t-11 12t-18.5 7.5t-24 5.5t-33.5 1.5t-41.5 1.5h-53.5h-65t-47 -2.5 t-36 -3.5t-21.5 -10.5t-15 -14.5t-6 -24t-4 -31t0.5 -43q0 -30 -0.5 -42z" />
<glyph unicode="9" d="M102 414h357q5 -91 16 -113q9 -19 39 -23t154 -4q93 0 122.5 9.5t38.5 42.5q18 74 23 196h-4q-47 -29 -90 -39t-121 -10q-159 0 -248 18t-149 64q-71 54 -103.5 143.5t-32.5 231.5q0 148 35.5 242t112.5 153q53 39 146 54.5t274 15.5q168 0 258 -27t153 -96 q78 -86 103.5 -202.5t25.5 -391.5q0 -244 -19.5 -358t-74.5 -193q-63 -89 -159 -122.5t-291 -33.5q-204 0 -303 23t-160 84q-54 57 -78 131.5t-25 204.5zM459 924q0 -78 4.5 -106t21.5 -40q20 -14 172 -14q78 0 116 6.5t79 26.5q0 172 -14 233q-9 34 -27 47q-22 17 -127 17 q-169 0 -192 -13q-33 -18 -33 -157z" />
<glyph unicode=":" horiz-adv-x="526" d="M90 0v311h346v-311h-346zM90 705v309h346v-309h-346z" />
<glyph unicode=";" horiz-adv-x="538" d="M16 -266l111 467h362l-204 -467h-269zM127 705v309h346v-309h-346z" />
<glyph unicode="&#x3c;" d="M133 575v234l1057 489v-321l-637 -285l637 -282v-324z" />
<glyph unicode="=" d="M106 344v295h1111v-295h-1111zM106 748v292h1111v-292h-1111z" />
<glyph unicode="&#x3e;" d="M133 86v324l637 282l-637 285v321l1057 -489v-234z" />
<glyph unicode="?" horiz-adv-x="1085" d="M43 877q2 150 9.5 208t35.5 119q34 73 88.5 113.5t145 59t237.5 18.5q234 0 342 -60q80 -46 123 -131.5t43 -199.5q0 -131 -72 -224q-38 -53 -82.5 -84.5t-154.5 -83.5l-78 -39q-19 -9 -24 -22t-5 -51v-123h-360v123q0 135 46.5 214.5t151.5 123.5l123 51q57 25 76 49 t19 70q0 26 -3 40t-9 24.5t-25 14.5t-42.5 5.5t-68.5 1.5t-68 -0.5t-45 -6.5t-30 -13t-14.5 -26t-7.5 -38.5t-1 -57.5v-75h-350zM299 0v311h344v-311h-344z" />
<glyph unicode="@" horiz-adv-x="1761" d="M104 506q0 245 22.5 379t98.5 217q83 90 221 122.5t392 32.5h119.5t108.5 -2.5t108 -6.5t92 -12t90 -20t73 -30.5t68 -42.5q59 -47 92.5 -105.5t50.5 -160t17 -263.5q0 -290 -90 -415t-299 -125q-131 0 -213 55q-118 -55 -262 -55q-173 0 -252.5 64t-79.5 204 q0 145 26 279.5t66 191.5q81 123 299 123q58 0 95 -10t81 -39l4 35h258l-57 -598q0 -17 9.5 -24t35.5 -7q44 0 66 24t31 82.5t9 175.5q0 318 -43 373q-24 30 -68.5 42.5t-143 17t-326.5 4.5q-116 0 -180 -3.5t-108.5 -15.5t-63 -30.5t-31.5 -53.5q-17 -46 -30 -166t-13 -237 q0 -136 14.5 -258t36.5 -168q23 -49 97 -66.5t259 -17.5q169 0 260 9.5t277 47.5l43 -248q-157 -32 -280.5 -42.5t-290.5 -10.5q-262 0 -401.5 47.5t-205.5 157.5q-47 79 -64.5 196.5t-17.5 352.5zM733 350q0 -32 10.5 -42.5t44.5 -10.5q120 0 181 37l32 350q-58 31 -145 31 q-57 0 -70 -12.5t-24 -77.5q-29 -174 -29 -275z" />
<glyph unicode="A" horiz-adv-x="1337" d="M-20 0l487 1366h401l490 -1366h-383l-68 209h-477l-68 -209h-382zM530 518h275l-133 410h-6z" />
<glyph unicode="B" horiz-adv-x="1327" d="M125 0v1366h522q174 0 272.5 -23.5t161.5 -80.5q55 -49 87 -124t32 -153q0 -85 -29.5 -147t-93.5 -111v-6q82 -44 126 -127t44 -193q0 -97 -35.5 -177.5t-101.5 -131.5q-63 -50 -159.5 -71t-260.5 -21h-565zM475 840h166q91 0 128 2t56 12t23 30t4 70q0 52 -4.5 73.5 t-22.5 31.5q-19 10 -56 12t-128 2h-166v-233zM477 299h201q91 0 128 2t56 12q18 10 22.5 32.5t4.5 78.5q0 39 -1 55.5t-7 33t-19 24.5q-19 11 -56 13.5t-128 2.5h-201v-254z" />
<glyph unicode="C" horiz-adv-x="1339" d="M104 682q0 89 1 136.5t7.5 128.5t19 131t37.5 104.5t62 89.5q44 43 96 69t118.5 37t117.5 14t137 3q79 0 129 -3t107.5 -14t101.5 -36t82 -64q38 -38 63.5 -84.5t38.5 -103.5t18 -104t9 -116h-360q0 146 -29 183q-17 23 -47.5 28.5t-107.5 5.5q-101 0 -140 -6.5 t-57 -27.5q-39 -48 -39 -371q0 -321 39 -369q18 -21 57 -27.5t140 -6.5q80 0 111 5.5t50 28.5q29 35 29 195h362q-8 -191 -46 -292.5t-130 -164.5q-71 -50 -150.5 -65t-230.5 -15q-86 0 -137 3t-117.5 14t-118.5 37t-96 69q-31 29 -53.5 68t-36 91.5t-21.5 96t-11.5 111.5 t-4 107.5t-0.5 113.5z" />
<glyph unicode="D" horiz-adv-x="1388" d="M125 0v1366h590q160 0 262.5 -32t171.5 -103q111 -120 131 -322q6 -49 6 -227t-6 -227q-24 -210 -131 -320q-67 -72 -169.5 -103.5t-264.5 -31.5h-590zM485 305h213q79 0 119 7.5t62 31.5q29 32 37 103.5t8 234.5q0 164 -8 236t-37 104q-22 24 -62 31.5t-119 7.5h-213 v-756z" />
<glyph unicode="E" horiz-adv-x="1167" d="M125 0v1366h981v-303h-625v-219h568v-301h-568v-238h641v-305h-997z" />
<glyph unicode="F" horiz-adv-x="1105" d="M125 0v1366h960v-305h-600v-258h555v-301h-555v-502h-360z" />
<glyph unicode="G" horiz-adv-x="1378" d="M104 682q0 89 1 136.5t7.5 128.5t19 131t37.5 104.5t62 89.5q44 43 96 69t120 37t120 14t142 3q167 0 258.5 -25.5t160.5 -85.5q52 -47 87.5 -143t41.5 -236h-358q0 115 -27 148q-19 23 -49.5 28.5t-109.5 5.5q-104 0 -143.5 -6.5t-59.5 -29.5q-41 -47 -41 -369 q0 -324 41 -371q18 -20 58.5 -26t144.5 -6q90 0 125 5t55 25q33 33 33 176h-226v293h582v-178q0 -213 -28.5 -323t-102.5 -187q-66 -67 -161.5 -93t-280.5 -26q-87 0 -138.5 3t-119 14t-120.5 37t-98 69q-27 25 -48 60.5t-34.5 69.5t-22.5 84.5t-14 87t-7 96.5t-2.5 93.5 t-0.5 96.5z" />
<glyph unicode="H" horiz-adv-x="1433" d="M125 0v1366h360v-520h463v520h361v-1366h-361v535h-463v-535h-360z" />
<glyph unicode="I" horiz-adv-x="610" d="M125 0v1366h360v-1366h-360z" />
<glyph unicode="J" horiz-adv-x="878" d="M2 16l49 301q164 -38 238 -38q66 0 87 32.5t21 132.5v922h361v-911q0 -484 -469 -484q-120 0 -287 45z" />
<glyph unicode="K" horiz-adv-x="1306" d="M125 0v1366h360v-494l398 494h434l-483 -590l497 -776h-426l-315 481l-105 -127v-354h-360z" />
<glyph unicode="L" horiz-adv-x="1144" d="M125 0v1366h360v-1061h623v-305h-983z" />
<glyph unicode="M" horiz-adv-x="1761" d="M125 0v1366h391l361 -754h8l360 754h391v-1366h-358v786l-88 -237l-160 -352h-299l-160 352l-88 237v-786h-358z" />
<glyph unicode="N" horiz-adv-x="1449" d="M125 0v1366h379l364 -602l99 -205v807h358v-1366h-379l-364 602l-99 205v-807h-358z" />
<glyph unicode="O" horiz-adv-x="1417" d="M104 682q0 244 28 384t112 214q75 66 174 90.5t291 24.5t291 -24.5t174 -90.5q84 -74 111.5 -213.5t27.5 -384.5q0 -244 -27.5 -383t-111.5 -213q-75 -66 -174 -90.5t-291 -24.5t-291 24.5t-174 90.5q-84 74 -112 213.5t-28 382.5zM469 682q0 -322 41 -369 q18 -21 57.5 -27.5t141.5 -6.5t141 6.5t57 27.5q41 47 41 369q0 324 -41 371q-18 21 -57 27.5t-141 6.5t-141.5 -6.5t-57.5 -27.5q-41 -47 -41 -371z" />
<glyph unicode="P" horiz-adv-x="1275" d="M125 0v1366h532q179 0 282 -30t169 -101q109 -121 109 -354q0 -257 -134 -379q-67 -61 -166 -86t-272 -25h-160v-391h-360zM481 698h152q92 0 135.5 3.5t62.5 17.5t23 46.5t4 111.5q0 78 -4 110t-23 49q-13 11 -45 16t-61 6t-92 1h-152v-361z" />
<glyph unicode="Q" horiz-adv-x="1417" d="M104 682q0 244 28 384t112 214q75 66 174 90.5t291 24.5t291 -24.5t174 -90.5q84 -74 111.5 -213.5t27.5 -384.5q0 -244 -27.5 -383t-111.5 -213q-52 -41 -80 -55l166 -236h-414l-121 176h-16h-15q-179 0 -274 23q-100 25 -176 92q-84 74 -112 213.5t-28 382.5zM469 682 q0 -322 41 -369q18 -21 57.5 -27.5t141.5 -6.5t141 6.5t57 27.5q41 47 41 369q0 324 -41 371q-18 21 -57 27.5t-141 6.5t-141.5 -6.5t-57.5 -27.5q-41 -47 -41 -371z" />
<glyph unicode="R" horiz-adv-x="1316" d="M125 0v1366h532q179 0 280.5 -30t166.5 -101q110 -119 110 -350q0 -182 -65 -279q-44 -64 -127 -117l260 -489h-397l-215 416h-185v-416h-360zM481 723h152q65 0 94.5 0.5t60 4.5t43.5 13t19 30.5t7 43.5t1 74q0 73 -4 103t-23 46q-28 21 -198 21h-152v-336z" />
<glyph unicode="S" horiz-adv-x="1210" d="M53 467h363q3 -74 10 -110.5t23 -55.5q19 -19 52 -23t115 -4q117 0 144 19q16 11 21 32.5t5 65.5q0 54 -17.5 75t-78.5 40l-284 92q-157 50 -232.5 146t-75.5 247q0 205 121.5 304.5t372.5 99.5q175 0 282.5 -35t172.5 -111q44 -52 61 -113t29 -214h-359q-3 80 -11 114 t-32 47q-25 13 -127 13h-53t-39.5 -2.5t-29.5 -4t-18.5 -8.5t-12.5 -12t-6 -19t-3 -24.5v-32.5q0 -45 16.5 -65t65.5 -35l285 -90q182 -58 258 -152t76 -254q0 -245 -170 -350q-64 -40 -147.5 -58t-215.5 -18q-189 0 -296.5 35.5t-174.5 118.5q-45 55 -63 120.5t-27 221.5z " />
<glyph unicode="T" horiz-adv-x="1198" d="M16 1061v305h1166v-305h-402v-1061h-360v1061h-404z" />
<glyph unicode="U" horiz-adv-x="1425" d="M123 467v899h360v-899q0 -128 21 -154q15 -21 53.5 -27.5t155.5 -6.5t155.5 6.5t53.5 27.5q12 15 16 47t4 107v899h361v-899q0 -132 -22.5 -215.5t-76.5 -145.5q-64 -72 -176.5 -103.5t-314.5 -31.5q-203 0 -315.5 31.5t-176.5 103.5q-54 62 -76 145.5t-22 215.5z" />
<glyph unicode="V" horiz-adv-x="1306" d="M-20 1366h385l286 -901h6l287 901h385l-467 -1366h-416z" />
<glyph unicode="W" horiz-adv-x="1914" d="M-18 1366h380l185 -901h6l240 874h329l240 -874h6l184 901h381l-366 -1366h-406l-200 711h-7l-200 -711h-406z" />
<glyph unicode="X" horiz-adv-x="1284" d="M-10 0l444 702l-414 664h416l207 -385l207 385h416l-414 -664l444 -702h-424l-229 424l-229 -424h-424z" />
<glyph unicode="Y" horiz-adv-x="1280" d="M-20 1366h389l268 -575h8l268 575h390l-482 -920v-446h-360v446z" />
<glyph unicode="Z" horiz-adv-x="1232" d="M45 0v266l657 795h-612v305h1075v-264l-653 -795h674v-307h-1141z" />
<glyph unicode="[" horiz-adv-x="786" d="M98 -414v1968h543v-297h-188v-1374h188v-297h-543z" />
<glyph unicode="\" horiz-adv-x="1280" d="M-45 1434h360l1010 -1727h-360z" />
<glyph unicode="]" horiz-adv-x="786" d="M145 -117h189v1374h-189v297h543v-1968h-543v297z" />
<glyph unicode="^" horiz-adv-x="1243" d="M16 586l449 784h315l447 -784h-346l-260 452l-261 -452h-344z" />
<glyph unicode="_" horiz-adv-x="1183" d="M-6 -53h1194v-297h-1194v297z" />
<glyph unicode="`" horiz-adv-x="1091" d="M158 1399h374l168 -307h-311z" />
<glyph unicode="a" horiz-adv-x="1103" d="M66 328q0 183 137 262q53 30 125.5 42.5t191.5 12.5q74 0 104.5 -3.5t63.5 -16.5v43q-1 37 -3.5 53t-18.5 28.5t-42 14.5t-81 2q-56 0 -79.5 -6t-30 -17t-9.5 -41l-2 -18h-324q15 198 115 278t338 80q260 0 361.5 -100t101.5 -350v-592h-320v57q-61 -47 -116.5 -66.5 t-133.5 -19.5q-184 0 -281 92.5t-97 264.5zM393 336q0 -56 16 -71t80 -15q62 0 104 10.5t99 36.5v117h-172q-91 0 -109 -11t-18 -67z" />
<glyph unicode="b" horiz-adv-x="1132" d="M104 0v1434h330v-478q66 44 124.5 65t133.5 21q198 0 291 -127q42 -56 61 -152.5t19 -256.5q0 -306 -80 -414q-87 -121 -289 -121q-80 0 -139 19.5t-123 66.5v-57h-328zM436 344q74 -90 178 -90q61 0 86 25q15 14 20 57.5t5 169.5q0 124 -4.5 168.5t-18.5 58.5 q-27 27 -77 27q-116 0 -189 -86v-330z" />
<glyph unicode="c" horiz-adv-x="1056" d="M70 506q0 160 21 259.5t76.5 163t144.5 88.5t231 25q144 0 230 -30t140 -94q41 -50 58.5 -113.5t21.5 -186.5h-327l-2 37q-6 73 -23 89t-94 16q-64 0 -88.5 -8t-34.5 -27q-14 -32 -14 -223q0 -185 14 -217q9 -18 34 -24.5t93 -6.5h49t31.5 5.5t20.5 9.5t10 21t5 30.5 t1 46.5v34h333q0 -129 -16.5 -194.5t-60.5 -116.5q-53 -62 -143 -90.5t-238 -28.5q-143 0 -231 24t-144 87.5t-77 163t-21 260.5z" />
<glyph unicode="d" horiz-adv-x="1134" d="M70 506q0 160 19 256.5t61 152.5q96 127 292 127q75 0 133.5 -21t124.5 -65v478h330v-1434h-328v57q-64 -47 -123 -66.5t-139 -19.5q-200 0 -290 121q-80 108 -80 414zM408 506q0 -128 4.5 -171t19.5 -56q29 -25 88 -25q104 0 178 90v330q-73 86 -188 86q-53 0 -80 -27 q-14 -14 -18 -57.5t-4 -169.5z" />
<glyph unicode="e" horiz-adv-x="1083" d="M70 504q0 160 21 259.5t76.5 164t144 89.5t229.5 25q140 0 228 -25t143 -88t76.5 -160t21.5 -251q0 -57 -2 -112h-605q1 -41 2 -63t7 -42.5t13 -28t24.5 -14t36.5 -7.5t55 -1q95 0 115 13.5t20 78.5h334q-6 -98 -23.5 -155.5t-54.5 -100.5q-53 -59 -143.5 -87t-237.5 -28 q-145 0 -235 24t-146.5 87t-78 162.5t-21.5 259.5zM403 614h285q-1 44 -2 63t-7 41.5t-13 29.5t-25.5 14.5t-40 8.5t-59.5 1q-27 0 -43.5 -0.5t-32.5 -4t-24 -6t-16 -14t-10.5 -18.5t-5.5 -28.5t-4 -37t-2 -49.5z" />
<glyph unicode="f" horiz-adv-x="667" d="M0 735v279h131v84q0 364 371 364q66 0 211 -22l-43 -271q-99 13 -150 13q-34 0 -44.5 -14.5t-10.5 -57.5v-96h219v-279h-219v-735h-334v735h-131z" />
<glyph unicode="g" horiz-adv-x="1128" d="M70 508q0 161 19 257.5t61 152.5q94 124 292 124q146 0 260 -86v58h328v-1004q0 -239 -110.5 -342.5t-366.5 -103.5q-209 0 -430 74l47 290q132 -49 213.5 -65.5t177.5 -16.5q88 0 112.5 26t24.5 120v65q-61 -47 -121 -66.5t-137 -19.5q-204 0 -290 119q-80 113 -80 418z M408 508q0 -129 4.5 -173t19.5 -59q22 -22 88 -22q57 0 97 21t81 69v330q-76 86 -188 86q-55 0 -78 -27q-14 -16 -19 -59.5t-5 -165.5z" />
<glyph unicode="h" horiz-adv-x="1144" d="M104 0v1434h330v-478q63 47 119.5 66.5t134.5 19.5q194 0 285 -120q82 -101 82 -332v-590h-334v606q0 101 -18 127.5t-87 26.5q-58 0 -99.5 -20t-78.5 -66v-674h-334z" />
<glyph unicode="i" horiz-adv-x="534" d="M98 1092v274h338v-274h-338zM100 0v1014h334v-1014h-334z" />
<glyph unicode="j" horiz-adv-x="530" d="M-98 -414l43 281q72 -21 106 -21q27 0 36 12t9 50v1106h334v-1092q0 -184 -84.5 -271t-265.5 -87q-88 0 -178 22zM94 1092v274h338v-274h-338z" />
<glyph unicode="k" horiz-adv-x="1112" d="M104 0v1434h330v-689l279 269h420l-433 -420l451 -594h-414l-266 373l-33 -31v-342h-334z" />
<glyph unicode="l" horiz-adv-x="542" d="M104 0v1434h334v-1434h-334z" />
<glyph unicode="m" horiz-adv-x="1724" d="M98 0v1014h326v-62q62 50 117.5 70t134.5 20q171 0 264 -106q77 59 145 82.5t164 23.5q199 0 292 -109.5t93 -342.5v-590h-334v606q0 97 -19.5 125.5t-88.5 28.5q-56 0 -90 -18t-70 -66q2 -27 2 -86v-590h-332v606q0 98 -17.5 126t-78.5 28q-58 0 -98.5 -20.5 t-75.5 -67.5v-672h-334z" />
<glyph unicode="n" horiz-adv-x="1140" d="M98 0v1014h326v-62q68 48 124.5 69t135.5 21q91 0 164.5 -33t118.5 -91q84 -106 84 -328v-590h-334v606q0 96 -19 125t-86 29q-58 0 -99.5 -21.5t-80.5 -66.5v-672h-334z" />
<glyph unicode="o" horiz-adv-x="1112" d="M72 506q0 162 21.5 261.5t78.5 163t147.5 87.5t237.5 24t237.5 -24t147.5 -87.5t78.5 -163t21.5 -261.5q0 -130 -14 -217.5t-46 -151.5t-89.5 -99t-137.5 -51t-198 -16q-97 0 -167.5 10t-126.5 35.5t-91 64.5t-58 100t-32.5 139t-9.5 186zM412 506q0 -140 4.5 -181.5 t23.5 -54.5q23 -16 117 -16t117 16q19 14 23.5 57t4.5 179t-5 178t-23 57q-24 19 -117 19t-117 -19q-20 -17 -24 -56t-4 -179z" />
<glyph unicode="p" horiz-adv-x="1126" d="M98 -406v1420h326v-58q68 45 126.5 65.5t135.5 20.5q198 0 291 -127q42 -56 61 -152.5t19 -256.5q0 -306 -80 -414q-87 -121 -289 -121q-82 0 -138 19.5t-120 66.5v-463h-332zM430 344q74 -90 178 -90q61 0 86 25q15 14 20 57.5t5 169.5q0 124 -4.5 168.5t-18.5 58.5 q-27 27 -78 27q-115 0 -188 -86v-330z" />
<glyph unicode="q" horiz-adv-x="1128" d="M70 506q0 160 19 256.5t61 152.5q96 127 292 127q77 0 135 -20.5t125 -65.5v58h328v-1420h-332v463q-66 -48 -121.5 -67t-138.5 -19q-198 0 -288 121q-80 108 -80 414zM408 506q0 -128 4.5 -171t19.5 -56q29 -25 88 -25q104 0 178 90v330q-73 86 -188 86q-53 0 -80 -27 q-14 -14 -18 -57.5t-4 -169.5z" />
<glyph unicode="r" horiz-adv-x="710" d="M98 0v1014h326v-72q53 48 94 67t98 19q47 0 107 -14v-279q-92 10 -129 10q-51 0 -86.5 -20.5t-75.5 -69.5v-655h-334z" />
<glyph unicode="s" horiz-adv-x="1032" d="M57 362h334q1 -34 1 -47.5t5 -30.5t9 -21t19.5 -9.5t30 -5.5h46.5q64 0 91 4.5t34.5 14t7.5 34.5q0 24 -11.5 37t-41.5 22l-228 64q-262 73 -262 303q0 315 418 315q137 0 224 -28.5t143 -87.5q38 -40 53.5 -93t23.5 -167h-325q0 44 -1.5 61.5t-14.5 32t-34 16.5t-67 2 q-62 0 -78 -10t-16 -41q0 -22 8.5 -33.5t30.5 -17.5l227 -66q149 -41 215 -114.5t66 -196.5q0 -191 -146 -272q-106 -56 -295 -56q-182 0 -281.5 41.5t-144.5 132.5q-33 64 -41 217z" />
<glyph unicode="t" horiz-adv-x="731" d="M-12 735v279h131v235h334v-235h225v-279h-225v-413q0 -37 12 -51.5t47 -14.5q39 0 178 29l45 -275q-122 -27 -160 -33t-86 -6q-184 0 -277 91.5t-93 269.5v403h-131z" />
<glyph unicode="u" horiz-adv-x="1128" d="M90 416v598h334v-615q0 -91 15.5 -118t68.5 -27q63 0 107.5 21t82.5 69v670h332v-1014h-319v57q-62 -50 -116.5 -68t-137.5 -18q-189 0 -278 108t-89 337z" />
<glyph unicode="v" horiz-adv-x="1042" d="M-25 1014h363l180 -635h4l183 635h362l-360 -1014h-371z" />
<glyph unicode="w" horiz-adv-x="1468" d="M-25 1014h357l94 -625h6l129 598h344l131 -598h6l95 625h356l-270 -1014h-361l-127 588h-2l-127 -588h-360z" />
<glyph unicode="x" horiz-adv-x="1040" d="M-29 0l361 532l-322 482h393l115 -242l121 242h393l-325 -482l362 -532h-397l-154 289l-147 -289h-400z" />
<glyph unicode="y" horiz-adv-x="1021" d="M-25 1014h361l184 -635h6l162 635h356l-358 -1123q-61 -194 -139 -260.5t-242 -66.5q-86 0 -194 24l41 269q106 -13 141 -13q34 0 49 21t43 104l10 31h-51z" />
<glyph unicode="z" horiz-adv-x="894" d="M18 0v236l431 501h-404v277h834v-228l-435 -507h445v-279h-871z" />
<glyph unicode="{" horiz-adv-x="862" d="M63 436v266q51 14 63 18t24 13q28 22 28 101v262q0 246 98 353t324 107l137 -4v-307l-112 4q-66 0 -84 -24q-8 -11 -9.5 -28t-1.5 -91v-315q0 -77 -26.5 -130t-85.5 -92q60 -39 86 -91.5t26 -129.5v-315q0 -75 2 -92.5t11 -28.5q18 -21 84 -21l110 3v-308l-137 -2 q-226 0 -324 107t-98 354v260q0 80 -33 103q-16 11 -82 28z" />
<glyph unicode="|" horiz-adv-x="1159" d="M403 -406v1840h351v-1840h-351z" />
<glyph unicode="}" horiz-adv-x="862" d="M125 -106l113 -3q70 0 84 23q7 12 8.5 27.5t1.5 91.5v315q0 77 26 129.5t86 91.5q-59 39 -85.5 92t-26.5 130v315q0 77 -2 93.5t-11 27.5q-19 22 -81 22l-113 -4v307l137 4q227 0 325.5 -107t98.5 -353v-262q0 -82 33 -103q9 -6 13.5 -8.5t20 -7.5t46.5 -13v-266 q-48 -12 -61 -16.5t-23 -13.5q-29 -23 -29 -101v-260q0 -247 -98.5 -354t-325.5 -107l-137 2v308z" />
<glyph unicode="~" d="M66 1217q4 10 11.5 27t9.5 22.5t7 17t6.5 14.5l5.5 11l5.5 11t5.5 10.5t7.5 13t8.5 14.5q65 109 140 160t173 51q93 0 267 -82q79 -37 110 -48.5t58 -11.5q38 0 66 24.5t59 84.5l36 63l215 -126q-41 -92 -56.5 -121.5t-43.5 -67.5q-56 -74 -136 -117t-165 -43 q-47 0 -133 27q-28 10 -184 82q-70 31 -105 31q-62 0 -125 -125l-30 -60z" />
<glyph unicode="&#xa1;" horiz-adv-x="616" d="M125 -350l33 987h301l33 -987h-367zM135 702v312h346v-312h-346z" />
<glyph unicode="&#xa2;" d="M197 667v17q1 62 2 90t6.5 88.5t16 97t32 80.5t51.5 74q70 70 203 88v164h348v-168q119 -26 184 -102q41 -50 58.5 -113t21.5 -186h-327l-2 37q-6 70 -21.5 83t-95.5 13q-68 0 -91 -5t-32 -22q-14 -32 -14 -223q0 -185 14 -217q9 -17 32.5 -22t94.5 -5h49t31.5 4.5 t21 8.5t9 20t5.5 29.5t1 46.5v35h333q0 -129 -16.5 -195t-60.5 -117q-68 -76 -195 -100v-168h-348v164q-136 18 -205 90q-36 36 -59 85.5t-32 110.5t-11.5 106.5t-3.5 110.5z" />
<glyph unicode="&#xa3;" d="M59 0v283q88 7 107 26q14 14 18 56.5t4 138.5v35h-129v303h129q4 178 27.5 267t85.5 163q59 68 149.5 95.5t256.5 27.5q173 0 258.5 -26.5t150.5 -98.5q52 -57 76 -137.5t35 -229.5h-355q-5 83 -10.5 117.5t-19.5 48.5q-13 11 -36.5 14.5t-80.5 3.5q-86 0 -114.5 -4.5 t-41.5 -25.5q-12 -18 -15 -59.5t-3 -155.5h369v-303h-371v-33q0 -104 -27 -201h746v-305h-1209z" />
<glyph unicode="&#xa4;" d="M-37 1165l207 209l205 -205q134 80 284 80q153 0 283 -78l205 201l207 -207l-205 -200q80 -134 80 -283t-78 -279l205 -202l-205 -209l-205 205q-130 -78 -282 -78q-146 0 -285 78l-205 -205l-205 207l201 204q-78 130 -78 281q0 147 78 279zM401 684q0 -107 76 -183.5 t182 -76.5q107 0 183 76t76 182q0 109 -76 185.5t-183 76.5q-106 0 -182 -76.5t-76 -183.5z" />
<glyph unicode="&#xa5;" d="M0 1366h389l268 -575h9l268 575h389l-233 -448l135 2v-228h-254l-47 -90h301v-217h-383v-385h-361v385h-383v217h301l-47 90h-254v228l138 -2z" />
<glyph unicode="&#xa6;" horiz-adv-x="1159" d="M403 317h351v-723h-351v723zM403 711v723h351v-723h-351z" />
<glyph unicode="&#xa7;" horiz-adv-x="1302" d="M109 45h362l4 -84q3 -61 30 -78.5t118 -17.5q49 0 71.5 0.5t46.5 3.5t31.5 6.5t15.5 14.5t8.5 22.5t0.5 34.5q0 47 -14.5 62.5t-80.5 35.5l-284 92q-149 46 -229 154t-80 262q0 163 86 252q-52 82 -52 203q0 197 116 292t357 95q173 0 276.5 -33.5t166.5 -110.5 q43 -53 59.5 -116t28.5 -224h-359q-3 128 -12 153q-4 12 -10 17q-21 19 -135 19h-58t-37.5 -3.5t-25 -7t-11.5 -15.5t-6.5 -23t-0.5 -35q0 -56 12 -76t55 -33l266 -84q170 -56 251 -157t81 -260q0 -155 -67 -238q67 -78 67 -215q0 -226 -170 -324q-63 -35 -145 -50t-213 -15 q-177 0 -278 34t-161 113q-42 58 -60 124.5t-21 209.5zM430 551q0 -52 30 -91.5t81 -56.5l262 -81q18 32 18 79q0 60 -28.5 97t-90.5 57l-243 78q-29 -36 -29 -82z" />
<glyph unicode="&#xa8;" horiz-adv-x="1091" d="M201 1092v274h321v-274h-321zM569 1092v274h322v-274h-322z" />
<glyph unicode="&#xa9;" horiz-adv-x="1595" d="M98 682q0 190 94 351.5t255.5 255t351.5 93.5q143 0 272 -55.5t222.5 -149t148.5 -223t55 -272.5q0 -142 -55.5 -271t-149 -222.5t-222.5 -149t-271 -55.5q-190 0 -351.5 93.5t-255.5 254.5t-94 350zM291 682q0 -139 68 -257.5t185 -187.5t255 -69q137 0 253.5 69 t184.5 187.5t68 257.5q0 214 -148 365t-358 151q-138 0 -255 -68.5t-185 -187.5t-68 -260zM463 684q0 112 8.5 167.5t32.5 92.5q47 77 158 98q44 9 149 9q148 0 217.5 -40t91.5 -137q8 -38 15 -118h-230l-4 53q-3 34 -16 47q-10 10 -84 10q-56 0 -71 -2.5t-21 -11.5 q-15 -22 -15 -170q0 -146 15 -168q6 -9 21.5 -11.5t70.5 -2.5q76 0 86 10q12 12 18 70l2 36h234l-6 -63q-14 -134 -84.5 -186t-239.5 -52q-90 0 -134 6t-81 23q-58 25 -89 72.5t-40 124.5q-4 66 -4 143z" />
<glyph unicode="&#xaa;" horiz-adv-x="733" d="M86 1016q0 87 60 125.5t196 38.5h29q27 0 57 -9q-2 48 -9 56t-50 8q-47 0 -59 -2t-15 -8q-4 -8 -4 -29h-187q6 99 62 138.5t190 39.5q147 0 203.5 -49t56.5 -176v-305h-184v28q-55 -36 -131 -36q-104 0 -159.5 46t-55.5 134zM96 649v144h520v-144h-520zM270 1020 q0 -27 8 -33t44 -6q63 0 108 23v53h-88q-53 0 -62.5 -4.5t-9.5 -32.5z" />
<glyph unicode="&#xab;" horiz-adv-x="1120" d="M78 406v198l491 373v-326l-219 -145l219 -146v-325zM565 406v198l492 373v-326l-217 -145l217 -146v-325z" />
<glyph unicode="&#xac;" horiz-adv-x="1116" d="M31 416v299h1056v-715h-311v416h-745z" />
<glyph unicode="&#xad;" horiz-adv-x="669" d="M31 344v322h608v-322h-608z" />
<glyph unicode="&#xae;" horiz-adv-x="1595" d="M98 682q0 190 94 351.5t255.5 255t351.5 93.5q143 0 272 -55.5t222.5 -149t148.5 -223t55 -272.5q0 -142 -55.5 -271t-149 -222.5t-222.5 -149t-271 -55.5q-190 0 -351.5 93.5t-255.5 254.5t-94 350zM291 682q0 -139 68 -257.5t184.5 -187.5t253.5 -69q210 0 366 156 h-235l-123 215h-84v-215h-227v718h313q175 0 251.5 -58t76.5 -191q0 -79 -22.5 -123.5t-84.5 -87.5l146 -246q131 146 131 348q0 139 -68 257.5t-184.5 187.5t-253.5 69q-138 0 -255 -69t-185 -188t-68 -259zM719 723h63q95 2 105 6t13 14.5t3 42.5q0 58 -10 64 q-10 8 -102 8h-72v-135z" />
<glyph unicode="&#xaf;" horiz-adv-x="1091" d="M219 1116v246h653v-246h-653z" />
<glyph unicode="&#xb0;" horiz-adv-x="776" d="M66 1133q0 131 94 223t227 92t227.5 -92t94.5 -223t-94.5 -223.5t-227.5 -92.5t-227 92.5t-94 223.5zM264 1135q0 -53 36 -90t87 -37t86 37t35 90q0 51 -35 86.5t-86 35.5t-87 -35.5t-36 -86.5z" />
<glyph unicode="&#xb1;" d="M106 0v293h1111v-293h-1111zM106 705v292h404v369h303v-369h404v-292h-404v-367h-303v367h-404z" />
<glyph unicode="&#xb2;" horiz-adv-x="770" d="M66 844v131q0 116 37 165.5t161 96.5l152 57q35 13 44 24t9 38q0 24 -14 28.5t-74 4.5q-56 0 -65.5 -13.5t-12.5 -89.5h-225v60q2 79 29.5 127t85.5 71q60 25 196 25q148 0 209 -35q102 -54 102 -186q0 -150 -192 -224l-191 -73q-17 -6 -20 -23h408v-184h-639z" />
<glyph unicode="&#xb3;" horiz-adv-x="770" d="M57 1098h228v-34t4.5 -21.5t8 -15t19.5 -6t29.5 -3.5h46.5q60 0 72 7t12 44q0 46 -6 53.5t-43 7.5h-117v164h119q31 0 38 6.5t7 32.5q0 41 -10.5 48.5t-71.5 7.5q-73 0 -85.5 -10.5t-12.5 -71.5h-225l2 39q3 128 71.5 175.5t249.5 47.5q88 0 138.5 -10t84.5 -35 q82 -61 82 -176q0 -45 -13 -74.5t-46 -59.5q39 -31 54.5 -64t15.5 -85q0 -115 -74 -174q-36 -32 -87.5 -43.5t-150.5 -11.5q-138 0 -200.5 16t-98.5 61q-26 34 -33 63t-8 122z" />
<glyph unicode="&#xb4;" horiz-adv-x="1091" d="M432 1092l168 307h375l-232 -307h-311z" />
<glyph unicode="&#xb5;" horiz-adv-x="1128" d="M90 -406v1416h334v-553q0 -123 26 -163t105 -40q52 0 83.5 20t59.5 70v666h332v-1010h-319v41q-34 -40 -65.5 -55t-76.5 -15q-83 0 -147 70v-447h-332z" />
<glyph unicode="&#xb6;" horiz-adv-x="1353" d="M98 934q0 107 9.5 178t31.5 123t63 79.5t97 39.5t141 12h353v-1772h-299v891h-54q-105 0 -168.5 19t-104 72t-55 136.5t-14.5 221.5zM889 -406v1772h299v-1772h-299z" />
<glyph unicode="&#xb7;" horiz-adv-x="382" d="M18 520v311h347v-311h-347z" />
<glyph unicode="&#xb8;" horiz-adv-x="1091" d="M258 -444l133 307h369l-199 -307h-303z" />
<glyph unicode="&#xb9;" horiz-adv-x="770" d="M121 844v182h174v311l-174 -57v203l241 78h164v-535h148v-182h-553z" />
<glyph unicode="&#xba;" horiz-adv-x="737" d="M96 1104q0 158 56.5 214t216.5 56q158 0 214 -56t56 -214q0 -157 -56 -212.5t-214 -55.5q-160 0 -216.5 55t-56.5 213zM106 649v144h523v-144h-523zM293 1104q0 -77 1.5 -93t10.5 -20q12 -6 64 -6q40 0 52.5 3t16.5 13q4 8 4 103q0 77 -1.5 94t-10.5 21q-12 6 -63 6 q-64 0 -70 -17q-4 -8 -4 -104z" />
<glyph unicode="&#xbb;" horiz-adv-x="1120" d="M63 35v325l220 146l-220 145v326l492 -373v-198zM551 35v325l219 146l-219 145v326l491 -373v-198z" />
<glyph unicode="&#xbc;" horiz-adv-x="1931" d="M211 1087v201l242 78h163v-717h-231v494zM334 0l819 1366h262l-819 -1366h-262zM940 119v151l369 447h233v-418h94v-180h-94v-119h-231v119h-371zM1204 287h123v170z" />
<glyph unicode="&#xbd;" horiz-adv-x="1931" d="M211 1087v201l242 78h163v-717h-231v494zM334 0l819 1366h262l-819 -1366h-262zM1075 0v131q0 116 37.5 165.5t161.5 96.5l151 58q35 13 44.5 24t9.5 37q0 24 -14 28.5t-74 4.5q-56 0 -65.5 -13.5t-12.5 -89.5h-226v60q2 79 29.5 127t85.5 71q60 25 197 25q148 0 209 -35 q102 -54 102 -186q0 -149 -192 -223l-191 -74q-17 -6 -20 -23h407v-184h-639z" />
<glyph unicode="&#xbe;" horiz-adv-x="1931" d="M131 903h227v-34t4.5 -22t8.5 -14.5t20 -6t29.5 -3.5h46.5q60 0 72 7t12 44q0 46 -6 54t-43 8h-117v164h119q31 0 38 6.5t7 32.5q0 41 -10.5 48t-71.5 7q-72 0 -85 -10.5t-13 -71.5h-226l2 39q3 128 72 175.5t250 47.5q88 0 138.5 -10t84.5 -35q82 -61 82 -176 q0 -45 -12.5 -73.5t-46.5 -59.5q38 -31 53.5 -64.5t15.5 -85.5q0 -116 -73 -174q-36 -32 -87.5 -43.5t-150.5 -11.5q-137 0 -199.5 16t-99.5 62q-27 34 -33.5 62.5t-7.5 121.5zM426 0l819 1366h262l-819 -1366h-262zM1032 119v151l369 447h233v-418h95v-180h-95v-119h-231 v119h-371zM1296 287h125v170z" />
<glyph unicode="&#xbf;" horiz-adv-x="1085" d="M18 8q0 126 72 223q37 51 81 81.5t157 86.5l78 39q18 7 23 21t5 53v123h361v-123q0 -135 -46.5 -214.5t-152.5 -123.5l-123 -51q-56 -25 -75 -49t-19 -70q0 -27 2.5 -40t9 -24t25 -15t42 -5.5t68.5 -1.5q46 0 68.5 0.5t45 6t30 12t14.5 25t7.5 37.5t0.5 58v76h350 q-2 -149 -9.5 -208t-35.5 -118q-34 -73 -88.5 -113.5t-145 -58.5t-237.5 -18q-236 0 -342 59q-80 46 -123 131.5t-43 200.5zM442 702v312h344v-312h-344z" />
<glyph unicode="&#xc0;" horiz-adv-x="1337" d="M-20 0l487 1366h401l490 -1366h-383l-68 209h-477l-68 -209h-382zM307 1757h375l168 -307h-311zM530 518h275l-133 410h-6z" />
<glyph unicode="&#xc1;" horiz-adv-x="1337" d="M-20 0l487 1366h401l490 -1366h-383l-68 209h-477l-68 -209h-382zM487 1450l168 307h375l-231 -307h-312zM530 518h275l-133 410h-6z" />
<glyph unicode="&#xc2;" horiz-adv-x="1337" d="M-20 0l487 1366h401l490 -1366h-383l-68 209h-477l-68 -209h-382zM293 1450l239 291h273l239 -291h-317l-57 86l-60 -86h-317zM530 518h275l-133 410h-6z" />
<glyph unicode="&#xc3;" horiz-adv-x="1337" d="M-20 0l487 1366h401l490 -1366h-383l-68 209h-477l-68 -209h-382zM330 1456v25q0 147 49.5 212.5t159.5 65.5q77 0 139 -41l80 -55q23 -16 30 -16q5 0 7 4t2 20v64h213v-56q0 -71 -7.5 -107t-29.5 -65q-52 -73 -166 -73q-83 0 -145 43l-48 32q-52 35 -59 35 q-9 0 -11.5 -14t-2.5 -64v-10h-211zM530 518h275l-133 410h-6z" />
<glyph unicode="&#xc4;" horiz-adv-x="1337" d="M-20 0l487 1366h401l490 -1366h-383l-68 209h-477l-68 -209h-382zM324 1450v274h321v-274h-321zM530 518h275l-133 410h-6zM692 1450v274h322v-274h-322z" />
<glyph unicode="&#xc5;" horiz-adv-x="1337" d="M-20 0l487 1366h401l490 -1366h-383l-68 209h-477l-68 -209h-382zM465 1622q0 77 60 131.5t145 54.5q83 0 143.5 -55t60.5 -131q0 -78 -59.5 -133t-144.5 -55t-145 55t-60 133zM530 518h275l-133 410h-6zM594 1622q0 -30 22.5 -51t53.5 -21q32 0 53.5 20.5t21.5 51.5 q0 29 -21.5 49.5t-53.5 20.5q-31 0 -53.5 -20.5t-22.5 -49.5z" />
<glyph unicode="&#xc6;" horiz-adv-x="2002" d="M-27 0l797 1366h1172v-303h-623v-219h565v-301h-565v-238h639v-305h-997v209h-453l-119 -209h-416zM682 518h279v522h-5z" />
<glyph unicode="&#xc7;" horiz-adv-x="1337" d="M104 682q0 89 1 136.5t7.5 128.5t19 131t37.5 104.5t62 89.5q44 43 96 69t118.5 37t117.5 14t137 3q79 0 129 -3t107.5 -14t101.5 -36t82 -64q38 -38 63.5 -84.5t38.5 -103.5t18 -104t9 -116h-360q0 146 -29 183q-17 23 -47.5 28.5t-107.5 5.5q-101 0 -140 -6.5 t-57 -27.5q-39 -48 -39 -371q0 -321 39 -369q18 -21 57 -27.5t140 -6.5q80 0 111 5.5t50 28.5q29 35 29 195h362q-8 -191 -46 -292.5t-130 -164.5q-71 -50 -150.5 -65t-230.5 -15q-86 0 -137 3t-117.5 14t-118.5 37t-96 69q-31 29 -53.5 68t-36 91.5t-21.5 96t-11.5 111.5 t-4 107.5t-0.5 113.5zM391 -444l133 307h369l-199 -307h-303z" />
<glyph unicode="&#xc8;" horiz-adv-x="1167" d="M125 0v1366h981v-303h-625v-219h568v-301h-568v-238h641v-305h-997zM299 1757h375l168 -307h-312z" />
<glyph unicode="&#xc9;" horiz-adv-x="1167" d="M125 0v1366h981v-303h-625v-219h568v-301h-568v-238h641v-305h-997zM430 1450l168 307h375l-232 -307h-311z" />
<glyph unicode="&#xca;" horiz-adv-x="1167" d="M125 0v1366h981v-303h-625v-219h568v-301h-568v-238h641v-305h-997zM248 1450l239 291h273l239 -291h-317l-57 86l-60 -86h-317z" />
<glyph unicode="&#xcb;" horiz-adv-x="1167" d="M125 0v1366h981v-303h-625v-219h568v-301h-568v-238h641v-305h-997zM279 1450v274h321v-274h-321zM647 1450v274h322v-274h-322z" />
<glyph unicode="&#xcc;" horiz-adv-x="610" d="M-57 1757h374l168 -307h-311zM125 0v1366h360v-1366h-360z" />
<glyph unicode="&#xcd;" horiz-adv-x="610" d="M125 0v1366h360v-1366h-360zM125 1450l168 307h375l-232 -307h-311z" />
<glyph unicode="&#xce;" horiz-adv-x="610" d="M-72 1450l240 291h272l240 -291h-318l-57 86l-59 -86h-318zM125 0v1366h360v-1366h-360z" />
<glyph unicode="&#xcf;" horiz-adv-x="610" d="M-41 1450v274h322v-274h-322zM125 0v1366h360v-1366h-360zM328 1450v274h321v-274h-321z" />
<glyph unicode="&#xd0;" horiz-adv-x="1443" d="M74 553v283h106v530h590q160 0 262.5 -32t171.5 -103q111 -120 131 -322q6 -49 6 -227t-6 -227q-24 -210 -131 -320q-67 -72 -169.5 -103.5t-264.5 -31.5h-590v553h-106zM541 305h213q79 0 118.5 7.5t61.5 31.5q29 32 37 103.5t8 234.5q0 164 -8 236t-37 104 q-22 24 -61.5 31.5t-118.5 7.5h-213v-225h307v-283h-307v-248z" />
<glyph unicode="&#xd1;" horiz-adv-x="1449" d="M125 0v1366h379l364 -602l99 -205v807h358v-1366h-379l-364 602l-99 205v-807h-358zM385 1456v25q0 147 49.5 212.5t159.5 65.5q77 0 139 -41l76 -53q28 -18 35 -18q5 0 6.5 4t1.5 20v64h213v-56q0 -71 -7.5 -107t-29.5 -65q-52 -73 -166 -73q-83 0 -145 43l-47 32 q-52 35 -60 35q-9 0 -11.5 -14t-2.5 -64v-10h-211z" />
<glyph unicode="&#xd2;" horiz-adv-x="1417" d="M104 682q0 244 28 384t112 214q75 66 174 90.5t291 24.5t291 -24.5t174 -90.5q84 -74 111.5 -213.5t27.5 -384.5q0 -244 -27.5 -383t-111.5 -213q-75 -66 -174 -90.5t-291 -24.5t-291 24.5t-174 90.5q-84 74 -112 213.5t-28 382.5zM358 1757h375l168 -307h-311zM469 682 q0 -322 41 -369q18 -21 57.5 -27.5t141.5 -6.5t141 6.5t57 27.5q41 47 41 369q0 324 -41 371q-18 21 -57 27.5t-141 6.5t-141.5 -6.5t-57.5 -27.5q-41 -47 -41 -371z" />
<glyph unicode="&#xd3;" horiz-adv-x="1417" d="M104 682q0 244 28 384t112 214q75 66 174 90.5t291 24.5t291 -24.5t174 -90.5q84 -74 111.5 -213.5t27.5 -384.5q0 -244 -27.5 -383t-111.5 -213q-75 -66 -174 -90.5t-291 -24.5t-291 24.5t-174 90.5q-84 74 -112 213.5t-28 382.5zM469 682q0 -322 41 -369 q18 -21 57.5 -27.5t141.5 -6.5t141 6.5t57 27.5q41 47 41 369q0 324 -41 371q-18 21 -57 27.5t-141 6.5t-141.5 -6.5t-57.5 -27.5q-41 -47 -41 -371zM528 1450l168 307h375l-231 -307h-312z" />
<glyph unicode="&#xd4;" horiz-adv-x="1417" d="M104 682q0 244 28 384t112 214q75 66 174 90.5t291 24.5t291 -24.5t174 -90.5q84 -74 111.5 -213.5t27.5 -384.5q0 -244 -27.5 -383t-111.5 -213q-75 -66 -174 -90.5t-291 -24.5t-291 24.5t-174 90.5q-84 74 -112 213.5t-28 382.5zM334 1450l239 291h273l239 -291h-317 l-57 86l-60 -86h-317zM469 682q0 -322 41 -369q18 -21 57.5 -27.5t141.5 -6.5t141 6.5t57 27.5q41 47 41 369q0 324 -41 371q-18 21 -57 27.5t-141 6.5t-141.5 -6.5t-57.5 -27.5q-41 -47 -41 -371z" />
<glyph unicode="&#xd5;" horiz-adv-x="1417" d="M104 682q0 244 28 384t112 214q75 66 174 90.5t291 24.5t291 -24.5t174 -90.5q84 -74 111.5 -213.5t27.5 -384.5q0 -244 -27.5 -383t-111.5 -213q-75 -66 -174 -90.5t-291 -24.5t-291 24.5t-174 90.5q-84 74 -112 213.5t-28 382.5zM369 1456v25q0 147 49.5 212.5 t159.5 65.5q77 0 139 -41l80 -55q23 -16 30 -16q5 0 7 4t2 20v64h213v-56q0 -71 -7.5 -107t-29.5 -65q-52 -73 -166 -73q-84 0 -146 43l-47 32q-52 35 -59 35q-9 0 -11.5 -14t-2.5 -64v-10h-211zM469 682q0 -322 41 -369q18 -21 57.5 -27.5t141.5 -6.5t141 6.5t57 27.5 q41 47 41 369q0 324 -41 371q-18 21 -57 27.5t-141 6.5t-141.5 -6.5t-57.5 -27.5q-41 -47 -41 -371z" />
<glyph unicode="&#xd6;" horiz-adv-x="1417" d="M104 682q0 244 28 384t112 214q75 66 174 90.5t291 24.5t291 -24.5t174 -90.5q84 -74 111.5 -213.5t27.5 -384.5q0 -244 -27.5 -383t-111.5 -213q-75 -66 -174 -90.5t-291 -24.5t-291 24.5t-174 90.5q-84 74 -112 213.5t-28 382.5zM365 1450v274h321v-274h-321zM469 682 q0 -322 41 -369q18 -21 57.5 -27.5t141.5 -6.5t141 6.5t57 27.5q41 47 41 369q0 324 -41 371q-18 21 -57 27.5t-141 6.5t-141.5 -6.5t-57.5 -27.5q-41 -47 -41 -371zM733 1450v274h322v-274h-322z" />
<glyph unicode="&#xd7;" d="M111 354l338 338l-338 340l211 211l337 -340l340 340l211 -211l-340 -340l340 -338l-211 -211l-340 338l-337 -338z" />
<glyph unicode="&#xd8;" horiz-adv-x="1423" d="M106 678q0 244 28 384t112 214q76 67 176 93t287 26q135 0 209 -9.5t131 -33.5l47 71h204l-106 -163q71 -72 97 -193.5t26 -380.5q0 -244 -27.5 -383t-111.5 -213q-76 -67 -176 -93t-293 -26q-135 0 -205 8.5t-129 32.5l-47 -69h-205l108 161q-72 73 -98.5 195t-26.5 379 zM471 676q0 -93 4 -197l397 604h-221q-95 -2 -125 -13t-39 -50q-16 -82 -16 -344zM553 281h178q124 0 160 11.5t45 53.5q16 66 16 344q0 103 -4 197z" />
<glyph unicode="&#xd9;" horiz-adv-x="1425" d="M123 467v899h360v-899q0 -128 21 -154q15 -21 53.5 -27.5t155.5 -6.5t155.5 6.5t53.5 27.5q12 15 16 47t4 107v899h361v-899q0 -132 -22.5 -215.5t-76.5 -145.5q-64 -72 -176.5 -103.5t-314.5 -31.5q-203 0 -315.5 31.5t-176.5 103.5q-54 62 -76 145.5t-22 215.5z M362 1757h375l168 -307h-311z" />
<glyph unicode="&#xda;" horiz-adv-x="1425" d="M123 467v899h360v-899q0 -128 21 -154q15 -21 53.5 -27.5t155.5 -6.5t155.5 6.5t53.5 27.5q12 15 16 47t4 107v899h361v-899q0 -132 -22.5 -215.5t-76.5 -145.5q-64 -72 -176.5 -103.5t-314.5 -31.5q-203 0 -315.5 31.5t-176.5 103.5q-54 62 -76 145.5t-22 215.5z M520 1450l168 307h375l-232 -307h-311z" />
<glyph unicode="&#xdb;" horiz-adv-x="1425" d="M123 467v899h360v-899q0 -128 21 -154q15 -21 53.5 -27.5t155.5 -6.5t155.5 6.5t53.5 27.5q12 15 16 47t4 107v899h361v-899q0 -132 -22.5 -215.5t-76.5 -145.5q-64 -72 -176.5 -103.5t-314.5 -31.5q-203 0 -315.5 31.5t-176.5 103.5q-54 62 -76 145.5t-22 215.5z M338 1450l240 291h272l240 -291h-318l-57 86l-60 -86h-317z" />
<glyph unicode="&#xdc;" horiz-adv-x="1425" d="M123 467v899h360v-899q0 -128 21 -154q15 -21 53.5 -27.5t155.5 -6.5t155.5 6.5t53.5 27.5q12 15 16 47t4 107v899h361v-899q0 -132 -22.5 -215.5t-76.5 -145.5q-64 -72 -176.5 -103.5t-314.5 -31.5q-203 0 -315.5 31.5t-176.5 103.5q-54 62 -76 145.5t-22 215.5z M369 1450v274h321v-274h-321zM737 1450v274h322v-274h-322z" />
<glyph unicode="&#xdd;" horiz-adv-x="1280" d="M-20 1366h389l268 -575h8l268 575h390l-482 -920v-446h-360v446zM449 1450l167 307h375l-231 -307h-311z" />
<glyph unicode="&#xde;" horiz-adv-x="1275" d="M125 0v1366h360v-199h172q179 0 282 -30t169 -101q109 -121 109 -354q0 -257 -134 -379q-67 -61 -166 -85.5t-272 -24.5h-160v-193h-360zM483 502h152q65 0 95 0.5t60.5 5t43.5 14.5q10 7 15.5 18.5t7.5 36.5t2.5 41t0.5 62q0 58 -0.5 79t-6.5 45t-19 36q-10 8 -26 13 t-49.5 6.5t-52.5 2t-71 0.5h-152v-360z" />
<glyph unicode="&#xdf;" horiz-adv-x="1155" d="M100 0v1049q0 413 443 413q214 0 333 -105t119 -292q0 -72 -22.5 -124.5t-73.5 -96.5v-4q101 -64 141.5 -152.5t40.5 -241.5q0 -139 -27 -228.5t-87 -143.5q-112 -103 -310 -103q-88 0 -206 41l45 279q106 -37 141 -37q30 0 45 2.5t29.5 10.5t20 28t8.5 50t3 81v78t-4 57 t-6.5 43.5t-15 27.5t-22 19t-35 8t-46.5 5h-63h-66v272h70q85 0 104 17.5t19 95.5q0 91 -23 115t-104 24q-79 0 -98 -21.5t-19 -105.5v-1061h-334z" />
<glyph unicode="&#xe0;" horiz-adv-x="1103" d="M66 328q0 183 137 262q53 30 125.5 42.5t191.5 12.5q74 0 104.5 -3.5t63.5 -16.5v43q-1 37 -3.5 53t-18.5 28.5t-42 14.5t-81 2q-56 0 -79.5 -6t-30 -17t-9.5 -41l-2 -18h-324q15 198 115 278t338 80q260 0 361.5 -100t101.5 -350v-592h-320v57q-61 -47 -116.5 -66.5 t-133.5 -19.5q-184 0 -281 92.5t-97 264.5zM215 1399h375l168 -307h-312zM393 336q0 -56 16 -71t80 -15q62 0 104 10.5t99 36.5v117h-172q-91 0 -109 -11t-18 -67z" />
<glyph unicode="&#xe1;" horiz-adv-x="1103" d="M66 328q0 183 137 262q53 30 125.5 42.5t191.5 12.5q74 0 104.5 -3.5t63.5 -16.5v43q-1 37 -3.5 53t-18.5 28.5t-42 14.5t-81 2q-56 0 -79.5 -6t-30 -17t-9.5 -41l-2 -18h-324q15 198 115 278t338 80q260 0 361.5 -100t101.5 -350v-592h-320v57q-61 -47 -116.5 -66.5 t-133.5 -19.5q-184 0 -281 92.5t-97 264.5zM371 1092l168 307h374l-231 -307h-311zM393 336q0 -56 16 -71t80 -15q62 0 104 10.5t99 36.5v117h-172q-91 0 -109 -11t-18 -67z" />
<glyph unicode="&#xe2;" horiz-adv-x="1103" d="M66 328q0 183 137 262q53 30 125.5 42.5t191.5 12.5q74 0 104.5 -3.5t63.5 -16.5v43q-1 37 -3.5 53t-18.5 28.5t-42 14.5t-81 2q-56 0 -79.5 -6t-30 -17t-9.5 -41l-2 -18h-324q15 198 115 278t338 80q260 0 361.5 -100t101.5 -350v-592h-320v57q-61 -47 -116.5 -66.5 t-133.5 -19.5q-184 0 -281 92.5t-97 264.5zM188 1092l240 290h272l240 -290h-317l-58 86l-59 -86h-318zM393 336q0 -56 16 -71t80 -15q62 0 104 10.5t99 36.5v117h-172q-91 0 -109 -11t-18 -67z" />
<glyph unicode="&#xe3;" horiz-adv-x="1103" d="M66 328q0 183 137 262q53 30 125.5 42.5t191.5 12.5q74 0 104.5 -3.5t63.5 -16.5v43q-1 37 -3.5 53t-18.5 28.5t-42 14.5t-81 2q-56 0 -79.5 -6t-30 -17t-9.5 -41l-2 -18h-324q15 198 115 278t338 80q260 0 361.5 -100t101.5 -350v-592h-320v57q-61 -47 -116.5 -66.5 t-133.5 -19.5q-184 0 -281 92.5t-97 264.5zM225 1098v24q0 148 49.5 213.5t159.5 65.5q77 0 139 -41l80 -55q24 -17 31 -17q8 0 8 25v63h213v-55q0 -71 -7.5 -107t-29.5 -65q-53 -74 -166 -74q-83 0 -145 43l-47 33q-52 35 -59 35q-9 0 -12 -14.5t-3 -63.5v-10h-211z M393 336q0 -56 16 -71t80 -15q62 0 104 10.5t99 36.5v117h-172q-91 0 -109 -11t-18 -67z" />
<glyph unicode="&#xe4;" horiz-adv-x="1103" d="M66 328q0 183 137 262q53 30 125.5 42.5t191.5 12.5q74 0 104.5 -3.5t63.5 -16.5v43q-1 37 -3.5 53t-18.5 28.5t-42 14.5t-81 2q-56 0 -79.5 -6t-30 -17t-9.5 -41l-2 -18h-324q15 198 115 278t338 80q260 0 361.5 -100t101.5 -350v-592h-320v57q-61 -47 -116.5 -66.5 t-133.5 -19.5q-184 0 -281 92.5t-97 264.5zM207 1092v274h321v-274h-321zM393 336q0 -56 16 -71t80 -15q62 0 104 10.5t99 36.5v117h-172q-91 0 -109 -11t-18 -67zM575 1092v274h322v-274h-322z" />
<glyph unicode="&#xe5;" horiz-adv-x="1103" d="M66 328q0 183 137 262q53 30 125.5 42.5t191.5 12.5q74 0 104.5 -3.5t63.5 -16.5v43q-1 37 -3.5 53t-18.5 28.5t-42 14.5t-81 2q-56 0 -79.5 -6t-30 -17t-9.5 -41l-2 -18h-324q15 198 115 278t338 80q260 0 361.5 -100t101.5 -350v-592h-320v57q-61 -47 -116.5 -66.5 t-133.5 -19.5q-184 0 -281 92.5t-97 264.5zM360 1264q0 77 60 131.5t145 54.5q83 0 144 -55t61 -131q0 -78 -60 -133.5t-145 -55.5t-145 55.5t-60 133.5zM393 336q0 -56 16 -71t80 -15q62 0 104 10.5t99 36.5v117h-172q-91 0 -109 -11t-18 -67zM489 1264q0 -30 22.5 -51 t53.5 -21q32 0 54 20.5t22 51.5q0 29 -22 49t-54 20q-31 0 -53.5 -20t-22.5 -49z" />
<glyph unicode="&#xe6;" horiz-adv-x="1705" d="M66 328q0 183 137 262q53 30 125.5 42.5t191.5 12.5h58q56 0 110 -20v43q0 71 -19.5 84.5t-119.5 13.5q-42 0 -59 -1t-33.5 -3t-21 -11t-7 -17.5t-4.5 -31.5l-2 -18h-324q19 203 116.5 280.5t336.5 77.5q110 0 179 -19t128 -65q59 45 129.5 64.5t175.5 19.5 q112 0 189 -16t133 -51t87.5 -97.5t45.5 -148.5t14 -211q0 -55 -4 -112h-602q1 -41 2 -63t6.5 -42.5t12.5 -28t25 -14t36.5 -7.5t54.5 -1q95 0 115 13.5t20 78.5h334q-8 -105 -24.5 -161t-53.5 -97q-52 -60 -142 -86.5t-241 -26.5q-144 0 -232.5 25.5t-141.5 81.5 q-79 -58 -155 -82.5t-179 -24.5q-195 0 -296 91t-101 266zM393 336q0 -58 15.5 -72t80.5 -14t107 9.5t96 37.5v117h-172q-91 0 -109 -11t-18 -67zM1026 614h285q-1 45 -2 65.5t-7.5 43t-12.5 29t-26.5 13t-39.5 7t-60 0.5h-56t-36 -7t-24 -12.5t-11.5 -29t-7 -42.5t-2.5 -67 z" />
<glyph unicode="&#xe7;" horiz-adv-x="1056" d="M70 506q0 160 21 259.5t76.5 163t144.5 88.5t231 25q144 0 230 -30t140 -94q41 -50 58.5 -113.5t21.5 -186.5h-327l-2 37q-6 73 -23 89t-94 16q-64 0 -88.5 -8t-34.5 -27q-14 -32 -14 -223q0 -185 14 -217q9 -18 34 -24.5t93 -6.5h49t31.5 5.5t20.5 9.5t10 21t5 30.5 t1 46.5v34h333q0 -129 -16.5 -194.5t-60.5 -116.5q-53 -62 -143 -90.5t-238 -28.5q-143 0 -231 24t-144 87.5t-77 163t-21 260.5zM272 -444l134 307h368l-199 -307h-303z" />
<glyph unicode="&#xe8;" horiz-adv-x="1083" d="M70 504q0 160 21 259.5t76.5 164t144 89.5t229.5 25q140 0 228 -25t143 -88t76.5 -160t21.5 -251q0 -57 -2 -112h-605q1 -41 2 -63t7 -42.5t13 -28t24.5 -14t36.5 -7.5t55 -1q95 0 115 13.5t20 78.5h334q-6 -98 -23.5 -155.5t-54.5 -100.5q-53 -59 -143.5 -87t-237.5 -28 q-145 0 -235 24t-146.5 87t-78 162.5t-21.5 259.5zM190 1399h375l168 -307h-311zM403 614h285q-1 44 -2 63t-7 41.5t-13 29.5t-25.5 14.5t-40 8.5t-59.5 1q-27 0 -43.5 -0.5t-32.5 -4t-24 -6t-16 -14t-10.5 -18.5t-5.5 -28.5t-4 -37t-2 -49.5z" />
<glyph unicode="&#xe9;" horiz-adv-x="1083" d="M70 504q0 160 21 259.5t76.5 164t144 89.5t229.5 25q140 0 228 -25t143 -88t76.5 -160t21.5 -251q0 -57 -2 -112h-605q1 -41 2 -63t7 -42.5t13 -28t24.5 -14t36.5 -7.5t55 -1q95 0 115 13.5t20 78.5h334q-6 -98 -23.5 -155.5t-54.5 -100.5q-53 -59 -143.5 -87t-237.5 -28 q-145 0 -235 24t-146.5 87t-78 162.5t-21.5 259.5zM344 1092l168 307h375l-232 -307h-311zM403 614h285q-1 44 -2 63t-7 41.5t-13 29.5t-25.5 14.5t-40 8.5t-59.5 1q-27 0 -43.5 -0.5t-32.5 -4t-24 -6t-16 -14t-10.5 -18.5t-5.5 -28.5t-4 -37t-2 -49.5z" />
<glyph unicode="&#xea;" horiz-adv-x="1083" d="M70 504q0 160 21 259.5t76.5 164t144 89.5t229.5 25q140 0 228 -25t143 -88t76.5 -160t21.5 -251q0 -57 -2 -112h-605q1 -41 2 -63t7 -42.5t13 -28t24.5 -14t36.5 -7.5t55 -1q95 0 115 13.5t20 78.5h334q-6 -98 -23.5 -155.5t-54.5 -100.5q-53 -59 -143.5 -87t-237.5 -28 q-145 0 -235 24t-146.5 87t-78 162.5t-21.5 259.5zM164 1092l239 290h273l239 -290h-317l-57 86l-60 -86h-317zM403 614h285q-1 44 -2 63t-7 41.5t-13 29.5t-25.5 14.5t-40 8.5t-59.5 1q-27 0 -43.5 -0.5t-32.5 -4t-24 -6t-16 -14t-10.5 -18.5t-5.5 -28.5t-4 -37t-2 -49.5z " />
<glyph unicode="&#xeb;" horiz-adv-x="1083" d="M70 504q0 160 21 259.5t76.5 164t144 89.5t229.5 25q140 0 228 -25t143 -88t76.5 -160t21.5 -251q0 -57 -2 -112h-605q1 -41 2 -63t7 -42.5t13 -28t24.5 -14t36.5 -7.5t55 -1q95 0 115 13.5t20 78.5h334q-6 -98 -23.5 -155.5t-54.5 -100.5q-53 -59 -143.5 -87t-237.5 -28 q-145 0 -235 24t-146.5 87t-78 162.5t-21.5 259.5zM195 1092v274h321v-274h-321zM403 614h285q-1 44 -2 63t-7 41.5t-13 29.5t-25.5 14.5t-40 8.5t-59.5 1q-27 0 -43.5 -0.5t-32.5 -4t-24 -6t-16 -14t-10.5 -18.5t-5.5 -28.5t-4 -37t-2 -49.5zM563 1092v274h322v-274h-322z " />
<glyph unicode="&#xec;" horiz-adv-x="534" d="M-94 1399h375l168 -307h-312zM100 0v1014h334v-1014h-334z" />
<glyph unicode="&#xed;" horiz-adv-x="534" d="M74 1092l168 307h374l-231 -307h-311zM100 0v1014h334v-1014h-334z" />
<glyph unicode="&#xee;" horiz-adv-x="534" d="M-109 1092l240 290h272l240 -290h-317l-58 86l-59 -86h-318zM100 0v1014h334v-1014h-334z" />
<glyph unicode="&#xef;" horiz-adv-x="534" d="M-78 1092v274h322v-274h-322zM100 0v1014h334v-1014h-334zM291 1092v274h321v-274h-321z" />
<glyph unicode="&#xf0;" horiz-adv-x="1112" d="M70 459q0 141 19 228t61 140q85 105 290 105q135 0 226 -55l-17 49q-16 56 -47 112l-196 -98l-103 203l125 61q-52 29 -147 53l79 201q217 -28 351 -115l231 115l100 -196l-163 -82q78 -109 120.5 -279.5t42.5 -380.5q0 -136 -14 -226t-45.5 -155.5t-89.5 -101t-138 -51 t-200 -15.5q-98 0 -169 9t-126.5 32t-90.5 58.5t-58 91.5t-32 127t-9 170zM408 479q0 -167 14 -198q8 -16 36 -21.5t107 -5.5q70 0 94.5 8t32.5 33q8 33 8 194v78q-38 44 -81 63t-107 19q-81 0 -92 -28q-12 -28 -12 -142z" />
<glyph unicode="&#xf1;" horiz-adv-x="1140" d="M98 0v1014h326v-62q68 48 124.5 69t135.5 21q91 0 164.5 -33t118.5 -91q84 -106 84 -328v-590h-334v606q0 96 -19 125t-86 29q-58 0 -99.5 -21.5t-80.5 -66.5v-672h-334zM236 1098v24q0 148 49 213.5t159 65.5q78 0 140 -41l80 -55q24 -17 30 -17q8 0 8 25v63h213v-55 q0 -72 -7.5 -107.5t-28.5 -64.5q-53 -74 -166 -74q-84 0 -146 43l-47 33q-52 35 -59 35q-9 0 -12 -14.5t-3 -63.5v-10h-210z" />
<glyph unicode="&#xf2;" horiz-adv-x="1112" d="M72 506q0 162 21.5 261.5t78.5 163t147.5 87.5t237.5 24t237.5 -24t147.5 -87.5t78.5 -163t21.5 -261.5q0 -130 -14 -217.5t-46 -151.5t-89.5 -99t-137.5 -51t-198 -16q-97 0 -167.5 10t-126.5 35.5t-91 64.5t-58 100t-32.5 139t-9.5 186zM195 1399h374l168 -307h-311z M412 506q0 -140 4.5 -181.5t23.5 -54.5q23 -16 117 -16t117 16q19 14 23.5 57t4.5 179t-5 178t-23 57q-24 19 -117 19t-117 -19q-20 -17 -24 -56t-4 -179z" />
<glyph unicode="&#xf3;" horiz-adv-x="1112" d="M72 506q0 162 21.5 261.5t78.5 163t147.5 87.5t237.5 24t237.5 -24t147.5 -87.5t78.5 -163t21.5 -261.5q0 -130 -14 -217.5t-46 -151.5t-89.5 -99t-137.5 -51t-198 -16q-97 0 -167.5 10t-126.5 35.5t-91 64.5t-58 100t-32.5 139t-9.5 186zM377 1092l168 307h375 l-232 -307h-311zM412 506q0 -140 4.5 -181.5t23.5 -54.5q23 -16 117 -16t117 16q19 14 23.5 57t4.5 179t-5 178t-23 57q-24 19 -117 19t-117 -19q-20 -17 -24 -56t-4 -179z" />
<glyph unicode="&#xf4;" horiz-adv-x="1112" d="M72 506q0 162 21.5 261.5t78.5 163t147.5 87.5t237.5 24t237.5 -24t147.5 -87.5t78.5 -163t21.5 -261.5q0 -130 -14 -217.5t-46 -151.5t-89.5 -99t-137.5 -51t-198 -16q-97 0 -167.5 10t-126.5 35.5t-91 64.5t-58 100t-32.5 139t-9.5 186zM182 1092l240 290h272l240 -290 h-318l-57 86l-59 -86h-318zM412 506q0 -140 4.5 -181.5t23.5 -54.5q23 -16 117 -16t117 16q19 14 23.5 57t4.5 179t-5 178t-23 57q-24 19 -117 19t-117 -19q-20 -17 -24 -56t-4 -179z" />
<glyph unicode="&#xf5;" horiz-adv-x="1112" d="M72 506q0 162 21.5 261.5t78.5 163t147.5 87.5t237.5 24t237.5 -24t147.5 -87.5t78.5 -163t21.5 -261.5q0 -130 -14 -217.5t-46 -151.5t-89.5 -99t-137.5 -51t-198 -16q-97 0 -167.5 10t-126.5 35.5t-91 64.5t-58 100t-32.5 139t-9.5 186zM217 1098v24q0 148 49.5 213.5 t159.5 65.5q77 0 139 -41l80 -55q24 -17 31 -17q8 0 8 25v63h213v-55q0 -71 -7.5 -107t-29.5 -65q-53 -74 -166 -74q-83 0 -145 43l-47 33q-52 35 -60 35q-9 0 -11.5 -14t-2.5 -64v-10h-211zM412 506q0 -140 4.5 -181.5t23.5 -54.5q23 -16 117 -16t117 16q19 14 23.5 57 t4.5 179t-5 178t-23 57q-24 19 -117 19t-117 -19q-20 -17 -24 -56t-4 -179z" />
<glyph unicode="&#xf6;" horiz-adv-x="1112" d="M72 506q0 162 21.5 261.5t78.5 163t147.5 87.5t237.5 24t237.5 -24t147.5 -87.5t78.5 -163t21.5 -261.5q0 -130 -14 -217.5t-46 -151.5t-89.5 -99t-137.5 -51t-198 -16q-97 0 -167.5 10t-126.5 35.5t-91 64.5t-58 100t-32.5 139t-9.5 186zM213 1092v274h322v-274h-322z M412 506q0 -140 4.5 -181.5t23.5 -54.5q23 -16 117 -16t117 16q19 14 23.5 57t4.5 179t-5 178t-23 57q-24 19 -117 19t-117 -19q-20 -17 -24 -56t-4 -179zM582 1092v274h321v-274h-321z" />
<glyph unicode="&#xf7;" d="M106 547v293h1111v-293h-1111zM473 309q0 77 55.5 133t133.5 56t133 -55.5t55 -133.5t-55.5 -133t-132.5 -55t-133 56t-56 132zM473 1077q0 77 55.5 133t133.5 56t133 -55.5t55 -133.5t-55.5 -133t-132.5 -55t-133 56t-56 132z" />
<glyph unicode="&#xf8;" horiz-adv-x="1112" d="M70 506q0 130 14.5 217.5t46.5 152t90 99.5t138 51t198 16q148 0 236 -32l41 61h190l-90 -137q57 -59 82.5 -159.5t25.5 -270.5q0 -108 -9 -185.5t-32.5 -139t-58.5 -100t-91.5 -63.5t-127.5 -35t-170 -10q-137 0 -236 29l-38 -57h-193l90 135q-58 61 -82 158t-24 270z M401 418l232 350q-2 0 -19.5 0.5t-42.5 1t-47 0.5q-60 0 -82.5 -8.5t-29.5 -36.5q-11 -37 -11 -225v-82zM477 244h90q73 0 100 8.5t33 34.5q13 60 11 223v84z" />
<glyph unicode="&#xf9;" horiz-adv-x="1128" d="M90 416v598h334v-615q0 -91 15.5 -118t68.5 -27q63 0 107.5 21t82.5 69v670h332v-1014h-319v57q-62 -50 -116.5 -68t-137.5 -18q-189 0 -278 108t-89 337zM211 1399h375l168 -307h-312z" />
<glyph unicode="&#xfa;" horiz-adv-x="1128" d="M90 416v598h334v-615q0 -91 15.5 -118t68.5 -27q63 0 107.5 21t82.5 69v670h332v-1014h-319v57q-62 -50 -116.5 -68t-137.5 -18q-189 0 -278 108t-89 337zM367 1092l168 307h374l-231 -307h-311z" />
<glyph unicode="&#xfb;" horiz-adv-x="1128" d="M90 416v598h334v-615q0 -91 15.5 -118t68.5 -27q63 0 107.5 21t82.5 69v670h332v-1014h-319v57q-62 -50 -116.5 -68t-137.5 -18q-189 0 -278 108t-89 337zM184 1092l240 290h272l240 -290h-318l-57 86l-59 -86h-318z" />
<glyph unicode="&#xfc;" horiz-adv-x="1128" d="M90 416v598h334v-615q0 -91 15.5 -118t68.5 -27q63 0 107.5 21t82.5 69v670h332v-1014h-319v57q-62 -50 -116.5 -68t-137.5 -18q-189 0 -278 108t-89 337zM215 1092v274h322v-274h-322zM584 1092v274h321v-274h-321z" />
<glyph unicode="&#xfd;" horiz-adv-x="1021" d="M-25 1014h361l184 -635h6l162 635h356l-358 -1123q-61 -194 -139 -260.5t-242 -66.5q-86 0 -194 24l41 269q106 -13 141 -13q34 0 49 21t43 104l10 31h-51zM317 1092l168 307h375l-231 -307h-312z" />
<glyph unicode="&#xfe;" horiz-adv-x="1126" d="M98 -406v1840h330v-478q63 45 118.5 65.5t139.5 20.5q198 0 291 -127q42 -56 61 -152.5t19 -256.5q0 -163 -19 -261.5t-61 -156.5q-84 -117 -289 -117q-84 0 -140 19t-118 67v-463h-332zM430 344q72 -90 178 -90q66 0 86 20q15 15 20 59.5t5 172.5q0 124 -4.5 168.5 t-18.5 58.5q-27 27 -78 27q-115 0 -188 -86v-330z" />
<glyph unicode="&#xff;" horiz-adv-x="1021" d="M-25 1014h361l184 -635h6l162 635h356l-358 -1123q-61 -194 -139 -260.5t-242 -66.5q-86 0 -194 24l41 269q106 -13 141 -13q34 0 49 21t43 104l10 31h-51zM166 1092v274h321v-274h-321zM535 1092v274h321v-274h-321z" />
<glyph unicode="&#x152;" horiz-adv-x="1992" d="M104 682q0 219 15.5 328t58.5 184q54 96 177 148.5t294 52.5q89 0 170 -19q79 -15 131 -47v37h979v-303h-622v-219h573v-301h-573v-238h641v-305h-998v31q-55 -23 -119 -39q-89 -21 -182 -21q-390 0 -493 248q-29 69 -40.5 171t-11.5 292zM469 682q0 -322 41 -369 q18 -21 57.5 -27.5t141.5 -6.5t141 6.5t57 27.5q41 47 41 369q0 324 -41 371q-18 21 -57 27.5t-141 6.5t-141.5 -6.5t-57.5 -27.5q-41 -47 -41 -371z" />
<glyph unicode="&#x153;" horiz-adv-x="1716" d="M70 506q0 162 21.5 261.5t78.5 163t147.5 87.5t237.5 24q111 0 180 -19t133 -65q59 45 130 64.5t176 19.5q93 0 160.5 -10.5t121 -35.5t87.5 -63.5t56.5 -98.5t31.5 -136t9 -180q0 -55 -2 -112h-604q1 -41 2 -63t6.5 -42.5t12.5 -28t25 -14t36.5 -7.5t54.5 -1 q95 0 115.5 13.5t20.5 78.5h335q-9 -106 -26 -161.5t-53 -96.5q-52 -60 -142 -86.5t-239 -26.5q-208 0 -314 80q-60 -43 -131.5 -61.5t-179.5 -18.5q-148 0 -238.5 23.5t-148 86.5t-79 162.5t-21.5 262.5zM410 506q0 -140 4.5 -181.5t23.5 -54.5q23 -16 117 -16t117 16 q19 13 23.5 56.5t4.5 179.5t-5 178t-23 57q-24 19 -117 19t-117 -19q-20 -17 -24 -56t-4 -179zM1034 614h285q-1 45 -2 65.5t-7.5 43t-12.5 29t-26.5 13t-39.5 7t-60 0.5h-56t-36 -7t-24 -12.5t-11.5 -29t-7 -42.5t-2.5 -67z" />
<glyph unicode="&#x178;" horiz-adv-x="1280" d="M-20 1366h389l268 -575h8l268 575h390l-482 -920v-446h-360v446zM297 1450v274h321v-274h-321zM666 1450v274h321v-274h-321z" />
<glyph unicode="&#x2c6;" horiz-adv-x="1091" d="M170 1092l240 290h272l240 -290h-318l-57 86l-60 -86h-317z" />
<glyph unicode="&#x2dc;" horiz-adv-x="1091" d="M205 1098v24q0 148 49.5 213.5t159.5 65.5q77 0 139 -41l80 -55q24 -17 31 -17q8 0 8 25v63h213v-55q0 -71 -7.5 -107t-29.5 -65q-53 -74 -166 -74q-83 0 -145 43l-48 33q-52 35 -59 35q-9 0 -11.5 -14t-2.5 -64v-10h-211z" />
<glyph unicode="&#x2000;" horiz-adv-x="904" />
<glyph unicode="&#x2001;" horiz-adv-x="1808" />
<glyph unicode="&#x2002;" horiz-adv-x="904" />
<glyph unicode="&#x2003;" horiz-adv-x="1808" />
<glyph unicode="&#x2004;" horiz-adv-x="602" />
<glyph unicode="&#x2005;" horiz-adv-x="452" />
<glyph unicode="&#x2006;" horiz-adv-x="301" />
<glyph unicode="&#x2007;" horiz-adv-x="301" />
<glyph unicode="&#x2008;" horiz-adv-x="226" />
<glyph unicode="&#x2009;" horiz-adv-x="361" />
<glyph unicode="&#x200a;" horiz-adv-x="100" />
<glyph unicode="&#x2010;" horiz-adv-x="669" d="M31 344v322h608v-322h-608z" />
<glyph unicode="&#x2011;" horiz-adv-x="669" d="M31 344v322h608v-322h-608z" />
<glyph unicode="&#x2012;" horiz-adv-x="669" d="M31 344v322h608v-322h-608z" />
<glyph unicode="&#x2013;" d="M166 344v322h989v-322h-989z" />
<glyph unicode="&#x2014;" horiz-adv-x="1662" d="M29 344v322h1603v-322h-1603z" />
<glyph unicode="&#x2018;" horiz-adv-x="503" d="M2 975l205 459h268l-110 -459h-363z" />
<glyph unicode="&#x2019;" horiz-adv-x="503" d="M29 975l110 459h363l-205 -459h-268z" />
<glyph unicode="&#x201a;" horiz-adv-x="544" d="M8 -266l111 467h362l-205 -467h-268z" />
<glyph unicode="&#x201c;" horiz-adv-x="942" d="M2 975l205 459h268l-110 -459h-363zM440 975l205 459h268l-110 -459h-363z" />
<glyph unicode="&#x201d;" horiz-adv-x="942" d="M29 975l110 459h363l-205 -459h-268zM467 975l111 459h362l-205 -459h-268z" />
<glyph unicode="&#x201e;" horiz-adv-x="942" d="M2 -236l111 457h362l-205 -457h-268zM440 -236l111 457h362l-204 -457h-269z" />
<glyph unicode="&#x2022;" horiz-adv-x="1382" d="M336 690q0 146 104 250t250 104q148 0 252.5 -103.5t104.5 -250.5q0 -148 -104.5 -252t-252.5 -104q-146 0 -250 104t-104 252z" />
<glyph unicode="&#x2026;" horiz-adv-x="1429" d="M92 0v311h346v-311h-346zM547 0v311h346v-311h-346zM993 0v311h346v-311h-346z" />
<glyph unicode="&#x202f;" horiz-adv-x="361" />
<glyph unicode="&#x2039;" horiz-adv-x="632" d="M78 406v198l491 373v-326l-219 -145l219 -146v-325z" />
<glyph unicode="&#x203a;" horiz-adv-x="632" d="M63 35v325l220 146l-220 145v326l492 -373v-198z" />
<glyph unicode="&#x205f;" horiz-adv-x="452" />
<glyph unicode="&#x20ac;" d="M0 432v211h162v78h-162v211h166q19 316 225 409q67 30 142.5 41t222.5 11q146 0 219 -13q138 -26 225 -120q22 -30 35 -50q35 -57 51.5 -129.5t26.5 -224.5h-363q0 161 -28 195q-19 23 -50.5 28.5t-111.5 5.5q-99 0 -137 -6.5t-56 -27.5q-8 -9 -13.5 -19.5t-8.5 -26.5 t-4.5 -22.5t-3.5 -28.5l-2 -22h333v-211h-338v-78h338v-211h-331q4 -73 24 -110q9 -14 14 -17q35 -26 185 -26q80 0 111.5 5.5t50.5 28.5q28 34 28 195h363q-10 -152 -26.5 -224.5t-51.5 -129.5q-19 -34 -51 -66q-83 -80 -209 -104q-73 -13 -219 -13q-147 0 -222.5 11 t-142.5 41q-60 27 -103 71t-67 100.5t-36.5 112.5t-18.5 125h-166z" />
<glyph unicode="&#x2122;" horiz-adv-x="1759" d="M29 1180v186h678v-186h-224v-531h-231v531h-223zM756 649v717h256l178 -344l180 344h256v-717h-229v334l-117 -242h-178l-117 242v-334h-229z" />
<glyph unicode="&#x25fc;" horiz-adv-x="1013" d="M0 0v1014h1014v-1014h-1014z" />
</font>
</defs>
</svg>
