<?xml version="1.0" standalone="no"?>
<!DOCTYPE svg PUBLIC "-//W3C//DTD SVG 1.1//EN" "http://www.w3.org/Graphics/SVG/1.1/DTD/svg11.dtd" >
<svg xmlns="http://www.w3.org/2000/svg" xmlns:xlink="http://www.w3.org/1999/xlink" version="1.1">
<metadata></metadata>
<defs>
<font id="urw_dockregular" horiz-adv-x="1241" >
<font-face units-per-em="2048" ascent="1638" descent="-410" />
<missing-glyph horiz-adv-x="524" />
<glyph unicode="&#xfb01;" horiz-adv-x="995" d="M43 874v115h139v150q0 161 66 233q66 78 221 78q52 0 111 -10l-19 -117q-39 6 -84 6q-85 0 -120 -39.5t-35 -136.5v-164h239v-115h-239v-874h-140v874h-139zM707 1161v205h143v-205h-143zM709 0v989h139v-989h-139z" />
<glyph unicode="&#xfb02;" horiz-adv-x="1001" d="M43 874v115h139v150q0 161 66 233q66 78 221 78q52 0 111 -10l-19 -117q-39 6 -84 6q-85 0 -120 -39.5t-35 -136.5v-164h239v-115h-239v-874h-140v874h-139zM713 0v1434h139v-1434h-139z" />
<glyph unicode="&#xfb03;" horiz-adv-x="1507" d="M43 874v115h139v133q0 158 64 234q69 78 223 78q50 0 111 -13l-19 -114q-59 6 -84 6q-85 0 -120 -40.5t-35 -137.5v-146h387v150q0 161 63 233q69 78 221 78q55 0 111 -10l-17 -117q-39 6 -81 6q-86 0 -122 -39.5t-36 -136.5v-164h239v-115h-239v-874h-139v874h-387v-874 h-140v874h-139zM1219 1161v205h145v-205h-145zM1223 0v989h139v-989h-139z" />
<glyph unicode="&#xfb04;" horiz-adv-x="1511" d="M43 874v115h139v133q0 158 64 234q69 78 223 78q50 0 111 -13l-19 -114q-59 6 -84 6q-85 0 -120 -40.5t-35 -137.5v-146h387v150q0 161 63 233q69 78 221 78q55 0 111 -10l-17 -117q-39 6 -81 6q-86 0 -122 -39.5t-36 -136.5v-164h239v-115h-239v-874h-139v874h-387v-874 h-140v874h-139zM1223 0v1434h139v-1434h-139z" />
<glyph horiz-adv-x="0" />
<glyph horiz-adv-x="682" />
<glyph unicode=" "  horiz-adv-x="524" />
<glyph unicode="&#x09;" horiz-adv-x="524" />
<glyph unicode="&#xa0;" horiz-adv-x="524" />
<glyph unicode="!" horiz-adv-x="503" d="M170 0v205h164v-205h-164zM170 1366h164l-21 -997h-123z" />
<glyph unicode="&#x22;" horiz-adv-x="690" d="M121 1434h137l-14 -375h-109zM430 1434h137l-14 -375h-109z" />
<glyph unicode="#" d="M74 383l24 102h199l100 396h-198l24 102h199l96 383h121l-96 -383h311l96 383h121l-96 -383h199l-27 -102h-197l-100 -396h199l-27 -102h-197l-96 -383h-121l97 383h-312l-96 -383h-121l96 383h-198zM418 485h311l100 396h-311z" />
<glyph unicode="$" d="M152 383h151q0 -48 4 -84.5t14.5 -64.5t22.5 -47.5t33.5 -32.5t41.5 -21t53 -12t61.5 -5t72.5 -1q39 0 63.5 0.5t55.5 2t49.5 5t41 10t35 15.5t27 22t22 30.5t14.5 40t9.5 50.5t2.5 63q0 96 -38 147t-143 87l-301 104q-143 49 -197 129t-54 223q4 193 102 267 q88 65 264 69v140h135v-140q157 -8 236 -53q54 -29 84 -86.5t37 -107.5t8 -123h-144q0 51 -5.5 88t-15 64t-30 44.5t-40 27.5t-57.5 15t-71 6.5t-90 1.5q-163 0 -218.5 -44.5t-55.5 -168.5q0 -97 35.5 -145t132.5 -82l299 -104q160 -55 218 -131t58 -228q-1 -51 -5.5 -90.5 t-17 -85.5t-39.5 -81.5t-67 -57.5q-91 -53 -252 -53v-140h-135v138q-181 4 -270 55q-43 24 -71.5 63t-42 89.5t-18 93t-5.5 98.5z" />
<glyph unicode="%" horiz-adv-x="1923" d="M190 1008q0 180 27 247q26 69 85 94t194 25t193.5 -25t84.5 -94q27 -67 27 -247q0 -120 -7.5 -178.5t-29.5 -94.5q-31 -55 -87 -74.5t-181 -19.5t-181.5 19.5t-87.5 74.5q-22 36 -29.5 94.5t-7.5 178.5zM307 1008q0 -133 6.5 -181t34.5 -67q20 -12 51.5 -15.5t96.5 -3.5 t96 3.5t51 15.5q28 19 34.5 67t6.5 181q0 122 -5 170t-26 69q-19 19 -50 23t-107 4q-77 0 -108 -4t-50 -23q-21 -21 -26 -69t-5 -170zM496 0l819 1366h112l-819 -1366h-112zM1120 358q0 180 27 248q26 69 84.5 94t193.5 25t194 -25t85 -94q27 -67 27 -248q0 -120 -7.5 -178 t-29.5 -94q-31 -55 -87.5 -74.5t-181.5 -19.5t-181 19.5t-87 74.5q-22 36 -29.5 94t-7.5 178zM1237 358q0 -133 6.5 -180.5t34.5 -66.5q20 -12 51 -15.5t96 -3.5t96.5 3.5t51.5 15.5q28 19 34.5 66.5t6.5 180.5q0 123 -5 171t-26 69q-19 19 -50 23t-108 4t-107.5 -4 t-49.5 -23q-21 -21 -26 -69t-5 -171z" />
<glyph unicode="&#x26;" horiz-adv-x="1271" d="M125 383q0 152 43 227t143 97v4q-91 19 -130.5 87.5t-39.5 209.5q0 199 90 292q43 45 113 63.5t213 18.5q245 0 326 -75q44 -40 63.5 -104.5t24.5 -184.5h-146q-3 55 -7.5 89.5t-17 63t-29 43t-49 24.5t-70.5 12.5t-99 2.5t-99.5 -3.5t-70.5 -14.5t-48.5 -27.5 t-27.5 -48.5t-14.5 -70.5t-3.5 -99.5q0 -77 10.5 -119.5t38.5 -64.5q44 -33 168 -33h731v-129h-172v-260q0 -114 -23 -189.5t-75 -125.5q-51 -49 -127.5 -66.5t-243.5 -17.5q-169 0 -245.5 17.5t-127.5 66.5q-98 98 -98 315zM279 393q0 -62 4.5 -103.5t18.5 -74.5 t34.5 -51.5t58.5 -30.5t84 -16t117 -4q113 0 175.5 12.5t94.5 46.5q30 30 42 81.5t12 139.5v250h-410q-78 0 -120 -8.5t-69 -37.5t-34.5 -74.5t-7.5 -129.5z" />
<glyph unicode="'" horiz-adv-x="382" d="M123 1434h137l-14 -375h-109z" />
<glyph unicode="(" horiz-adv-x="673" d="M141 -20v1181q0 219 69.5 306t244.5 87h49v-127h-37q-90 0 -135 -45q-28 -29 -36.5 -68.5t-8.5 -137.5v-1211q0 -98 8.5 -138t36.5 -69q45 -45 135 -45h37v-127h-49q-175 0 -244.5 87t-69.5 307z" />
<glyph unicode=")" horiz-adv-x="673" d="M170 -287h37q90 0 135 45q28 29 36.5 69t8.5 138v1209q0 100 -8.5 139.5t-36.5 68.5q-45 45 -135 45h-37v127h49q175 0 244 -86.5t69 -306.5v-1181q0 -220 -69 -307t-244 -87h-49v127z" />
<glyph unicode="*" horiz-adv-x="1015" d="M143 1143l35 100l281 -100v291h100v-291l279 100l34 -100l-280 -105l168 -239l-80 -60l-170 248l-182 -248l-80 60l174 239z" />
<glyph unicode="+" d="M147 629v129h404v407h139v-407h404v-129h-404v-410h-139v410h-404z" />
<glyph unicode="," horiz-adv-x="425" d="M61 -205l99 385h172l-162 -385h-109z" />
<glyph unicode="-" horiz-adv-x="573" d="M74 436v137h424v-137h-424z" />
<glyph unicode="." horiz-adv-x="436" d="M137 0v205h164v-205h-164z" />
<glyph unicode="/" horiz-adv-x="1161" d="M0 -293l1010 1727h151l-1011 -1727h-150z" />
<glyph unicode="0" d="M125 682q0 280 18.5 405.5t87.5 196.5q58 60 138 79t252 19t251 -19t138 -79q69 -71 87.5 -196.5t18.5 -405.5q0 -279 -18.5 -404t-87.5 -196q-59 -60 -138 -79t-251 -19t-252 19t-138 79q-69 71 -87.5 196t-18.5 404zM279 682q0 -247 13.5 -359.5t53.5 -150.5 q37 -35 93.5 -46t181.5 -11q124 0 180.5 11t93.5 46q40 38 54 151t14 359q0 247 -14 360.5t-54 151.5q-37 35 -93.5 46t-180.5 11q-125 0 -181.5 -11t-93.5 -46q-40 -38 -53.5 -151t-13.5 -361z" />
<glyph unicode="1" d="M250 0v131h330v1086l-330 -132v146l340 135h141v-1235h277v-131h-758z" />
<glyph unicode="2" d="M168 0v152q0 79 3 129t15.5 96.5t30 74.5t53 59t78 54.5t111.5 55.5l286 135q101 47 143 107.5t42 160.5q0 147 -60 193q-29 22 -81.5 29t-145.5 7q-70 0 -113.5 -3t-80 -13.5t-55 -26.5t-32 -47.5t-18 -69.5t-6.5 -100h-145q1 149 32.5 229t102.5 115q80 45 313 45 q120 0 198.5 -13.5t129.5 -49.5q114 -82 114 -311q0 -249 -278 -377l-291 -137q-93 -44 -135 -86q-36 -36 -46.5 -71.5t-10.5 -121.5v-84h768v-131h-922z" />
<glyph unicode="3" d="M145 383h148q3 -119 22.5 -173t65.5 -71q72 -26 237 -26q72 0 118 3.5t83.5 15.5t58 30t34 51.5t18 74.5t4.5 105q0 56 -3 93t-13.5 66.5t-25.5 45.5t-42.5 27t-61.5 14.5t-86 3.5h-217v129h220q114 0 159 27q34 21 47 65t13 127q0 61 -3.5 99.5t-16 70t-31 47.5 t-54 27.5t-78.5 14.5t-112 3q-74 0 -118.5 -2.5t-83 -13.5t-57 -27t-32.5 -49t-18.5 -72.5t-6.5 -105.5h-143q2 143 26.5 217t84.5 115q98 67 356 67q134 0 209.5 -16.5t126.5 -60.5q96 -84 96 -299q0 -140 -38.5 -208t-129.5 -87v-4q100 -22 143 -97t43 -227 q0 -246 -120 -340q-47 -37 -125.5 -48t-202.5 -11q-175 0 -261.5 15t-133.5 54q-53 44 -76 121t-23 209z" />
<glyph unicode="4" d="M115 315v156l604 895h248v-922h176v-129h-176v-315h-152v315h-700zM264 444h555v797h-18l-537 -790v-7z" />
<glyph unicode="5" d="M143 373h148q3 -64 7.5 -102t19.5 -70t34 -47t60.5 -25.5t88 -13t126.5 -2.5q104 0 162 11.5t95 49.5t48.5 97t11.5 165q0 211 -76 258q-55 37 -237 37q-116 0 -193.5 -15t-144.5 -50l-98 32v668h837v-131h-690v-430h2q49 31 114 43t179 12q115 0 190.5 -12t130.5 -38.5 t84 -77t41.5 -119.5t12.5 -175q0 -254 -84 -350q-50 -57 -138.5 -80.5t-234.5 -23.5q-152 0 -231 10.5t-129 36.5q-69 37 -101 116.5t-35 225.5z" />
<glyph unicode="6" d="M154 684q0 209 14 334.5t38.5 183.5t67.5 98q50 46 125 64t217 18q162 0 240 -14.5t125 -52.5q47 -40 70 -108.5t26 -182.5h-143q-3 55 -8 88.5t-19 61.5t-33 41.5t-56.5 23t-81 12t-115.5 2.5q-112 0 -168 -15t-86 -54q-34 -45 -45 -135.5t-13 -290.5h2 q59 43 132.5 60.5t201.5 17.5q148 0 224 -16t124 -56q52 -44 76.5 -129t24.5 -225q0 -145 -26.5 -229.5t-86.5 -131.5q-46 -37 -127 -51t-242 -14q-155 0 -234 24.5t-126 87.5q-60 79 -79 194t-19 394zM309 635l2 -129q1 -91 5.5 -149t18.5 -105.5t34 -71.5t58.5 -41 t84.5 -21.5t119 -4.5q167 0 229 30q86 47 86 275q0 125 -25 190t-79 80q-75 21 -219 21q-109 0 -168.5 -14t-145.5 -60z" />
<glyph unicode="7" d="M143 1233v133h947v-143l-646 -1223h-168l658 1233h-791z" />
<glyph unicode="8" d="M141 375q0 156 43.5 232.5t143.5 99.5v4q-88 19 -126 89.5t-38 211.5q0 238 125 317q83 53 329 53q247 0 330 -53q127 -78 127 -317q0 -141 -38 -211.5t-126 -89.5v-4q100 -23 143.5 -99.5t43.5 -232.5q0 -251 -135 -336q-85 -55 -345 -55q-257 0 -342 55 q-135 84 -135 336zM293 383q0 -103 16 -158t53 -80q29 -20 83 -27t173 -7q122 0 177.5 8.5t85.5 30.5q34 25 48.5 79.5t14.5 153.5q0 62 -3.5 100t-17 70t-33.5 48t-59.5 27t-87.5 14t-125 3t-125 -3t-87.5 -14t-59 -27t-33 -48t-17 -70t-3.5 -100zM307 1001q0 -53 3.5 -86 t17 -60.5t32.5 -41.5t57 -24t83 -12.5t118 -2.5t118.5 2.5t83.5 12t57.5 24t33 41.5t17.5 60.5t4 86.5q0 59 -4 96.5t-17 68t-32.5 46.5t-57.5 26.5t-84 13.5t-119 3q-72 0 -118 -3t-83.5 -14t-56.5 -27t-32.5 -46.5t-17 -67.5t-3.5 -96z" />
<glyph unicode="9" d="M145 354h148q2 -58 7 -93t19.5 -64.5t34 -44t59 -24.5t86 -12.5t122.5 -2.5q109 0 163.5 13t83.5 48q39 47 51.5 134t12.5 306h-2q-58 -44 -130.5 -60.5t-201.5 -16.5q-149 0 -226 15.5t-124 55.5q-53 44 -77 130t-24 227t26.5 224t86.5 130q45 36 126.5 49.5t244.5 13.5 q63 0 103 -2t87 -10t78.5 -23.5t62.5 -42.5t54 -67q46 -78 57.5 -211t11.5 -414q0 -232 -21.5 -346t-78.5 -180q-50 -59 -126 -80.5t-234 -21.5q-170 0 -250 14t-127 53q-50 42 -74.5 112.5t-28.5 190.5zM295 954q0 -124 25 -188.5t79 -83.5q61 -20 215 -20q117 0 173.5 13 t144.5 62q0 240 -15.5 335t-66.5 134q-60 47 -238 47q-169 0 -231 -30q-86 -45 -86 -269z" />
<glyph unicode=":" horiz-adv-x="436" d="M137 0v205h164v-205h-164zM137 784v205h164v-205h-164z" />
<glyph unicode=";" horiz-adv-x="425" d="M61 -205l99 385h172l-162 -385h-109zM160 784v205h164v-205h-164z" />
<glyph unicode="&#x3c;" d="M176 633v121l887 413v-141l-737 -334l737 -334v-139z" />
<glyph unicode="=" d="M147 444v129h947v-129h-947zM147 813v129h947v-129h-947z" />
<glyph unicode="&#x3e;" d="M178 219v139l737 336l-737 334v139l887 -413v-121z" />
<glyph unicode="?" horiz-adv-x="1001" d="M88 993q1 149 31 229t98 115q42 25 111 35t190 10t193.5 -13t124.5 -52q102 -73 102 -268q0 -123 -61.5 -207.5t-196.5 -149.5l-94 -45q-52 -25 -73 -66.5t-21 -119.5v-92h-152v92q0 75 6.5 113t26.5 71q41 71 119 111l129 59q89 43 126 96t37 138q0 119 -55 163 q-54 41 -207 41q-50 0 -84 -1.5t-65 -7t-50 -13t-36 -22.5t-25.5 -32t-15 -46t-9 -60.5t-4.5 -77.5h-145zM334 0v205h164v-205h-164z" />
<glyph unicode="@" horiz-adv-x="1705" d="M150 506q0 239 16 362t57 201q57 103 180.5 141.5t395.5 38.5q256 0 382.5 -15.5t202.5 -62.5q67 -42 102.5 -100.5t52.5 -164t17 -285.5q0 -299 -66.5 -420t-232.5 -121q-70 0 -116 17t-99 61q-74 -43 -137.5 -60.5t-146.5 -17.5q-157 0 -213 54.5t-56 205.5 q0 159 22.5 296.5t57.5 192.5q34 54 95 77.5t167 23.5q77 0 132.5 -16t113.5 -56l6 57h117l-55 -659q0 -74 112 -74q70 0 106.5 34.5t51.5 118.5t15 247q0 252 -24 353.5t-95 145.5q-57 35 -167.5 44.5t-357.5 9.5q-156 0 -242.5 -12t-123 -32t-66.5 -61q-38 -52 -58 -196.5 t-20 -327.5q0 -370 60 -500q34 -72 121 -101.5t270 -29.5q181 0 297.5 10.5t226.5 36.5l19 -121q-215 -41 -506 -41q-182 0 -291.5 21.5t-172.5 69t-97 133.5q-29 72 -41 190t-12 332zM614 334q0 -91 28 -120.5t114 -29.5t145 17t121 59l43 494q-56 38 -108.5 54.5 t-122.5 16.5q-81 0 -118 -19t-52 -67q-17 -57 -33.5 -189t-16.5 -216z" />
<glyph unicode="A" horiz-adv-x="1255" d="M25 0l501 1366h205l500 -1366h-158l-115 322h-659l-115 -322h-159zM344 451h569l-282 792h-4z" />
<glyph unicode="B" horiz-adv-x="1251" d="M170 0v1366h436q162 0 248 -20.5t137 -71.5q86 -86 86 -258q0 -119 -33.5 -185.5t-119.5 -115.5v-2q107 -37 154.5 -117.5t47.5 -228.5q0 -197 -102 -285q-50 -44 -133.5 -63t-235.5 -19h-485zM317 764h236q184 0 249.5 12t94.5 51q37 48 37 172q0 83 -13.5 129t-43.5 66 q-38 27 -98 35t-226 8h-236v-473zM319 129h281q127 0 181 4.5t87 16.5q61 23 84 73t23 160q0 163 -55 207q-40 28 -99 36.5t-221 8.5h-281v-506z" />
<glyph unicode="C" horiz-adv-x="1263" d="M147 682q0 286 21.5 407.5t85.5 194.5q55 62 137 80t281 18q120 0 193.5 -12.5t125.5 -46.5q61 -39 92.5 -119t42.5 -217h-145q-14 173 -76 223q-24 20 -64.5 29t-76 10.5t-113.5 1.5q-121 0 -183.5 -10.5t-96.5 -46.5q-42 -46 -56 -147t-14 -365q0 -263 14 -363.5 t56 -146.5q34 -36 96.5 -46.5t183.5 -10.5q114 0 170 7.5t90 35.5q33 27 50.5 82t25.5 153h150q-10 -140 -43.5 -220.5t-92.5 -125.5q-50 -37 -128 -50t-201 -13q-199 0 -281 18t-137 80q-64 73 -85.5 194.5t-21.5 405.5z" />
<glyph unicode="D" horiz-adv-x="1308" d="M170 0v1366h508q140 0 228 -28.5t141 -90.5q74 -87 95 -204.5t21 -360.5q0 -248 -22 -362.5t-94 -200.5q-53 -62 -141 -90.5t-228 -28.5h-508zM319 131h340q114 0 178.5 20.5t100.5 69.5q44 58 58 147.5t14 313.5q0 226 -14 315.5t-58 147.5q-36 49 -100.5 69.5 t-178.5 20.5h-340v-1104z" />
<glyph unicode="E" horiz-adv-x="1087" d="M170 0v1366h813v-129h-664v-479h615v-129h-615v-500h680v-129h-829z" />
<glyph unicode="F" horiz-adv-x="1028" d="M170 0v1366h793v-131h-644v-477h607v-129h-607v-629h-149z" />
<glyph unicode="G" horiz-adv-x="1298" d="M147 682q0 286 21.5 407.5t85.5 194.5q55 62 137 80t281 18q152 0 222 -18t124 -66q48 -46 71 -112.5t35 -192.5h-147q-8 91 -21.5 136t-42.5 73q-32 31 -81 40t-181 9q-121 0 -183.5 -10.5t-96.5 -46.5q-42 -46 -56 -147t-14 -365q0 -263 14 -363.5t56 -146.5 q34 -36 96.5 -46.5t183.5 -10.5q146 0 209 13.5t92 53.5q34 46 46.5 122t15.5 255h-291v131h438v-102q0 -215 -23 -326t-83 -180q-51 -57 -128 -77.5t-255 -20.5q-199 0 -281 18t-137 80q-64 73 -85.5 194.5t-21.5 405.5z" />
<glyph unicode="H" horiz-adv-x="1353" d="M170 0v1366h149v-608h715v608h150v-1366h-150v629h-715v-629h-149z" />
<glyph unicode="I" horiz-adv-x="489" d="M170 0v1366h149v-1366h-149z" />
<glyph unicode="J" horiz-adv-x="806" d="M47 16l19 127q117 -28 200 -28q120 0 173 63.5t53 208.5v979h149v-967q0 -219 -89.5 -317t-287.5 -98q-106 0 -217 32z" />
<glyph unicode="K" horiz-adv-x="1216" d="M170 0v1366h149v-788l670 788h174l-489 -571l524 -795h-176l-444 684l-259 -301v-383h-149z" />
<glyph unicode="L" horiz-adv-x="1064" d="M170 0v1366h149v-1235h666v-131h-815z" />
<glyph unicode="M" horiz-adv-x="1697" d="M170 0v1366h242l434 -981h6l434 981h242v-1366h-150v1235l-16 -37l-438 -993h-148l-440 993l-17 37v-1235h-149z" />
<glyph unicode="N" horiz-adv-x="1370" d="M170 0v1366h231l631 -1200l19 -37v1237h149v-1366h-231l-631 1198l-19 37v-1235h-149z" />
<glyph unicode="O" horiz-adv-x="1347" d="M147 682q0 279 20 404.5t93 197.5q61 60 145.5 79t268.5 19t268 -19t145 -79q73 -72 93 -197.5t20 -404.5q0 -278 -20 -403t-93 -197q-61 -60 -145 -79t-268 -19t-268.5 19t-145.5 79q-73 72 -93 197t-20 403zM301 682q0 -247 15 -359.5t59 -150.5q40 -35 101.5 -46 t197.5 -11t197.5 11t101.5 46q44 38 59 150.5t15 359.5q0 249 -15 361.5t-59 150.5q-40 35 -101.5 46t-197.5 11t-197.5 -11t-101.5 -46q-44 -38 -59 -150.5t-15 -361.5z" />
<glyph unicode="P" horiz-adv-x="1191" d="M170 0v1366h444q252 0 353 -76q63 -49 90.5 -136.5t27.5 -231.5t-28 -232t-90 -137q-99 -76 -353 -76h-295v-477h-149zM319 608h242q130 0 197.5 7.5t105.5 33.5q42 30 58 92t16 181t-16 181.5t-58 92.5q-38 26 -105.5 33.5t-197.5 7.5h-242v-629z" />
<glyph unicode="Q" horiz-adv-x="1347" d="M147 682q0 279 20 404.5t93 197.5q61 60 145.5 79t268.5 19t268 -19t145 -79q73 -72 93 -197.5t20 -404.5q0 -278 -20 -403t-93 -197q-43 -40 -88 -59l146 -228h-168l-119 195q-61 -6 -184 -6q-184 0 -268.5 19t-145.5 79q-73 72 -93 197t-20 403zM301 682 q0 -247 15 -359.5t59 -150.5q40 -35 101.5 -46t197.5 -11t197.5 11t101.5 46q44 38 59 150.5t15 359.5q0 249 -15 361.5t-59 150.5q-40 35 -101.5 46t-197.5 11t-197.5 -11t-101.5 -46q-44 -38 -59 -150.5t-15 -361.5z" />
<glyph unicode="R" horiz-adv-x="1218" d="M170 0v1366h444q255 0 359 -78q61 -47 87.5 -131t26.5 -221q-1 -56 -3.5 -91t-10.5 -84.5t-27.5 -88.5t-50.5 -70q-56 -54 -155 -78l264 -524h-168l-248 508q-6 0 -12 -0.5t-11.5 -0.5h-11t-10 -0.5t-9 -0.5h-8h-6h-4.5h-2h-295v-506h-149zM319 635h242q132 0 199.5 8 t105.5 35q40 29 56 88.5t16 169.5t-16 168.5t-56 87.5q-38 27 -105.5 35t-199.5 8h-242v-600z" />
<glyph unicode="S" horiz-adv-x="1132" d="M98 383h152q0 -48 4 -84.5t14.5 -64.5t22.5 -47.5t33.5 -32.5t41.5 -21t53 -12t61.5 -5t72.5 -1t70.5 0.5t60 3t52.5 7t42 13t35.5 21t25.5 30t19 41t10 54t4 69.5q0 96 -37.5 147t-142.5 87l-301 104q-144 50 -198 129.5t-54 222.5q0 185 97 261.5t317 76.5 q129 0 210 -15t138.5 -56.5t81 -113.5t23.5 -187h-144q0 51 -5.5 88t-15 64t-30 44.5t-40 27.5t-57.5 15t-71 6.5t-90 1.5q-163 0 -218.5 -44.5t-55.5 -168.5q0 -97 35.5 -145t131.5 -82l299 -104q160 -56 218.5 -131.5t58.5 -227.5q0 -70 -10 -124t-27 -93t-48 -66.5 t-65.5 -44.5t-86.5 -26t-104.5 -12.5t-125.5 -3.5q-69 0 -120.5 4t-101.5 14.5t-84.5 29t-65 48.5t-48 72t-27.5 99.5t-10 131.5z" />
<glyph unicode="T" horiz-adv-x="1118" d="M59 1235v131h998v-131h-424v-1235h-150v1235h-424z" />
<glyph unicode="U" horiz-adv-x="1343" d="M166 436v930h149v-930q0 -111 12 -171.5t46 -92.5q33 -35 100 -46t199 -11q131 0 197.5 11t101.5 46q32 32 43.5 92.5t11.5 171.5v930h150v-930q0 -156 -26.5 -243.5t-86.5 -133.5q-58 -44 -138.5 -59.5t-252.5 -15.5q-173 0 -253 15.5t-140 59.5q-60 46 -86.5 133.5 t-26.5 243.5z" />
<glyph unicode="V" horiz-adv-x="1226" d="M23 1366h159l428 -1243h4l426 1243h162l-483 -1366h-213z" />
<glyph unicode="W" horiz-adv-x="1835" d="M27 1366h159l320 -1243h8l317 1208h173l317 -1208h8l320 1243h159l-374 -1366h-220l-292 1141h-9l-292 -1141h-220z" />
<glyph unicode="X" horiz-adv-x="1200" d="M33 0l481 705l-451 661h170l367 -543l365 543h170l-449 -661l479 -705h-174l-391 584l-393 -584h-174z" />
<glyph unicode="Y" horiz-adv-x="1165" d="M23 1366h167l390 -704h6l389 704h168l-486 -858v-508h-149v508z" />
<glyph unicode="Z" horiz-adv-x="1153" d="M88 0v135l791 1102h-750v129h911v-133l-786 -1104h807v-129h-973z" />
<glyph unicode="[" horiz-adv-x="673" d="M141 -414v1968h342v-120h-196v-1727h196v-121h-342z" />
<glyph unicode="\" horiz-adv-x="1161" d="M0 1434h152l1009 -1727h-149z" />
<glyph unicode="]" horiz-adv-x="673" d="M190 -293h197v1727h-197v120h342v-1968h-342v121z" />
<glyph unicode="^" horiz-adv-x="1036" d="M61 752l365 616h184l365 -616h-154l-305 505l-303 -505h-152z" />
<glyph unicode="_" horiz-adv-x="1105" d="M41 -137h1024v-129h-1024v129z" />
<glyph unicode="`" horiz-adv-x="1024" d="M225 1399h170l172 -273h-123z" />
<glyph unicode="a" horiz-adv-x="1040" d="M111 289q0 177 98 250q43 31 105 43t175 12h140q58 0 137 -16v36q0 157 -29 209q-22 38 -69 51t-140 13q-101 0 -149 -14t-68.5 -49t-25.5 -111h-135q9 98 27.5 147.5t58.5 81.5q79 64 282 64q121 0 192.5 -17.5t117 -65.5t61.5 -124.5t16 -204.5v-594h-135v72 q-76 -49 -147 -68.5t-172 -19.5q-183 0 -261.5 70.5t-78.5 234.5zM252 289q0 -114 59 -158q39 -29 156 -29q93 0 161 21t138 72v282h-277q-83 0 -121 -7.5t-63 -29.5q-53 -47 -53 -151z" />
<glyph unicode="b" horiz-adv-x="1071" d="M150 0v1434h135v-512q77 46 147.5 65t165.5 19q75 0 127.5 -8.5t94 -31.5t66 -58.5t40.5 -95.5t22 -135t6 -183q0 -109 -6 -183.5t-22 -134t-40.5 -94.5t-66.5 -58t-94.5 -31.5t-128.5 -8.5q-94 0 -165.5 20.5t-145.5 67.5v-72h-135zM289 197q71 -50 138.5 -71.5 t154.5 -21.5q56 0 89 3.5t61.5 20t41 38.5t22 71t11.5 105.5t2 153.5t-2 153t-11.5 104.5t-22 70.5t-40.5 38t-60.5 19.5t-88.5 3.5q-89 0 -156 -19.5t-139 -66.5v-602z" />
<glyph unicode="c" horiz-adv-x="995" d="M115 496q0 111 6 185.5t24 134.5t44.5 94.5t73.5 57t105.5 30.5t145.5 8q218 0 295 -74q34 -32 50.5 -81.5t25.5 -143.5h-137q-5 76 -25.5 112.5t-67.5 51t-143 14.5q-62 0 -98 -3.5t-67.5 -19.5t-46 -38t-25 -70.5t-13 -105t-2.5 -152.5q0 -57 1 -97.5t4 -79.5 t6.5 -64.5t12 -50t17.5 -38.5t25 -26.5t32 -18.5t41.5 -10.5t51.5 -5.5t63 -1q148 0 194 37t46 154h141q-4 -104 -24 -159.5t-64 -90.5q-75 -61 -293 -61q-87 0 -145.5 7.5t-105.5 30.5t-73.5 57t-44.5 94.5t-24 135.5t-6 187z" />
<glyph unicode="d" horiz-adv-x="1071" d="M115 496q0 108 6 182.5t22 134t40.5 95t66 58.5t94 31.5t127.5 8.5q96 0 166 -19t149 -65v512h136v-1434h-136v72q-75 -47 -146.5 -67.5t-164.5 -20.5q-77 0 -129.5 8.5t-94.5 31.5t-67 58t-41 95t-22 135t-6 184zM260 494q0 -71 1 -118t5.5 -91t11 -69.5t19.5 -48 t28 -33t40.5 -18.5t53 -10t68.5 -2q89 0 156.5 21.5t138.5 71.5v602q-72 47 -139 66.5t-158 19.5q-55 0 -87.5 -3.5t-60.5 -19.5t-41 -38.5t-22.5 -71t-11.5 -105.5t-2 -153z" />
<glyph unicode="e" horiz-adv-x="1019" d="M115 494q0 111 6 186t24 135t44.5 94.5t73 57.5t105 31t144.5 8q140 0 216 -27t116 -96q57 -95 57 -375q0 -33 -2 -62h-641q3 -146 15.5 -212t48.5 -95q26 -22 71 -29.5t125 -7.5q146 0 191.5 34t48.5 145h139q-5 -96 -27 -154t-69 -90q-76 -53 -283 -53q-88 0 -147 8 t-106.5 30.5t-74.5 57t-45 94.5t-24 134.5t-6 185.5zM260 561h502q-2 110 -9 169.5t-26 92.5q-22 40 -68 53t-141 13q-87 0 -133 -8.5t-72 -34.5q-29 -30 -39.5 -92.5t-13.5 -192.5z" />
<glyph unicode="f" horiz-adv-x="579" d="M43 874v115h139v150q0 161 66 233q66 78 221 78q52 0 111 -10l-19 -117q-39 6 -84 6q-85 0 -120 -39.5t-35 -136.5v-164h239v-115h-239v-874h-140v874h-139z" />
<glyph unicode="g" horiz-adv-x="1064" d="M115 494q0 108 6 183t22 135t40.5 95.5t66 58.5t94 31.5t127.5 8.5q96 0 167 -20t148 -68v71h136v-999q0 -235 -86.5 -324.5t-313.5 -89.5q-157 0 -340 59l19 125q92 -34 165.5 -48.5t161.5 -14.5q150 0 203 53q51 54 51 219v103q-74 -47 -144.5 -67.5t-162.5 -20.5 q-77 0 -129.5 8.5t-94.5 31.5t-67 58t-41 94.5t-22 134t-6 183.5zM260 494q0 -71 1 -118t5.5 -91t11 -69.5t19.5 -48t28 -33t40.5 -18.5t53 -10t68.5 -2q89 0 156.5 21.5t138.5 71.5v600q-71 49 -138 68.5t-159 19.5q-55 0 -87.5 -3.5t-60.5 -20t-41 -38.5t-22.5 -71 t-11.5 -105.5t-2 -152.5z" />
<glyph unicode="h" horiz-adv-x="1083" d="M150 0v1434h135v-512q78 45 148.5 64.5t160.5 19.5q198 0 275 -90.5t77 -321.5v-594h-139v614q0 151 -39 213q-19 31 -60.5 44.5t-117.5 13.5q-92 0 -159.5 -19.5t-141.5 -66.5v-799h-139z" />
<glyph unicode="i" horiz-adv-x="432" d="M143 1161v205h144v-205h-144zM145 0v989h140v-989h-140z" />
<glyph unicode="j" horiz-adv-x="446" d="M-53 -412l16 117q47 -8 76 -8q68 0 94.5 39t26.5 137v1116h139v-1104q0 -164 -59.5 -235.5t-196.5 -71.5q-45 0 -96 10zM158 1161v205h143v-205h-143z" />
<glyph unicode="k" horiz-adv-x="980" d="M150 0v1434h139v-934l487 489h174l-395 -399l420 -590h-176l-340 492l-170 -170v-322h-139z" />
<glyph unicode="l" horiz-adv-x="438" d="M150 0v1434h139v-1434h-139z" />
<glyph unicode="m" horiz-adv-x="1660" d="M143 0v989h136v-71q73 48 140 68t156 20q197 0 271 -105q85 57 159.5 81t172.5 24q195 0 271.5 -91t76.5 -321v-594h-140v614q0 152 -38 213q-35 58 -174 58q-169 0 -285 -86q18 -83 18 -205v-594h-139v614q0 153 -35 213q-33 58 -164 58q-90 0 -154 -19.5t-132 -68.5 v-797h-140z" />
<glyph unicode="n" horiz-adv-x="1077" d="M143 0v989h136v-71q77 48 148.5 68t164.5 20q196 0 273 -90.5t77 -321.5v-594h-139v614q0 151 -39 213q-35 58 -180 58q-93 0 -160.5 -19.5t-140.5 -68.5v-797h-140z" />
<glyph unicode="o" horiz-adv-x="1050" d="M117 496q0 111 6.5 185.5t24.5 134.5t45.5 94.5t75.5 57t108 30.5t149 8t149 -8t108 -30.5t76 -57t46 -94.5t24.5 -134.5t6.5 -185.5t-6.5 -186.5t-24.5 -135.5t-46 -94.5t-76 -57t-108 -30.5t-149 -8t-149 8t-108 30.5t-75.5 57t-45.5 95t-24.5 135.5t-6.5 186zM262 496 q0 -97 2.5 -153.5t13.5 -105.5t25.5 -71t47.5 -38.5t71.5 -20t103.5 -3.5q49 0 80.5 2t61.5 9.5t47.5 18t33 33.5t22.5 48.5t12 69.5t6.5 91.5t1.5 119.5q0 96 -2.5 152.5t-13.5 105t-26 70.5t-48 38t-71.5 19.5t-103.5 3.5t-103 -3.5t-71.5 -19.5t-48 -38t-25.5 -70.5 t-13.5 -105t-2.5 -152.5z" />
<glyph unicode="p" horiz-adv-x="1062" d="M143 -406v1395h136v-69q80 47 149.5 66.5t161.5 19.5q76 0 128.5 -8.5t94 -31.5t66.5 -58.5t41 -95t22 -134t6 -182.5q0 -109 -6 -184t-22 -135t-40.5 -95t-66.5 -58t-94.5 -31.5t-128.5 -8.5q-94 0 -164.5 20.5t-142.5 67.5v-478h-140zM283 197q71 -50 138 -71.5 t154 -21.5q56 0 89 3.5t61.5 20t41.5 38.5t22.5 71t11.5 105.5t2 153.5q0 96 -2 152.5t-11.5 105t-22.5 70.5t-41.5 38t-61.5 19.5t-89 3.5q-88 0 -155 -19.5t-137 -66.5v-602z" />
<glyph unicode="q" horiz-adv-x="1064" d="M115 496q0 108 6 182.5t22 134t41 95t67 58.5t95 31.5t129 8.5q93 0 163 -20t148 -66v69h136v-1395h-140v478q-74 -47 -144.5 -67.5t-162.5 -20.5q-77 0 -129.5 8.5t-94.5 31.5t-67 58t-41 95t-22 135t-6 184zM260 496q0 -72 1 -119t5.5 -91t11 -70t19.5 -48.5t28 -33 t40.5 -18.5t53 -10t68.5 -2q89 0 156.5 21.5t138.5 71.5v602q-72 47 -139 66.5t-156 19.5q-42 0 -69 -2t-52.5 -9.5t-40.5 -18t-28 -33t-19 -47.5t-11 -69t-6 -91t-1 -119z" />
<glyph unicode="r" horiz-adv-x="626" d="M143 0v989h136v-80q59 47 114 67.5t125 20.5q32 0 76 -8v-115q-38 3 -53 3q-77 0 -135.5 -22t-122.5 -73v-782h-140z" />
<glyph unicode="s" horiz-adv-x="962" d="M104 287h142q2 -61 11.5 -95t38 -55.5t72 -28t121.5 -6.5q131 0 175.5 29.5t44.5 116.5q0 71 -27.5 108.5t-97.5 59.5l-242 73q-205 63 -205 265q0 132 81 192t259 60q124 0 197 -21t110 -67q26 -34 38 -77t16 -124h-138q-1 110 -42 142t-179 32q-123 0 -167 -27.5 t-44 -103.5q0 -61 26 -94.5t91 -53.5l242 -73q122 -38 173.5 -103.5t51.5 -181.5q0 -152 -80 -211t-280 -59q-140 0 -216 21.5t-116 72.5q-26 34 -38 78t-18 131z" />
<glyph unicode="t" horiz-adv-x="643" d="M33 874v115h139v240h139v-240h242v-115h-242v-600q0 -89 34.5 -129.5t109.5 -40.5q46 0 131 23l16 -117q-82 -26 -151 -26q-181 0 -244 116q-35 62 -35 187v587h-139z" />
<glyph unicode="u" horiz-adv-x="1067" d="M135 395v594h139v-614q0 -151 39 -213q35 -58 179 -58q90 0 155.5 20.5t136.5 70.5v794h140v-989h-138v72q-72 -47 -141.5 -67.5t-159.5 -20.5q-197 0 -273.5 90t-76.5 321z" />
<glyph unicode="v" horiz-adv-x="913" d="M18 989h152l279 -870h12l280 870h152l-338 -989h-199z" />
<glyph unicode="w" horiz-adv-x="1402" d="M23 989h149l221 -870h6l203 837h199l203 -837h6l221 870h149l-268 -989h-205l-205 840h-2l-202 -840h-205z" />
<glyph unicode="x" horiz-adv-x="876" d="M16 0l349 524l-310 465h160l223 -352l224 352h159l-309 -465l348 -524h-164l-258 410l-258 -410h-164z" />
<glyph unicode="y" horiz-adv-x="892" d="M20 989h152l279 -870h14l260 870h145l-340 -1106q-33 -104 -48 -141.5t-38 -67.5q-70 -98 -217 -98q-39 0 -80 8l17 115q31 -2 55 -2q74 0 111.5 46t81.5 194l18 63h-72z" />
<glyph unicode="z" horiz-adv-x="831" d="M63 0v133l555 741h-530v115h682v-125l-561 -747h571v-117h-717z" />
<glyph unicode="{" horiz-adv-x="757" d="M109 516v115q64 19 90 59.5t26 122.5v346q0 219 69.5 306t244.5 87h49v-127h-37q-90 0 -135 -45q-28 -29 -36.5 -68.5t-8.5 -137.5v-367q0 -98 -28 -151t-97 -87q69 -34 97 -86.5t28 -150.5v-367q0 -98 8.5 -138t36.5 -69q45 -45 135 -45h37v-127h-49q-175 0 -244.5 87 t-69.5 307v346q0 86 -25 127t-91 63z" />
<glyph unicode="|" horiz-adv-x="1040" d="M451 -406v1840h139v-1840h-139z" />
<glyph unicode="}" horiz-adv-x="757" d="M170 -287h37q90 0 135 45q28 29 36.5 69t8.5 138v367q0 98 28 150.5t97 86.5q-69 34 -97 87t-28 151v367q0 98 -8.5 137.5t-36.5 68.5q-45 45 -135 45h-37v127h49q175 0 244 -86.5t69 -306.5v-346q0 -82 26 -122.5t91 -59.5v-115q-66 -22 -91.5 -63t-25.5 -127v-346 q0 -220 -69 -307t-244 -87h-49v127z" />
<glyph unicode="~" d="M129 1251q57 121 123.5 176.5t155.5 55.5q74 0 229 -74q90 -41 127 -53.5t74 -12.5q59 0 99 30.5t89 113.5l86 -51q-60 -119 -129.5 -173.5t-161.5 -54.5q-44 0 -95.5 18.5t-190.5 82.5q-82 39 -140 39q-54 0 -96 -35t-86 -117z" />
<glyph unicode="&#xa1;" horiz-adv-x="503" d="M170 -375l20 996h123l21 -996h-164zM170 784v205h164v-205h-164z" />
<glyph unicode="&#xa2;" d="M213 682q0 197 24.5 300t90.5 151q71 55 237 61v172h129v-172q136 -6 209 -47q54 -28 80 -84.5t37 -167.5h-137q-3 56 -16 89.5t-40 53.5q-48 35 -198 35q-79 0 -123.5 -6t-71.5 -25q-47 -31 -61.5 -107.5t-14.5 -252.5q0 -173 14.5 -250t59.5 -106q50 -33 199 -33 q88 0 137 8.5t76 30.5q47 39 47 149h139q-5 -95 -23.5 -151.5t-58.5 -89.5q-64 -56 -254 -68v-172h-129v172q-166 6 -237 61q-65 48 -90 150.5t-25 298.5z" />
<glyph unicode="&#xa3;" d="M100 0v117q83 20 109.5 79t26.5 224v209h-136v127h136l2 123q5 186 36.5 290.5t98.5 153.5q45 35 109 47t198 12q135 0 204 -17.5t113 -64.5q53 -56 72.5 -127t28.5 -184h-144q-7 97 -19 141t-38 74q-19 22 -57 33t-71 12.5t-101 1.5q-101 0 -150 -11t-74 -44 q-9 -12 -16.5 -28t-13 -39t-9.5 -42t-6.5 -50.5t-4.5 -51t-2.5 -58t-1 -56t-1 -59.5t-0.5 -56h389v-127h-389v-273q0 -87 -20 -132t-78 -91v-2h854v-131h-1045z" />
<glyph unicode="&#xa4;" d="M51 1167l80 80l193 -192q75 55 145 79.5t152 24.5t151 -24.5t141 -79.5l195 190l78 -78l-193 -192q107 -142 107 -293q0 -79 -24.5 -147t-80.5 -142l195 -194l-80 -80l-192 194q-133 -104 -295 -104q-148 0 -295 102l-193 -190l-78 78l189 192q-105 137 -105 293 q0 79 24.5 147t80.5 142zM272 684q0 -145 102 -247.5t247 -102.5t246.5 102.5t101.5 247.5t-101.5 247.5t-246.5 102.5t-247 -102.5t-102 -247.5z" />
<glyph unicode="&#xa5;" d="M59 1366h168l389 -704h7l389 704h168l-273 -481h191v-123h-260l-78 -137h338v-123h-404v-502h-149v502h-404v123h338l-78 137h-260v123h191z" />
<glyph unicode="&#xa6;" horiz-adv-x="1040" d="M451 317h139v-723h-139v723zM451 711v723h139v-723h-139z" />
<glyph unicode="&#xa7;" horiz-adv-x="1267" d="M154 565q0 168 102 262q-33 45 -47 96.5t-14 125.5q0 180 94 256.5t313 76.5q156 0 248 -27.5t137 -90.5q33 -43 46 -93t22 -167h-144q-3 79 -9 112t-23 60q-28 44 -90.5 62.5t-184.5 18.5q-160 0 -215 -41.5t-55 -162.5q0 -92 37 -142t131 -84l299 -104 q276 -94 276 -332q0 -66 -19 -112t-73 -107q92 -89 92 -252q0 -207 -129 -285q-98 -59 -317 -59q-170 0 -264 30t-144 101q-31 46 -43.5 99.5t-21.5 177.5h145q3 -83 9.5 -118.5t23.5 -64.5q29 -51 97.5 -72.5t197.5 -21.5q175 0 239 46.5t64 172.5q0 86 -39 137 q-25 29 -53.5 44.5t-112.5 44.5l-299 104q-276 96 -276 309zM293 588q0 -140 192 -205l299 -104q46 -16 101 -39q53 64 53 151q0 140 -190 207l-302 104q-30 9 -96 43q-57 -74 -57 -157z" />
<glyph unicode="&#xa8;" horiz-adv-x="1024" d="M276 1161v205h138v-205h-138zM610 1161v205h138v-205h-138z" />
<glyph unicode="&#xa9;" horiz-adv-x="1685" d="M143 682q0 190 94 351.5t255.5 255t351.5 93.5q143 0 272 -55.5t222.5 -149t148.5 -223t55 -272.5q0 -142 -55.5 -271t-149 -222.5t-222.5 -149t-271 -55.5q-190 0 -351.5 93.5t-255.5 254.5t-94 350zM236 682q0 -166 81.5 -307t221.5 -223t305 -82q123 0 235 48.5 t193.5 130.5t129.5 195.5t48 237.5q0 167 -81.5 308.5t-221 223.5t-303.5 82q-166 0 -306 -82t-221 -223.5t-81 -308.5zM553 684q0 118 7.5 175.5t27.5 94.5q29 56 83.5 76.5t174.5 20.5q103 0 153.5 -14.5t81.5 -53.5q21 -27 29.5 -57t17.5 -109h-114q-6 72 -19 98 q-13 23 -42.5 29t-108.5 6q-64 0 -93 -3t-46 -17q-24 -20 -29.5 -67.5t-5.5 -178.5q0 -132 5.5 -180t31.5 -68q12 -10 33.5 -14.5t41.5 -5t66 -0.5q43 0 65 0.5t43.5 6.5t29.5 12t16 25t10.5 38t5.5 57h117q-9 -79 -18.5 -110.5t-31.5 -61.5q-33 -39 -83 -53.5t-156 -14.5 q-130 0 -185 25t-83 94q-25 63 -25 250z" />
<glyph unicode="&#xaa;" horiz-adv-x="763" d="M131 649v96h471v-96h-471zM137 1001q0 91 50 128.5t173 37.5h76q25 0 62 -6v10q0 77 -19 96t-96 19q-80 0 -100 -14t-23 -72h-102q7 104 51.5 139t167.5 35q133 0 179 -45t46 -176v-309h-102v26q-43 -21 -76 -27.5t-86 -6.5q-106 0 -153.5 38.5t-47.5 126.5zM244 1001 q0 -47 20.5 -63t83.5 -16q84 0 150 39v120h-138q-71 0 -93.5 -15.5t-22.5 -64.5z" />
<glyph unicode="&#xab;" horiz-adv-x="980" d="M121 436v137l409 363v-164l-297 -266l297 -266v-164zM463 436v137l409 363v-164l-297 -266l297 -266v-164z" />
<glyph unicode="&#xac;" horiz-adv-x="1036" d="M74 416v131h887v-547h-140v416h-747z" />
<glyph unicode="&#xad;" horiz-adv-x="573" d="M74 436v137h424v-137h-424z" />
<glyph unicode="&#xae;" horiz-adv-x="1685" d="M143 682q0 190 94 351.5t255.5 255t351.5 93.5q143 0 272 -55.5t222.5 -149t148.5 -223t55 -272.5q0 -142 -55.5 -271t-149 -222.5t-222.5 -149t-271 -55.5q-190 0 -351.5 93.5t-255.5 254.5t-94 350zM236 682q0 -166 81.5 -307t221.5 -223t305 -82q123 0 235 48.5 t193.5 130.5t129.5 195.5t48 237.5q0 167 -81.5 308.5t-221 223.5t-303.5 82q-166 0 -306 -82t-221 -223.5t-81 -308.5zM588 324v718h262q155 0 215.5 -50.5t60.5 -180.5q0 -90 -31 -142.5t-96 -74.5l148 -270h-131l-137 254h-174v-254h-117zM702 676h109q97 0 135 7.5 t51 33.5t13 94q0 73 -15 98q-14 22 -50 27.5t-126 5.5h-117v-266z" />
<glyph unicode="&#xaf;" horiz-adv-x="1024" d="M258 1204v111h506v-111h-506z" />
<glyph unicode="&#xb0;" horiz-adv-x="776" d="M113 1176q0 114 80.5 194t195.5 80q114 0 194.5 -80t80.5 -194q0 -115 -80.5 -196t-194.5 -81q-115 0 -195.5 80.5t-80.5 196.5zM201 1176q0 -79 54.5 -136t131.5 -57q78 0 133 56.5t55 136.5q0 78 -55 134t-131 56q-78 0 -133 -56t-55 -134z" />
<glyph unicode="&#xb1;" d="M147 0v129h947v-129h-947zM147 629v129h404v407h139v-407h404v-129h-404v-410h-139v410h-404z" />
<glyph unicode="&#xb2;" horiz-adv-x="763" d="M111 844v92q0 81 13.5 123.5t47.5 70t109 58.5l157 65q54 23 74 49t20 70q0 65 -27.5 81.5t-113.5 16.5q-106 0 -130 -20t-25 -111h-113q0 75 12 119t45.5 69t81 32.5t131.5 7.5q74 0 117 -6.5t74 -30.5q63 -49 63 -160q0 -142 -164 -211l-157 -67q-63 -26 -81 -48.5 t-18 -74.5v-25h424v-100h-540z" />
<glyph unicode="&#xb3;" horiz-adv-x="763" d="M104 1059v8h113q1 -92 26.5 -112.5t135.5 -20.5q108 0 135 20t27 101q0 73 -19 91.5t-94 18.5h-137v99h137q69 0 88 16t19 74q0 78 -24 97t-122 19q-41 0 -63 -1t-42.5 -6.5t-28.5 -12.5t-15 -25t-8.5 -37t-2.5 -55h-110q0 141 54 188.5t218 47.5q142 0 193 -39 q34 -29 48.5 -67.5t14.5 -98.5q0 -59 -13.5 -93t-45.5 -57q37 -25 52 -61.5t15 -101.5q0 -119 -55 -168q-31 -29 -73.5 -39t-133.5 -10q-100 0 -149 8t-78 30q-34 26 -48 69t-14 118z" />
<glyph unicode="&#xb4;" horiz-adv-x="1024" d="M498 1126l170 273h172l-219 -273h-123z" />
<glyph unicode="&#xb5;" horiz-adv-x="1067" d="M135 -406v1395h139v-569q0 -163 41 -232q53 -84 199 -84q87 0 145 20t125 71v794h140v-989h-138v72q-66 -48 -126 -68t-136 -20q-156 0 -250 88v-478h-139z" />
<glyph unicode="&#xb6;" horiz-adv-x="1247" d="M143 936q0 163 20.5 250.5t74.5 128.5q69 51 249 51h248v-1772h-131v912h-117q-100 0 -162 13.5t-100 47.5q-46 43 -64 129t-18 240zM905 -406v1772h131v-1772h-131z" />
<glyph unicode="&#xb7;" horiz-adv-x="301" d="M63 573v205h175v-205h-175z" />
<glyph unicode="&#xb8;" horiz-adv-x="1024" d="M324 -410l137 273h164l-185 -273h-116z" />
<glyph unicode="&#xb9;" horiz-adv-x="763" d="M168 844v98h182v502l-182 -66v109l201 74h98v-619h151v-98h-450z" />
<glyph unicode="&#xba;" horiz-adv-x="763" d="M143 1104q0 166 46 218t194 52q76 0 120 -10.5t71.5 -42t37 -81.5t9.5 -136q0 -85 -9.5 -134.5t-37 -81t-71.5 -42t-120 -10.5q-148 0 -194 52t-46 216zM150 649v96h464v-96h-464zM252 1106q0 -48 1 -73.5t6 -49.5t12 -33t24 -16.5t35 -8.5t53 -1q50 0 72.5 3.5t38 24.5 t18 52.5t2.5 101.5q0 46 -1 72t-6.5 49t-12.5 32.5t-24 17t-35 8.5t-52 1t-52.5 -1t-35.5 -8.5t-24 -17t-12 -33t-6 -48.5t-1 -72z" />
<glyph unicode="&#xbb;" horiz-adv-x="980" d="M109 76v162l297 268l-297 266v164l409 -363v-137zM451 76v162l294 268l-294 266v164l409 -363v-137z" />
<glyph unicode="&#xbc;" horiz-adv-x="1923" d="M287 1186v108l200 72h99v-717h-117v602zM434 0l819 1366h113l-819 -1366h-113zM1014 158v100l340 459h159v-461h99v-98h-99v-158h-116v158h-383zM1143 256h258v344z" />
<glyph unicode="&#xbd;" horiz-adv-x="1923" d="M256 1186v108l201 72h98v-717h-117v602zM403 0l820 1366h112l-819 -1366h-113zM1118 0v92q0 81 13.5 123.5t47.5 70t109 58.5l158 66q54 23 74 48.5t20 69.5q0 65 -27.5 82t-113.5 17q-106 0 -130.5 -20t-25.5 -111h-113q0 75 12 119t46 68.5t81.5 32t131.5 7.5 q74 0 116.5 -6.5t73.5 -30.5q64 -50 64 -160q0 -142 -164 -211l-158 -67q-63 -26 -80.5 -48t-17.5 -75v-25h424v-100h-541z" />
<glyph unicode="&#xbe;" horiz-adv-x="1923" d="M205 874h112q2 -36 3.5 -54.5t9 -36.5t15.5 -24.5t28.5 -12t42.5 -6.5t63 -1q108 0 135 20t27 103q0 72 -19 90.5t-94 18.5h-137v98h137q69 0 88 16t19 76q0 78 -24 96.5t-122 18.5q-42 0 -63 -0.5t-41.5 -6t-28 -12t-14.5 -24.5t-8.5 -36.5t-3.5 -55.5h-111 q0 81 9.5 117.5t37.5 62.5q56 53 226 53q145 0 192 -39q64 -53 64 -166q0 -58 -14 -92t-46 -57q37 -25 52.5 -61.5t15.5 -100.5q0 -117 -56 -170q-31 -28 -73 -37.5t-133 -9.5q-112 0 -162.5 10.5t-79.5 40.5q-28 28 -37.5 65t-9.5 117zM526 0l820 1366h112l-819 -1366h-113 zM1106 158v100l340 459h160v-461h98v-98h-98v-158h-117v158h-383zM1235 256h258v344z" />
<glyph unicode="&#xbf;" horiz-adv-x="1001" d="M61 -59q0 123 61.5 207t196.5 149l95 45q52 25 73 66.5t21 119.5v93h151v-93q0 -76 -6 -113.5t-26 -70.5q-41 -71 -119 -111l-129 -59q-89 -43 -126.5 -95.5t-37.5 -137.5q0 -120 55 -164q54 -41 207 -41q50 0 84 1.5t65 7t50 13t36 22.5t25.5 32t15 46t9 60.5t4.5 77.5 h145q-1 -149 -31 -229t-98 -115q-42 -25 -111 -35t-190 -10q-120 0 -192.5 13t-124.5 52q-103 74 -103 269zM502 784v205h164v-205h-164z" />
<glyph unicode="&#xc0;" horiz-adv-x="1255" d="M25 0l501 1366h205l500 -1366h-158l-115 322h-659l-115 -322h-159zM344 451h569l-282 792h-4zM387 1757h170l172 -272h-123z" />
<glyph unicode="&#xc1;" horiz-adv-x="1255" d="M25 0l501 1366h205l500 -1366h-158l-115 322h-659l-115 -322h-159zM344 451h569l-282 792h-4zM526 1485l170 272h172l-219 -272h-123z" />
<glyph unicode="&#xc2;" horiz-adv-x="1255" d="M25 0l501 1366h205l500 -1366h-158l-115 322h-659l-115 -322h-159zM344 451h569l-282 792h-4zM354 1501l205 240h137l205 -240h-143l-131 158l-129 -158h-144z" />
<glyph unicode="&#xc3;" horiz-adv-x="1255" d="M25 0l501 1366h205l500 -1366h-158l-115 322h-659l-115 -322h-159zM344 451h569l-282 792h-4zM354 1518q1 119 35.5 168t114.5 49q65 0 119 -43l71 -62q26 -20 51 -20q26 0 36 20t10 74v16h110q-3 -110 -20 -143q-37 -70 -127 -70q-70 0 -117 41l-74 62q-27 22 -55 22 q-25 0 -35 -20t-10 -72v-22h-109z" />
<glyph unicode="&#xc4;" horiz-adv-x="1255" d="M25 0l501 1366h205l500 -1366h-158l-115 322h-659l-115 -322h-159zM344 451h569l-282 792h-4zM393 1520v204h137v-204h-137zM727 1520v204h137v-204h-137z" />
<glyph unicode="&#xc5;" horiz-adv-x="1255" d="M25 0l501 1366h205l500 -1366h-158l-115 322h-659l-115 -322h-159zM344 451h569l-282 792h-4zM465 1622q0 66 48 113t116 47t116 -47t48 -113q0 -67 -48 -114.5t-116 -47.5t-116 47.5t-48 114.5zM541 1622q0 -37 25.5 -63.5t62.5 -26.5t62.5 26.5t25.5 63.5t-25.5 62.5 t-62.5 25.5t-62.5 -25.5t-25.5 -62.5z" />
<glyph unicode="&#xc6;" horiz-adv-x="1892" d="M18 0l752 1366h1016v-129h-662v-479h615v-129h-615v-500h680v-129h-829v322h-608l-172 -322h-177zM436 451h539v792h-111z" />
<glyph unicode="&#xc7;" horiz-adv-x="1263" d="M147 682q0 286 21.5 407.5t85.5 194.5q55 62 137 80t281 18q120 0 193.5 -12.5t125.5 -46.5q61 -39 92.5 -119t42.5 -217h-145q-14 173 -76 223q-24 20 -64.5 29t-76 10.5t-113.5 1.5q-121 0 -183.5 -10.5t-96.5 -46.5q-42 -46 -56 -147t-14 -365q0 -263 14 -363.5 t56 -146.5q34 -36 96.5 -46.5t183.5 -10.5q114 0 170 7.5t90 35.5q33 27 50.5 82t25.5 153h150q-10 -140 -43.5 -220.5t-92.5 -125.5q-50 -37 -128 -50t-201 -13q-199 0 -281 18t-137 80q-64 73 -85.5 194.5t-21.5 405.5zM467 -410l137 273h164l-184 -273h-117z" />
<glyph unicode="&#xc8;" horiz-adv-x="1087" d="M170 0v1366h813v-129h-664v-479h615v-129h-615v-500h680v-129h-829zM344 1757h170l172 -272h-123z" />
<glyph unicode="&#xc9;" horiz-adv-x="1087" d="M170 0v1366h813v-129h-664v-479h615v-129h-615v-500h680v-129h-829zM483 1485l170 272h172l-219 -272h-123z" />
<glyph unicode="&#xca;" horiz-adv-x="1087" d="M170 0v1366h813v-129h-664v-479h615v-129h-615v-500h680v-129h-829zM311 1501l205 240h137l205 -240h-143l-131 158l-129 -158h-144z" />
<glyph unicode="&#xcb;" horiz-adv-x="1087" d="M170 0v1366h813v-129h-664v-479h615v-129h-615v-500h680v-129h-829zM350 1520v204h137v-204h-137zM684 1520v204h137v-204h-137z" />
<glyph unicode="&#xcc;" horiz-adv-x="489" d="M16 1757h170l152 -272h-123zM170 0v1366h149v-1366h-149z" />
<glyph unicode="&#xcd;" horiz-adv-x="489" d="M152 1485l149 272h172l-199 -272h-122zM170 0v1366h149v-1366h-149z" />
<glyph unicode="&#xce;" horiz-adv-x="489" d="M-29 1501l205 240h137l205 -240h-143l-131 158l-129 -158h-144zM170 0v1366h149v-1366h-149z" />
<glyph unicode="&#xcf;" horiz-adv-x="489" d="M35 1520v204h137v-204h-137zM172 0v1366h150v-1366h-150zM319 1520v204h138v-204h-138z" />
<glyph unicode="&#xd0;" horiz-adv-x="1363" d="M100 631v121h125v614h508q140 0 228 -28.5t141 -90.5q74 -87 95.5 -205t21.5 -360q0 -247 -22.5 -362t-94.5 -201q-53 -62 -141 -90.5t-228 -28.5h-508v631h-125zM375 131h340q113 0 177.5 20.5t100.5 69.5q44 58 58 147.5t14 313.5q0 226 -14 315.5t-58 147.5 q-36 49 -100.5 69.5t-177.5 20.5h-340v-483h399v-121h-399v-500z" />
<glyph unicode="&#xd1;" horiz-adv-x="1370" d="M170 0v1366h231l631 -1200l19 -37v1237h149v-1366h-231l-631 1198l-19 37v-1235h-149zM412 1518q1 119 35 168t114 49q65 0 119 -43l72 -62q26 -20 51 -20q26 0 35.5 20t9.5 74v16h110q-3 -110 -20 -143q-37 -70 -127 -70q-70 0 -117 41l-73 62q-27 22 -56 22 q-25 0 -35 -20t-10 -72v-22h-108z" />
<glyph unicode="&#xd2;" horiz-adv-x="1347" d="M147 682q0 279 20 404.5t93 197.5q61 60 145.5 79t268.5 19t268 -19t145 -79q73 -72 93 -197.5t20 -404.5q0 -278 -20 -403t-93 -197q-61 -60 -145 -79t-268 -19t-268.5 19t-145.5 79q-73 72 -93 197t-20 403zM301 682q0 -247 15 -359.5t59 -150.5q40 -35 101.5 -46 t197.5 -11t197.5 11t101.5 46q44 38 59 150.5t15 359.5q0 249 -15 361.5t-59 150.5q-40 35 -101.5 46t-197.5 11t-197.5 -11t-101.5 -46q-44 -38 -59 -150.5t-15 -361.5zM434 1757h170l172 -272h-123z" />
<glyph unicode="&#xd3;" horiz-adv-x="1347" d="M147 682q0 279 20 404.5t93 197.5q61 60 145.5 79t268.5 19t268 -19t145 -79q73 -72 93 -197.5t20 -404.5q0 -278 -20 -403t-93 -197q-61 -60 -145 -79t-268 -19t-268.5 19t-145.5 79q-73 72 -93 197t-20 403zM301 682q0 -247 15 -359.5t59 -150.5q40 -35 101.5 -46 t197.5 -11t197.5 11t101.5 46q44 38 59 150.5t15 359.5q0 249 -15 361.5t-59 150.5q-40 35 -101.5 46t-197.5 11t-197.5 -11t-101.5 -46q-44 -38 -59 -150.5t-15 -361.5zM571 1485l170 272h172l-219 -272h-123z" />
<glyph unicode="&#xd4;" horiz-adv-x="1347" d="M147 682q0 279 20 404.5t93 197.5q61 60 145.5 79t268.5 19t268 -19t145 -79q73 -72 93 -197.5t20 -404.5q0 -278 -20 -403t-93 -197q-61 -60 -145 -79t-268 -19t-268.5 19t-145.5 79q-73 72 -93 197t-20 403zM301 682q0 -247 15 -359.5t59 -150.5q40 -35 101.5 -46 t197.5 -11t197.5 11t101.5 46q44 38 59 150.5t15 359.5q0 249 -15 361.5t-59 150.5q-40 35 -101.5 46t-197.5 11t-197.5 -11t-101.5 -46q-44 -38 -59 -150.5t-15 -361.5zM401 1501l205 240h137l205 -240h-143l-131 158l-129 -158h-144z" />
<glyph unicode="&#xd5;" horiz-adv-x="1347" d="M147 682q0 279 20 404.5t93 197.5q61 60 145.5 79t268.5 19t268 -19t145 -79q73 -72 93 -197.5t20 -404.5q0 -278 -20 -403t-93 -197q-61 -60 -145 -79t-268 -19t-268.5 19t-145.5 79q-73 72 -93 197t-20 403zM301 682q0 -247 15 -359.5t59 -150.5q40 -35 101.5 -46 t197.5 -11t197.5 11t101.5 46q44 38 59 150.5t15 359.5q0 249 -15 361.5t-59 150.5q-40 35 -101.5 46t-197.5 11t-197.5 -11t-101.5 -46q-44 -38 -59 -150.5t-15 -361.5zM401 1518q1 119 35.5 168t114.5 49q65 0 119 -43l71 -62q26 -20 52 -20t35.5 20t9.5 74v16h110 q-3 -110 -20 -143q-37 -70 -127 -70q-70 0 -117 41l-74 62q-28 22 -55 22q-25 0 -35 -20t-10 -72v-22h-109z" />
<glyph unicode="&#xd6;" horiz-adv-x="1347" d="M147 682q0 279 20 404.5t93 197.5q61 60 145.5 79t268.5 19t268 -19t145 -79q73 -72 93 -197.5t20 -404.5q0 -278 -20 -403t-93 -197q-61 -60 -145 -79t-268 -19t-268.5 19t-145.5 79q-73 72 -93 197t-20 403zM301 682q0 -247 15 -359.5t59 -150.5q40 -35 101.5 -46 t197.5 -11t197.5 11t101.5 46q44 38 59 150.5t15 359.5q0 249 -15 361.5t-59 150.5q-40 35 -101.5 46t-197.5 11t-197.5 -11t-101.5 -46q-44 -38 -59 -150.5t-15 -361.5zM438 1520v204h137v-204h-137zM772 1520v204h137v-204h-137z" />
<glyph unicode="&#xd7;" d="M186 354l338 338l-338 340l97 94l338 -338l337 338l97 -94l-340 -340l340 -338l-97 -96l-337 340l-338 -340z" />
<glyph unicode="&#xd8;" horiz-adv-x="1349" d="M147 682q0 279 20 404.5t93 197.5q61 60 145.5 79t268.5 19q80 0 129.5 -2t111.5 -12.5t99 -30.5l51 86h117l-88 -145q63 -73 84.5 -199.5t21.5 -396.5q0 -278 -20 -403t-93 -197q-61 -60 -145 -79t-268 -19q-257 0 -342 45l-51 -86h-117l88 147q-65 75 -85 202.5 t-20 389.5zM301 682q0 -366 39 -457l598 994q-44 22 -95 27t-169 5q-136 0 -197.5 -11t-101.5 -46q-44 -38 -59 -150.5t-15 -361.5zM410 147q43 -20 86 -26t122 -6q173 0 242.5 9.5t112.5 47.5q44 38 59 150.5t15 359.5q0 324 -37 457z" />
<glyph unicode="&#xd9;" horiz-adv-x="1343" d="M166 436v930h149v-930q0 -111 12 -171.5t46 -92.5q33 -35 100 -46t199 -11q131 0 197.5 11t101.5 46q32 32 43.5 92.5t11.5 171.5v930h150v-930q0 -156 -26.5 -243.5t-86.5 -133.5q-58 -44 -138.5 -59.5t-252.5 -15.5q-173 0 -253 15.5t-140 59.5q-60 46 -86.5 133.5 t-26.5 243.5zM430 1757h170l172 -272h-123z" />
<glyph unicode="&#xda;" horiz-adv-x="1343" d="M166 436v930h149v-930q0 -111 12 -171.5t46 -92.5q33 -35 100 -46t199 -11q131 0 197.5 11t101.5 46q32 32 43.5 92.5t11.5 171.5v930h150v-930q0 -156 -26.5 -243.5t-86.5 -133.5q-58 -44 -138.5 -59.5t-252.5 -15.5q-173 0 -253 15.5t-140 59.5q-60 46 -86.5 133.5 t-26.5 243.5zM569 1485l170 272h172l-219 -272h-123z" />
<glyph unicode="&#xdb;" horiz-adv-x="1343" d="M166 436v930h149v-930q0 -111 12 -171.5t46 -92.5q33 -35 100 -46t199 -11q131 0 197.5 11t101.5 46q32 32 43.5 92.5t11.5 171.5v930h150v-930q0 -156 -26.5 -243.5t-86.5 -133.5q-58 -44 -138.5 -59.5t-252.5 -15.5q-173 0 -253 15.5t-140 59.5q-60 46 -86.5 133.5 t-26.5 243.5zM397 1501l205 240h137l205 -240h-143l-131 158l-129 -158h-144z" />
<glyph unicode="&#xdc;" horiz-adv-x="1343" d="M166 436v930h149v-930q0 -111 12 -171.5t46 -92.5q33 -35 100 -46t199 -11q131 0 197.5 11t101.5 46q32 32 43.5 92.5t11.5 171.5v930h150v-930q0 -156 -26.5 -243.5t-86.5 -133.5q-58 -44 -138.5 -59.5t-252.5 -15.5q-173 0 -253 15.5t-140 59.5q-60 46 -86.5 133.5 t-26.5 243.5zM436 1520v204h137v-204h-137zM770 1520v204h137v-204h-137z" />
<glyph unicode="&#xdd;" horiz-adv-x="1165" d="M23 1366h167l390 -704h6l389 704h168l-486 -858v-508h-149v508zM481 1485l170 272h172l-219 -272h-123z" />
<glyph unicode="&#xde;" horiz-adv-x="1191" d="M170 0v1366h149v-238h295q129 0 213.5 -17t139.5 -58q62 -49 90 -137t28 -232t-28 -232t-90 -137q-97 -75 -353 -75h-295v-240h-149zM319 371h242q130 0 197.5 7.5t105.5 33.5q42 30 58 92t16 180q0 119 -16 181.5t-58 92.5q-38 26 -105.5 33.5t-197.5 7.5h-242v-628z " />
<glyph unicode="&#xdf;" horiz-adv-x="1079" d="M147 0v1092q0 187 84 274q87 84 273 84q370 0 370 -350q0 -100 -21.5 -160t-72.5 -98v-4q101 -47 142 -140.5t41 -279.5q0 -141 -23.5 -224.5t-75.5 -127.5q-94 -82 -293 -82q-58 0 -95 5t-91 23l16 115q80 -23 148 -23q153 0 205 52q34 34 47.5 98t13.5 176 q0 106 -12 167t-43 95t-89 47t-159 13h-57v114h61q71 0 105 7.5t59 27.5q61 52 61 189q0 138 -51.5 191.5t-183.5 53.5q-125 0 -180 -61q-23 -26 -32 -62t-9 -106v-1106h-138z" />
<glyph unicode="&#xe0;" horiz-adv-x="1040" d="M111 289q0 177 98 250q43 31 105 43t175 12h140q58 0 137 -16v36q0 157 -29 209q-22 38 -69 51t-140 13q-101 0 -149 -14t-68.5 -49t-25.5 -111h-135q9 98 27.5 147.5t58.5 81.5q79 64 282 64q121 0 192.5 -17.5t117 -65.5t61.5 -124.5t16 -204.5v-594h-135v72 q-76 -49 -147 -68.5t-172 -19.5q-183 0 -261.5 70.5t-78.5 234.5zM252 289q0 -114 59 -158q39 -29 156 -29q93 0 161 21t138 72v282h-277q-83 0 -121 -7.5t-63 -29.5q-53 -47 -53 -151zM293 1399h170l172 -273h-123z" />
<glyph unicode="&#xe1;" horiz-adv-x="1040" d="M111 289q0 177 98 250q43 31 105 43t175 12h140q58 0 137 -16v36q0 157 -29 209q-22 38 -69 51t-140 13q-101 0 -149 -14t-68.5 -49t-25.5 -111h-135q9 98 27.5 147.5t58.5 81.5q79 64 282 64q121 0 192.5 -17.5t117 -65.5t61.5 -124.5t16 -204.5v-594h-135v72 q-76 -49 -147 -68.5t-172 -19.5q-183 0 -261.5 70.5t-78.5 234.5zM252 289q0 -114 59 -158q39 -29 156 -29q93 0 161 21t138 72v282h-277q-83 0 -121 -7.5t-63 -29.5q-53 -47 -53 -151zM442 1126l170 273h172l-219 -273h-123z" />
<glyph unicode="&#xe2;" horiz-adv-x="1040" d="M111 289q0 177 98 250q43 31 105 43t175 12h140q58 0 137 -16v36q0 157 -29 209q-22 38 -69 51t-140 13q-101 0 -149 -14t-68.5 -49t-25.5 -111h-135q9 98 27.5 147.5t58.5 81.5q79 64 282 64q121 0 192.5 -17.5t117 -65.5t61.5 -124.5t16 -204.5v-594h-135v72 q-76 -49 -147 -68.5t-172 -19.5q-183 0 -261.5 70.5t-78.5 234.5zM252 289q0 -114 59 -158q39 -29 156 -29q93 0 161 21t138 72v282h-277q-83 0 -121 -7.5t-63 -29.5q-53 -47 -53 -151zM260 1143l205 239h137l205 -239h-143l-132 157l-129 -157h-143z" />
<glyph unicode="&#xe3;" horiz-adv-x="1040" d="M111 289q0 177 98 250q43 31 105 43t175 12h140q58 0 137 -16v36q0 157 -29 209q-22 38 -69 51t-140 13q-101 0 -149 -14t-68.5 -49t-25.5 -111h-135q9 98 27.5 147.5t58.5 81.5q79 64 282 64q121 0 192.5 -17.5t117 -65.5t61.5 -124.5t16 -204.5v-594h-135v72 q-76 -49 -147 -68.5t-172 -19.5q-183 0 -261.5 70.5t-78.5 234.5zM252 289q0 -114 59 -158q39 -29 156 -29q93 0 161 21t138 72v282h-277q-83 0 -121 -7.5t-63 -29.5q-53 -47 -53 -151zM260 1159q1 119 35.5 168t114.5 49q64 0 118 -43l72 -61q27 -21 51 -21q26 0 35.5 20.5 t9.5 74.5v16h111q-3 -108 -21 -143q-37 -70 -127 -70q-69 0 -116 41l-74 61q-29 23 -55 23q-25 0 -35 -20t-10 -72v-23h-109z" />
<glyph unicode="&#xe4;" horiz-adv-x="1040" d="M111 289q0 177 98 250q43 31 105 43t175 12h140q58 0 137 -16v36q0 157 -29 209q-22 38 -69 51t-140 13q-101 0 -149 -14t-68.5 -49t-25.5 -111h-135q9 98 27.5 147.5t58.5 81.5q79 64 282 64q121 0 192.5 -17.5t117 -65.5t61.5 -124.5t16 -204.5v-594h-135v72 q-76 -49 -147 -68.5t-172 -19.5q-183 0 -261.5 70.5t-78.5 234.5zM252 289q0 -114 59 -158q39 -29 156 -29q93 0 161 21t138 72v282h-277q-83 0 -121 -7.5t-63 -29.5q-53 -47 -53 -151zM285 1161v205h137v-205h-137zM618 1161v205h138v-205h-138z" />
<glyph unicode="&#xe5;" horiz-adv-x="1040" d="M111 289q0 177 98 250q43 31 105 43t175 12h140q58 0 137 -16v36q0 157 -29 209q-22 38 -69 51t-140 13q-101 0 -149 -14t-68.5 -49t-25.5 -111h-135q9 98 27.5 147.5t58.5 81.5q79 64 282 64q121 0 192.5 -17.5t117 -65.5t61.5 -124.5t16 -204.5v-594h-135v72 q-76 -49 -147 -68.5t-172 -19.5q-183 0 -261.5 70.5t-78.5 234.5zM252 289q0 -114 59 -158q39 -29 156 -29q93 0 161 21t138 72v282h-277q-83 0 -121 -7.5t-63 -29.5q-53 -47 -53 -151zM369 1264q0 66 47.5 112.5t115.5 46.5t116 -46.5t48 -112.5q0 -67 -48 -114.5 t-116 -47.5t-115.5 47.5t-47.5 114.5zM444 1264q0 -37 25.5 -63.5t62.5 -26.5t63 26.5t26 63.5t-26 62.5t-63 25.5t-62.5 -25.5t-25.5 -62.5z" />
<glyph unicode="&#xe6;" horiz-adv-x="1671" d="M111 289q0 175 98 248q43 31 105 43t175 12h140q53 0 137 -17v39q0 157 -29 209q-22 38 -69 52t-140 14q-101 0 -149.5 -14t-69 -50t-24.5 -112h-135q9 98 27.5 147.5t58.5 81.5q79 64 284 64q136 0 207.5 -22.5t112.5 -78.5q41 54 115.5 77.5t207.5 23.5 q139 0 215 -27.5t117 -95.5q57 -96 57 -375q0 -33 -2 -62h-639q3 -146 15.5 -212t48.5 -95q26 -22 70.5 -29.5t123.5 -7.5q147 0 193.5 35t46.5 144h139q-4 -99 -23.5 -151.5t-62.5 -86.5q-76 -59 -291 -59q-138 0 -214 23.5t-117 78.5l-15 -10q-88 -51 -168 -71.5 t-192 -20.5q-191 0 -272.5 70.5t-81.5 234.5zM252 289q0 -116 63 -158q42 -29 162 -29q92 0 160.5 20t136.5 66l-8 86v203h-277q-83 0 -121 -7.5t-63 -29.5q-53 -47 -53 -151zM911 561h504q-2 110 -9 169.5t-26 92.5q-23 41 -69 53.5t-142 12.5q-87 0 -132.5 -9t-71.5 -36 q-29 -29 -40 -92t-14 -191z" />
<glyph unicode="&#xe7;" horiz-adv-x="995" d="M115 496q0 111 6 185.5t24 134.5t44.5 94.5t73.5 57t105.5 30.5t145.5 8q218 0 295 -74q34 -32 50.5 -81.5t25.5 -143.5h-137q-5 76 -25.5 112.5t-67.5 51t-143 14.5q-62 0 -98 -3.5t-67.5 -19.5t-46 -38t-25 -70.5t-13 -105t-2.5 -152.5q0 -57 1 -97.5t4 -79.5 t6.5 -64.5t12 -50t17.5 -38.5t25 -26.5t32 -18.5t41.5 -10.5t51.5 -5.5t63 -1q148 0 194 37t46 154h141q-4 -104 -24 -159.5t-64 -90.5q-75 -61 -293 -61q-87 0 -145.5 7.5t-105.5 30.5t-73.5 57t-44.5 94.5t-24 135.5t-6 187zM342 -410l137 273h164l-184 -273h-117z" />
<glyph unicode="&#xe8;" horiz-adv-x="1019" d="M115 494q0 111 6 186t24 135t44.5 94.5t73 57.5t105 31t144.5 8q140 0 216 -27t116 -96q57 -95 57 -375q0 -33 -2 -62h-641q3 -146 15.5 -212t48.5 -95q26 -22 71 -29.5t125 -7.5q146 0 191.5 34t48.5 145h139q-5 -96 -27 -154t-69 -90q-76 -53 -283 -53q-88 0 -147 8 t-106.5 30.5t-74.5 57t-45 94.5t-24 134.5t-6 185.5zM260 561h502q-2 110 -9 169.5t-26 92.5q-22 40 -68 53t-141 13q-87 0 -133 -8.5t-72 -34.5q-29 -30 -39.5 -92.5t-13.5 -192.5zM268 1399h170l172 -273h-123z" />
<glyph unicode="&#xe9;" horiz-adv-x="1019" d="M115 494q0 111 6 186t24 135t44.5 94.5t73 57.5t105 31t144.5 8q140 0 216 -27t116 -96q57 -95 57 -375q0 -33 -2 -62h-641q3 -146 15.5 -212t48.5 -95q26 -22 71 -29.5t125 -7.5q146 0 191.5 34t48.5 145h139q-5 -96 -27 -154t-69 -90q-76 -53 -283 -53q-88 0 -147 8 t-106.5 30.5t-74.5 57t-45 94.5t-24 134.5t-6 185.5zM260 561h502q-2 110 -9 169.5t-26 92.5q-22 40 -68 53t-141 13q-87 0 -133 -8.5t-72 -34.5q-29 -30 -39.5 -92.5t-13.5 -192.5zM406 1126l169 273h173l-220 -273h-122z" />
<glyph unicode="&#xea;" horiz-adv-x="1019" d="M115 494q0 111 6 186t24 135t44.5 94.5t73 57.5t105 31t144.5 8q140 0 216 -27t116 -96q57 -95 57 -375q0 -33 -2 -62h-641q3 -146 15.5 -212t48.5 -95q26 -22 71 -29.5t125 -7.5q146 0 191.5 34t48.5 145h139q-5 -96 -27 -154t-69 -90q-76 -53 -283 -53q-88 0 -147 8 t-106.5 30.5t-74.5 57t-45 94.5t-24 134.5t-6 185.5zM236 1143l204 239h138l204 -239h-143l-131 157l-129 -157h-143zM260 561h502q-2 110 -9 169.5t-26 92.5q-22 40 -68 53t-141 13q-87 0 -133 -8.5t-72 -34.5q-29 -30 -39.5 -92.5t-13.5 -192.5z" />
<glyph unicode="&#xeb;" horiz-adv-x="1019" d="M115 494q0 111 6 186t24 135t44.5 94.5t73 57.5t105 31t144.5 8q140 0 216 -27t116 -96q57 -95 57 -375q0 -33 -2 -62h-641q3 -146 15.5 -212t48.5 -95q26 -22 71 -29.5t125 -7.5q146 0 191.5 34t48.5 145h139q-5 -96 -27 -154t-69 -90q-76 -53 -283 -53q-88 0 -147 8 t-106.5 30.5t-74.5 57t-45 94.5t-24 134.5t-6 185.5zM260 561h502q-2 110 -9 169.5t-26 92.5q-22 40 -68 53t-141 13q-87 0 -133 -8.5t-72 -34.5q-29 -30 -39.5 -92.5t-13.5 -192.5zM272 1161v205h138v-205h-138zM606 1161v205h137v-205h-137z" />
<glyph unicode="&#xec;" horiz-adv-x="432" d="M-35 1399h170l172 -273h-123zM147 0v989h140v-989h-140z" />
<glyph unicode="&#xed;" horiz-adv-x="432" d="M127 1126l170 273h172l-219 -273h-123zM147 0v989h140v-989h-140z" />
<glyph unicode="&#xee;" horiz-adv-x="432" d="M-57 1143l204 239h138l204 -239h-143l-131 157l-129 -157h-143zM147 0v989h140v-989h-140z" />
<glyph unicode="&#xef;" horiz-adv-x="432" d="M6 1161v205h137v-205h-137zM147 0v989h140v-989h-140zM291 1161v205h137v-205h-137z" />
<glyph unicode="&#xf0;" horiz-adv-x="1050" d="M117 496q0 107 6 182t22.5 134t41 94.5t66 59t93.5 32t127 8.5q149 0 268 -58q-29 132 -106 240l-199 -107l-47 93l168 90q-38 25 -78 40.5t-121 38.5l35 97q106 -23 162 -47.5t113 -71.5l221 119l47 -92l-195 -105q195 -226 195 -751q0 -110 -6.5 -184.5t-24.5 -134 t-46 -94t-76 -57t-108 -30.5t-149 -8q-67 0 -116 4.5t-92 16t-72 29t-52.5 47t-37.5 66t-23 90t-12.5 115t-3.5 144.5zM262 498q0 -97 2.5 -154t13.5 -106.5t25.5 -71.5t47.5 -38.5t71.5 -20t103.5 -3.5q180 0 222 60q43 64 43 311q0 143 -21 334q-123 76 -283 76 q-55 0 -87.5 -3.5t-60.5 -19.5t-41 -38.5t-22.5 -70.5t-11.5 -104t-2 -151z" />
<glyph unicode="&#xf1;" horiz-adv-x="1077" d="M143 0v989h136v-71q77 48 148.5 68t164.5 20q196 0 273 -90.5t77 -321.5v-594h-139v614q0 151 -39 213q-35 58 -180 58q-93 0 -160.5 -19.5t-140.5 -68.5v-797h-140zM270 1159q1 119 35.5 168t114.5 49q65 0 119 -43l71 -61q27 -21 52 -21q26 0 35.5 20.5t9.5 74.5v16 h110q-3 -110 -20 -143q-37 -70 -127 -70q-70 0 -117 41l-74 61q-29 23 -55 23q-25 0 -35 -20t-10 -72v-23h-109z" />
<glyph unicode="&#xf2;" horiz-adv-x="1050" d="M117 496q0 111 6.5 185.5t24.5 134.5t45.5 94.5t75.5 57t108 30.5t149 8t149 -8t108 -30.5t76 -57t46 -94.5t24.5 -134.5t6.5 -185.5t-6.5 -186.5t-24.5 -135.5t-46 -94.5t-76 -57t-108 -30.5t-149 -8t-149 8t-108 30.5t-75.5 57t-45.5 95t-24.5 135.5t-6.5 186zM262 496 q0 -97 2.5 -153.5t13.5 -105.5t25.5 -71t47.5 -38.5t71.5 -20t103.5 -3.5q49 0 80.5 2t61.5 9.5t47.5 18t33 33.5t22.5 48.5t12 69.5t6.5 91.5t1.5 119.5q0 96 -2.5 152.5t-13.5 105t-26 70.5t-48 38t-71.5 19.5t-103.5 3.5t-103 -3.5t-71.5 -19.5t-48 -38t-25.5 -70.5 t-13.5 -105t-2.5 -152.5zM299 1399h170l172 -273h-123z" />
<glyph unicode="&#xf3;" horiz-adv-x="1050" d="M117 496q0 111 6.5 185.5t24.5 134.5t45.5 94.5t75.5 57t108 30.5t149 8t149 -8t108 -30.5t76 -57t46 -94.5t24.5 -134.5t6.5 -185.5t-6.5 -186.5t-24.5 -135.5t-46 -94.5t-76 -57t-108 -30.5t-149 -8t-149 8t-108 30.5t-75.5 57t-45.5 95t-24.5 135.5t-6.5 186zM262 496 q0 -97 2.5 -153.5t13.5 -105.5t25.5 -71t47.5 -38.5t71.5 -20t103.5 -3.5q49 0 80.5 2t61.5 9.5t47.5 18t33 33.5t22.5 48.5t12 69.5t6.5 91.5t1.5 119.5q0 96 -2.5 152.5t-13.5 105t-26 70.5t-48 38t-71.5 19.5t-103.5 3.5t-103 -3.5t-71.5 -19.5t-48 -38t-25.5 -70.5 t-13.5 -105t-2.5 -152.5zM449 1126l169 273h173l-220 -273h-122z" />
<glyph unicode="&#xf4;" horiz-adv-x="1050" d="M117 496q0 111 6.5 185.5t24.5 134.5t45.5 94.5t75.5 57t108 30.5t149 8t149 -8t108 -30.5t76 -57t46 -94.5t24.5 -134.5t6.5 -185.5t-6.5 -186.5t-24.5 -135.5t-46 -94.5t-76 -57t-108 -30.5t-149 -8t-149 8t-108 30.5t-75.5 57t-45.5 95t-24.5 135.5t-6.5 186z M254 1143l205 239h137l205 -239h-144l-131 157l-129 -157h-143zM262 496q0 -97 2.5 -153.5t13.5 -105.5t25.5 -71t47.5 -38.5t71.5 -20t103.5 -3.5q49 0 80.5 2t61.5 9.5t47.5 18t33 33.5t22.5 48.5t12 69.5t6.5 91.5t1.5 119.5q0 96 -2.5 152.5t-13.5 105t-26 70.5t-48 38 t-71.5 19.5t-103.5 3.5t-103 -3.5t-71.5 -19.5t-48 -38t-25.5 -70.5t-13.5 -105t-2.5 -152.5z" />
<glyph unicode="&#xf5;" horiz-adv-x="1050" d="M117 496q0 111 6.5 185.5t24.5 134.5t45.5 94.5t75.5 57t108 30.5t149 8t149 -8t108 -30.5t76 -57t46 -94.5t24.5 -134.5t6.5 -185.5t-6.5 -186.5t-24.5 -135.5t-46 -94.5t-76 -57t-108 -30.5t-149 -8t-149 8t-108 30.5t-75.5 57t-45.5 95t-24.5 135.5t-6.5 186z M254 1159q1 119 35 168t114 49q65 0 119 -43l72 -61q27 -21 51 -21q26 0 35.5 20.5t9.5 74.5v16h111q-3 -108 -21 -143q-37 -70 -127 -70q-69 0 -116 41l-74 61q-29 23 -55 23q-25 0 -35.5 -20t-10.5 -72v-23h-108zM262 496q0 -97 2.5 -153.5t13.5 -105.5t25.5 -71 t47.5 -38.5t71.5 -20t103.5 -3.5q49 0 80.5 2t61.5 9.5t47.5 18t33 33.5t22.5 48.5t12 69.5t6.5 91.5t1.5 119.5q0 96 -2.5 152.5t-13.5 105t-26 70.5t-48 38t-71.5 19.5t-103.5 3.5t-103 -3.5t-71.5 -19.5t-48 -38t-25.5 -70.5t-13.5 -105t-2.5 -152.5z" />
<glyph unicode="&#xf6;" horiz-adv-x="1050" d="M117 496q0 111 6.5 185.5t24.5 134.5t45.5 94.5t75.5 57t108 30.5t149 8t149 -8t108 -30.5t76 -57t46 -94.5t24.5 -134.5t6.5 -185.5t-6.5 -186.5t-24.5 -135.5t-46 -94.5t-76 -57t-108 -30.5t-149 -8t-149 8t-108 30.5t-75.5 57t-45.5 95t-24.5 135.5t-6.5 186zM262 496 q0 -97 2.5 -153.5t13.5 -105.5t25.5 -71t47.5 -38.5t71.5 -20t103.5 -3.5q49 0 80.5 2t61.5 9.5t47.5 18t33 33.5t22.5 48.5t12 69.5t6.5 91.5t1.5 119.5q0 96 -2.5 152.5t-13.5 105t-26 70.5t-48 38t-71.5 19.5t-103.5 3.5t-103 -3.5t-71.5 -19.5t-48 -38t-25.5 -70.5 t-13.5 -105t-2.5 -152.5zM291 1161v205h137v-205h-137zM625 1161v205h137v-205h-137z" />
<glyph unicode="&#xf7;" d="M147 629v129h947v-129h-947zM514 326q0 44 32 75t75 31q44 0 75 -31t31 -75q0 -43 -31.5 -75t-74.5 -32t-75 32t-32 75zM514 1061q0 42 32 73t75 31q44 0 75 -30.5t31 -73.5q0 -44 -31.5 -75.5t-74.5 -31.5t-75 31.5t-32 75.5z" />
<glyph unicode="&#xf8;" horiz-adv-x="1052" d="M117 494q0 111 6.5 186t24.5 135.5t45.5 95t75.5 57t108 30.5t149 8q151 0 240 -29l43 72h111l-74 -121q47 -47 68.5 -150t21.5 -282q0 -111 -6.5 -186.5t-24.5 -135.5t-46 -94.5t-76 -57t-108 -30.5t-149 -8q-162 0 -239 28l-43 -69h-111l74 118q-90 90 -90 433z M262 481q0 -226 25 -288l413 677q-59 15 -170 15q-68 0 -106 -3t-72 -19.5t-48.5 -38.5t-26 -73.5t-13.5 -109.5t-2 -160zM352 121q66 -17 170 -17q50 0 82.5 1.5t63 9.5t48 18.5t33 34t22.5 49.5t12.5 72t6.5 94.5t1 124.5q0 69 -7 165.5t-18 125.5z" />
<glyph unicode="&#xf9;" horiz-adv-x="1067" d="M135 395v594h139v-614q0 -151 39 -213q35 -58 179 -58q90 0 155.5 20.5t136.5 70.5v794h140v-989h-138v72q-72 -47 -141.5 -67.5t-159.5 -20.5q-197 0 -273.5 90t-76.5 321zM301 1399h170l172 -273h-123z" />
<glyph unicode="&#xfa;" horiz-adv-x="1067" d="M135 395v594h139v-614q0 -151 39 -213q35 -58 179 -58q90 0 155.5 20.5t136.5 70.5v794h140v-989h-138v72q-72 -47 -141.5 -67.5t-159.5 -20.5q-197 0 -273.5 90t-76.5 321zM416 1126l170 273h172l-219 -273h-123z" />
<glyph unicode="&#xfb;" horiz-adv-x="1067" d="M135 395v594h139v-614q0 -151 39 -213q35 -58 179 -58q90 0 155.5 20.5t136.5 70.5v794h140v-989h-138v72q-72 -47 -141.5 -67.5t-159.5 -20.5q-197 0 -273.5 90t-76.5 321zM256 1143l205 239h137l205 -239h-144l-131 157l-129 -157h-143z" />
<glyph unicode="&#xfc;" horiz-adv-x="1067" d="M135 395v594h139v-614q0 -151 39 -213q35 -58 179 -58q90 0 155.5 20.5t136.5 70.5v794h140v-989h-138v72q-72 -47 -141.5 -67.5t-159.5 -20.5q-197 0 -273.5 90t-76.5 321zM295 1161v205h137v-205h-137zM629 1161v205h137v-205h-137z" />
<glyph unicode="&#xfd;" horiz-adv-x="892" d="M20 989h152l279 -870h14l260 870h145l-340 -1106q-33 -104 -48 -141.5t-38 -67.5q-70 -98 -217 -98q-39 0 -80 8l17 115q31 -2 55 -2q74 0 111.5 46t81.5 194l18 63h-72zM344 1126l170 273h172l-219 -273h-123z" />
<glyph unicode="&#xfe;" horiz-adv-x="1071" d="M150 -406v1840h135v-514q80 47 149.5 66.5t161.5 19.5q76 0 128.5 -8.5t94 -31.5t66.5 -58.5t41 -95t22 -134t6 -182.5q0 -109 -6 -184t-22 -135t-40.5 -95t-66.5 -58t-94.5 -31.5t-128.5 -8.5q-93 0 -163 20t-144 68v-478h-139zM289 197q71 -50 138.5 -71.5t154.5 -21.5 q56 0 89 3.5t61.5 20t41 38.5t22 71t11.5 105.5t2 153.5t-2 152.5t-11.5 104.5t-22 71t-41 38t-61.5 19.5t-89 3.5q-88 0 -155.5 -19.5t-137.5 -66.5v-602z" />
<glyph unicode="&#xff;" horiz-adv-x="892" d="M20 989h152l279 -870h14l260 870h145l-340 -1106q-33 -104 -48 -141.5t-38 -67.5q-70 -98 -217 -98q-39 0 -80 8l17 115q31 -2 55 -2q74 0 111.5 46t81.5 194l18 63h-72zM211 1161v205h137v-205h-137zM545 1161v205h137v-205h-137z" />
<glyph unicode="&#x152;" horiz-adv-x="1968" d="M147 682q0 279 20 404.5t93 197.5q61 60 145.5 79t268.5 19q157 0 235 -16q82 -17 140 -72v72h813v-129h-662v-479h615v-129h-615v-500h678v-129h-829v72q-53 -51 -123 -66q-78 -22 -252 -22q-184 0 -268.5 19t-145.5 79q-73 72 -93 197t-20 403zM301 682 q0 -247 15 -359.5t59 -150.5q40 -35 101.5 -46t197.5 -11t197.5 11t101.5 46q44 38 59 150.5t15 359.5q0 249 -15 361.5t-59 150.5q-40 35 -101.5 46t-197.5 11t-197.5 -11t-101.5 -46q-44 -38 -59 -150.5t-15 -361.5z" />
<glyph unicode="&#x153;" horiz-adv-x="1693" d="M115 496q0 111 6.5 185.5t24.5 134.5t45.5 94.5t75.5 57t108 30.5t149 8q141 0 219 -23.5t119 -77.5q42 54 116 77.5t210 23.5q140 0 215 -27t115 -96q20 -33 32 -78.5t17 -101.5t6.5 -96t1.5 -99q0 -33 -2 -62h-639q3 -136 12.5 -199t36.5 -95q26 -30 72.5 -40 t136.5 -10q101 0 151 15t70 52t21 112h139q-6 -99 -25.5 -151.5t-62.5 -86.5q-76 -59 -291 -59q-141 0 -217 23t-115 79q-41 -55 -119 -78.5t-219 -23.5q-89 0 -149 8t-108 30.5t-75.5 57t-45.5 95t-24.5 135.5t-6.5 186zM260 496q0 -97 2.5 -153.5t13.5 -105.5t25.5 -71 t47.5 -38.5t71.5 -20t103.5 -3.5t103.5 3.5t71.5 20t47.5 38.5t25.5 71t13.5 105.5t2.5 153.5q0 96 -2.5 152.5t-13.5 105t-25.5 70.5t-48 38t-71.5 19.5t-103 3.5t-103 -3.5t-71.5 -19.5t-48 -38t-25.5 -70.5t-13.5 -105t-2.5 -152.5zM934 561h504q-2 110 -9 169.5 t-26 92.5q-22 40 -68 53t-141 13q-93 0 -140.5 -10.5t-72.5 -42.5q-26 -32 -35.5 -94t-11.5 -181z" />
<glyph unicode="&#x178;" horiz-adv-x="1165" d="M23 1366h167l390 -704h6l389 704h168l-486 -858v-508h-149v508zM348 1520v204h137v-204h-137zM682 1520v204h137v-204h-137z" />
<glyph unicode="&#x2c6;" horiz-adv-x="1024" d="M238 1143l204 239h138l204 -239h-143l-131 157l-129 -157h-143z" />
<glyph unicode="&#x2dc;" horiz-adv-x="1024" d="M238 1159q1 119 35 168t114 49q65 0 119 -43l72 -61q27 -21 51 -21q26 0 35.5 20.5t9.5 74.5v16h110q-3 -110 -20 -143q-37 -70 -127 -70q-70 0 -117 41l-74 61q-29 23 -55 23q-25 0 -35 -20t-10 -72v-23h-108z" />
<glyph unicode="&#x2000;" horiz-adv-x="891" />
<glyph unicode="&#x2001;" horiz-adv-x="1782" />
<glyph unicode="&#x2002;" horiz-adv-x="891" />
<glyph unicode="&#x2003;" horiz-adv-x="1782" />
<glyph unicode="&#x2004;" horiz-adv-x="594" />
<glyph unicode="&#x2005;" horiz-adv-x="445" />
<glyph unicode="&#x2006;" horiz-adv-x="297" />
<glyph unicode="&#x2007;" horiz-adv-x="297" />
<glyph unicode="&#x2008;" horiz-adv-x="222" />
<glyph unicode="&#x2009;" horiz-adv-x="356" />
<glyph unicode="&#x200a;" horiz-adv-x="99" />
<glyph unicode="&#x2010;" horiz-adv-x="573" d="M74 436v137h424v-137h-424z" />
<glyph unicode="&#x2011;" horiz-adv-x="573" d="M74 436v137h424v-137h-424z" />
<glyph unicode="&#x2012;" horiz-adv-x="573" d="M74 436v137h424v-137h-424z" />
<glyph unicode="&#x2013;" horiz-adv-x="1224" d="M211 436v137h803v-137h-803z" />
<glyph unicode="&#x2014;" horiz-adv-x="1566" d="M74 436v137h1417v-137h-1417z" />
<glyph unicode="&#x2018;" horiz-adv-x="389" d="M47 1059l156 375h110l-96 -375h-170z" />
<glyph unicode="&#x2019;" horiz-adv-x="389" d="M74 1059l96 375h170l-156 -375h-110z" />
<glyph unicode="&#x201a;" horiz-adv-x="432" d="M53 -205l99 385h172l-162 -385h-109z" />
<glyph unicode="&#x201c;" horiz-adv-x="647" d="M47 1059l156 375h110l-96 -375h-170zM307 1059l156 375h110l-96 -375h-170z" />
<glyph unicode="&#x201d;" horiz-adv-x="647" d="M74 1059l96 375h170l-156 -375h-110zM334 1059l96 375h170l-156 -375h-110z" />
<glyph unicode="&#x201e;" horiz-adv-x="647" d="M47 -195l96 375h170l-155 -375h-111zM307 -195l96 375h170l-155 -375h-111z" />
<glyph unicode="&#x2022;" horiz-adv-x="1308" d="M381 690q0 113 80 193t192 80q114 0 194.5 -80t80.5 -193q0 -114 -80.5 -194t-194.5 -80q-113 0 -192.5 80t-79.5 194z" />
<glyph unicode="&#x2026;" horiz-adv-x="1286" d="M135 0v205h164v-205h-164zM561 0v205h164v-205h-164zM985 0v205h164v-205h-164z" />
<glyph unicode="&#x202f;" horiz-adv-x="356" />
<glyph unicode="&#x2039;" horiz-adv-x="641" d="M123 436v137l409 363v-164l-296 -266l296 -266v-164z" />
<glyph unicode="&#x203a;" horiz-adv-x="641" d="M109 76v162l297 268l-297 266v164l409 -363v-137z" />
<glyph unicode="&#x205f;" horiz-adv-x="445" />
<glyph unicode="&#x20ac;" d="M35 502v123h170v137h-170v123h172q3 61 4.5 86t8 79.5t16 86.5t29 73.5t46.5 73.5q55 62 137 80t281 18q136 0 208 -13.5t124 -53.5q55 -43 83 -117t40 -211h-146q-9 101 -26 149.5t-51 75.5q-38 28 -77 33.5t-175 5.5q-113 0 -178 -12t-103 -45q-64 -57 -68 -309h410 v-123h-412v-137h412v-123h-410q0 -138 23 -238q12 -54 45 -92q34 -36 97 -46.5t184 -10.5q132 0 181.5 9t84.5 40q31 28 45.5 76.5t23.5 152.5h150q-14 -154 -46 -231.5t-99 -120.5q-50 -33 -118.5 -45t-201.5 -12q-199 0 -281 18t-137 80q-43 50 -66.5 124t-28 126 t-8.5 143q-1 18 -1 27h-172z" />
<glyph unicode="&#x2122;" horiz-adv-x="1685" d="M76 1266v100h581v-100h-231v-617h-117v617h-233zM727 649v717h166l225 -473l230 473h161v-717h-114v563l-226 -460h-102l-225 460v-563h-115z" />
<glyph unicode="&#x25fc;" horiz-adv-x="993" d="M0 0v993h993v-993h-993z" />
</font>
</defs>
</svg>
