<?xml version="1.0" encoding="utf-8"?>
<!-- Generator: Adobe Illustrator 25.2.1, SVG Export Plug-In . SVG Version: 6.00 Build 0)  -->
<svg version="1.1" id="Layer_1" xmlns="http://www.w3.org/2000/svg" xmlns:xlink="http://www.w3.org/1999/xlink" x="0px" y="0px"
	 viewBox="0 0 143.6 132.4" style="enable-background:new 0 0 143.6 132.4;" xml:space="preserve">
<style type="text/css">
	.st0{fill:#FFFFFF;}
</style>
<g id="Japanese">
	<path class="st0" d="M143.3,69.1c-0.1,0.6-0.2,1.2-0.3,1.9C143.1,70.4,143.2,69.8,143.3,69.1z"/>
	<path class="st0" d="M143.3,69.1c-0.1,0.6-0.2,1.3-0.4,1.9c-0.2,0.6-0.3,1.3-0.6,1.9c-0.1,0.2-0.2,0.5-0.3,0.7s-0.3,0.7-0.4,1
		s-0.2,0.4-0.3,0.5c-0.3,0.7-0.7,1.4-1.2,2.1l-0.3,0.4c-0.3,0.5-0.6,0.9-1,1.4c-0.3,0.4-0.6,0.7-0.9,1l-0.4,0.4l-0.2,0.2l-46,46
		c-7.8,7.8-20.5,7.8-28.3,0s-7.8-20.5,0-28.3l0,0l12.1-12.1H20c-11,0-20-9-20-20s9-20,20-20h55.3L63.2,34.2
		c-7.8-7.8-7.8-20.5,0-28.3s20.5-7.8,28.3,0l46,46l0.2,0.2c0.2,0.2,0.4,0.4,0.5,0.6s0.6,0.6,0.8,0.9s0.4,0.5,0.6,0.8l0.6,0.8
		c0.5,0.8,1,1.7,1.4,2.6c0.1,0.3,0.2,0.5,0.4,0.8c0,0.1,0.1,0.2,0.1,0.3s0.2,0.5,0.3,0.7c0.2,0.6,0.4,1.2,0.6,1.9
		c0.2,0.6,0.3,1.3,0.4,1.9C143.6,65.2,143.6,67.2,143.3,69.1z"/>
	<path class="st0" d="M143.3,63.3c-0.1-0.6-0.2-1.3-0.4-1.9C143.1,62,143.2,62.7,143.3,63.3z"/>
</g>
</svg>
