<svg xmlns="http://www.w3.org/2000/svg" viewBox="0 0 143.55 132.45"><g id="Japanese"><path d="M143.34,69.14A18.24,18.24,0,0,1,143,71C143.12,70.41,143.24,69.78,143.34,69.14Z"/><path d="M143.34,69.14c-.1.64-.22,1.27-.38,1.9a17.29,17.29,0,0,1-.56,1.86c-.08.23-.16.46-.26.69s-.26.66-.41,1-.17.36-.26.53a17.29,17.29,0,0,1-1.19,2.09l-.28.42A16.75,16.75,0,0,1,139,79c-.3.36-.6.7-.92,1l-.35.36-.22.21-46,46A20,20,0,0,1,63.19,98.31L75.27,86.23H20a20,20,0,0,1,0-40H75.27L63.19,34.15A20,20,0,0,1,91.47,5.86l46,46,.21.21c.18.18.36.37.53.56s.56.61.82.93.42.52.61.79l.56.79a19.78,19.78,0,0,1,1.45,2.59c.13.28.25.55.37.83,0,.1.08.19.11.29s.18.46.26.69a15.84,15.84,0,0,1,.56,1.86c.16.63.28,1.26.38,1.9A19.91,19.91,0,0,1,143.34,69.14Z"/><path d="M143.34,63.32c-.1-.64-.22-1.27-.38-1.9A18.24,18.24,0,0,1,143.34,63.32Z"/></g></svg>