<svg id="Layer_1" data-name="Layer 1" xmlns="http://www.w3.org/2000/svg" viewBox="0 0 135 135.06"><defs><style>.cls-1{fill:#fff;}</style></defs><path class="cls-1" d="M34.56,0h65.91c1.37.22,2.77.36,4.13.67,15.29,3.44,25.1,12.7,29.3,27.81.54,2,.74,4,1.1,6.06v65.91c-.08.47-.13,1-.25,1.41-.91,3.51-1.35,7.24-2.85,10.49-6.72,14.56-18.27,22.34-34.33,22.57-20,.28-40.07.08-60.1.06a35.89,35.89,0,0,1-21.29-6.62C5.45,120.71.07,110.18,0,97Q0,67.47.05,38a36.4,36.4,0,0,1,.68-7.59C4.1,15.07,13.41,5.31,28.49,1.11,30.46.56,32.53.36,34.56,0ZM12,67.49q0,14.64,0,29.26a26.6,26.6,0,0,0,1.36,9.07C17.16,116.5,26.37,123,38,123c19.68,0,39.36.06,59-.05a28.61,28.61,0,0,0,8.78-1.36c10.8-3.64,17.23-13,17.25-24.66,0-19.63.06-39.27,0-58.91a28.6,28.6,0,0,0-1.35-8.78C118,18.51,108.7,12,97.13,12Q67.54,11.91,38,12c-8.84,0-16,3.5-21.25,10.67A25.28,25.28,0,0,0,12,38.11Q12,52.8,12,67.49Z"/><path class="cls-1" d="M67.53,102.28A34.79,34.79,0,1,1,102.3,67.44,34.94,34.94,0,0,1,67.53,102.28ZM90.3,67.52A22.79,22.79,0,1,0,67.49,90.28,22.81,22.81,0,0,0,90.3,67.52Z"/><path class="cls-1" d="M103.73,22.6A8.75,8.75,0,1,1,95,31.3,8.8,8.8,0,0,1,103.73,22.6Z"/></svg>