<svg id="Layer_1" data-name="Layer 1" xmlns="http://www.w3.org/2000/svg" viewBox="0 0 135 135.06"><defs><style>.cls-1{fill:#fff;}</style></defs><path class="cls-1" d="M69,19.65c10.13.3,21.63.51,33.12,1a134.56,134.56,0,0,1,17.24,1.83,15.42,15.42,0,0,1,13,12.61A110.38,110.38,0,0,1,134.54,52c.45,7.86.51,15.75.44,23.63a136.48,136.48,0,0,1-2,22.27c-1.56,8.88-7.39,14.38-16.28,15.44a292,292,0,0,1-32.78,1.85c-12.41.09-24.82.21-37.22-.06-8.86-.19-17.71-.9-26.55-1.57a21.12,21.12,0,0,1-9.69-2.77C5.65,107.87,3.15,103.45,2.2,98A173.32,173.32,0,0,1,.05,64.74c.12-6.82.57-13.65,1.13-20.46A51.13,51.13,0,0,1,3,34.3c2-6.92,6.85-11.09,13.93-12s14.3-1.51,21.47-1.84C48.12,20,57.86,19.91,69,19.65ZM54.09,47V88.27l35.3-20.62Z"/></svg>