<svg id="Layer_1" data-name="Layer 1" xmlns="http://www.w3.org/2000/svg" viewBox="0 0 47.67 45.11"><defs><style>.cls-1{fill:#0ebf00;stroke:#000;stroke-miterlimit:10;stroke-width:3.88px;}.cls-2{fill:#fff;}</style></defs><rect class="cls-1" x="2.76" y="21.89" width="42.87" height="15.48" rx="3.54"/><path d="M35.11,23a5.56,5.56,0,0,0-.13-.64,2.86,2.86,0,0,0-1.38-1.67,1.66,1.66,0,0,0-.27-.13,1.73,1.73,0,0,0-.32-.11,6,6,0,0,0,.59-.65,5.67,5.67,0,0,0,1.15-2.16,8.77,8.77,0,0,0,.34-2.54,7.28,7.28,0,0,0-.15-1.53,5.88,5.88,0,0,0-2.41-3.7,9.58,9.58,0,0,0-5.6-1.51,10.81,10.81,0,0,0-3.81.6,9.39,9.39,0,0,0-2.75,1.57A7,7,0,0,0,19,12a3.87,3.87,0,0,0-.78,2.22,3.18,3.18,0,0,0,.86,2.16,7.45,7.45,0,0,0,1.05.91l.69.52a7.51,7.51,0,0,0-1.16,1.57,10.84,10.84,0,0,0-1.32,5.34v.54a4.3,4.3,0,0,0,.23,1.48,2.94,2.94,0,0,0,1.73,1.72,4,4,0,0,0,1.44.22h10a4,4,0,0,0,1.46-.23h0a3,3,0,0,0,1.67-1.7,4.23,4.23,0,0,0,.13-.51,4.78,4.78,0,0,0,.09-1V23.73A5.23,5.23,0,0,0,35.11,23ZM21.78,26.18a1.76,1.76,0,0,1-.6-.08.41.41,0,0,1-.27-.27,1.83,1.83,0,0,1-.07-.62v-.54a8.22,8.22,0,0,1,1-4.14,6.08,6.08,0,0,1,3.27-2.69l.79-.31c.82-.33,1.38-.57,1.7-.72a1.73,1.73,0,0,0,.65-.47,1.33,1.33,0,0,0,.2-.77,1.11,1.11,0,0,0-.49-1,2.38,2.38,0,0,0-1.32-.32,3.54,3.54,0,0,0-1.7.36,4,4,0,0,0-1.19,1,1.56,1.56,0,0,1-.37.39.5.5,0,0,1-.33.1,1,1,0,0,1-.52-.19c-.21-.13-.5-.34-.9-.65a4.52,4.52,0,0,1-.71-.61.73.73,0,0,1-.22-.5,1.51,1.51,0,0,1,.35-.81,4.15,4.15,0,0,1,.87-.92,7,7,0,0,1,2-1.16,8.47,8.47,0,0,1,3-.44,7.17,7.17,0,0,1,4.19,1.06,3.15,3.15,0,0,1,.9.92,4.07,4.07,0,0,1,.62,2.3,5.2,5.2,0,0,1-.55,2.58,2.59,2.59,0,0,1-.25.39,4.08,4.08,0,0,1-1.32,1.18,14.4,14.4,0,0,1-2.81,1.16l-.76.25a3.23,3.23,0,0,0-1,.56,2.46,2.46,0,0,0-.61.76,1.64,1.64,0,0,0-.2.72v0h6.65a1.61,1.61,0,0,1,.63.09.45.45,0,0,1,.26.28,2.24,2.24,0,0,1,.06.61v1.48a1.77,1.77,0,0,1-.08.62.39.39,0,0,1-.26.27,1.79,1.79,0,0,1-.61.08Z"/><path class="cls-2" d="M34.11,26.09a.45.45,0,0,1-.27-.27,1.88,1.88,0,0,1-.07-.61V24a1.81,1.81,0,0,1,.07-.6.47.47,0,0,1,.27-.28,1.57,1.57,0,0,1,.61-.08h2.41V16.79l0-.93h0a2.31,2.31,0,0,1-.3.4,3.15,3.15,0,0,1-.32.32l-.89.76a1.59,1.59,0,0,1-.38.29.56.56,0,0,1-.3.08c-.2,0-.43-.16-.68-.49l-.9-1.13a2.86,2.86,0,0,1-.26-.37.64.64,0,0,1-.09-.29.47.47,0,0,1,.1-.3,2.72,2.72,0,0,1,.41-.38l4-3.34a1.21,1.21,0,0,1,.39-.24,2.34,2.34,0,0,1,.54-.05h1.75a1.76,1.76,0,0,1,.6.08.43.43,0,0,1,.27.27,2,2,0,0,1,.07.62V23h2.62a1.88,1.88,0,0,1,.61.07.41.41,0,0,1,.26.28,1.83,1.83,0,0,1,.08.61v1.22a1.83,1.83,0,0,1-.08.61.41.41,0,0,1-.26.27,1.56,1.56,0,0,1-.61.09h-9.1A1.53,1.53,0,0,1,34.11,26.09Z"/><path d="M47,22.57a2.91,2.91,0,0,0-1.74-1.77,4.14,4.14,0,0,0-1.45-.22h-.17V12.09a4.31,4.31,0,0,0-.2-1.42,3,3,0,0,0-1.73-1.78,4.23,4.23,0,0,0-1.46-.22H38.51a4.63,4.63,0,0,0-1.19.14A3.51,3.51,0,0,0,36,9.55l-2.07,1.7L32,12.82a4.07,4.07,0,0,1,.62,2.3,5.2,5.2,0,0,1-.55,2.58,2.59,2.59,0,0,1-.25.39l.51.63a3.74,3.74,0,0,0,1.25,1.1,1.59,1.59,0,0,0,.75.28l-.16.48c-.4,0-.27,0-.59.13a2.83,2.83,0,0,0-.44.13,3,3,0,0,0-1.62,1.7,1.72,1.72,0,0,0-.07.21h.28a1.61,1.61,0,0,1,.63.09.45.45,0,0,1,.26.28,2.24,2.24,0,0,1,.06.61v1.48a1.77,1.77,0,0,1-.08.62.39.39,0,0,1-.26.27,1.79,1.79,0,0,1-.61.08h-.34a2.52,2.52,0,0,0,.13.49,2.86,2.86,0,0,0,1.62,1.68l.1,0a3.73,3.73,0,0,0,1.45.24h9.11a3.88,3.88,0,0,0,1.56-.28A2.88,2.88,0,0,0,47,26.68a4.13,4.13,0,0,0,.23-1.47V24A4.31,4.31,0,0,0,47,22.57Zm-2.24,2.64a1.79,1.79,0,0,1-.08.61.49.49,0,0,1-.27.28,1.76,1.76,0,0,1-.6.08H34.71a1.76,1.76,0,0,1-.6-.08.49.49,0,0,1-.27-.28,1.84,1.84,0,0,1-.07-.61V24a1.84,1.84,0,0,1,.07-.61.47.47,0,0,1,.27-.28,1.51,1.51,0,0,1,.6-.09h2.42V16.79l0-.93h0a2.45,2.45,0,0,1-.3.4,3.15,3.15,0,0,1-.32.32l-.89.76a1.59,1.59,0,0,1-.38.29.58.58,0,0,1-.3.09l-.1,0-.11,0a1.54,1.54,0,0,1-.46-.44l-.91-1.13a2.86,2.86,0,0,1-.26-.37.67.67,0,0,1-.09-.29.47.47,0,0,1,.1-.3,2.45,2.45,0,0,1,.42-.38l1.39-1.16,2.64-2.18a1,1,0,0,1,.39-.24,2.34,2.34,0,0,1,.54-.05h1.75a2.26,2.26,0,0,1,.61.07.45.45,0,0,1,.26.28,2,2,0,0,1,.07.62V23h2.62a1.76,1.76,0,0,1,.6.08.44.44,0,0,1,.27.28,1.85,1.85,0,0,1,.08.62Z"/><path class="cls-2" d="M32.7,23.73v1.48a1.77,1.77,0,0,1-.08.62.39.39,0,0,1-.26.27,1.79,1.79,0,0,1-.61.08h-10a1.76,1.76,0,0,1-.6-.08.41.41,0,0,1-.27-.27,1.83,1.83,0,0,1-.07-.62v-.54a8.22,8.22,0,0,1,1-4.14,6.08,6.08,0,0,1,3.27-2.69l.79-.31c.82-.33,1.38-.57,1.7-.72a1.73,1.73,0,0,0,.65-.47,1.33,1.33,0,0,0,.2-.77,1.11,1.11,0,0,0-.49-1,2.38,2.38,0,0,0-1.32-.32,3.54,3.54,0,0,0-1.7.36,4,4,0,0,0-1.19,1,1.56,1.56,0,0,1-.37.39.5.5,0,0,1-.33.1,1,1,0,0,1-.52-.19c-.21-.13-.5-.34-.9-.65a4.52,4.52,0,0,1-.71-.61.73.73,0,0,1-.22-.5,1.51,1.51,0,0,1,.35-.81,4.15,4.15,0,0,1,.87-.92,7,7,0,0,1,2-1.16,8.47,8.47,0,0,1,3-.44,7.17,7.17,0,0,1,4.19,1.06,3.15,3.15,0,0,1,.9.92,4.07,4.07,0,0,1,.62,2.3,5.2,5.2,0,0,1-.55,2.58,2.59,2.59,0,0,1-.25.39,4.08,4.08,0,0,1-1.32,1.18,14.4,14.4,0,0,1-2.81,1.16l-.76.25a3.23,3.23,0,0,0-1,.56,2.46,2.46,0,0,0-.61.76,1.64,1.64,0,0,0-.2.72v0h6.65a1.61,1.61,0,0,1,.63.09.45.45,0,0,1,.26.28A2.24,2.24,0,0,1,32.7,23.73Z"/><path d="M3,9V19.49H7.14V9Zm3,9.38H4.16V10.11H6Z"/><rect class="cls-2" x="4.16" y="10.11" width="1.85" height="8.25"/><path class="cls-2" d="M6.68,13.15l.46,2.4v-2.4Z"/><path d="M6,12v3.67l.56,2.88.18.92h4.94l.18-.92.57-2.93.44-2.27L13.13,12Zm5.29,3.53-.54,2.81H7.68l-.54-2.81-.46-2.4h2l.51,3.1.51-3.1h2Z"/><polygon class="cls-2" points="11.76 13.15 11.3 15.55 10.76 18.36 7.68 18.36 7.14 15.55 7.14 13.15 8.71 13.15 9.22 16.25 9.73 13.15 11.76 13.15"/><path class="cls-2" d="M12.44,12v3.62l.44-2.27L13.13,12Z"/><path d="M11.3,9v4.17h.46l-.46,2.4v3.94h4.12V9Zm3,9.38H12.44V10.11h1.84Z"/><polygon class="cls-2" points="14.28 10.11 14.28 18.36 12.44 18.36 12.44 15.64 12.88 13.37 13.13 12.02 12.44 12.02 12.44 10.11 14.28 10.11"/><path class="cls-2" d="M15,16.68h1.6v1.68H15Z"/><path d="M14.28,15.55v2.81h-.46v1.13h3.87V15.55Zm2.28,2.81H15V16.68h1.61Z"/></svg>