<svg xmlns="http://www.w3.org/2000/svg" viewBox="0 0 283.76 394.75"><g id="Layer_1" data-name="Layer 1"><path d="M58,30.8,57.6,31l.63-.39A1.54,1.54,0,0,0,58,30.8Z"/><path d="M281.73,170.52c-1.77-5.51-4.06-10.87-6.09-16.3a1,1,0,0,0-.81-.67,8,8,0,0,1-3.73-2,8.73,8.73,0,0,0-2.29-1.33c-2.94-1.29-6.18-.51-9.19-1.3-.54-.14-.45.33-.47.65-.06.8-.06,1.61-.18,2.39-.43,2.71-1,5.39-1.31,8.1a81.82,81.82,0,0,0,.17,17.28,12.32,12.32,0,0,1-1.89,8.57c-1.82,2.68-4.39,4.78-5.92,7.68a.72.72,0,0,1-1,.2.91.91,0,0,1-.51-.94,2.78,2.78,0,0,1,.66-1.47,56.15,56.15,0,0,1,3.59-4.41,11.56,11.56,0,0,0,3.23-6.18,16.59,16.59,0,0,0-.31-5.53,62.81,62.81,0,0,1-1-15.35,75,75,0,0,0-.43-14.46c-.61-4.24-1.62-8.43-2.64-12.6-1.19-4.87-3.08-9.49-6.63-13.14-2-2-3.83-4.24-6-6.15a20.59,20.59,0,0,0-2.13-1.58c-2.19-1.49-4.39-3-6.6-4.44-.82-.55-.92-1-.46-2,1.78-3.64,4.54-6.45,7.42-9.18A6.23,6.23,0,0,1,239,94.92c4.28-1.69,8.1-4.54,12.89-4.93,1.21-.11,1.84-1.09,1.51-1.94-2.28-6.12-4-12.41-6-18.62q-3.58-11.12-6.07-22.53a10.78,10.78,0,0,0-3.44-6c-.6-.53-1.19-1.07-1.81-1.58-4.4-3.61-8.84-7.17-13.21-10.81A167.51,167.51,0,0,0,192.32,8.66C182.4,3.52,171.66,1.15,160.54.37a116.61,116.61,0,0,0-38,3.05,164.41,164.41,0,0,0-21.36,7.4h0c-.45.17-26.76,9.83-42.94,19.83L57.6,31l-3.22,2.14h0A180.66,180.66,0,0,0,36.73,45.84a168.69,168.69,0,0,0-18.6,18.92A65,65,0,0,0,7.64,81.52,79.14,79.14,0,0,0,1.69,103C.81,110-.58,117,.26,124.2c.62,5.31,0,10.71.74,16,.83,5.67.91,11.44,2.22,17,1.68,7.22,4.18,14.2,6.52,21.22,2.28,6.83,4.82,13.56,6.43,20.59a75,75,0,0,0,3.49,10.79c5.24,13.32,14.54,23.77,24.09,34a10.38,10.38,0,0,0,.86.76c6.68,5.64,14,9.88,22.91,10.93a47.59,47.59,0,0,0,5.38.53,86.53,86.53,0,0,0-3.7-8.28,107.85,107.85,0,0,1-6.46-14.34,4.91,4.91,0,0,1,.81-4.9c.73-.9.38-1.44-.37-1.94a10.45,10.45,0,0,0-3-1c-3.69-1.07-6.24-3.55-8.3-6.64a3,3,0,0,1-.58-1.78c.06-.92-.38-1.19-1.22-1.09a7.18,7.18,0,0,1-1.39,0c-3.4-.2-5.15-3.11-3.67-6.18a1.82,1.82,0,0,0-.36-2.28,23.89,23.89,0,0,1-3.6-4.54c-1.72-3.12-3-6.38-2.92-10,0-1.26.67-1.81,1.85-1.7,1.5.13,3,.29,4.51.51,2,.29,2.89,1.21,3,3.26a4.31,4.31,0,0,0,1.29,3c.26,0,.41,0,.31-.32l-.15-.75a3.36,3.36,0,0,1,2.63-4.32,10.88,10.88,0,0,0,3.11-1.35,5.18,5.18,0,0,1,5.58.36c2,1.61,3.07,3.87,4.21,6.07,1,1.95,2.23,3.64,4.63,3.76a40.1,40.1,0,0,0,8.82-.38,47.59,47.59,0,0,0,9.77-2.93,14.5,14.5,0,0,1,6.2-.88c6.87.39,13.12,3.56,19.9,4.47a59.13,59.13,0,0,0,6.88.59,17.85,17.85,0,0,1,3,.15c3.32.61,6.51,1.72,9.79,2.48,2.32.53,4.9-.8,7,1.09,4.08.74,6.17,3.36,7.12,7.24,1.18,4.79,1.75,9.68,2.68,14.52a1.73,1.73,0,0,0,.91,1.35,73.59,73.59,0,0,0,11.65,6,12.85,12.85,0,0,0,6.25,1.11c1-.13,2.11,0,3.15-.09,1.39-.11,2.77.36,4.15,0a148.84,148.84,0,0,0,16.79-5.84,77.08,77.08,0,0,1,21-5.77c2.51-.29,5-.28,7.55-.56a201.79,201.79,0,0,1,21.71-.93c6,0,11.9,1.25,17.9.5a33.34,33.34,0,0,0,7.39-1.51c.67-.24.9-.52.3-1.13-1.06-1.08-2.08-2.2-3.14-3.29a1.78,1.78,0,0,0-1.59-.53,5.31,5.31,0,0,1-5.52-3.39,7.69,7.69,0,0,1-.47-4.95c1.89-7.2,6.42-12.31,12.9-15.72a37.05,37.05,0,0,1,10.24-3.07,1.92,1.92,0,0,0,1.7-1.59c.11-.49.25-1,.32-1.47A35.76,35.76,0,0,0,281.73,170.52Zm-87.42-32.24a33.69,33.69,0,0,1-13,9.74,27.92,27.92,0,0,1-9,1.83,181.14,181.14,0,0,1-21.6.49c-11.87-.62-20-7-24.8-17.68A35.08,35.08,0,0,1,122.41,116a8.84,8.84,0,0,1,1-3.46,27.12,27.12,0,0,1,5.17-6.82,100.55,100.55,0,0,1,13-11,44.93,44.93,0,0,1,17.26-7.66,38.53,38.53,0,0,1,17.15.63A36.31,36.31,0,0,1,182.49,90a4.12,4.12,0,0,1,1.57,1.61A59.34,59.34,0,0,1,190.53,104a8,8,0,0,0,.06-1.09.89.89,0,0,1,.53-1,1,1,0,0,1,1.23.4,8.09,8.09,0,0,1,.9,1.37c2.22,4.59,4.23,9.26,5,14.36a100.05,100.05,0,0,1,.46,10.09C198.88,132.23,196.69,135.39,194.31,138.28Zm43.33,54.43a29.67,29.67,0,0,1-11.37-.92,5.6,5.6,0,0,1-2.73-1.77,56.3,56.3,0,0,1-9-12.46,18.17,18.17,0,0,1-1.48-10.24,85.25,85.25,0,0,1,4.27-20.59,42.5,42.5,0,0,1,4.42-9.19c2.44-3.7,3.65-7.93,5.19-12a22.08,22.08,0,0,1,4.85-7.74,1.36,1.36,0,0,1,1.8-.36c.75.39.91.89.33,1.49a7,7,0,0,0-1.52,2.91,12,12,0,0,0,2.53-2.34c1.78-1.7,1.76-1.73,3.74-.37.69.48,1.39,1,2.07,1.45A20,20,0,0,1,249,134.34c.9,5.91,1.73,11.82,2.06,17.8.11,2,.65,4,.79,6,.33,4.89,2,9.52,2.39,14.41a18.45,18.45,0,0,1-3.52,13C247.4,190.1,242.89,191.92,237.64,192.71Z"/><path d="M245.36,340.55c-.27,7.08-.42,14.16-1.69,21.15a16.51,16.51,0,0,1-.57,2.33,23.71,23.71,0,0,0-.58,13,12.93,12.93,0,0,1-.24,7.59,5.71,5.71,0,0,1-2.2,2.84c-4.66,3-9.86,4-15.31,3.82a1.64,1.64,0,0,1-.62-.13c-2.47-1.17-4.82-.62-7.18.4a42.47,42.47,0,0,1-14.74,3.21c-4,.22-7.86-.75-11.74-1.49-12.38-2.37-23.42-8-34.39-13.89-8.7-4.67-16.17-10.9-23.48-17.43-6.73-6-13.54-11.94-20.71-17.43a137.42,137.42,0,0,0-11.53-8.2,2.19,2.19,0,0,1-.94-1.8,79.47,79.47,0,0,1-.65-15.26c.43-13.22-1.65-26.1-5-38.82a236,236,0,0,0-11.05-32.19,51.27,51.27,0,0,0-3.81-6.83c-.7-1.14-1.36-2.31-2.14-3.66a148,148,0,0,1,30.29,7.91c1.5.57,2.35,1.86,3.3,3,4.15,5.19,5.71,11.17,5.76,17.77.07,8.17.69,16.33,3,24.25A31.46,31.46,0,0,0,128.24,305a33.2,33.2,0,0,1,5.92,7.52,22.09,22.09,0,0,0,4.63,5.64c1.9,1.61,3.16,3.84,5.21,5.31a13.85,13.85,0,0,0,2.86,1.6c5.43,2.14,10.8,4.49,16.32,6.39,4.63,1.6,9.44,2.71,13.87,4.91a76.93,76.93,0,0,0,9,3.68,39.52,39.52,0,0,0,11.13,2.07c2.72.16,5.44-.51,8.19-.39,1.9.07,3.79,0,5.68.17a34.5,34.5,0,0,0,8.67-.72,40.53,40.53,0,0,1,6.91-.62,53.18,53.18,0,0,0,12.76-1.48,9,9,0,0,1,5.11.31C245.06,339.6,245.39,339.86,245.36,340.55Z"/><path d="M253.29,247.61c-1.31,2.33-3.36,4.13-6.37,4.06a28,28,0,0,1-7.52-.69c-.59-.18-.78-.41-.76-1,0-1.55,0-3.11,0-5.2a85,85,0,0,1,.49-10.54c.22-2.16.62-4.33,2.33-5.95a.39.39,0,0,0,.08-.1c1.79-2.5,1.92-2.51,4.4-.48.33.27.68.51,1,.77,1,.81,2.14,1.48,2.37,3a2.89,2.89,0,0,0,.82,1.4c2.14,2.31,3,5.24,3.71,8.17A9.47,9.47,0,0,1,253.29,247.61Z"/><path d="M221.93,239.59c0,2.78-.4,5.54-.26,8.33,0,.28.06.58-.23.8-1.34,1-2.39,2.35-4,3a4.94,4.94,0,0,1-5.8-1.78c-2.81-3.46-3.15-7.45-3.16-11.6a18.56,18.56,0,0,1,.37-3.5,17.47,17.47,0,0,0,.46-3.74,1.46,1.46,0,0,1,1.23-1.62,15,15,0,0,1,7.18-.67,3.31,3.31,0,0,1,2.5,2.07A19.33,19.33,0,0,1,221.93,239.59Z"/><path d="M234.57,250.67a8.63,8.63,0,0,0-1.55.54c-2.35,1-4.62.48-6.83-.41-1-.41-1-1.58-1.17-2.47a16.38,16.38,0,0,1,0-2.89,91.47,91.47,0,0,0-.68-9.65,6.44,6.44,0,0,1,.62-4.48c.64-1.09.88-2.36,2.1-3.11a2,2,0,0,1,3.11.71c1.36,3,4.07,5.09,5.49,8.05a12.38,12.38,0,0,1,1.51,5.38,47.51,47.51,0,0,0,.07,4.92C237.4,249.2,236.54,250.22,234.57,250.67Z"/><path d="M267.2,243.34a1,1,0,0,1-.62,1c-3.06,1.61-6.09,3.25-9.13,4.87-1.09.58-1.32.48-1.4-.71-.06-1,0-1.93,0-2.9.29-3.66-1.13-7.14-1.13-10.78a9,9,0,0,1,.19-2.49,30.56,30.56,0,0,0,1.11-3.43c.37-2.05,4.46-3.44,6.27-2.36a2,2,0,0,1,1.06,1.63c.11,2.65,1.54,4.75,2.76,6.95a2.84,2.84,0,0,1,.59,1.64C266.66,239,267.22,241.15,267.2,243.34Z"/><path d="M172,315.24c-1.34,2.85-1.84,6-3,8.9a5.85,5.85,0,0,1-6.15,3.33c-1.81-.35-5.55-5-5.42-6.55.34-3.84,1-7.31,3.15-10.27.14-.19.15-.7.59-.42a5.34,5.34,0,0,0,2.58.41,7,7,0,0,1,3,1.09,44.32,44.32,0,0,0,4.7,2.42C172,314.41,172.25,314.63,172,315.24Z"/><path d="M206,325.58A21.6,21.6,0,0,1,201.35,337a10.29,10.29,0,0,1-1.86,1.87c-2.56,1.92-4.68.41-5.09-2.24a11.28,11.28,0,0,1-.31-3.37c.11-4.46.82-8.47,1.26-12.51.07-.69.43-.86,1-.72a5.55,5.55,0,0,1,2.06.92,33.62,33.62,0,0,0,7.1,4C205.87,325.07,206.07,325.09,206,325.58Z"/><path d="M205.49,253.67a28.72,28.72,0,0,1-5.59-1.73,2.5,2.5,0,0,1-1.48-1.82,34.27,34.27,0,0,1-.12-14.26,4.4,4.4,0,0,1,2.86-3.4,2.34,2.34,0,0,1,2.76.79c1.68,1.78,1.89,4,1.82,6.15a16.17,16.17,0,0,1-.2,4.47,8.13,8.13,0,0,0,.8,5.25,9.89,9.89,0,0,1,.82,3C207.37,253.4,206.79,253.83,205.49,253.67Z"/><path d="M159.12,309.85c-1.46,2-2.08,4.38-3,6.61a11,11,0,0,1-2.6,3.68,3.05,3.05,0,0,1-4.57.19c-2.07-1.66-2.84-3.34-2.71-6.48,0-3.62,2-6.78,5.31-9.2a1.36,1.36,0,0,1,1.11-.17c3.05.26,4.47,2.7,6.34,4.55C159.26,309.31,159.37,309.51,159.12,309.85Z"/><path d="M184.4,318.26c-.43,1.19-.35,2.53-1.2,3.6a11.84,11.84,0,0,0-2.57,5.93c-.19,1.43-2.23,3-3.65,3.07a1.45,1.45,0,0,1-.89-.41,11.15,11.15,0,0,1-3.11-3.74c-.43-.74-.4-1.81-1.53-2.16-.36-.11-.08-.85-.15-1.19a10.36,10.36,0,0,1,.65-3.44c.5-1.46,1.08-2.9,1.57-4.37.16-.5.31-.66.87-.54a12,12,0,0,0,4.89,0,2.92,2.92,0,0,1,3.15,1,5.19,5.19,0,0,0,1.67,1.52A.6.6,0,0,1,184.4,318.26Z"/><path d="M193.82,320.54c-.26,1.89-.43,3.87-.81,5.8a13.38,13.38,0,0,1-5.55,8.84,2.71,2.71,0,0,1-4.06-1.26c-1.76-3.76-1.72-7.38.95-10.74,1.11-1.4,1.86-3.09,3.42-4.15a2.24,2.24,0,0,1,2-.36c1.18.3,2.37.6,3.57.79C194.11,319.58,193.84,320.05,193.82,320.54Z"/><path d="M245.94,321c0,1.55,0,3.12-.08,4.67-.19,3.88,0,7.76-.36,11.63,0,.16-.05.32-.09.56a33.11,33.11,0,0,0-4.08-.82c-2.62-.57-4.56-2.26-3.68-5.46a31.25,31.25,0,0,0,.65-8.41c0-2.11,0-2,2.06-2.45,1.71-.35,3.45,0,5.15-.38C246.1,320.17,246,320.69,245.94,321Z"/><path d="M173.55,251.12c-.09.76-1.5.94-2.32,1.2-.41-.07-.75-.1-1.07-.19-1.67-.48-2.91,0-3.59,1.62-.32.78-.89.68-1.45.38-1.67-.89-3.31-1.83-5-2.72-.34-.19-.29-.4-.28-.72.06-1.6.08-3.2.08-4.8a2.93,2.93,0,0,1,1.9-2.92,3.13,3.13,0,0,0,1.7-1.78c.37-1,1-1.08,1.91-.68a8.82,8.82,0,0,1,3.39,2.77,51.31,51.31,0,0,0,3.75,4.43A4.19,4.19,0,0,1,173.55,251.12Z"/><path d="M183.72,254a6.11,6.11,0,0,1-2-.34,28.56,28.56,0,0,0-5.27-1.2,1.24,1.24,0,0,1-1.25-1.37,8,8,0,0,0-1-3.49c-.44-.8-.08-1.72-.07-2.59,0-.31.35-.42.66-.47,2.53-.35,3.86-2.11,4.88-4.21.8-1.64,2.08-1.85,3.19-.41a5.63,5.63,0,0,1,1.4,4.53c-.34,1.86.67,3.41,1.28,5a18.8,18.8,0,0,1,.57,1.8C186.6,253.16,185.82,254.06,183.72,254Z"/><path d="M235.35,334.32a3.68,3.68,0,0,1-4.64,2.84,1.33,1.33,0,0,1-1.09-.9,27.63,27.63,0,0,1-1.74-6,33.58,33.58,0,0,1-.8-3.49c-.14-2.62-.46-2.58,2.18-3.11s5.06-.77,7.44-2A41.54,41.54,0,0,1,235.35,334.32Z"/><path d="M192.52,252.91c-1,0-1.92-.24-2.88-.3-.44,0-.4-.35-.49-.6a21.39,21.39,0,0,1-1.44-8.06c.36-2.32.27-5.25,1.53-8a2.21,2.21,0,0,1,2.2-1.47,2.24,2.24,0,0,1,2.35,2,44.57,44.57,0,0,1,.81,7.39c.06,2.22.09,4.44.17,6.66C194.83,252.31,194.23,253,192.52,252.91Z"/><path d="M216.81,326.17c-.54,3.41-.35,6.89-1.12,10.27-.55,2.45-3,3.07-5,1.51-2.87-2.26-2.46-5.53-3-8.19.12-1.75.25-3.13.31-4.51,0-.55.27-.69.76-.77a6.35,6.35,0,0,1,3.12.18,9.62,9.62,0,0,0,4.39.91C216.78,325.5,216.88,325.76,216.81,326.17Z"/><path d="M150.48,303.46a16.63,16.63,0,0,0-5.11,6.27,4.94,4.94,0,0,1-4.56,2.9,2.27,2.27,0,0,1-2.32-2.45,21.16,21.16,0,0,1,1.92-6.86c.89-1.73,1-1.82,3.65-1.8,1.64.05,3.88.44,6.13.77.33,0,.72.12.85.46S150.72,303.28,150.48,303.46Z"/><path d="M158.45,245.18c-.18,1.16.16,2.35-.19,3.51s-.92,1.36-2.06.94c-2.78-1-3.67-3.4-4-5.91-.46-3.11-.55-6.26-.81-9.52a60.34,60.34,0,0,1,4.89,4.18C158.44,240.22,158.84,242.55,158.45,245.18Z"/><path d="M224.72,333.57a5.93,5.93,0,0,1-2.06,2.78c-1.22.79-1.56.75-2.48-.43a10.48,10.48,0,0,1-2-8.65c.25-1.48.75-1.92,2.17-1.88a12.8,12.8,0,0,0,5-.4C225.44,328,225.94,330.83,224.72,333.57Z"/><path d="M273.85,238.43a2.58,2.58,0,0,1-.91,1.83l-4.07,2.88a65.61,65.61,0,0,1-.38-9.52c0-1.13-.16-2.26-.23-3.38-.09-1.3.71-1.92,1.81-2.22s1.58.53,1.9,1.26C273.25,232.18,274.51,235.1,273.85,238.43Z"/><path d="M49.74,199a.29.29,0,0,1-.39,0c-.18-.24-.36-.49-.53-.74l.31-.32C49.34,198.28,49.54,198.64,49.74,199Z"/><path d="M50.15,199.69a1.16,1.16,0,0,1-.8-.71l.39,0Z"/><path d="M57.6,31l-3.22,2.14C55.39,32.47,56.47,31.75,57.6,31Z"/></g></svg>