<svg id="Layer_1" data-name="Layer 1" xmlns="http://www.w3.org/2000/svg" viewBox="0 0 47.67 45.11"><defs><style>.cls-1{fill:#f5f5f5;stroke-width:3.38px;}.cls-1,.cls-2{stroke:#000;stroke-miterlimit:10;}.cls-2{fill:none;stroke-linecap:round;stroke-width:1.69px;}.cls-3{fill:#ff7a64;}.cls-4{fill:#fff;}</style></defs><path class="cls-1" d="M23.86,5.65c10.32,0,17,8.51,18.68,18.68C45.5,42,34.43,43,24.12,43h-.26C13.55,43,2.22,42,5.19,24.33,6.89,14.16,13.55,5.65,23.86,5.65"/><ellipse cx="18.61" cy="19" rx="1.46" ry="2.89"/><path d="M36,25.91a12.14,12.14,0,1,1-24.27,0Z"/><path class="cls-2" d="M26.49,20.34h0a4,4,0,0,1,6,0h0"/><path class="cls-3" d="M2,19V14.48c0-.45.19-.83.9-1.82A25.5,25.5,0,0,1,23.86,2a25.48,25.48,0,0,1,21,10.72c.71,1,.89,1.36.89,1.81v5.77l-1.33.06c-.51,0-1.05,0-7.63-4.35A23.43,23.43,0,0,0,11,16c-6.58,4.34-7.11,4.34-7.63,4.34H2.09Z"/><path d="M23.86,3.2A24.4,24.4,0,0,1,43.8,13.39a3.79,3.79,0,0,1,.66,1.09V19s0,.06-.08.06c-.51,0-3.44-1.83-6.94-4.14a24.69,24.69,0,0,0-27.16,0c-3.49,2.31-6.43,4.14-6.94,4.14,0,0-.08,0-.08-.06V14.48a4.08,4.08,0,0,1,.66-1.09A24.42,24.42,0,0,1,23.86,3.2m0-2.5h0a26.74,26.74,0,0,0-22,11.23A4.37,4.37,0,0,0,.76,14.48V19a2.58,2.58,0,0,0,2.58,2.56c.86,0,1.42,0,8.32-4.55a22.18,22.18,0,0,1,24.41,0c6.89,4.55,7.46,4.55,8.31,4.55A2.57,2.57,0,0,0,47,19V14.48a4.35,4.35,0,0,0-1.12-2.54A26.73,26.73,0,0,0,23.87.7Z"/><path class="cls-3" d="M11.62,14.11c-.45.25-.89.52-1.33.81s-.75.5-1.12.73V14.58a.91.91,0,0,0-.84-.9,3.37,3.37,0,0,1-2.93-2.12A21.39,21.39,0,0,1,7.56,9.37l.08,1a.91.91,0,0,0,.84.83A3.41,3.41,0,0,1,11.62,14.11Z"/><path class="cls-3" d="M18.36,10.79l-.11.71a24.38,24.38,0,0,0-2.65.78l.29-1.88a.92.92,0,0,0-.69-1,3.37,3.37,0,0,1-2.63-3.45,19.72,19.72,0,0,1,2.58-1.15L15.06,6a.91.91,0,0,0,.7,1A3.42,3.42,0,0,1,18.36,10.79Z"/><path class="cls-3" d="M26.27,10.36l-.2.59a22.67,22.67,0,0,0-2.6-.09l.43-1.29a.91.91,0,0,0-.52-1.12,3.39,3.39,0,0,1-2-4l.29-1.18a20.48,20.48,0,0,1,2.6-.1l-.46,1.88a.91.91,0,0,0,.53,1A3.42,3.42,0,0,1,26.27,10.36Z"/><path class="cls-3" d="M34.15,11.68l-.64,1.14A21.26,21.26,0,0,0,31.13,12L32,10.46a.92.92,0,0,0-.29-1.2A3.38,3.38,0,0,1,30.47,5l.37-.8A23,23,0,0,1,33.21,5l-.47,1a.9.9,0,0,0,.32,1.14A3.41,3.41,0,0,1,34.15,11.68Z"/><path class="cls-3" d="M41.32,17.33l0,.06L39.16,16l.23-.29a.91.91,0,0,0-.08-1.23,3.39,3.39,0,0,1-.46-4.41l.83-1.19a23.1,23.1,0,0,1,1.84,1.73l-.61.88A.89.89,0,0,0,41,12.7,3.41,3.41,0,0,1,41.32,17.33Z"/><path class="cls-4" d="M11.62,14.11c-.45.25-.89.52-1.33.81s-.75.5-1.12.73V14.58a.91.91,0,0,0-.84-.9,3.37,3.37,0,0,1-2.93-2.12A21.39,21.39,0,0,1,7.56,9.37l.08,1a.91.91,0,0,0,.84.83A3.41,3.41,0,0,1,11.62,14.11Z"/><path class="cls-4" d="M18.36,10.79l-.11.71a24.38,24.38,0,0,0-2.65.78l.29-1.88a.92.92,0,0,0-.69-1,3.37,3.37,0,0,1-2.63-3.45,19.72,19.72,0,0,1,2.58-1.15L15.06,6a.91.91,0,0,0,.7,1A3.42,3.42,0,0,1,18.36,10.79Z"/><path class="cls-4" d="M26.27,10.36l-.2.59a22.67,22.67,0,0,0-2.6-.09l.43-1.29a.91.91,0,0,0-.52-1.12,3.39,3.39,0,0,1-2-4l.29-1.18a20.48,20.48,0,0,1,2.6-.1l-.46,1.88a.91.91,0,0,0,.53,1A3.42,3.42,0,0,1,26.27,10.36Z"/><path class="cls-4" d="M34.15,11.68l-.64,1.14A21.26,21.26,0,0,0,31.13,12L32,10.46a.92.92,0,0,0-.29-1.2A3.38,3.38,0,0,1,30.47,5l.37-.8A23,23,0,0,1,33.21,5l-.47,1a.9.9,0,0,0,.32,1.14A3.41,3.41,0,0,1,34.15,11.68Z"/><path class="cls-4" d="M41.32,17.33l0,.06L39.16,16l.23-.29a.91.91,0,0,0-.08-1.23,3.39,3.39,0,0,1-.46-4.41l.83-1.19a23.1,23.1,0,0,1,1.84,1.73l-.61.88A.89.89,0,0,0,41,12.7,3.41,3.41,0,0,1,41.32,17.33Z"/></svg>