<svg xmlns="http://www.w3.org/2000/svg" viewBox="0 0 2839.28 1717.93"><defs><style>.cls-1{fill:#00adee;}.cls-2{opacity:0.19;}.cls-3{fill:none;stroke:#fff;stroke-miterlimit:10;stroke-width:16.28px;}.cls-4{fill:#fff;}</style></defs><g id="Layer_1" data-name="Layer 1"><rect class="cls-1" width="2839.28" height="1717.93"/><g class="cls-2"><path class="cls-3" d="M3047.16,292.19c-13.62-65.65-62.72-114.07-128.13-126.32a166.32,166.32,0,0,0-26.65-2.73c-57-1.1-109,27.84-139.27,77.39-13.1,21.42-18.84,42.11-22.65,55.75l-.39,1.43A851.16,851.16,0,0,1,2700.65,385c-11.66,29-22.85,55.19-34.82,79.05,0-.16,0-.31,0-.46-.34-3.61-.68-7.16-1-10.76,14.5-46.15,12.2-94.69-6.87-144.42-23-59.93-77.82-98-142.93-99.23l-2.67-.05c-58-.25-108.05,30.63-137.24,84.72q-3.2,5.87-5.94,12.05c-2.42-18.48-5.24-37.34-8.67-56.2-3.11-17.43-6.1-35.15-8.59-50.15v-.1l0-.16-1.89-11.18c-1.94-11.49-3.87-23-5.86-34.48l-2.78-15.56c-5.58-32.68-11.95-69.63-23.65-107.51-7.59-24.65-19.4-57-43.5-88.16l0-.1-.1-.11c-30.67-39.48-73.54-64.35-120.74-70a163.34,163.34,0,0,0-17-1.2c-41.59-.8-83.17,13.7-117.14,40.88-19.87,15.85-36.78,35-51.78,58.64-19,29.88-34.08,62.62-47.55,103-16.15,48.54-29.06,100.17-39,156.38-1.53-.7-3.06-1.4-4.64-2a173,173,0,0,0-63.44-13.24,187,187,0,0,0-76.26,14.91c-23.25,9.77-44.88,23.58-65.79,42.28-20.33,18.15-39,38.64-57.52,63.35a208,208,0,0,0-61-61.43A214.92,214.92,0,0,0,1438,238.3a202.14,202.14,0,0,0-39.66,3.08c-56.39,10.11-107.73,35.42-156.88,77.3-54.16,46.11-95.86,106.74-127.37,185.23a204,204,0,0,0-15.45,15.37c-39-35.43-88.86-56.07-148.4-61.28-9.18-.79-18.57-1.28-27.86-1.46-84.57-1.64-159,23-214.82,45.26,5-32.68,9.4-65.88,12.72-99.46,2.42-24.55,5.23-49.93,8-74.48,2.55-22.7,5.16-46.23,7.51-69.61.82-7.69,1.64-15.48,2.45-23.22,5.22-49.26,10.57-100.21,9.35-154-.71-32.22-3.79-74.76-21.29-118.24-30-74.65-96.21-122-172.71-123.44-28.09-.54-56.14,5-83.49,16.52-27.18,11.39-52.57,27.8-77.5,50.07C358-63.21,326.88-26.83,294.68,20.42c-59.47,87.3-112.31,186.91-161.48,304.4-155.1,370.59-260.62,719-322.64,1065.05-13.12,73.1-15.12,134.18-6.28,192.25C-178,1698.6-94,1777.63,18.18,1783.29c2.72.16,5.44.26,8.11.32,50.42,1,100.35-12.29,152.56-40.46,77.92-42.05,141.64-96.8,195.06-149.55.45.57.95,1.2,1.4,1.82a160.06,160.06,0,0,0,124.23,62.25c3.24.06,6.53,0,9.82-.12,72-2.92,129.93-51.93,151.38-127.85q16.88-59.46,33.69-119.13c15.82-55.94,32-113.21,48.24-170.32,78.2,22.62,157.26,40.9,233.76,58.56,46.44,10.76,94.45,21.86,140.92,33.65a168.69,168.69,0,0,0,37.91,5.15,157.7,157.7,0,0,0,107.81-39.37c-.12.56-.18,1.08-.29,1.64-9.85,54.82-11.25,101.08-4.46,145.59,15.36,100.92,91.75,172.1,190,177l1.59.09,1.44,0c1.33.08,2.66.11,4,.13,42,.81,84.7-10.33,127-33.09a534,534,0,0,0,60.84-38.52,153.27,153.27,0,0,0,94.53,68.5h.2l.15.06a154.12,154.12,0,0,0,185.73-113.37l48.39-199.55a193.87,193.87,0,0,0,99.3,29.1,209.92,209.92,0,0,0,50.39-5.24c43.34-10.05,83.64-33,120-68.21a526.39,526.39,0,0,0,48-53.62,153.29,153.29,0,0,0,56.08,32.57q-15.14,37-29.49,74.38c-8.71,22.79-20.61,54-20.66,93.29,0,88.5,68.22,159.12,155.36,160.8a167,167,0,0,0,36-3.21c60.13-11.88,104.89-53,122.84-112.68a740.56,740.56,0,0,1,27.93-75.94q23.88-56.1,47.83-112.24c92.66-217.54,188.55-442.46,277.08-666.81,6.59-16.72,13.33-33.18,20.5-50.66,19.3-47.09,39.3-95.81,55.05-147.8C3044.86,379.11,3056.93,339.28,3047.16,292.19Z"/><path class="cls-4" d="M1178.83,1133.49c-21.4-11.51-44.2-19.7-67.44-26.63-65.17-19.49-132-31.93-197.9-48.41-41.15-10.3-82.69-19.37-122.27-33.65.25-10.11,7.68-11.82,12.52-15.47,60.32-45.68,117.37-95.12,169-150.47,35.72-38.3,68.71-78.86,85.93-129.48,16.17-47.51,12.77-92-24.31-129.45-25.5-25.76-57.8-36.51-93.08-39.6-69.74-6.13-134.82,12.49-198.44,38-25.94,10.33-51.39,22.32-74.21,38.73-31,22.36-37.36,51.26-19,85.05,3.22,6,11.37,9.21,8.78,15.84,0,0-10.87,52.08-18.37,76.28Q609.6,912.39,580.58,1011c-62.37,77.28-124.43,154.77-186.94,231.89-68.83,84.86-140.74,166.89-223,239.11-30.83,27.09-63.21,52.35-100.64,70.12-41.89,19.84-50.37,14.59-51-31.09-.72-50.66,7.54-100.32,16.87-149.76C55.77,1266,82.28,1162.2,111.09,1059c66.23-237.21,143.68-470.45,244.75-695.33,37.9-84.28,80.47-166.2,135.55-240.9,9.28-12.56,17.81-25.91,34.9-38.37-.59,30,.52,55.08-1.86,79.79-7.46,77.88-16.21,155.68-24.49,233.45q-9.51,89-19.06,177.87c-3,28.7-7.38,57.39-8.19,86.19-1,34,24.59,56.36,57.48,52.83,23.22-2.53,37.71-16.17,42.86-38.15,5.94-25.37,10.34-51.07,14.53-76.77,11.35-68.92,23.62-137.67,30.47-207.29,4.78-48.19,10.64-96.26,15.53-144.45,5.58-54.7,12.54-109.37,11.3-164.51-.64-28-3.34-55.9-13.92-82.25C610.11-50.66,561.09-71,509.87-49.41c-18.28,7.65-34.22,18.85-48.9,32C429.4,10.72,403.29,43.45,379.6,78.23,318.43,168,269.72,264.66,227.93,364.48c-141,337-251.72,683.33-316.27,1043.5-9.38,52.21-14,105.18-5.84,158.6,10.21,67.18,53.43,110.91,117.52,114.15,38.13,1.92,73.5-10,106.77-28,79.06-42.65,144.17-102.67,205.56-166.82C392,1427,445.2,1365.39,496.35,1302.12q-9.92,34.79-19.78,69.53c-10.42,36.73-21.15,73.4-30.13,110.47-9.5,39.37,19.57,74.34,58.84,72.79,27.4-1.11,47.12-19.48,56.61-53.09q50.61-178.71,101.22-357.4c3.75-13.23,5.56-27.37,15.48-40.59,27.79,15.69,57,27.3,87.39,36.21,124.22,36.31,251.28,61.06,376.61,92.86,29.81,7.51,57.25-6.7,66.32-32C1218.31,1174.58,1207,1148.73,1178.83,1133.49ZM736.57,913.15c-3.87-15.17,2.85-25.21,5.77-35.58,15.1-52.82,31.73-105.26,46.57-158.13,4.58-16.45,12.81-24.72,29.57-28.5,35.5-8.15,70.84-16.2,107.63-13.9,25,1.62,27.82,6.14,16.23,29-13.19,26-32.26,47.82-51.53,69.43C845.29,826.44,793.34,870.08,736.57,913.15Z"/><path class="cls-4" d="M2654.27,774.7c-8.91-.55-14.45-1.41-19.93-1.14-52.43,2.57-91-21.68-121.18-62.3-13.42-18.07-23.54-37.86-31.86-58.74-25.68-64.35-31.79-131.77-31.33-200.12.15-22.3,2-44.62,3.69-66.88,1.14-14.95,4.64-29.63,11.79-42.87,9.87-18.28,24.67-30.86,46.39-30.77,23.52.11,41.56,11,50.16,33.41,10.24,26.64,13.23,54.13,3.1,81.67-3,8.08-4.57,15.94-3.69,24.53,5,49.07,7.67,98.47,24,145.76,5.53,16,11.93,31.45,21.87,45,11.58,15.77,20.86,17.53,38.25,7.93,28.43-15.71,49.17-39.79,67.69-65.62,35.56-49.59,60.11-104.95,82.73-161.27a946.62,946.62,0,0,0,33-98c3-10.78,5.88-21.61,11.78-31.29,13-21.34,35.56-31.63,59.38-27.18,24.3,4.54,41.37,21.75,46.45,46.2,4.15,20-.83,38.85-6.53,57.66-19.78,65.23-47.88,127.27-72.84,190.53-102.95,261-214.11,518.48-323.88,776.58a841.54,841.54,0,0,0-31.76,86.57c-6.69,22.24-20.91,36.83-44.45,41.49-37.6,7.45-68.63-18.29-68.62-56.78,0-20.11,6.91-38.4,13.89-56.64,43.62-114.07,93.83-225.37,141.87-337.58,29.71-69.39,58.82-139,88.08-208.62C2646.31,796.89,2649.57,787.23,2654.27,774.7Z"/><path class="cls-4" d="M1538.23,414.14c-20.17-56.95-77.83-79.54-121.79-71.65C1374.32,350,1339.63,370,1308,396.89c-47.37,40.33-77.86,92.29-100.28,149.44-4.11,10.5-7.39,20.76-17.34,27.81-16.2,11.6-27.4,27.87-38.2,44.21-44.61,67.76-67.64,142.92-73,223.31-2.56,39.35,2.54,78.33,19.51,114.67,25.69,55,79.07,81.09,138.13,68.57,36.72-7.76,67.49-26.33,94.88-51,78.63-71.06,130.53-159.84,168.12-257.53,26.51-68.88,47.54-139.36,50.2-226.37C1551.33,472.23,1548.3,442.74,1538.23,414.14Zm-106.78,92c-2,63.35-22.3,122.39-45.1,180.45-24.63,62.81-58.47,120.5-103.07,171.62-14.81,17-31.18,32.12-50.21,44.08-22,13.91-28.16,10.81-33.84-14.22s-2.88-49.82,1-74.82c5.27-33.23,12.93-65.6,24.89-97.11,4.39-11.63,10.19-16.65,22.55-10.66,15.37,7.39,31,4.87,46.24-.54,33.26-11.89,47.66-47.31,27.94-76.82-11.23-16.81-10-30.34-2.9-46.33,12.56-28.17,26.75-55.37,47-78.92,13.51-15.71,29.12-28.92,47.94-37.7,13.06-6.11,17-3.83,17.93,10.21C1432.57,485.6,1431.65,495.9,1431.45,506.17Z"/><path class="cls-4" d="M1924.31,1067.07a51.2,51.2,0,0,1-1.09,5.93L1824,1482a51.39,51.39,0,0,1-50.84,39.24,52.4,52.4,0,0,1-11.17-1.45,51.36,51.36,0,0,1-37.79-62L1767,1281.2c-28.14,34-58.71,68.87-91.06,102.71-37.69,39.39-84.06,83.9-142.3,115.29-26.89,14.48-51.88,21.34-76.32,20.87-1.24,0-2.52-.1-3.8-.13-49.68-2.5-85.58-37-93.65-90-5.06-33.08-3.76-68.65,4-112C1405,1088.56,1475.06,857.43,1578,611.43c31.72-75.77,65.63-139.78,103.69-195.65,19.19-28.14,37.38-49.52,57.34-67.31,12.29-11,24.46-18.9,37.25-24.25,20.56-8.64,42-9.2,60.44-1.5s33.09,23.29,41.42,44c8.53,21.12,10.06,42.63,10.48,60.87.75,32.73-2.7,65.33-6,96.81-.57,5.33-1.13,10.61-1.7,15.94-1.52,15-3.2,30-4.88,45.06-1.93,17.43-3.85,34.85-5.58,52.28-4,40.56-10.76,81.11-17.28,120.38l-3.37,20.27c-2.91,17.77-5.92,35.18-10,52.77-5,21.53-20.45,35.2-42.23,37.5-15.49,1.65-29.79-2.78-40.33-12.54s-15.94-23.42-15.48-38.83c.44-14.83,2.16-29.54,3.82-43.74.62-5.17,1.23-10.35,1.79-15.53q3.78-35.91,7.66-71.81l5.19-48c1.45-13.79,3-27.53,4.45-41.32,4.12-38,8.38-77.24,12-115.85.33-3.59.55-7.18.72-10.82-29.82,41.59-56.27,89.16-84.94,153-61.19,136-113.37,284.27-164.2,466.51-23.29,83.33-38.82,147.8-50.43,209.16-5.84,31-11.57,64.14-11.09,97.84a113.6,113.6,0,0,0,.69,12.14,93.74,93.74,0,0,0,11.65-4.91c25.15-11.89,46.6-29.35,64.31-44.88,59.46-52.22,110.56-112.56,148.5-159.29q38.52-47.57,76.89-95.29,27.15-33.84,54.42-67.57l1.16-1.52c5.11-6.73,11.06-14.22,16.13-18.9,19-17.81,45.83-19,66.68-3.07A48.91,48.91,0,0,1,1924.31,1067.07Z"/><path class="cls-4" d="M2395.55,1146.25c-1,0-2,0-3,0a51.28,51.28,0,0,1-50.26-49.36l-7-181.71c-17.79,40.39-37.66,82.38-59.62,123.77-25.48,48.2-58,103.71-105.47,149.79-23,22.31-46.37,36-71.39,41.77a104.35,104.35,0,0,1-25.43,2.69c-38-.73-71-23.66-89.22-63.77-13.84-30.37-22.32-65-26.71-108.75-23-232-18.63-473.44,13.31-738.18,9.84-81.58,25-152.38,46.41-216.53,10.74-32.31,22.43-57.82,36.79-80.4,8.8-13.85,18.36-24.81,29.21-33.49,17.43-13.94,37.94-20.27,57.72-17.94s38.22,13.43,51.9,31.06c13.93,18,21.29,38.26,26.66,55.68,9.66,31.31,15.25,63.63,20.61,94.81q1.4,7.88,2.78,15.77c2.63,15,5.12,30,7.65,45,2.86,17.16,5.76,34.37,8.82,51.54,7.24,40,11.79,80.82,16.16,120.3l2.32,20.64c2,17.92,3.94,35.47,4.77,53.52,1,22.05-10.06,39.4-30.4,47.59-14.45,5.83-29.39,5.44-42.2-1.07s-21.74-18.2-25.51-33.12c-3.62-14.4-6-29-8.2-43.15-.83-5.15-1.65-10.3-2.58-15.41q-6.17-35.86-12.28-71.79l-8-47.05c-2.36-13.66-4.71-27.37-7-41-6.41-37.62-13-76.53-20-114.68-.65-3.55-1.4-7.06-2.26-10.62-17.37,48.15-29.8,101.18-40,170.43-21.71,147.51-31.47,304.4-30.72,493.59.33,86.46,3,152.77,8.53,215,2.83,31.44,6.4,64.9,16.05,97.14a109.44,109.44,0,0,0,4,11.53,118.14,118.14,0,0,0,9.86-7.93c20.9-18.29,36.8-40.94,49.61-60.73,42.94-66.4,75.67-138.45,99.39-193.73q24.3-56.62,48.27-113.4,16.8-39.59,33.64-79.12l.7-1.79c3.13-7.85,6.79-16.66,10.35-22.55,13.53-22.34,39-30.84,63.33-21.17a49,49,0,0,1,31.14,47.24,55,55,0,0,1,.56,5.76l16,420.59A51.36,51.36,0,0,1,2395.55,1146.25Z"/></g></g></svg>