<svg id="Layer_1" data-name="Layer 1" xmlns="http://www.w3.org/2000/svg" viewBox="0 0 228.37 279.42"><defs><style>.cls-1{fill:#02ae6c;}.cls-2{fill:#fff;}</style></defs><rect class="cls-1" x="32.76" y="25.91" width="162.84" height="162.84" rx="22.37"/><path class="cls-2" d="M117,69.48h54.2v49.68l-33.09,31.25H117l8.84-31.25H117Zm-57.93,0h54.2v49.68L80,150.41H59.05l8.85-31.25H59.05Z"/><path class="cls-1" d="M63.72,241.39v10.23H55.54c-9.35,0-15.1-5.75-15.1-15.16v-18.1H32.76V209.1h7.58V198H51.75v11.11H63.47v9.23H51.94v16.55c0,4.11,2.37,6.48,6.54,6.48Z"/><path class="cls-1" d="M107.54,232.67H75.38c1,5.8,4.81,9,10.38,9a10.09,10.09,0,0,0,9-4.93h12.08a21.75,21.75,0,0,1-21.1,15.17c-12.55,0-22-9.72-22-22.45S73.15,207,85.76,207c13.06,0,22,10.06,22,22.31A25.56,25.56,0,0,1,107.54,232.67Zm-31.86-7.85h20.6c-1.63-5.2-5.36-8-10.52-8S77,219.79,75.68,224.82Z"/><path class="cls-1" d="M109.94,229.32c0-12.74,9.72-22.33,22.64-22.33,11,0,19.54,7,21.61,17.44H142.78a10.92,10.92,0,0,0-10.27-6.63c-6.23,0-10.92,5-10.92,11.58s4.77,11.72,10.92,11.72c4.64,0,8.31-2.59,10.26-7.13h11.56c-2,10.68-10.7,17.93-21.82,17.93A22.21,22.21,0,0,1,109.94,229.32Z"/><path class="cls-1" d="M180,207.19c9.62,0,15.6,6.86,15.6,17.69V250.7h-11.5V226.8c0-6.36-2.24-9.52-7.41-9.52-5.73,0-9.54,4.18-9.54,11.08V250.7H155.67V192.88h11.49v19.26A18.55,18.55,0,0,1,180,207.19Z"/></svg>