<svg xmlns="http://www.w3.org/2000/svg" viewBox="0 0 319.48 828.11"><defs><style>.cls-1{fill:#00adee;}</style></defs><g id="Japanese"><path class="cls-1" d="M116.88,208Q59.46,168.59,29.73,149.3,12,137.6,12,126.84q0-7.91,10.12-15.5l11.07-7.59Q126.21,41.44,174.61,0q31,7.59,54.88,12.65t50.45,8.54q-65.81,44-156.26,99.64c-1.69,1.06-2.53,2.11-2.53,3.17,0,1.26,1,2.53,3.16,3.79Q200.86,171.44,278,220.47a305.91,305.91,0,0,0-36.85,16.13q-16.92,8.86-40.65,22.78l-6.32,3.79Q174.29,247.36,116.88,208Z"/><path class="cls-1" d="M269.18,397.13q25.94,19.14,25.94,54.25,0,47.76-43.65,69.27T131,542.16q-32.58,0-65.16-3.17,0-14.54-4.11-33.84A162.61,162.61,0,0,0,50,469.72L23.41,485.54,1,411.52l26.89-9.81q36.69-13,61.36-22.14t51.24-20.24L32.26,364.7V304.29H257.8l11.7,48.08q-11.7,4.74-39.22,13.6Q213.51,371,193.9,378h1.58Q243.24,378,269.18,397.13Zm-69.9,67.21q15.5-4.74,15.5-14.86,0-6.33-13.29-10.12T168,435.56q-57.57,0-109.44,29.1,58.51,4.44,91.41,4.43Q183.79,469.09,199.28,464.34Z"/><path class="cls-1" d="M300.18,684.82,255,688.62a449.83,449.83,0,0,0,38.91,41.12l-29.42,28.15q9.49-.63,14.87-1.27a132.84,132.84,0,0,0-10.44,33.69,223.77,223.77,0,0,0-3.8,35.59q-55.35,2.21-118.3,2.21-60.42,0-96.79-17.4T13.6,756q0-28.15,23.41-41t69.27-12.81q48.71,0,96.79,20.24A315.31,315.31,0,0,1,179.35,694Q95.53,699.06,0,699.05v-42.7q86.67,0,152.46-3.48a73.28,73.28,0,0,1-3.48-6.64Q86,650,14.23,650V601q65.49,0,113.88-3.17-1.28-3.15-3.17-9.49l76.87-7.9,2.53,10.43,33.85-4.74,2.53,5.38a251.21,251.21,0,0,0,19-29.42l25.94,11.7a305.79,305.79,0,0,1-31.31,45.55l7.59,15.82-39.22,4.74,4.42,7.91Q274.87,644,298,641.48Zm-82.87,76.23q-79.71-21.82-104.7-21.82c-4.86,0-8.54.9-11.07,2.68s-3.8,3.75-3.8,5.86q0,7.9,19,11.07T172.08,762Q200.22,762,217.31,761.05Zm44.28-137.6a273.27,273.27,0,0,0,32-45.86L319.48,589a265.77,265.77,0,0,1-32,46.49Z"/></g></svg>