<svg id="Layer_1" data-name="Layer 1" xmlns="http://www.w3.org/2000/svg" viewBox="0 0 47.67 45.11"><defs><style>.cls-1{fill:#0ebf00;stroke:#000;stroke-miterlimit:10;stroke-width:4.8px;}.cls-2{fill:#fff;}</style></defs><rect class="cls-1" x="2.76" y="17.52" width="42.01" height="24.22" rx="4.38"/><path d="M33.86,15.44a3.79,3.79,0,0,0-.12-.62,2.82,2.82,0,0,0-1.35-1.64l-.26-.13-.31-.1a6.87,6.87,0,0,0,.58-.63,6.18,6.18,0,0,0,.61-.9,5.8,5.8,0,0,0,.51-1.22,8.61,8.61,0,0,0,.33-2.48,7,7,0,0,0-.15-1.49,5.69,5.69,0,0,0-1-2.28,5.85,5.85,0,0,0-1.36-1.33,9.41,9.41,0,0,0-5.47-1.47,10.61,10.61,0,0,0-3.72.58,9.75,9.75,0,0,0-2.68,1.53,7.27,7.27,0,0,0-1.3,1.37,3.79,3.79,0,0,0-.76,2.17,3.14,3.14,0,0,0,.83,2.11,8.48,8.48,0,0,0,1,.89l.68.5a7.38,7.38,0,0,0-1.13,1.53,10.52,10.52,0,0,0-1.29,5.22v.53A4.08,4.08,0,0,0,17.76,19a2.86,2.86,0,0,0,1.69,1.68,4.09,4.09,0,0,0,1.41.22h9.73A4.19,4.19,0,0,0,32,20.7l.05,0A2.84,2.84,0,0,0,33.69,19a3.65,3.65,0,0,0,.13-.5,4.48,4.48,0,0,0,.09-.94V16.13A5,5,0,0,0,33.86,15.44Zm-13,3.08a1.74,1.74,0,0,1-.59-.07.4.4,0,0,1-.26-.26,1.75,1.75,0,0,1-.08-.61v-.53a8.13,8.13,0,0,1,1-4.05,6,6,0,0,1,3.2-2.62l.76-.3c.8-.32,1.36-.56,1.66-.7a1.69,1.69,0,0,0,.64-.47,1.21,1.21,0,0,0,.19-.74,1.1,1.1,0,0,0-.47-1,2.41,2.41,0,0,0-1.29-.31A3.49,3.49,0,0,0,24,7.23a3.66,3.66,0,0,0-1.16,1,1.93,1.93,0,0,1-.36.38.56.56,0,0,1-.33.1,1,1,0,0,1-.51-.19q-.3-.19-.87-.63a4.23,4.23,0,0,1-.69-.6.67.67,0,0,1-.22-.49A1.51,1.51,0,0,1,20.15,6a4.21,4.21,0,0,1,.85-.9A6.81,6.81,0,0,1,23,4a8.25,8.25,0,0,1,2.88-.43,7,7,0,0,1,4.09,1,3.41,3.41,0,0,1,.88.9,3.9,3.9,0,0,1,.6,2.24,5.11,5.11,0,0,1-.53,2.53,2.26,2.26,0,0,1-.25.38,4,4,0,0,1-1.28,1.15,14.21,14.21,0,0,1-2.74,1.13l-.75.24a3.08,3.08,0,0,0-1,.56,2.2,2.2,0,0,0-.6.73,1.58,1.58,0,0,0-.19.71v0h6.49a1.53,1.53,0,0,1,.61.09.4.4,0,0,1,.25.26,1.86,1.86,0,0,1,.06.6v1.45a1.8,1.8,0,0,1-.07.61.42.42,0,0,1-.26.26,1.7,1.7,0,0,1-.59.07Z"/><path class="cls-2" d="M32.89,18.44a.44.44,0,0,1-.26-.27,1.78,1.78,0,0,1-.07-.59V16.39a1.7,1.7,0,0,1,.07-.59.44.44,0,0,1,.26-.27,1.48,1.48,0,0,1,.59-.08h2.36V9.35l0-.9h0a2.27,2.27,0,0,1-.3.39,2.22,2.22,0,0,1-.31.31l-.86.75a2.1,2.1,0,0,1-.37.28.71.71,0,0,1-.3.08q-.3,0-.66-.48l-.88-1.11a2.15,2.15,0,0,1-.25-.36.53.53,0,0,1-.1-.28.48.48,0,0,1,.1-.29,3.37,3.37,0,0,1,.41-.38l3.94-3.25a.92.92,0,0,1,.38-.23,1.78,1.78,0,0,1,.52,0h1.71a1.7,1.7,0,0,1,.59.07.41.41,0,0,1,.27.27,2.2,2.2,0,0,1,.06.6V15.45h2.56a1.74,1.74,0,0,1,.59.07.37.37,0,0,1,.26.27,1.81,1.81,0,0,1,.07.6v1.19a1.78,1.78,0,0,1-.07.59.41.41,0,0,1-.26.27,1.69,1.69,0,0,1-.59.08H33.48A1.69,1.69,0,0,1,32.89,18.44Z"/><path d="M45.48,15a2.84,2.84,0,0,0-1.69-1.73,4,4,0,0,0-1.42-.22h-.16V4.77A4.39,4.39,0,0,0,42,3.38a2.88,2.88,0,0,0-1.7-1.73,4,4,0,0,0-1.42-.21H37.18A4.39,4.39,0,0,0,36,1.57a3.39,3.39,0,0,0-1.31.72L32.71,4,30.85,5.48a3.9,3.9,0,0,1,.6,2.24,5.11,5.11,0,0,1-.53,2.53,2.26,2.26,0,0,1-.25.38l.5.62a3.7,3.7,0,0,0,1.23,1.07,1.44,1.44,0,0,0,.72.27l-.15.47c-.39,0-.27,0-.58.12a2.16,2.16,0,0,0-.43.14A2.88,2.88,0,0,0,30.38,15c0,.07-.05.14-.07.21h.28a1.53,1.53,0,0,1,.61.09.4.4,0,0,1,.25.26,1.86,1.86,0,0,1,.06.6v1.45a1.8,1.8,0,0,1-.07.61.42.42,0,0,1-.26.26,1.7,1.7,0,0,1-.59.07h-.33a2.41,2.41,0,0,0,.12.48A2.85,2.85,0,0,0,32,20.65l.1,0a3.77,3.77,0,0,0,1.42.24h8.89a3.86,3.86,0,0,0,1.52-.27A2.79,2.79,0,0,0,45.46,19a3.9,3.9,0,0,0,.23-1.43V16.39A4.11,4.11,0,0,0,45.48,15Zm-2.19,2.58a1.74,1.74,0,0,1-.07.59.46.46,0,0,1-.26.27,1.73,1.73,0,0,1-.59.08H33.48a1.66,1.66,0,0,1-.59-.08.46.46,0,0,1-.26-.27,1.74,1.74,0,0,1-.07-.59V16.39a1.7,1.7,0,0,1,.07-.59.44.44,0,0,1,.26-.27,1.42,1.42,0,0,1,.59-.09h2.35V9.35l.05-.9h0a2.78,2.78,0,0,1-.29.39,4.19,4.19,0,0,1-.32.31l-.86.75a1.8,1.8,0,0,1-.38.28.67.67,0,0,1-.29.08h-.1a.24.24,0,0,1-.1-.05,1.43,1.43,0,0,1-.46-.42l-.88-1.11a3.16,3.16,0,0,1-.26-.36A.71.71,0,0,1,31.84,8a.43.43,0,0,1,.1-.29,1.85,1.85,0,0,1,.4-.38L33.7,6.23l2.57-2.12a1.21,1.21,0,0,1,.39-.24,2.92,2.92,0,0,1,.52-.05h1.71a1.76,1.76,0,0,1,.6.08.44.44,0,0,1,.26.26,2.34,2.34,0,0,1,.06.61V15.44h2.56a2.1,2.1,0,0,1,.59.07.45.45,0,0,1,.26.28,1.81,1.81,0,0,1,.07.6Z"/><path class="cls-2" d="M31.51,16.13v1.45a1.8,1.8,0,0,1-.07.61.42.42,0,0,1-.26.26,1.7,1.7,0,0,1-.59.07H20.86a1.74,1.74,0,0,1-.59-.07.4.4,0,0,1-.26-.26,1.75,1.75,0,0,1-.08-.61v-.53a8.13,8.13,0,0,1,1-4.05,6,6,0,0,1,3.2-2.62l.76-.3c.8-.32,1.36-.56,1.66-.7a1.69,1.69,0,0,0,.64-.47,1.21,1.21,0,0,0,.19-.74,1.1,1.1,0,0,0-.47-1,2.41,2.41,0,0,0-1.29-.31A3.49,3.49,0,0,0,24,7.23a3.66,3.66,0,0,0-1.16,1,1.93,1.93,0,0,1-.36.38.56.56,0,0,1-.33.1,1,1,0,0,1-.51-.19q-.3-.19-.87-.63a4.23,4.23,0,0,1-.69-.6.67.67,0,0,1-.22-.49A1.51,1.51,0,0,1,20.15,6a4.21,4.21,0,0,1,.85-.9A6.81,6.81,0,0,1,23,4a8.25,8.25,0,0,1,2.88-.43,7,7,0,0,1,4.09,1,3.41,3.41,0,0,1,.88.9,3.9,3.9,0,0,1,.6,2.24,5.11,5.11,0,0,1-.53,2.53,2.26,2.26,0,0,1-.25.38,4,4,0,0,1-1.28,1.15,14.21,14.21,0,0,1-2.74,1.13l-.75.24a3.08,3.08,0,0,0-1,.56,2.2,2.2,0,0,0-.6.73,1.58,1.58,0,0,0-.19.71v0h6.49a1.53,1.53,0,0,1,.61.09.4.4,0,0,1,.25.26A1.86,1.86,0,0,1,31.51,16.13Z"/><path d="M2.64,2.37V12.88H6.75V2.37Zm3,9.38H3.77V3.5H5.62Z"/><rect class="cls-2" x="3.77" y="3.5" width="1.85" height="8.25"/><path class="cls-2" d="M6.29,6.54l.46,2.4V6.54Z"/><path d="M5.62,5.41V9.08L6.18,12l.18.92H11.3l.18-.92L12.05,9l.44-2.27.25-1.35Zm5.29,3.53-.54,2.81H7.29L6.75,8.94l-.46-2.4h2l.51,3.1.51-3.1h2Z"/><polygon class="cls-2" points="11.37 6.54 10.91 8.94 10.37 11.75 7.29 11.75 6.75 8.94 6.75 6.54 8.32 6.54 8.83 9.64 9.34 6.54 11.37 6.54"/><path class="cls-2" d="M12.05,5.41V9l.44-2.27.25-1.35Z"/><path d="M10.91,2.37V6.54h.46l-.46,2.4v3.94H15V2.37Zm3,9.38H12.05V3.5h1.84Z"/><polygon class="cls-2" points="13.89 3.5 13.89 11.75 12.05 11.75 12.05 9.03 12.49 6.76 12.74 5.41 12.05 5.41 12.05 3.5 13.89 3.5"/><path class="cls-2" d="M14.56,10.07h1.61v1.68H14.56Z"/><path d="M13.89,8.94v2.81h-.46v1.13H17.3V8.94Zm2.28,2.81H14.56V10.07h1.61Z"/></svg>