<svg xmlns="http://www.w3.org/2000/svg" viewBox="0 0 398.54 242"><defs><style>.cls-1,.cls-3{fill:#00adee;}.cls-2{fill:#fff;}.cls-3{stroke:#fff;stroke-miterlimit:10;stroke-width:2px;}</style></defs><g id="Layer_1" data-name="Layer 1"><path class="cls-1" d="M167.7,158.6a27.15,27.15,0,0,1-8.1-2.71l-7.71-4,8.42,2.18,1.19.32a48.45,48.45,0,0,1,6.77,2.35l7.25,3.23Z"/><path class="cls-2" d="M160.06,155l1.17.32a46.82,46.82,0,0,1,6.63,2.3,26.2,26.2,0,0,1-7.8-2.62m-16.3-6.27,15.37,8a28.32,28.32,0,0,0,8.4,2.82l15.66,2.65-14.51-6.45a49.32,49.32,0,0,0-6.92-2.4l-1.2-.33-16.8-4.33Z"/><path class="cls-3" d="M397,50.68a19.53,19.53,0,0,0-16-15.21,20.16,20.16,0,0,0-3.28-.27A19.47,19.47,0,0,0,360.77,45a26,26,0,0,0-2.65,6.9l0,.18a106.85,106.85,0,0,1-3.41,10.79c-1.36,3.59-2.67,6.83-4.09,9.79v0c-.05-.45-.1-.88-.16-1.32a26.35,26.35,0,0,0-1.18-17.72,18.83,18.83,0,0,0-17.79-11.85h-.33c-7.12.11-13.19,4-16.65,10.73-.25.49-.48,1-.7,1.5-.34-2.27-.73-4.58-1.2-6.88-.42-2.14-.83-4.31-1.17-6.14h0v0l-.26-1.37c-.26-1.41-.53-2.81-.8-4.22L310,33.43a102.55,102.55,0,0,0-3.17-13.14,33,33,0,0,0-5.55-10.72v0h0a22.12,22.12,0,0,0-15-8.31,18.53,18.53,0,0,0-2.09-.11,22.45,22.45,0,0,0-14.29,5.3,28.83,28.83,0,0,0-6.22,7.32A55.75,55.75,0,0,0,258,26.51a135.25,135.25,0,0,0-4.42,19.29l-.57-.24a21.3,21.3,0,0,0-7.82-1.47,23,23,0,0,0-9.33,2,28.51,28.51,0,0,0-8,5.35A52.62,52.62,0,0,0,221,59.36,25.5,25.5,0,0,0,213.37,52a26.43,26.43,0,0,0-14.1-4.09,24.42,24.42,0,0,0-4.86.48,40.1,40.1,0,0,0-19.08,9.86c-6.55,5.79-11.52,13.34-15.21,23a25.58,25.58,0,0,0-1.86,1.92c-4.87-4.25-11-6.67-18.36-7.17-1.13-.07-2.29-.11-3.43-.11-10.39,0-19.47,3.2-26.27,6.07.53-4,1-8.11,1.32-12.25.24-3,.53-6.14.8-9.16.26-2.8.53-5.69.76-8.57.08-.94.17-1.9.25-2.85a145.89,145.89,0,0,0,.78-18.93,40.46,40.46,0,0,0-2.9-14.47C107.35,6.65,99.11,1,89.71,1A25,25,0,0,0,79.5,3.23a33.89,33.89,0,0,0-9.4,6.33A74.54,74.54,0,0,0,58.36,23.85,208.67,208.67,0,0,0,39.25,61.61C21.08,107.49,9,150.52,2.16,193.16c-1.44,9-1.54,16.52-.31,23.62,2.45,14.27,13,23.77,26.74,24.2l1,0c6.19,0,12.29-1.75,18.64-5.33,9.46-5.35,17.16-12.23,23.59-18.83l.18.22a19.65,19.65,0,0,0,15.4,7.35c.4,0,.8,0,1.21,0,8.83-.53,15.83-6.68,18.28-16.06q1.94-7.34,3.86-14.71c1.81-6.9,3.66-14,5.52-21,9.65,2.6,19.41,4.65,28.84,6.64,5.73,1.21,11.65,2.46,17.39,3.8a20.58,20.58,0,0,0,4.66.54,19.36,19.36,0,0,0,13.15-5.09l0,.2a53.44,53.44,0,0,0-.21,17.89c2.13,12.36,11.68,20.91,23.76,21.29h.86a31.46,31.46,0,0,0,15.51-4.37,64.12,64.12,0,0,0,7.38-4.87,18.85,18.85,0,0,0,11.77,8.19h.05a18.65,18.65,0,0,0,4.07.44,18.93,18.93,0,0,0,18.47-14.8l5.46-24.62a23.85,23.85,0,0,0,12.27,3.34,25.92,25.92,0,0,0,6.17-.76,31.29,31.29,0,0,0,14.57-8.67,63.27,63.27,0,0,0,5.77-6.69,18.93,18.93,0,0,0,7,3.86c-1.18,3.06-2.34,6.13-3.45,9.21a31,31,0,0,0-2.31,11.5A19.47,19.47,0,0,0,326.85,209a20.68,20.68,0,0,0,4.41-.48,19.31,19.31,0,0,0,14.81-14.13,90.59,90.59,0,0,1,3.25-9.39l5.61-13.9c10.86-26.93,22.1-54.78,32.44-82.54.77-2.07,1.56-4.11,2.4-6.27,2.25-5.83,4.59-11.86,6.4-18.28A26.09,26.09,0,0,0,397,50.68Z"/><path class="cls-2" d="M169.57,158.43a43.34,43.34,0,0,0-8.34-3.11c-8-2.24-16.29-3.61-24.42-5.48A152.18,152.18,0,0,1,121.72,146c0-1.24.91-1.47,1.5-1.93a161.27,161.27,0,0,0,20.39-18.88c4.3-4.78,8.25-9.84,10.24-16.1,1.88-5.87,1.35-11.32-3.29-15.84-3.19-3.1-7.18-4.34-11.52-4.64-8.58-.59-16.53,1.85-24.28,5.13a42.07,42.07,0,0,0-9,4.94c-3.76,2.82-4.47,6.38-2.13,10.49.41.72,1.42,1.1,1.11,1.92,0,0-1.21,6.42-2.07,9.41q-3.51,12.13-6.83,24.3c-7.48,9.64-14.91,19.3-22.41,28.92-8.25,10.59-16.88,20.83-26.82,29.9a54.52,54.52,0,0,1-12.19,8.85c-5.1,2.53-6.15,1.91-6.33-3.7a91.83,91.83,0,0,1,1.71-18.43c2.2-13,5.21-25.78,8.5-38.52,7.57-29.29,16.53-58.11,28.4-86,4.46-10.44,9.49-20.6,16.07-29.9a18.8,18.8,0,0,1,4.2-4.8c0,3.69.19,6.76,0,9.8-.73,9.59-1.62,19.16-2.45,28.73q-1,10.95-1.92,21.89c-.3,3.53-.77,7.06-.8,10.6a6.09,6.09,0,0,0,7.18,6.35,5.68,5.68,0,0,0,5.18-4.79c.66-3.12,1.14-6.29,1.6-9.46,1.23-8.49,2.57-17,3.25-25.52C99.42,62.82,100,56.9,100.51,51c.56-6.73,1.28-13.46,1-20.23A28.65,28.65,0,0,0,99.6,20.68c-2.68-6.31-8.75-8.69-15-5.92a21.49,21.49,0,0,0-5.93,4,63.27,63.27,0,0,0-9.77,11.94A197.14,197.14,0,0,0,51,66.25C34.46,108,21.69,150.76,14.62,195.14a59.06,59.06,0,0,0-.34,19.5c1.41,8.22,6.82,13.49,14.7,13.73,4.69.15,9-1.4,13.05-3.69,9.6-5.42,17.46-13,24.84-21,6.78-7.37,13.17-15.06,19.3-23q-1.14,4.29-2.27,8.58c-1.19,4.54-2.42,9.07-3.44,13.64a7.1,7.1,0,0,0,7.4,8.8c3.37-.2,5.74-2.51,6.83-6.66q5.79-22.06,11.58-44.12c.43-1.64.62-3.38,1.8-5a50.14,50.14,0,0,0,10.82,4.24c15.34,4.17,31,6.9,46.47,10.51a6.64,6.64,0,0,0,8.07-4.09C174.52,163.38,173.07,160.23,169.57,158.43Zm-54.83-26c-.51-1.85.29-3.1.62-4.38,1.73-6.52,3.65-13,5.35-19.53a4.32,4.32,0,0,1,3.56-3.57c4.34-1.09,8.66-2.16,13.18-2,3.08.14,3.44.69,2.07,3.52a40.79,40.79,0,0,1-6.17,8.65A130.08,130.08,0,0,1,114.74,132.42Z"/><path class="cls-2" d="M349.9,110.86c-1.1,0-1.78-.14-2.45-.09-6.43.44-11.22-2.44-15-7.36a31.68,31.68,0,0,1-4.05-7.14c-3.31-7.84-4.22-16.1-4.32-24.5,0-2.74.13-5.48.29-8.22a13.11,13.11,0,0,1,1.35-5.29c1.17-2.27,2.95-3.85,5.62-3.89a6.16,6.16,0,0,1,6.24,4,13.93,13.93,0,0,1,.58,10,6.5,6.5,0,0,0-.4,3c.73,6,1.18,12.08,3.3,17.85a20.33,20.33,0,0,0,2.79,5.47c1.46,1.91,2.6,2.1,4.72.88,3.45-2,5.94-5,8.15-8.22,4.25-6.17,7.13-13,9.78-20a116.32,116.32,0,0,0,3.82-12.1,14.75,14.75,0,0,1,1.37-3.87,6.88,6.88,0,0,1,7.23-3.48,7,7,0,0,1,5.81,5.56c.56,2.45,0,4.77-.66,7.1-2.28,8-5.58,15.74-8.5,23.57-12,32.28-25.06,64.17-37.92,96.13a103.2,103.2,0,0,0-3.7,10.7,6.76,6.76,0,0,1-5.36,5.2,6.83,6.83,0,0,1-8.56-6.81,19.61,19.61,0,0,1,1.57-7c5.09-14.12,11-27.9,16.62-41.8,3.49-8.59,6.9-17.21,10.32-25.82C349,113.61,349.35,112.41,349.9,110.86Z"/><path class="cls-2" d="M212,69.24a13.56,13.56,0,0,0-15.13-8.51,27.86,27.86,0,0,0-13.18,6.94c-5.72,5.06-9.34,11.52-12,18.59a6.65,6.65,0,0,1-2.06,3.45,19.67,19.67,0,0,0-4.59,5.52,55.66,55.66,0,0,0-8.43,27.6,28.58,28.58,0,0,0,2.66,14,14.68,14.68,0,0,0,17.13,8.1,25.08,25.08,0,0,0,11.53-6.5c9.49-8.91,15.65-19.93,20-32,3.09-8.52,5.51-17.23,5.63-27.92A25.31,25.31,0,0,0,212,69.24ZM199.1,80.79c-.1,7.79-2.44,15.09-5.11,22.27a71.21,71.21,0,0,1-12.25,21.32,27.69,27.69,0,0,1-6.06,5.53c-2.66,1.76-3.43,1.4-4.18-1.66a24.08,24.08,0,0,1-.06-9.19,60.1,60.1,0,0,1,2.83-12c.51-1.44,1.21-2.07,2.74-1.36a7.15,7.15,0,0,0,5.68-.18c4.06-1.54,5.74-5.92,3.25-9.5a5.25,5.25,0,0,1-.47-5.68,38.86,38.86,0,0,1,5.59-9.8,17.76,17.76,0,0,1,5.8-4.75c1.59-.78,2.07-.51,2.22,1.22C199.19,78.26,199.1,79.53,199.1,80.79Z"/><path class="cls-2" d="M261,148.5c0,.24-.07.49-.12.73l-11.22,50.46a6.31,6.31,0,0,1-6.15,4.94,6.46,6.46,0,0,1-1.37-.15,6.31,6.31,0,0,1-4.79-7.53l4.84-21.78c-3.38,4.24-7.05,8.6-10.94,12.83-4.53,4.92-10.12,10.5-17.2,14.49a18.89,18.89,0,0,1-9.32,2.75h-.47c-6.11-.19-10.6-4.34-11.71-10.83a41.36,41.36,0,0,1,.22-13.76c4.51-28.27,12.56-56.82,24.62-87.27A134.21,134.21,0,0,1,229.61,69.1a43.8,43.8,0,0,1,6.89-8.4A16.21,16.21,0,0,1,241,57.63a9.09,9.09,0,0,1,12.61,5,20.76,20.76,0,0,1,1.43,7.45,93.57,93.57,0,0,1-.5,11.9c-.06.66-.11,1.31-.17,2-.15,1.85-.32,3.7-.49,5.55-.2,2.14-.39,4.29-.56,6.43-.4,5-1.13,10-1.84,14.82l-.37,2.5c-.31,2.19-.64,4.33-1.1,6.5a5.71,5.71,0,0,1-5.1,4.71,6.19,6.19,0,0,1-5-1.44,6.12,6.12,0,0,1-2-4.74c0-1.82.19-3.63.36-5.38.07-.63.13-1.27.19-1.91.25-2.94.51-5.89.77-8.83l.52-5.91c.14-1.7.3-3.39.45-5.09.41-4.67.84-9.5,1.2-14.25,0-.44.05-.89.06-1.33a105.7,105.7,0,0,0-10.06,19c-7.19,16.85-13.25,35.18-19.06,57.67-2.66,10.29-4.41,18.25-5.69,25.81a59.84,59.84,0,0,0-1.13,12,14,14,0,0,0,.11,1.49,11.1,11.1,0,0,0,1.42-.63,34.92,34.92,0,0,0,7.79-5.67,161.07,161.07,0,0,0,17.86-19.91q4.62-5.93,9.21-11.88,3.26-4.23,6.52-8.43l.14-.19a20.58,20.58,0,0,1,1.94-2.36,6.16,6.16,0,0,1,8.18-.53A6,6,0,0,1,261,148.5Z"/><path class="cls-2" d="M319,157.1h-.36a6.3,6.3,0,0,1-6.29-5.94l-1.29-22.3c-2.09,5-4.43,10.21-7,15.34-3,6-6.87,12.87-12.59,18.65a18.62,18.62,0,0,1-8.67,5.29,12.58,12.58,0,0,1-3.11.4c-4.68,0-8.78-2.74-11.11-7.62A41.58,41.58,0,0,1,265,147.64c-3.38-28.44-3.41-58.1-.12-90.68a135.1,135.1,0,0,1,5.18-26.7,43.67,43.67,0,0,1,4.33-10,16.52,16.52,0,0,1,3.51-4.18,9.1,9.1,0,0,1,13.49,1.35,21,21,0,0,1,3.41,6.77,92.22,92.22,0,0,1,2.75,11.59l.38,1.93c.36,1.84.7,3.67,1.05,5.51.39,2.1.79,4.21,1.2,6.31,1,4.9,1.64,9.89,2.27,14.73l.34,2.53c.29,2.2.57,4.35.71,6.56a5.71,5.71,0,0,1-3.62,5.92,6,6,0,0,1-8.39-4c-.48-1.76-.81-3.55-1.11-5.28-.12-.63-.23-1.26-.36-1.88-.56-2.93-1.11-5.86-1.68-8.79l-1.09-5.76c-.33-1.67-.65-3.35-1-5-.88-4.61-1.78-9.37-2.73-14q-.13-.65-.3-1.29a105.78,105.78,0,0,0-4.51,21c-2.31,18.16-3.14,37.45-2.6,60.68.25,10.62.73,18.76,1.56,26.38a60.07,60.07,0,0,0,2.2,11.89,12.56,12.56,0,0,0,.52,1.41,14.44,14.44,0,0,0,1.19-1,35.1,35.1,0,0,0,5.95-7.57,161.3,161.3,0,0,0,11.74-24q2.85-7,5.66-14,2-4.9,3.94-9.8l.09-.22a20.46,20.46,0,0,1,1.21-2.79A6.18,6.18,0,0,1,318,92.4a6,6,0,0,1,3.94,5.73c0,.23.06.46.08.7l3,51.61A6.31,6.31,0,0,1,319,157.1Z"/></g></svg>