<!-- Generator: Adobe Illustrator 25.2.1, SVG Export Plug-In  -->
<svg version="1.1" xmlns="http://www.w3.org/2000/svg" xmlns:xlink="http://www.w3.org/1999/xlink" x="0px" y="0px"
	 width="270.621px" height="40.893px" viewBox="0 0 270.621 40.893"
	 style="overflow:visible;enable-background:new 0 0 270.621 40.893;" xml:space="preserve">
<style type="text/css">
	.st0{fill:none;stroke:#000000;stroke-width:1.84;stroke-miterlimit:10;}
</style>
<defs>
</defs>
<g>
	<g>
		<path d="M214.004,20.553l7.11,7.11l-7.789,7.789l-7.11-7.11l-7.149,7.149l-7.788-7.789l7.149-7.149l-7.149-7.149l7.788-7.789
			l7.149,7.149l7.149-7.149l7.788,7.789L214.004,20.553z"/>
	</g>
	<g>
		<g>
			<g>
				<ellipse class="st0" cx="30.917" cy="22.535" rx="29.997" ry="17.437"/>
				<path class="st0" d="M11.645,35.897c5.213-2.543,11.935-4.074,19.272-4.074c7.248,0,13.896,1.494,19.081,3.982"/>
				<path class="st0" d="M49.998,9.174c-5.213,2.543-11.935,4.074-19.272,4.074c-7.248,0-13.896-1.494-19.081-3.982"/>
				<ellipse class="st0" cx="30.917" cy="22.535" rx="20.974" ry="17.437"/>
				<ellipse class="st0" cx="30.917" cy="22.535" rx="9.105" ry="17.437"/>
				<rect x="0.92" y="21.615" width="59.995" height="1.84"/>
			</g>
		</g>
		<g>
			<path d="M87.94,5.361c-0.011,0.008-0.023,0.015-0.034,0.023c0.019-0.012,0.039-0.025,0.059-0.037
				C87.958,5.35,87.95,5.355,87.94,5.361z"/>
			<path d="M108.937,18.473c-0.167-0.518-0.382-1.02-0.572-1.53c-0.016-0.042-0.041-0.056-0.075-0.062
				c-0.137-0.026-0.248-0.099-0.351-0.189c-0.064-0.055-0.138-0.091-0.214-0.125c-0.276-0.121-0.58-0.048-0.863-0.122
				c-0.05-0.013-0.042,0.031-0.044,0.061c-0.005,0.075-0.006,0.15-0.017,0.224c-0.04,0.254-0.095,0.505-0.123,0.76
				c-0.059,0.54-0.039,1.081,0.016,1.622c0.029,0.285-0.009,0.555-0.177,0.804c-0.171,0.252-0.412,0.449-0.556,0.721
				c-0.017,0.032-0.059,0.039-0.095,0.019c-0.035-0.019-0.052-0.049-0.049-0.088c0.004-0.053,0.032-0.097,0.063-0.139
				c0.107-0.142,0.216-0.282,0.337-0.414c0.151-0.165,0.271-0.352,0.303-0.579c0.025-0.174,0.005-0.349-0.029-0.519
				c-0.094-0.476-0.114-0.96-0.09-1.441c0.023-0.455,0.024-0.908-0.04-1.356c-0.057-0.398-0.152-0.791-0.248-1.182
				c-0.112-0.457-0.289-0.891-0.623-1.233c-0.187-0.192-0.359-0.398-0.559-0.577c-0.062-0.055-0.132-0.101-0.2-0.148
				c-0.206-0.14-0.411-0.28-0.619-0.417c-0.077-0.051-0.087-0.097-0.043-0.186c0.167-0.342,0.426-0.605,0.696-0.862
				c0.052-0.049,0.101-0.111,0.163-0.136c0.401-0.158,0.76-0.425,1.21-0.463c0.113-0.01,0.172-0.101,0.142-0.182
				c-0.215-0.573-0.375-1.164-0.563-1.747c-0.224-0.695-0.415-1.4-0.57-2.114c-0.05-0.232-0.153-0.41-0.322-0.561
				c-0.056-0.05-0.111-0.101-0.169-0.149c-0.413-0.338-0.83-0.672-1.24-1.014c-0.882-0.735-1.851-1.34-2.867-1.865
				c-0.931-0.482-1.939-0.704-2.982-0.778c-1.204-0.085-2.396-0.019-3.567,0.287c-0.686,0.179-1.35,0.421-2.004,0.694h0c0,0,0,0,0,0
				c-0.042,0.015-2.511,0.922-4.029,1.86c-0.02,0.012-0.04,0.025-0.059,0.037c-0.101,0.067-0.202,0.134-0.303,0.2
				c0,0-0.001,0-0.001,0.001c-0.567,0.374-1.134,0.746-1.655,1.187c-0.636,0.54-1.202,1.145-1.746,1.775
				c-0.409,0.474-0.738,1.003-0.984,1.573c-0.276,0.641-0.47,1.312-0.558,2.012c-0.083,0.662-0.213,1.318-0.134,1.993
				c0.058,0.499-0.003,1.005,0.07,1.504c0.078,0.532,0.085,1.073,0.208,1.599c0.158,0.678,0.392,1.333,0.612,1.991
				c0.213,0.64,0.452,1.272,0.603,1.932c0.079,0.346,0.197,0.682,0.327,1.013c0.492,1.25,1.365,2.23,2.261,3.193
				c0.024,0.026,0.053,0.048,0.08,0.07c0.627,0.53,1.317,0.928,2.15,1.026c0.163,0.019,0.326,0.049,0.505,0.05
				c-0.107-0.272-0.219-0.527-0.348-0.777c-0.226-0.437-0.445-0.879-0.606-1.346c-0.057-0.165-0.033-0.324,0.076-0.459
				c0.069-0.085,0.036-0.135-0.035-0.182c-0.084-0.055-0.184-0.069-0.279-0.096c-0.346-0.1-0.585-0.333-0.778-0.623
				c-0.033-0.049-0.059-0.106-0.055-0.167c0.006-0.087-0.035-0.112-0.114-0.102c-0.043,0.005-0.087,0.006-0.13,0.003
				c-0.319-0.019-0.483-0.293-0.345-0.58c0.041-0.085,0.027-0.149-0.033-0.214c-0.123-0.134-0.25-0.265-0.338-0.426
				c-0.161-0.293-0.284-0.599-0.274-0.941c0.003-0.118,0.062-0.17,0.173-0.16c0.142,0.013,0.283,0.027,0.424,0.048
				c0.189,0.027,0.27,0.114,0.281,0.306c0.006,0.112,0.04,0.208,0.12,0.286c0.025,0.005,0.039-0.002,0.03-0.031
				c-0.005-0.023-0.009-0.047-0.014-0.07c-0.043-0.207,0.045-0.35,0.247-0.406c0.103-0.028,0.201-0.068,0.292-0.127
				c0.144-0.094,0.389-0.076,0.523,0.033c0.186,0.152,0.288,0.363,0.394,0.569c0.095,0.184,0.21,0.342,0.435,0.354
				c0.276,0.015,0.553,0.01,0.828-0.036c0.318-0.053,0.619-0.156,0.917-0.275c0.186-0.074,0.381-0.093,0.581-0.082
				c0.645,0.036,1.232,0.334,1.868,0.419c0.216,0.029,0.429,0.051,0.645,0.055c0.094,0.002,0.186-0.004,0.282,0.014
				c0.312,0.057,0.611,0.161,0.919,0.233c0.217,0.05,0.46-0.075,0.653,0.103c0.383,0.069,0.579,0.315,0.668,0.679
				c0.111,0.45,0.164,0.909,0.251,1.363c0.012,0.062,0.034,0.095,0.086,0.126c0.352,0.211,0.706,0.416,1.093,0.562
				c0.192,0.072,0.379,0.129,0.586,0.104c0.097-0.012,0.198-0.001,0.296-0.009c0.13-0.01,0.26,0.035,0.389-0.002
				c0.536-0.153,1.061-0.332,1.575-0.548c0.631-0.266,1.284-0.461,1.967-0.541c0.235-0.027,0.473-0.026,0.708-0.053
				c0.677-0.077,1.357-0.084,2.037-0.087c0.56-0.002,1.117,0.117,1.679,0.047c0.235-0.029,0.469-0.059,0.694-0.141
				c0.063-0.023,0.085-0.05,0.029-0.106c-0.1-0.101-0.196-0.206-0.295-0.309c-0.04-0.041-0.086-0.057-0.149-0.05
				c-0.229,0.023-0.43-0.103-0.518-0.317c-0.062-0.15-0.086-0.309-0.045-0.465c0.177-0.676,0.603-1.154,1.21-1.474
				c0.299-0.157,0.632-0.224,0.961-0.289c0.091-0.018,0.139-0.064,0.159-0.149c0.011-0.046,0.023-0.092,0.03-0.138
				C109.177,19.497,109.099,18.975,108.937,18.473z M100.734,15.447c-0.33,0.399-0.738,0.712-1.223,0.915
				c-0.27,0.113-0.558,0.152-0.844,0.171c-0.674,0.045-1.352,0.08-2.026,0.045c-1.115-0.058-1.878-0.66-2.327-1.658
				c-0.221-0.491-0.359-1.012-0.326-1.564c0.007-0.12,0.047-0.223,0.099-0.324c0.123-0.242,0.294-0.449,0.485-0.64
				c0.378-0.378,0.787-0.718,1.224-1.028c0.494-0.351,1.029-0.599,1.62-0.718c0.538-0.108,1.076-0.076,1.609,0.059
				c0.207,0.052,0.408,0.119,0.601,0.209c0.067,0.031,0.108,0.092,0.148,0.151c0.242,0.367,0.456,0.748,0.607,1.166
				c0.002-0.034,0.008-0.069,0.006-0.103c-0.004-0.044,0.006-0.081,0.049-0.097c0.046-0.017,0.087,0,0.116,0.037
				c0.031,0.041,0.062,0.083,0.084,0.128c0.208,0.431,0.397,0.868,0.466,1.348c0.046,0.314,0.029,0.631,0.043,0.947
				C101.163,14.879,100.958,15.176,100.734,15.447z M104.8,20.554c-0.364,0.055-0.716-0.003-1.067-0.086
				c-0.102-0.024-0.187-0.091-0.256-0.166c-0.327-0.356-0.622-0.736-0.842-1.169c-0.155-0.305-0.171-0.633-0.139-0.961
				c0.063-0.658,0.178-1.307,0.401-1.932c0.107-0.301,0.237-0.594,0.414-0.862c0.229-0.347,0.343-0.744,0.487-1.128
				c0.103-0.274,0.251-0.517,0.455-0.727c0.05-0.052,0.101-0.068,0.169-0.033c0.07,0.036,0.085,0.083,0.031,0.14
				c-0.072,0.076-0.112,0.169-0.143,0.273c0.099-0.051,0.159-0.145,0.237-0.219c0.167-0.16,0.165-0.162,0.351-0.035
				c0.065,0.045,0.131,0.089,0.194,0.135c0.44,0.322,0.692,0.751,0.775,1.294c0.084,0.555,0.162,1.109,0.193,1.67
				c0.011,0.188,0.061,0.374,0.074,0.563c0.031,0.458,0.19,0.893,0.225,1.351c0.035,0.453-0.054,0.848-0.331,1.223
				C105.716,20.31,105.293,20.48,104.8,20.554z"/>
			<path d="M105.524,34.427c-0.025,0.664-0.039,1.328-0.159,1.984c-0.013,0.074-0.029,0.148-0.053,0.219
				c-0.137,0.4-0.143,0.805-0.055,1.216c0.051,0.237,0.07,0.476-0.023,0.712c-0.044,0.112-0.106,0.202-0.206,0.267
				c-0.438,0.284-0.925,0.371-1.437,0.358c-0.019,0-0.041-0.003-0.058-0.012c-0.232-0.11-0.452-0.058-0.674,0.038
				c-0.441,0.191-0.907,0.275-1.383,0.301c-0.374,0.021-0.738-0.07-1.102-0.14c-1.161-0.223-2.198-0.751-3.227-1.303
				c-0.816-0.438-1.517-1.023-2.203-1.636c-0.631-0.564-1.27-1.12-1.943-1.635c-0.351-0.269-0.704-0.538-1.082-0.769
				c-0.068-0.041-0.078-0.103-0.088-0.169c-0.077-0.475-0.076-0.954-0.061-1.432c0.04-1.24-0.155-2.449-0.472-3.642
				c-0.274-1.031-0.618-2.039-1.037-3.021c-0.096-0.226-0.229-0.432-0.358-0.641c-0.066-0.107-0.127-0.217-0.201-0.343
				c0.993,0.153,1.931,0.396,2.842,0.742c0.141,0.054,0.221,0.174,0.309,0.285c0.39,0.488,0.536,1.048,0.541,1.667
				c0.006,0.767,0.064,1.532,0.283,2.276c0.156,0.53,0.452,0.969,0.855,1.343c0.221,0.206,0.402,0.446,0.556,0.705
				c0.118,0.199,0.257,0.379,0.434,0.529c0.179,0.151,0.297,0.361,0.489,0.499c0.084,0.06,0.172,0.112,0.268,0.15
				c0.51,0.201,1.013,0.422,1.531,0.6c0.435,0.15,0.886,0.254,1.301,0.461c0.273,0.136,0.557,0.245,0.843,0.346
				c0.337,0.119,0.69,0.175,1.045,0.194c0.255,0.014,0.51-0.048,0.769-0.037c0.177,0.007,0.355-0.001,0.533,0.017
				c0.274,0.027,0.545-0.027,0.814-0.068c0.216-0.033,0.433-0.062,0.648-0.058c0.407,0.008,0.802-0.05,1.197-0.139
				c0.159-0.035,0.322-0.03,0.48,0.028C105.496,34.338,105.527,34.362,105.524,34.427z"/>
			<path d="M106.268,25.706c-0.122,0.219-0.315,0.387-0.598,0.381c-0.236-0.005-0.474,0.004-0.705-0.065
				c-0.056-0.017-0.074-0.038-0.072-0.096c0.004-0.146,0.001-0.292,0.001-0.488c-0.008-0.298,0.01-0.645,0.046-0.99
				c0.021-0.202,0.059-0.406,0.219-0.558c0.003-0.003,0.006-0.006,0.008-0.009c0.168-0.235,0.18-0.236,0.413-0.045
				c0.031,0.025,0.063,0.047,0.094,0.072c0.094,0.076,0.2,0.139,0.222,0.277c0.007,0.047,0.043,0.094,0.077,0.131
				c0.201,0.218,0.285,0.492,0.348,0.767C106.368,25.29,106.371,25.522,106.268,25.706z"/>
			<path d="M103.326,24.953c-0.004,0.26-0.038,0.52-0.025,0.781c0.001,0.027,0.006,0.055-0.021,0.075
				c-0.125,0.095-0.225,0.221-0.375,0.285c-0.202,0.086-0.41,0-0.544-0.167c-0.263-0.325-0.295-0.698-0.296-1.088
				c0-0.112,0.015-0.221,0.035-0.329c0.022-0.116,0.047-0.231,0.043-0.351c-0.003-0.079,0.031-0.128,0.116-0.152
				c0.221-0.063,0.443-0.11,0.673-0.063c0.11,0.022,0.189,0.086,0.235,0.194C103.285,24.418,103.333,24.65,103.326,24.953z"/>
			<path d="M104.512,25.993c-0.05,0.012-0.098,0.03-0.145,0.051c-0.22,0.096-0.433,0.045-0.641-0.038
				c-0.096-0.039-0.094-0.148-0.11-0.232c-0.016-0.088-0.004-0.181-0.004-0.272c-0.01-0.303-0.021-0.605-0.064-0.905
				c-0.02-0.143-0.024-0.278,0.058-0.42c0.06-0.103,0.082-0.221,0.197-0.292c0.131-0.081,0.247-0.034,0.292,0.066
				c0.128,0.284,0.382,0.478,0.515,0.756c0.077,0.161,0.142,0.323,0.141,0.505c0,0.154-0.008,0.307,0.007,0.461
				C104.778,25.855,104.697,25.951,104.512,25.993z"/>
			<path d="M107.574,25.305c0,0.053-0.014,0.074-0.058,0.098c-0.287,0.15-0.571,0.305-0.857,0.457
				c-0.102,0.054-0.123,0.045-0.131-0.067c-0.006-0.09-0.001-0.182-0.001-0.272c0.027-0.343-0.106-0.67-0.106-1.011
				c0-0.08-0.004-0.157,0.018-0.234c0.031-0.108,0.083-0.206,0.104-0.322c0.034-0.192,0.419-0.323,0.589-0.221
				c0.058,0.035,0.096,0.087,0.099,0.153c0.01,0.248,0.145,0.446,0.259,0.652c0.027,0.049,0.061,0.097,0.055,0.153
				C107.523,24.898,107.576,25.1,107.574,25.305z"/>
			<path d="M98.638,32.052c-0.125,0.268-0.172,0.562-0.283,0.835c-0.086,0.212-0.354,0.357-0.578,0.313
				c-0.17-0.033-0.521-0.469-0.508-0.615c0.032-0.361,0.09-0.686,0.295-0.964c0.013-0.018,0.014-0.065,0.056-0.039
				c0.076,0.048,0.161,0.03,0.243,0.039c0.104,0.011,0.194,0.045,0.285,0.102c0.14,0.087,0.291,0.157,0.441,0.227
				C98.642,31.974,98.664,31.995,98.638,32.052z"/>
			<path d="M101.833,33.022c-0.043,0.399-0.188,0.754-0.438,1.067c-0.052,0.065-0.108,0.126-0.175,0.176
				c-0.24,0.18-0.439,0.038-0.478-0.21c-0.018-0.115-0.046-0.233-0.029-0.317c0.01-0.418,0.077-0.795,0.118-1.174
				c0.007-0.064,0.041-0.081,0.096-0.067c0.07,0.017,0.136,0.043,0.193,0.086c0.206,0.155,0.431,0.276,0.666,0.377
				C101.819,32.974,101.838,32.976,101.833,33.022z"/>
			<path d="M101.783,26.275c-0.185-0.022-0.351-0.105-0.524-0.163c-0.068-0.022-0.123-0.096-0.139-0.171
				c-0.092-0.445-0.107-0.891-0.012-1.338c0.033-0.153,0.119-0.262,0.268-0.32c0.107-0.041,0.186-0.003,0.259,0.075
				c0.157,0.167,0.177,0.372,0.17,0.577c0.015,0.146,0.005,0.284-0.019,0.42c-0.03,0.174-0.005,0.339,0.075,0.493
				c0.047,0.09,0.061,0.187,0.077,0.284C101.959,26.249,101.905,26.289,101.783,26.275z"/>
			<path d="M97.432,31.546c-0.137,0.187-0.195,0.41-0.283,0.62c-0.056,0.132-0.14,0.247-0.244,0.346
				c-0.143,0.135-0.277,0.139-0.429,0.017c-0.194-0.156-0.267-0.313-0.254-0.607c0.004-0.34,0.187-0.636,0.499-0.864
				c0.036-0.026,0.063-0.019,0.104-0.016c0.286,0.024,0.419,0.254,0.595,0.427C97.446,31.495,97.456,31.514,97.432,31.546z"/>
			<path d="M99.804,32.335c-0.04,0.112-0.033,0.238-0.112,0.338c-0.13,0.163-0.214,0.346-0.242,0.557
				c-0.017,0.134-0.209,0.283-0.342,0.287c-0.036,0.001-0.058-0.02-0.083-0.038c-0.13-0.09-0.214-0.217-0.292-0.351
				c-0.041-0.07-0.038-0.169-0.144-0.202c-0.034-0.01-0.008-0.081-0.015-0.112c0-0.119,0.026-0.222,0.061-0.322
				c0.047-0.138,0.102-0.273,0.147-0.411c0.016-0.047,0.029-0.061,0.082-0.05c0.152,0.032,0.307,0.03,0.458-0.002
				c0.119-0.025,0.214-0.004,0.295,0.093c0.045,0.053,0.09,0.11,0.157,0.142C99.804,32.277,99.814,32.307,99.804,32.335z"/>
			<path d="M100.688,32.549c-0.024,0.177-0.04,0.363-0.075,0.544c-0.067,0.341-0.23,0.629-0.521,0.829
				c-0.138,0.095-0.31,0.035-0.382-0.118c-0.164-0.353-0.161-0.693,0.089-1.008c0.104-0.131,0.175-0.289,0.321-0.389
				c0.062-0.043,0.117-0.052,0.187-0.034c0.111,0.028,0.222,0.056,0.335,0.074C100.715,32.459,100.69,32.503,100.688,32.549z"/>
			<path d="M105.579,32.589c-0.001,0.146-0.001,0.293-0.008,0.439c-0.018,0.363,0.001,0.728-0.034,1.091
				c-0.002,0.015-0.005,0.031-0.009,0.053c-0.127-0.044-0.257-0.05-0.383-0.077c-0.246-0.054-0.428-0.211-0.345-0.512
				c0.071-0.259,0.061-0.524,0.061-0.789c0-0.198,0.004-0.192,0.193-0.23c0.161-0.033,0.324,0.001,0.484-0.035
				C105.594,32.515,105.579,32.563,105.579,32.589z"/>
			<path d="M98.786,26.035c-0.008,0.071-0.141,0.088-0.218,0.113c-0.039-0.007-0.071-0.01-0.101-0.019
				c-0.156-0.045-0.273-0.004-0.336,0.152c-0.03,0.074-0.084,0.064-0.136,0.036c-0.157-0.084-0.311-0.172-0.467-0.256
				c-0.032-0.017-0.027-0.037-0.026-0.067c0.006-0.15,0.007-0.301,0.007-0.451c0-0.131,0.056-0.218,0.178-0.274
				c0.074-0.034,0.13-0.089,0.16-0.167c0.035-0.093,0.096-0.102,0.179-0.064c0.13,0.058,0.235,0.151,0.318,0.26
				c0.11,0.145,0.226,0.284,0.352,0.416C98.783,25.806,98.799,25.932,98.786,26.035z"/>
			<path d="M99.74,26.3c-0.056,0.003-0.121-0.012-0.185-0.032c-0.162-0.05-0.325-0.093-0.494-0.113
				c-0.073-0.008-0.113-0.039-0.117-0.128c-0.006-0.113-0.035-0.224-0.092-0.327c-0.042-0.076-0.008-0.162-0.007-0.243
				c0-0.03,0.033-0.04,0.062-0.044c0.237-0.034,0.362-0.198,0.458-0.396c0.074-0.153,0.195-0.173,0.299-0.038
				c0.094,0.122,0.161,0.259,0.131,0.425c-0.032,0.175,0.063,0.32,0.12,0.474c0.02,0.055,0.04,0.111,0.054,0.169
				C100.011,26.227,99.938,26.311,99.74,26.3z"/>
			<path d="M104.586,33.842c-0.07,0.257-0.266,0.298-0.436,0.267c-0.056-0.01-0.084-0.039-0.102-0.085
				c-0.074-0.183-0.132-0.368-0.163-0.565c-0.017-0.108-0.069-0.213-0.075-0.328c-0.013-0.246-0.044-0.242,0.204-0.292
				c0.235-0.047,0.475-0.072,0.699-0.189C104.727,33.066,104.691,33.456,104.586,33.842z"/>
			<path d="M100.566,26.203c-0.09-0.004-0.18-0.022-0.27-0.028c-0.042-0.003-0.038-0.033-0.046-0.056
				c-0.083-0.227-0.14-0.46-0.135-0.756c0.033-0.218,0.025-0.493,0.143-0.747c0.042-0.091,0.102-0.138,0.207-0.138
				c0.131,0,0.198,0.077,0.221,0.188c0.046,0.228,0.069,0.46,0.076,0.693c0.006,0.209,0.009,0.417,0.017,0.626
				C100.783,26.147,100.727,26.21,100.566,26.203z"/>
			<path d="M102.846,33.077c-0.051,0.32-0.033,0.647-0.105,0.963c-0.052,0.231-0.282,0.288-0.467,0.142
				c-0.269-0.212-0.23-0.52-0.282-0.769c0.012-0.164,0.024-0.293,0.03-0.423c0.002-0.051,0.025-0.065,0.072-0.072
				c0.099-0.016,0.195-0.016,0.292,0.017c0.134,0.045,0.265,0.106,0.413,0.085C102.843,33.015,102.852,33.039,102.846,33.077z"/>
			<path d="M96.622,30.946c-0.205,0.16-0.369,0.346-0.48,0.589c-0.077,0.168-0.232,0.267-0.428,0.272
				c-0.124,0.003-0.234-0.109-0.217-0.229c0.031-0.222,0.076-0.441,0.18-0.644c0.084-0.163,0.098-0.171,0.342-0.169
				c0.155,0.005,0.365,0.041,0.575,0.072c0.031,0.004,0.067,0.012,0.08,0.043C96.69,30.922,96.644,30.929,96.622,30.946z"/>
			<path d="M97.369,25.478c-0.016,0.109,0.016,0.22-0.018,0.33c-0.033,0.108-0.086,0.128-0.193,0.088
				c-0.261-0.095-0.344-0.319-0.379-0.555c-0.043-0.291-0.051-0.587-0.075-0.893c0.172,0.114,0.305,0.265,0.458,0.392
				C97.368,25.012,97.406,25.231,97.369,25.478z"/>
			<path d="M103.587,33.772c-0.045,0.102-0.095,0.196-0.193,0.26c-0.114,0.074-0.146,0.07-0.232-0.04
				c-0.188-0.242-0.24-0.509-0.188-0.812c0.024-0.139,0.071-0.18,0.204-0.177c0.153,0.004,0.308,0.023,0.472-0.037
				C103.655,33.247,103.702,33.515,103.587,33.772z"/>
			<path d="M108.198,24.845c-0.014,0.07-0.026,0.13-0.085,0.172c-0.124,0.088-0.248,0.175-0.383,0.27
				c-0.041-0.311-0.038-0.602-0.035-0.894c0.001-0.106-0.015-0.212-0.022-0.318c-0.008-0.121,0.067-0.179,0.17-0.208
				c0.099-0.027,0.148,0.049,0.179,0.118C108.142,24.258,108.26,24.532,108.198,24.845z"/>
			<polygon points="107.048,15.01 106.916,15.01 106.912,14.999 107.047,14.999 			"/>
			<path d="M87.169,21.145c-0.013,0.008-0.025,0.008-0.037-0.002c-0.017-0.023-0.033-0.046-0.05-0.069
				c0.01-0.01,0.02-0.02,0.03-0.031C87.131,21.077,87.15,21.111,87.169,21.145z"/>
			<path d="M107.477,15.333c-0.053,0.022-0.086,0.025-0.146-0.009C107.399,15.328,107.428,15.33,107.477,15.333z"/>
			<path d="M87.208,21.21c-0.047-0.014-0.062-0.039-0.076-0.067c0.012,0.001,0.025,0.002,0.037,0.002
				C87.18,21.163,87.191,21.181,87.208,21.21z"/>
			<path d="M87.649,0.038c-0.007,0.016-0.015,0.033-0.022,0.049c-0.022-0.026-0.035-0.06-0.012-0.084
				C87.627-0.01,87.644,0.019,87.649,0.038z"/>
			<path d="M87.906,5.384c-0.101,0.067-0.202,0.134-0.303,0.2C87.699,5.518,87.8,5.451,87.906,5.384z"/>
		</g>
		<g>
			<g>
				<path d="M131.637,10.042h17.968v16.469l-8.359,10.358l-9.296-5.679l2.621-4.679h-2.934V10.042z M152.101,10.042h17.968v16.469
					l-8.362,10.358l-9.294-5.679l2.619-4.679h-2.931V10.042z"/>
			</g>
		</g>
	</g>
	<g>
		<path d="M249.775,36.179h-10.136l7.806-30.123h10.137L249.775,36.179z"/>
		<path d="M262.814,36.179h-10.136l7.806-30.123h10.137L262.814,36.179z"/>
	</g>
</g>
</svg>