<!-- Generator: Adobe Illustrator 25.2.1, SVG Export Plug-In  -->
<svg version="1.1" xmlns="http://www.w3.org/2000/svg" xmlns:xlink="http://www.w3.org/1999/xlink" x="0px" y="0px"
	 width="319.478px" height="828.11px" viewBox="0 0 319.478 828.11"
	 style="overflow:visible;disable-background:new 0 0 319.478 828.11;" xml:space="preserve">
<style type="text/css">
	.st0{fill:#00ADEE;}
</style>
<defs>
</defs>
<g>
	<path class="st0" d="M116.878,207.976c-38.274-26.253-67.325-45.81-87.144-58.676c-11.812-7.799-17.713-15.287-17.713-22.458
		c0-5.269,3.371-10.438,10.122-15.499l11.071-7.592C95.211,62.21,142.342,27.628,174.606,0c20.664,5.061,38.956,9.282,54.881,12.652
		c15.92,3.376,32.738,6.223,50.453,8.54c-43.864,29.313-95.952,62.527-156.26,99.639c-1.69,1.058-2.531,2.11-2.531,3.164
		c0,1.265,1.053,2.53,3.164,3.795c51.03,29.101,102.273,59.996,153.729,92.68c-13.285,4.854-25.572,10.231-36.851,16.133
		c-11.283,5.906-24.831,13.497-40.646,22.774l-6.327,3.796C180.932,252.626,155.152,234.23,116.878,207.976z"/>
	<path class="st0" d="M269.184,397.127c17.289,12.761,25.938,30.84,25.938,54.248c0,31.844-14.551,54.935-43.652,69.273
		c-29.101,14.342-69.273,21.509-120.516,21.509c-21.723,0-43.444-1.053-65.161-3.164c0-9.697-1.374-20.98-4.112-33.846
		c-2.743-12.86-6.643-24.672-11.704-35.427l-26.57,15.816L0.949,411.52l26.886-9.806c24.461-8.645,44.917-16.023,61.366-22.142
		c16.448-6.114,33.529-12.861,51.242-20.244l-108.179,5.377v-60.415h225.532l11.704,48.08c-7.804,3.163-20.877,7.7-39.224,13.601
		c-11.18,3.376-23.303,7.384-36.376,12.021h1.581C227.322,377.99,251.89,384.371,269.184,397.127z M199.279,464.344
		c10.33-3.164,15.499-8.116,15.499-14.867c0-4.216-4.428-7.592-13.285-10.122c-8.857-2.531-20.037-3.796-33.529-3.796
		c-38.383,0-74.863,9.702-109.445,29.101c39.011,2.955,69.48,4.429,91.415,4.429C172.495,469.089,188.944,467.507,199.279,464.344z"
		/>
	<path class="st0" d="M300.183,684.82l-45.233,3.796c10.542,12.865,23.511,26.57,38.907,41.121l-29.418,28.152
		c6.327-0.419,11.279-0.84,14.867-1.265c-4.641,9.701-8.121,20.931-10.438,33.687c-2.323,12.761-3.588,24.623-3.796,35.585
		c-36.905,1.473-76.34,2.214-118.302,2.214c-40.28,0-72.545-5.797-96.792-17.397c-24.253-11.594-36.376-29.837-36.376-54.722
		c0-18.766,7.799-32.423,23.408-40.963c15.603-8.54,38.694-12.811,69.272-12.811c32.472,0,64.736,6.752,96.792,20.245
		c-8.857-9.49-16.765-18.979-23.724-28.468c-55.884,3.375-115.667,5.061-179.35,5.061v-42.703c57.778,0,108.6-1.156,152.463-3.479
		c-1.69-2.951-2.847-5.165-3.479-6.643c-41.966,2.531-86.882,3.795-134.749,3.795v-49.028c43.652,0,81.609-1.053,113.873-3.164
		c-0.845-2.105-1.897-5.268-3.163-9.489l76.864-7.908l2.531,10.438l33.846-4.744l2.53,5.377
		c6.959-9.277,13.285-19.082,18.979-29.417l25.938,11.704c-9.282,16.449-19.72,31.631-31.315,45.549l7.592,15.816l-39.224,4.745
		l4.429,7.908c31.839-2.53,55.459-4.636,70.855-6.326L300.183,684.82z M217.309,761.052
		c-53.141-14.551-88.045-21.825-104.701-21.825c-4.854,0-8.54,0.899-11.071,2.688c-2.53,1.794-3.795,3.747-3.795,5.852
		c0,5.273,6.326,8.966,18.979,11.071c12.652,2.11,31.103,3.163,55.355,3.163C190.842,762.001,205.921,761.685,217.309,761.052z
		 M261.592,623.455c12.021-13.918,22.666-29.205,31.948-45.866l25.938,11.388c-8.438,15.815-19.088,31.315-31.948,46.497
		L261.592,623.455z"/>
</g>
</svg>