<!-- Generator: Adobe Illustrator 25.2.1, SVG Export Plug-In  -->
<svg version="1.1" xmlns="http://www.w3.org/2000/svg" xmlns:xlink="http://www.w3.org/1999/xlink" x="0px" y="0px"
	 width="398.542px" height="241.999px" viewBox="0 0 398.542 241.999"
	 style="overflow:visible;disable-background:new 0 0 398.542 241.999;" xml:space="preserve">
<style type="text/css">
	.st0{fill:#00ADEE;}
	.st1{fill:#FFFFFF;}
	.st2{fill:#00ADEE;stroke:#FFFFFF;stroke-width:2;stroke-miterlimit:10;}
</style>
<defs>
</defs>
<g>
	<g>
		<g>
			<path class="st0" d="M167.696,158.604c-2.849-0.481-5.573-1.396-8.1-2.717l-7.704-4.032l8.418,2.178
				c0.397,0.103,0.795,0.211,1.186,0.32c2.66,0.734,4.813,1.481,6.773,2.352l7.254,3.223L167.696,158.604z"/>
			<path class="st1" d="M160.061,155.001c0.391,0.101,0.782,0.208,1.167,0.315c2.264,0.624,4.491,1.35,6.635,2.302
				C165.1,157.151,162.483,156.268,160.061,155.001 M143.77,148.731l15.363,8.042c2.619,1.371,5.444,2.319,8.397,2.818l15.656,2.645
				l-14.511-6.445c-2.007-0.892-4.205-1.655-6.916-2.402c-0.392-0.109-0.795-0.22-1.199-0.324L143.77,148.731L143.77,148.731z"/>
		</g>
		<g>
			<path class="st2" d="M397,50.679c-1.829-8.03-7.973-13.858-16.034-15.208c-1.085-0.177-2.189-0.271-3.28-0.271
				c-6.995,0-13.322,3.677-16.917,9.834c-1.558,2.662-2.214,5.216-2.649,6.901l-0.044,0.177c-0.984,3.797-2.132,7.43-3.406,10.792
				c-1.362,3.589-2.674,6.831-4.087,9.789c0-0.019-0.006-0.038-0.006-0.057c-0.05-0.442-0.101-0.877-0.151-1.318
				c1.671-5.702,1.274-11.656-1.186-17.718c-2.971-7.304-9.789-11.846-17.787-11.846h-0.328
				c-7.128,0.107-13.196,4.018-16.652,10.729c-0.252,0.486-0.486,0.984-0.7,1.495c-0.341-2.264-0.732-4.573-1.198-6.882
				c-0.423-2.132-0.833-4.302-1.173-6.137v-0.013l-0.006-0.019l-0.259-1.369c-0.265-1.407-0.53-2.813-0.801-4.22l-0.378-1.905
				c-0.763-3.999-1.634-8.522-3.16-13.145c-0.99-3.009-2.517-6.951-5.551-10.723l-0.006-0.013l-0.013-0.013
				c-3.86-4.775-9.184-7.727-14.993-8.313c-0.713-0.076-1.407-0.107-2.094-0.107c-5.109,0-10.181,1.88-14.287,5.298
				c-2.403,1.993-4.434,4.39-6.219,7.323c-2.258,3.715-4.037,7.771-5.595,12.767c-1.867,5.999-3.33,12.369-4.415,19.295
				c-0.189-0.082-0.378-0.164-0.574-0.24c-2.46-0.971-5.103-1.476-7.821-1.476c-3.179,0-6.32,0.681-9.329,2.012
				c-2.832,1.255-5.456,3.002-7.979,5.349c-2.454,2.277-4.699,4.838-6.913,7.916c-1.987-2.958-4.567-5.469-7.639-7.399
				c-4.232-2.668-9.108-4.081-14.098-4.081c-1.653,0-3.286,0.158-4.863,0.473c-6.901,1.375-13.145,4.605-19.081,9.865
				c-6.541,5.79-11.518,13.334-15.201,23.048c-0.681,0.631-1.299,1.28-1.861,1.924c-4.876-4.258-11.045-6.673-18.368-7.172
				c-1.129-0.076-2.283-0.113-3.425-0.113c-10.389,0-19.465,3.204-26.271,6.068c0.53-4.024,0.997-8.112,1.325-12.243
				c0.24-3.021,0.524-6.144,0.801-9.165c0.259-2.794,0.524-5.689,0.757-8.566c0.082-0.946,0.164-1.905,0.246-2.857
				c0.524-6.062,1.06-12.331,0.782-18.929c-0.164-3.955-0.643-9.171-2.895-14.47C107.348,6.652,99.11,1,89.712,1
				C86.262,1,82.83,1.751,79.5,3.227c-3.312,1.463-6.39,3.538-9.398,6.333c-4.169,3.867-7.903,8.408-11.745,14.287
				C51.26,34.708,45.01,47.065,39.251,61.61C21.085,107.485,8.955,150.516,2.162,193.162c-1.438,9.007-1.539,16.513-0.315,23.622
				c2.454,14.262,12.95,23.767,26.744,24.196c0.334,0.013,0.669,0.019,0.997,0.019c6.194,0,12.294-1.747,18.639-5.33
				c9.468-5.349,17.163-12.224,23.597-18.828c0.057,0.069,0.12,0.145,0.177,0.221c3.753,4.668,9.367,7.348,15.403,7.348
				c0.397,0,0.801-0.013,1.205-0.038c8.831-0.53,15.832-6.686,18.286-16.059c1.287-4.895,2.574-9.802,3.854-14.709
				c1.81-6.907,3.665-13.978,5.519-21.03c9.657,2.592,19.409,4.649,28.845,6.636c5.727,1.211,11.65,2.46,17.384,3.797
				c1.552,0.359,3.116,0.542,4.668,0.542c5.015,0,9.676-1.892,13.145-5.09c-0.013,0.069-0.019,0.132-0.032,0.202
				c-1.079,6.755-1.142,12.439-0.202,17.888c2.126,12.357,11.675,20.916,23.754,21.288l0.196,0.006h0.177
				c0.164,0.006,0.328,0.006,0.486,0.006c5.153,0,10.376-1.47,15.517-4.365c2.656-1.501,5.103-3.147,7.38-4.876
				c2.719,4.195,6.888,7.096,11.77,8.187h0.025l0.019,0.006c1.344,0.297,2.712,0.442,4.075,0.442c4.245,0,8.414-1.451,11.745-4.094
				c3.394-2.687,5.778-6.491,6.718-10.71l5.469-24.619c3.646,2.17,7.821,3.337,12.262,3.337c2.063,0,4.138-0.259,6.175-0.763
				c5.298-1.337,10.193-4.245,14.571-8.66c2.145-2.163,4.056-4.415,5.771-6.699c2,1.747,4.365,3.084,6.964,3.867
				c-1.18,3.053-2.334,6.125-3.444,9.203c-1.016,2.819-2.403,6.68-2.315,11.505c0.208,10.868,8.755,19.377,19.459,19.377
				c1.463,0,2.952-0.158,4.409-0.479c7.355-1.602,12.754-6.755,14.817-14.129c0.82-2.92,1.88-5.992,3.248-9.392
				c1.867-4.63,3.734-9.266,5.607-13.896c10.862-26.934,22.102-54.782,32.44-82.542c0.77-2.069,1.558-4.106,2.397-6.27
				c2.258-5.828,4.598-11.858,6.409-18.279C396.924,61.358,398.312,56.438,397,50.679z"/>
		</g>
	</g>
	<g>
		<path class="st1" d="M169.573,158.428c-2.655-1.362-5.475-2.315-8.345-3.11c-8.049-2.239-16.286-3.608-24.417-5.475
			c-5.078-1.167-10.199-2.182-15.094-3.841c0.006-1.243,0.915-1.47,1.501-1.93c7.298-5.753,14.186-11.959,20.393-18.879
			c4.295-4.787,8.25-9.846,10.244-16.103c1.873-5.872,1.35-11.322-3.293-15.838c-3.192-3.103-7.184-4.346-11.524-4.642
			c-8.578-0.587-16.526,1.854-24.278,5.134c-3.16,1.331-6.257,2.864-9.02,4.933c-3.759,2.819-4.466,6.383-2.132,10.49
			c0.41,0.725,1.419,1.104,1.116,1.924c0,0-1.211,6.421-2.075,9.411c-2.334,8.086-4.605,16.185-6.831,24.303
			c-7.475,9.638-14.911,19.301-22.405,28.92c-8.25,10.584-16.885,20.828-26.82,29.892c-3.722,3.4-7.639,6.579-12.193,8.85
			c-5.097,2.536-6.15,1.911-6.333-3.696c-0.208-6.219,0.688-12.338,1.716-18.431c2.195-12.975,5.204-25.779,8.496-38.521
			c7.569-29.286,16.526-58.112,28.403-85.967c4.453-10.439,9.487-20.601,16.072-29.904c1.11-1.564,2.126-3.223,4.195-4.794
			c0,3.69,0.196,6.762-0.038,9.802c-0.732,9.581-1.621,19.156-2.454,28.725c-0.637,7.298-1.287,14.59-1.918,21.887
			c-0.303,3.532-0.77,7.065-0.801,10.603c-0.044,4.182,3.154,6.863,7.184,6.352c2.845-0.366,4.592-2.075,5.172-4.787
			c0.669-3.129,1.148-6.295,1.602-9.461c1.23-8.49,2.574-16.961,3.248-25.527c0.473-5.929,1.079-11.846,1.564-17.775
			c0.555-6.73,1.28-13.46,0.997-20.229c-0.145-3.431-0.542-6.856-1.905-10.067c-2.681-6.308-8.749-8.686-14.987-5.917
			c-2.227,0.984-4.157,2.397-5.929,4.043c-3.81,3.532-6.938,7.613-9.764,11.94c-7.298,11.171-13.05,23.155-17.945,35.512
			c-16.513,41.712-29.286,84.51-36.357,128.89c-1.028,6.434-1.47,12.95-0.341,19.491c1.413,8.225,6.825,13.492,14.703,13.738
			c4.687,0.145,9.001-1.407,13.044-3.69c9.606-5.425,17.459-12.95,24.846-20.973c6.781-7.367,13.164-15.063,19.295-22.953
			c-0.757,2.864-1.514,5.721-2.264,8.585c-1.192,4.535-2.422,9.064-3.438,13.637c-1.072,4.857,2.58,9.083,7.399,8.799
			c3.362-0.202,5.74-2.504,6.825-6.655c3.86-14.709,7.702-29.425,11.581-44.128c0.429-1.634,0.618-3.375,1.804-5.021
			c3.45,1.861,7.065,3.217,10.818,4.239c15.34,4.163,31.002,6.901,46.468,10.508c3.677,0.852,7.014-0.959,8.067-4.087
			C174.518,163.379,173.073,160.232,169.573,158.428z M114.74,132.422c-0.511-1.854,0.29-3.103,0.624-4.384
			c1.728-6.522,3.646-13,5.343-19.528c0.523-2.031,1.514-3.065,3.564-3.57c4.34-1.085,8.66-2.157,13.183-1.962
			c3.072,0.139,3.431,0.688,2.063,3.526c-1.558,3.229-3.848,5.948-6.163,8.648C127.886,121.516,121.609,126.997,114.74,132.422z"/>
		<path class="st1" d="M349.901,110.863c-1.096-0.046-1.778-0.138-2.451-0.092c-6.432,0.44-11.224-2.446-15.028-7.363
			c-1.692-2.187-2.981-4.593-4.053-7.137c-3.306-7.841-4.216-16.105-4.322-24.499c-0.035-2.739,0.137-5.484,0.294-8.221
			c0.105-1.839,0.5-3.65,1.346-5.293c1.168-2.268,2.956-3.849,5.624-3.889c2.889-0.043,5.129,1.252,6.239,3.983
			c1.32,3.247,1.753,6.616,0.575,10.022c-0.346,0.999-0.524,1.968-0.396,3.021c0.734,6.014,1.176,12.074,3.297,17.842
			c0.718,1.952,1.54,3.834,2.793,5.474c1.459,1.909,2.603,2.103,4.716,0.883c3.454-1.996,5.942-5.003,8.156-8.219
			c4.248-6.173,7.132-13.03,9.776-20c1.504-3.966,2.76-8.006,3.821-12.109c0.344-1.331,0.671-2.668,1.373-3.87
			c1.549-2.651,4.292-3.969,7.227-3.479c2.995,0.5,5.132,2.573,5.813,5.564c0.557,2.447-0.009,4.772-0.665,7.095
			c-2.274,8.058-5.577,15.743-8.492,23.57c-12.022,32.289-25.06,64.176-37.926,96.132c-1.41,3.503-2.675,7.062-3.695,10.706
			c-0.768,2.746-2.48,4.572-5.36,5.201c-4.599,1.004-8.471-2.083-8.561-6.81c-0.047-2.47,0.757-4.731,1.571-6.989
			c5.086-14.111,10.986-27.898,16.62-41.791c3.483-8.591,6.892-17.213,10.32-25.826
			C348.975,113.607,349.353,112.413,349.901,110.863z"/>
		<path class="st1" d="M211.996,69.239c-2.611-6.945-9.745-9.581-15.126-8.509c-5.153,1.028-9.367,3.558-13.183,6.938
			c-5.721,5.065-9.342,11.518-11.959,18.589c-0.479,1.299-0.858,2.567-2.063,3.457c-1.962,1.463-3.299,3.488-4.586,5.519
			c-5.317,8.427-7.967,17.712-8.433,27.596c-0.221,4.838,0.498,9.613,2.668,14.034c3.286,6.699,9.903,9.771,17.125,8.093
			c4.491-1.041,8.225-3.393,11.53-6.491c9.487-8.913,15.649-19.938,20.033-32.024c3.091-8.522,5.507-17.226,5.626-27.918
			C213.743,76.341,213.302,72.727,211.996,69.239z M199.103,80.794c-0.101,7.784-2.447,15.082-5.109,22.266
			c-2.876,7.771-6.894,14.936-12.249,21.32c-1.779,2.119-3.753,4.018-6.062,5.532c-2.668,1.76-3.431,1.394-4.188-1.665
			c-0.757-3.072-0.473-6.112-0.051-9.19c0.568-4.094,1.432-8.086,2.826-11.984c0.511-1.438,1.211-2.069,2.744-1.362
			c1.905,0.87,3.822,0.524,5.677-0.177c4.056-1.539,5.74-5.923,3.248-9.499c-1.419-2.037-1.299-3.703-0.467-5.683
			c1.476-3.488,3.154-6.863,5.589-9.802c1.621-1.962,3.507-3.621,5.797-4.743c1.59-0.782,2.075-0.511,2.227,1.211
			C199.192,78.265,199.103,79.533,199.103,80.794z"/>
		<g>
			<path class="st1" d="M260.957,148.5c-0.025,0.24-0.063,0.486-0.12,0.732l-11.215,50.461c-0.656,2.939-3.261,4.939-6.15,4.939
				c-0.454,0-0.915-0.05-1.375-0.151c-3.4-0.757-5.544-4.125-4.788-7.525l4.838-21.787c-3.375,4.239-7.046,8.597-10.937,12.83
				c-4.535,4.926-10.124,10.502-17.201,14.495c-3.267,1.842-6.32,2.744-9.323,2.744c-0.151,0-0.309-0.006-0.467-0.006
				c-6.106-0.189-10.597-4.34-11.713-10.83c-0.7-4.05-0.624-8.421,0.227-13.757c4.504-28.271,12.558-56.819,24.612-87.272
				c3.715-9.379,7.727-17.321,12.268-24.272c2.29-3.501,4.472-6.169,6.882-8.402c1.482-1.375,2.958-2.378,4.516-3.065
				c2.504-1.11,5.141-1.23,7.418-0.328c2.277,0.896,4.119,2.782,5.191,5.305c1.098,2.573,1.337,5.21,1.432,7.449
				c0.17,4.018-0.177,8.03-0.505,11.902c-0.057,0.656-0.114,1.306-0.17,1.962c-0.151,1.848-0.322,3.696-0.492,5.544
				c-0.196,2.145-0.391,4.289-0.561,6.434c-0.391,4.989-1.129,9.985-1.836,14.823l-0.366,2.498
				c-0.315,2.189-0.643,4.333-1.104,6.503c-0.568,2.656-2.428,4.371-5.097,4.705c-1.899,0.24-3.665-0.271-4.983-1.444
				c-1.306-1.161-2.012-2.838-1.993-4.731c0.019-1.823,0.196-3.633,0.366-5.38c0.063-0.637,0.126-1.274,0.183-1.911
				c0.252-2.946,0.511-5.891,0.77-8.837l0.524-5.91c0.145-1.697,0.296-3.387,0.448-5.084c0.416-4.674,0.845-9.506,1.205-14.255
				c0.032-0.442,0.05-0.883,0.063-1.331c-3.564,5.179-6.699,11.082-10.067,18.992c-7.191,16.848-13.246,35.178-19.055,57.677
				c-2.662,10.288-4.415,18.242-5.696,25.804c-0.643,3.822-1.268,7.903-1.129,12.041c0.025,0.719,0.069,1.192,0.114,1.489
				c0.296-0.101,0.744-0.29,1.419-0.631c3.059-1.52,5.652-3.715,7.79-5.664c7.178-6.554,13.309-14.085,17.857-19.913
				c3.078-3.955,6.144-7.922,9.215-11.884c2.17-2.813,4.346-5.626,6.522-8.427l0.139-0.189c0.612-0.839,1.325-1.772,1.936-2.359
				c2.296-2.233,5.582-2.447,8.181-0.536C260.831,143.491,261.658,146.103,260.957,148.5z"/>
		</g>
		<g>
			<path class="st1" d="M319.013,157.103c-0.12,0.006-0.246,0.006-0.366,0.006c-3.318,0-6.099-2.586-6.289-5.942l-1.287-22.297
				c-2.088,5.002-4.428,10.206-7.027,15.34c-3.015,5.98-6.875,12.874-12.596,18.645c-2.769,2.794-5.607,4.529-8.667,5.298
				c-1.06,0.265-2.1,0.391-3.116,0.391c-4.674,0-8.774-2.738-11.108-7.62c-1.772-3.696-2.895-7.922-3.539-13.29
				c-3.375-28.435-3.412-58.093-0.12-90.678c1.016-10.042,2.712-18.771,5.185-26.7c1.243-3.993,2.618-7.153,4.327-9.96
				c1.047-1.722,2.195-3.091,3.507-4.182c2.107-1.753,4.611-2.58,7.046-2.34c2.435,0.246,4.724,1.558,6.446,3.69
				c1.754,2.182,2.706,4.649,3.406,6.774c1.262,3.822,2.025,7.777,2.756,11.593c0.126,0.643,0.252,1.287,0.378,1.93
				c0.36,1.836,0.7,3.671,1.047,5.507c0.391,2.1,0.788,4.207,1.205,6.308c0.984,4.901,1.64,9.897,2.271,14.735l0.334,2.529
				c0.29,2.195,0.568,4.346,0.713,6.56c0.177,2.706-1.142,4.863-3.621,5.917c-1.76,0.751-3.595,0.738-5.185-0.032
				c-1.571-0.763-2.712-2.182-3.211-4.005c-0.479-1.76-0.801-3.551-1.11-5.279c-0.114-0.631-0.227-1.262-0.353-1.886
				c-0.561-2.927-1.116-5.86-1.678-8.787l-1.098-5.759c-0.322-1.672-0.643-3.349-0.959-5.021c-0.877-4.605-1.779-9.367-2.725-14.034
				c-0.088-0.435-0.189-0.864-0.303-1.299c-2.018,5.954-3.419,12.495-4.51,21.023c-2.315,18.166-3.141,37.455-2.599,60.686
				c0.246,10.616,0.732,18.753,1.558,26.378c0.423,3.854,0.94,7.954,2.201,11.89c0.221,0.688,0.391,1.129,0.517,1.407
				c0.252-0.183,0.631-0.486,1.192-0.997c2.523-2.296,4.422-5.116,5.948-7.575c5.115-8.257,8.963-17.182,11.745-24.026
				c1.899-4.674,3.778-9.36,5.658-14.041c1.312-3.267,2.624-6.535,3.942-9.796l0.082-0.221c0.366-0.971,0.795-2.063,1.217-2.794
				c1.608-2.775,4.712-3.879,7.727-2.75c2.454,0.921,3.961,3.217,3.936,5.727c0.038,0.233,0.069,0.467,0.082,0.706l2.971,51.609
				C325.15,153.918,322.495,156.901,319.013,157.103z"/>
		</g>
	</g>
</g>
</svg>