<svg id="Layer_1" data-name="Layer 1" xmlns="http://www.w3.org/2000/svg" viewBox="0 0 488.12 225.8"><defs><style>.cls-1{fill:#02ae6c;}.cls-2{fill:#fff;}</style></defs><rect class="cls-1" x="32.62" y="36.85" width="152.31" height="152.31" rx="20.92"/><path class="cls-2" d="M111.39,77.6h50.7v46.47l-31,29.23H111.39l8.27-29.23h-8.27Zm-54.19,0h50.7v46.47L76.78,153.3H57.2l8.28-29.23H57.2Z"/><path class="cls-1" d="M243.44,52.21V111H231.76V93.06a20.68,20.68,0,0,1-11.88,3.64c-13,0-22.63-9.75-22.63-22.89S206.81,51,219.88,51a20.6,20.6,0,0,1,13.84,5.17l2-3.95ZM232.6,73.81a11.77,11.77,0,1,0-11.77,11.84A11.49,11.49,0,0,0,232.6,73.81Z"/><path class="cls-1" d="M249.24,77.17v-25h11.68V75.84c0,6.15,3.25,9.81,8.65,9.81s8.58-3.74,8.58-9.81V52.21h11.68v25c0,11.67-8,19.46-20.26,19.46S249.24,88.84,249.24,77.17Z"/><path class="cls-1" d="M292.83,73.81c0-13.1,10-22.82,23.35-22.82s23.35,9.73,23.35,22.82-10,22.82-23.35,22.82S292.83,86.84,292.83,73.81Zm34.86,0c0-7-4.78-11.84-11.51-11.84s-11.52,4.85-11.52,11.84,4.78,11.84,11.52,11.84S327.69,80.81,327.69,73.81Z"/><path class="cls-1" d="M368.88,85v10.4h-8.31c-9.5,0-15.35-5.84-15.35-15.41V61.6h-7.8V52.2h7.71V40.93h11.59v11.3h11.91V61.6H356.91V78.43c0,4.17,2.41,6.58,6.64,6.58Z"/><path class="cls-1" d="M228.71,160.09V170.5H220.4c-9.51,0-15.35-5.85-15.35-15.41v-18.4h-7.8v-9.4H205V116h11.59v11.3h11.91v9.37H216.74v16.82c0,4.18,2.4,6.58,6.64,6.58Z"/><path class="cls-1" d="M413.35,77.08H380.66c1,5.9,4.89,9.15,10.55,9.15a10.26,10.26,0,0,0,9.17-5h12.27a22.11,22.11,0,0,1-21.44,15.42c-12.75,0-22.4-9.87-22.4-22.82S378.39,51,391.21,51c13.27,0,22.36,10.23,22.36,22.67A28,28,0,0,1,413.35,77.08Zm-32.39-8H401.9c-1.65-5.28-5.45-8.15-10.69-8.15S382.32,64,381,69.11Z"/><path class="cls-1" d="M460.48,36.64V95.41h-8.63l-1.38-3.6A20.59,20.59,0,0,1,437,96.7c-13.11,0-22.71-9.81-22.71-22.89S423.84,51,437,51a20.84,20.84,0,0,1,11.85,3.58V36.64ZM449.67,73.81A11.77,11.77,0,1,0,437.9,85.65,11.49,11.49,0,0,0,449.67,73.81Z"/><path class="cls-1" d="M273.25,151.23H240.56c1,5.9,4.89,9.15,10.55,9.15a10.26,10.26,0,0,0,9.17-5h12.27a22.11,22.11,0,0,1-21.44,15.42c-12.75,0-22.4-9.87-22.4-22.82s9.58-22.82,22.4-22.82c13.27,0,22.37,10.23,22.37,22.67A26.2,26.2,0,0,1,273.25,151.23Zm-32.38-8H261.8c-1.65-5.28-5.44-8.15-10.69-8.15S242.22,138.14,240.87,143.26Z"/><path class="cls-1" d="M275.73,147.31c0-12.95,9.88-22.69,23-22.69,11.19,0,19.87,7.09,22,17.72H309.1a11.11,11.11,0,0,0-10.44-6.74c-6.33,0-11.09,5.08-11.09,11.78s4.84,11.9,11.09,11.9c4.72,0,8.46-2.63,10.43-7.24h11.75c-2,10.85-10.87,18.22-22.17,18.22A22.57,22.57,0,0,1,275.73,147.31Z"/><path class="cls-1" d="M346.9,125.34c9.78,0,15.85,7,15.85,18v26.25H351.07V145.27c0-6.46-2.28-9.68-7.53-9.68-5.83,0-9.7,4.25-9.7,11.27v22.7H322.17V110.79h11.67v19.58a18.85,18.85,0,0,1,13.05-5Z"/></svg>