<?xml version="1.0" standalone="no"?>
<!DOCTYPE svg PUBLIC "-//W3C//DTD SVG 1.1//EN" "http://www.w3.org/Graphics/SVG/1.1/DTD/svg11.dtd" >
<svg xmlns="http://www.w3.org/2000/svg" xmlns:xlink="http://www.w3.org/1999/xlink" version="1.1">
<metadata></metadata>
<defs>
<font id="urw_dockbold" horiz-adv-x="1280" >
<font-face units-per-em="2048" ascent="1638" descent="-410" />
<missing-glyph horiz-adv-x="481" />
<glyph unicode="&#xfb01;" horiz-adv-x="1103" d="M20 805v196h136v119q0 174 82 256q80 80 245 80q79 0 164 -16l-29 -195q-80 10 -131 10q-55 0 -74.5 -25t-19.5 -97v-132h232v-196h-232v-805h-237v805h-136zM739 1130v236h242v-236h-242zM741 0v1001h238v-1001h-238z" />
<glyph unicode="&#xfb02;" horiz-adv-x="1110" d="M20 805v196h136v119q0 174 82 256q80 80 245 80q79 0 164 -16l-29 -195q-80 10 -131 10q-55 0 -74.5 -25t-19.5 -97v-132h232v-196h-232v-805h-237v805h-136zM745 0v1434h238v-1434h-238z" />
<glyph unicode="&#xfb03;" horiz-adv-x="1689" d="M20 805v196h136v103q0 174 82 256q80 80 245 80q64 0 164 -19l-29 -192q-80 8 -131 8q-56 0 -75 -24.5t-19 -96.5v-115h348v119q0 174 82 256q80 80 246 80q79 0 164 -16l-29 -195q-80 10 -131 10q-55 0 -74.5 -25t-19.5 -97v-132h231v-196h-231v-805h-238v805h-348v-805 h-237v805h-136zM1325 1130v236h240v-236h-240zM1327 0v1001h238v-1001h-238z" />
<glyph unicode="&#xfb04;" horiz-adv-x="1695" d="M20 805v196h136v103q0 174 82 256q80 80 245 80q64 0 164 -19l-29 -192q-80 8 -131 8q-56 0 -75 -24.5t-19 -96.5v-115h348v119q0 174 82 256q80 80 246 80q79 0 164 -16l-29 -195q-80 10 -131 10q-55 0 -74.5 -25t-19.5 -97v-132h231v-196h-231v-805h-238v805h-348v-805 h-237v805h-136zM1331 0v1434h238v-1434h-238z" />
<glyph horiz-adv-x="0" />
<glyph horiz-adv-x="682" />
<glyph unicode=" "  horiz-adv-x="481" />
<glyph unicode="&#x09;" horiz-adv-x="481" />
<glyph unicode="&#xa0;" horiz-adv-x="481" />
<glyph unicode="!" horiz-adv-x="555" d="M147 1366h261l-25 -997h-211zM152 0v264h251v-264h-251z" />
<glyph unicode="&#x22;" horiz-adv-x="755" d="M98 1434h224l-21 -418h-182zM432 1434h223l-20 -418h-182z" />
<glyph unicode="#" d="M51 342l45 182h164l78 318h-164l45 182h164l86 342h215l-86 -342h258l84 342h215l-84 -342h164l-45 -182h-164l-78 -318h164l-45 -182h-164l-86 -342h-215l86 342h-258l-84 -342h-215l84 342h-164zM475 524h258l78 318h-258z" />
<glyph unicode="$" d="M129 436h258q3 -91 8 -123t17 -55q20 -32 75.5 -46.5t161.5 -14.5q83 0 128.5 7t70.5 29q22 19 27.5 47t5.5 93q0 74 -29 111t-107 63l-292 96q-147 50 -214 138.5t-67 232.5q4 179 88 266q85 85 250 100v140h246v-138q128 -11 198 -51q96 -56 129 -138t41 -239h-252 q-7 118 -16 144q-6 18 -16 30q-22 27 -66.5 37.5t-148.5 10.5q-82 0 -124 -9t-61 -34q-22 -34 -22 -113q0 -72 26.5 -106.5t98.5 -57.5l291 -98q166 -56 235.5 -142.5t69.5 -238.5q0 -235 -150 -330q-83 -52 -233 -63v-138h-246v140q-104 10 -176.5 38.5t-126.5 96.5 q-38 55 -54.5 117t-23.5 198z" />
<glyph unicode="%" horiz-adv-x="1929" d="M186 1008q0 116 7.5 171t29.5 93q32 58 90 79t185 21t186.5 -21t91.5 -79q22 -38 29.5 -93t7.5 -171t-7.5 -171.5t-29.5 -93.5q-32 -58 -91 -80t-185 -22t-185.5 22t-91.5 80q-22 38 -29.5 93.5t-7.5 171.5zM371 1006q0 -113 3.5 -153.5t14.5 -51.5q9 -9 28.5 -11 t82.5 -2q60 0 80.5 3t29.5 12q11 11 15 52.5t4 152.5t-4 152t-15 52q-9 9 -28 11t-82 2q-60 0 -81 -3t-30 -12q-11 -11 -14.5 -51.5t-3.5 -152.5zM455 0l819 1366h203l-820 -1366h-202zM1118 358q0 116 7.5 171.5t29.5 93.5q32 58 90 79t185 21t186.5 -21t91.5 -79 q22 -38 29.5 -93.5t7.5 -171.5t-7.5 -171t-29.5 -93q-32 -58 -91 -80t-185 -22t-185.5 22t-91.5 80q-22 38 -29.5 93t-7.5 171zM1303 356q0 -112 3.5 -152.5t14.5 -51.5q9 -9 28.5 -11t82.5 -2q60 0 80.5 3t29.5 12q11 11 15 52t4 152t-4 152.5t-15 52.5q-9 9 -26.5 10.5 t-83.5 1.5q-62 0 -82 -2.5t-29 -11.5q-11 -11 -14.5 -51.5t-3.5 -153.5z" />
<glyph unicode="&#x26;" horiz-adv-x="1306" d="M102 397q0 118 31.5 187.5t108.5 122.5v4q-69 49 -96 111t-27 169q0 221 125 326q46 38 124 55t210 17q200 0 301 -52q51 -27 83 -65.5t47 -92.5t19.5 -101t5.5 -120h-250q-3 61 -5 90t-11.5 59.5t-19 39.5t-37.5 18.5t-55 10t-83 0.5q-75 0 -131 -9q-43 -7 -58 -49.5 t-15 -152.5q0 -61 5.5 -89.5t24.5 -41.5q29 -23 129 -23h766v-211h-168v-197q0 -224 -110 -331q-58 -55 -141.5 -75t-258.5 -20q-177 0 -259.5 19.5t-141.5 75.5q-113 107 -113 325zM360 416q0 -84 9 -126.5t32 -62.5q40 -34 215 -34q178 0 218 34t40 187v186h-342 q-43 0 -68 -1.5t-46.5 -9t-31 -18t-16.5 -33.5t-8.5 -49.5t-1.5 -72.5z" />
<glyph unicode="'" horiz-adv-x="423" d="M100 1434h224l-21 -418h-182z" />
<glyph unicode="(" horiz-adv-x="729" d="M119 10v1118q0 232 82.5 329t279.5 97q46 0 99 -2l2 -217q-55 2 -90 2q-72 0 -97 -32q-17 -18 -21.5 -47.5t-4.5 -114.5v-1145q0 -86 4.5 -116t21.5 -48q26 -33 97 -33q35 0 90 2l-2 -217q-53 -2 -99 -2q-197 0 -279.5 97t-82.5 329z" />
<glyph unicode=")" horiz-adv-x="729" d="M147 -197q55 -2 91 -2q70 0 96 33q17 18 21.5 48t4.5 116v1145q0 85 -4.5 114.5t-21.5 47.5q-25 32 -96 32q-36 0 -91 -2l3 217q53 2 98 2q197 0 279.5 -97t82.5 -329v-1118q0 -232 -82.5 -329t-279.5 -97q-45 0 -98 2z" />
<glyph unicode="*" horiz-adv-x="970" d="M119 1118l55 162l227 -80v234h166v-234l224 80l59 -162l-232 -86l138 -194l-133 -99l-140 201l-147 -201l-133 101l143 194z" />
<glyph unicode="+" d="M125 588v211h403v407h222v-407h403v-211h-403v-410h-222v410h-403z" />
<glyph unicode="," horiz-adv-x="479" d="M39 -236l108 426h261l-179 -426h-190z" />
<glyph unicode="-" horiz-adv-x="620" d="M51 391v230h516v-230h-516z" />
<glyph unicode="." horiz-adv-x="479" d="M113 0v264h252v-264h-252z" />
<glyph unicode="/" horiz-adv-x="1220" d="M-23 -293l1010 1727h256l-1010 -1727h-256z" />
<glyph unicode="0" d="M102 682q0 285 25.5 407t91.5 189q64 66 150.5 88.5t271.5 22.5t271.5 -22.5t150.5 -88.5q66 -67 91.5 -189t25.5 -407q0 -195 -12.5 -311t-36.5 -178t-68 -105q-66 -65 -153 -88t-269 -23t-269 23t-153 88q-44 43 -68 105t-36.5 178t-12.5 311zM362 682 q0 -212 10.5 -310t35.5 -128q23 -28 64 -37.5t169 -9.5t169 9.5t64 37.5q25 30 35.5 128t10.5 310q0 213 -10.5 311.5t-35.5 128.5q-23 28 -64 37.5t-169 9.5t-169 -9.5t-64 -37.5q-25 -30 -35.5 -128.5t-10.5 -311.5z" />
<glyph unicode="1" d="M225 0v217h322v883l-322 -123v246l365 143h213v-1149h270v-217h-848z" />
<glyph unicode="2" d="M145 0v195q0 93 7.5 152t25 108t55.5 85t90 67t138 69l276 125q86 38 119 82t33 121q0 60 -9 92.5t-32 50.5q-24 17 -66 22t-125 5q-159 0 -190 -25q-27 -21 -35 -69t-12 -144h-250q3 88 7.5 139.5t28.5 120.5t68 109q55 50 138 67t245 17q133 0 209.5 -14t130.5 -48 q71 -44 109.5 -130t38.5 -198q0 -269 -301 -405l-283 -127q-90 -41 -121 -72q-21 -24 -29 -54t-8 -81v-41h748v-219h-1006z" />
<glyph unicode="3" d="M123 412h254q3 -103 13 -142.5t36 -52.5q50 -24 207 -24q63 0 100.5 2t70 11.5t47.5 22.5t26 41t13.5 60.5t2.5 87.5q0 46 -1.5 72t-8.5 49t-16.5 33t-31 17.5t-46.5 9t-68 1.5h-258v213h260q99 0 127 18q20 14 26.5 45.5t6.5 98.5q0 52 -1.5 80.5t-11 54.5t-22 36.5 t-43 18.5t-63.5 9.5t-95 1.5q-50 0 -78 -0.5t-58 -4.5t-44 -8.5t-29.5 -18t-20.5 -26t-10.5 -40t-7 -53.5t-2.5 -71h-250q1 133 21 205t70 123q54 56 154 81.5t265 25.5q141 0 223.5 -18t133.5 -60q119 -102 119 -320q0 -106 -27.5 -168.5t-97.5 -111.5v-4q79 -52 111 -122 t32 -190q0 -214 -109 -323q-55 -55 -135 -75t-248 -20q-203 0 -297 21.5t-149 81.5q-50 54 -69.5 125.5t-20.5 206.5z" />
<glyph unicode="4" d="M92 256v219l625 891h313v-897h174v-213h-174v-256h-254v256h-684zM387 469h395v602h-4l-391 -586v-16z" />
<glyph unicode="5" d="M121 401h254q2 -43 3.5 -65.5t8 -48.5t11.5 -37t22.5 -23.5t31.5 -16t48.5 -7.5t63.5 -4h85q58 0 94.5 3t66.5 13.5t45.5 26t26.5 45t14 66t3 93.5q0 174 -53 203q-52 25 -199 25q-110 0 -179 -15t-140 -53l-156 51v709h922v-219h-670v-303h4q88 49 236 49 q117 0 198 -13.5t139.5 -43t92 -81.5t48.5 -124t15 -176q0 -136 -22.5 -224.5t-75.5 -144.5q-56 -59 -154 -84t-254 -25q-183 0 -271 17t-144 63q-60 49 -86 128t-29 216z" />
<glyph unicode="6" d="M131 717q0 225 20 339t72 189q28 42 64 68q64 50 164 65q75 11 182 11q192 0 280 -21t142 -80q44 -50 64 -114.5t24 -178.5h-250q-2 47 -4.5 71.5t-13 48t-23.5 32.5t-45.5 17t-68 9t-99.5 1q-74 0 -113 -4.5t-63 -20.5q-41 -25 -55 -96.5t-19 -245.5h4q65 38 121.5 50.5 t157.5 12.5q150 0 232 -17t136 -60q61 -49 89 -136.5t28 -228.5q0 -147 -31 -236t-100 -143q-54 -41 -139.5 -56.5t-253.5 -15.5q-210 0 -309 52.5t-150 189.5q-25 65 -34 174t-9 324zM389 567q0 -135 9 -208.5t32 -112.5q17 -29 67 -41t150 -12q143 0 191 20q35 15 51 67.5 t16 155.5q0 173 -53 199q-40 22 -188 22q-114 0 -159 -8t-116 -41v-41z" />
<glyph unicode="7" d="M121 1147v219h1030v-199l-649 -1167h-289l645 1147h-737z" />
<glyph unicode="8" d="M121 395q0 118 32.5 188t112.5 126v2q-67 49 -95 113.5t-28 170.5q0 247 148 336q94 58 350 58t350 -58q148 -89 148 -338q0 -105 -27.5 -168t-95.5 -114v-2q82 -55 113.5 -125t31.5 -193q0 -260 -155 -354q-100 -60 -365 -60t-362 60q-158 98 -158 358zM379 406 q0 -86 7 -126t32 -59q23 -19 69.5 -23.5t153.5 -4.5q109 0 156 5t71 25q23 20 30 58.5t7 117.5q0 40 -0.5 63.5t-5.5 48t-10.5 36.5t-20.5 24.5t-30.5 17t-45.5 8.5t-59.5 4.5t-79.5 0.5q-44 0 -71.5 -0.5t-57.5 -2.5t-46 -4t-34 -8.5t-26.5 -12.5t-17.5 -19t-11.5 -24.5 t-5.5 -33t-3.5 -40.5t-0.5 -51zM389 983q0 -46 1 -69.5t11.5 -46t22.5 -30.5t45.5 -15t68.5 -8t103 -1q51 0 80.5 0.5t60.5 4t45.5 6.5t30 14t20 20.5t9.5 31.5t5.5 41.5t0.5 55.5q0 48 -2.5 77.5t-14 53t-25.5 34.5t-46 18t-65.5 8.5t-94.5 1.5q-68 0 -104 -1t-70 -9.5 t-46.5 -18t-22.5 -35.5t-11.5 -53t-1.5 -80z" />
<glyph unicode="9" d="M123 385h254q6 -147 51 -170q42 -20 217 -20q109 0 151.5 12.5t61.5 50.5q21 44 28 104t7 205h-4q-54 -35 -113 -49t-164 -14q-177 0 -263 24.5t-144 92.5q-80 95 -80 327q0 146 29.5 230.5t99.5 136.5q55 40 143 57t254 17q157 0 239 -24t144 -91q46 -49 69 -107.5 t34.5 -172t11.5 -314.5q0 -111 -1.5 -175t-8.5 -139t-21 -121t-38.5 -91t-61.5 -78q-65 -60 -135 -79.5t-236 -19.5q-196 0 -286 21t-146 78q-46 50 -67.5 121t-24.5 188zM377 940q0 -168 53 -201q38 -24 207 -24q92 0 147.5 12t108.5 41q0 172 -15 259.5t-49 115.5 q-22 19 -64.5 25t-127.5 6q-117 0 -155 -6.5t-58 -26.5q-47 -47 -47 -201z" />
<glyph unicode=":" horiz-adv-x="479" d="M113 0v264h252v-264h-252zM113 735v264h252v-264h-252z" />
<glyph unicode=";" horiz-adv-x="479" d="M39 -236l108 426h261l-179 -426h-190zM147 737v264h254v-264h-254z" />
<glyph unicode="&#x3c;" d="M156 606v174l968 451v-232l-678 -307l678 -307v-229z" />
<glyph unicode="=" d="M125 403v211h1028v-211h-1028zM125 772v211h1028v-211h-1028z" />
<glyph unicode="&#x3e;" d="M156 156v229l678 309l-678 307v230l968 -451v-174z" />
<glyph unicode="?" horiz-adv-x="1044" d="M66 936q2 161 25.5 243.5t88.5 135.5q53 41 139.5 56t217.5 15q230 0 325 -57q68 -41 105 -120.5t37 -184.5q0 -125 -62 -211q-37 -51 -77.5 -81.5t-143.5 -84.5l-78 -41q-44 -23 -57 -47t-13 -82v-108h-258v108q0 74 8.5 117t30.5 82q52 81 138 121l124 55 q74 34 103 71.5t29 102.5q0 87 -33 113q-22 19 -61.5 25.5t-114.5 6.5h-70t-52 -5t-39.5 -8t-25.5 -18.5t-18 -27t-9 -43t-7 -56.5t-3 -77h-249zM317 0v264h254v-264h-254z" />
<glyph unicode="@" horiz-adv-x="1728" d="M127 498q0 274 24.5 409t98.5 211q70 73 193 104t376 31q244 0 378 -16t214 -66q110 -69 150.5 -183t40.5 -349q0 -311 -79 -439t-272 -128q-68 0 -116 14t-93 47q-125 -61 -266 -61q-166 0 -235.5 61t-69.5 207q0 145 25.5 285.5t62.5 197.5q73 115 281 115 q66 0 111 -15.5t96 -56.5l6 58h194l-57 -641q0 -20 15 -28.5t52 -8.5q55 0 82.5 27.5t39.5 96.5t12 205q0 205 -14 300.5t-70 134.5q-49 34 -141 42.5t-337 8.5q-177 0 -262 -10.5t-124.5 -35.5t-59.5 -81q-19 -49 -32 -175.5t-13 -254.5q0 -149 15 -275t40 -178 q28 -58 105.5 -80t257.5 -22q183 0 286 10.5t248 44.5l31 -199q-154 -29 -262.5 -39t-280.5 -10q-253 0 -383 45t-190 152q-43 77 -60.5 196.5t-17.5 348.5zM682 350q0 -58 18.5 -79t71.5 -21q74 0 123 11t94 38l37 420q-44 24 -82 32.5t-94 8.5q-78 0 -101 -18.5t-38 -92.5 q-10 -51 -19.5 -153t-9.5 -146z" />
<glyph unicode="A" horiz-adv-x="1296" d="M2 0l502 1366h289l501 -1366h-272l-94 264h-559l-97 -264h-270zM446 483h404l-199 557h-6z" />
<glyph unicode="B" horiz-adv-x="1288" d="M147 0v1366h478q168 0 260 -22t149 -76q103 -98 103 -269q0 -97 -31 -161.5t-100 -114.5v-4q94 -50 137 -129t43 -203q0 -198 -119 -299q-57 -48 -147.5 -68t-249.5 -20h-523zM397 805h174q169 0 229 8.5t79 44.5q14 32 14 119q0 102 -23 131t-83 36t-216 7h-174v-346z M399 217h219q124 0 181 4.5t86 20.5q30 18 38.5 52t8.5 109q0 115 -23 146q-23 29 -82 36t-209 7h-219v-375z" />
<glyph unicode="C" horiz-adv-x="1300" d="M125 682q0 286 26 408.5t93 187.5q68 65 157.5 88t274.5 23q169 0 259 -25t142 -86q52 -62 76 -136.5t33 -213.5h-254q-8 106 -18.5 150.5t-39.5 64.5q-24 17 -67 21.5t-139 4.5q-124 0 -170.5 -9.5t-67.5 -35.5q-26 -32 -35.5 -122t-9.5 -318q0 -223 10.5 -318 t34.5 -124q21 -26 67.5 -35.5t170.5 -9.5q103 0 148 5t71 25q26 23 35 69t18 155h256q-9 -151 -33 -228t-78 -135q-60 -63 -146.5 -87t-262.5 -24q-185 0 -274.5 23t-157.5 88q-67 65 -93 187.5t-26 406.5z" />
<glyph unicode="D" horiz-adv-x="1347" d="M147 0v1366h547q159 0 249.5 -30t164.5 -111q33 -36 56 -85t35 -94.5t18 -116t7 -118t1 -131.5t-1 -131.5t-7 -117.5t-18 -115.5t-35 -94t-56 -84.5q-73 -80 -163 -108.5t-251 -28.5h-547zM401 217h277q99 0 150 14.5t79 49.5q36 46 48 126t12 275q0 196 -12 276.5 t-48 126.5q-28 35 -79 49.5t-150 14.5h-277v-932z" />
<glyph unicode="E" horiz-adv-x="1126" d="M147 0v1366h897v-217h-643v-348h596v-217h-596v-367h660v-217h-914z" />
<glyph unicode="F" horiz-adv-x="1067" d="M147 0v1366h879v-217h-623v-369h584v-217h-584v-563h-256z" />
<glyph unicode="G" horiz-adv-x="1337" d="M125 682q0 286 26 408.5t93 187.5q68 65 157.5 88t274.5 23q131 0 195.5 -10.5t123.5 -41.5q94 -46 137 -134.5t58 -266.5h-254q-7 82 -15.5 124.5t-27.5 65.5q-22 29 -68 36t-157 7q-124 0 -170.5 -9.5t-67.5 -35.5q-26 -32 -35.5 -122t-9.5 -318q0 -223 10.5 -318 t34.5 -124q21 -26 67.5 -35.5t170.5 -9.5q130 0 180.5 9t71.5 34q26 32 35 86.5t12 193.5h-281v217h537v-143q0 -215 -26 -323.5t-95 -180.5q-59 -64 -150.5 -88.5t-275.5 -24.5q-185 0 -274.5 23t-157.5 88q-67 65 -93 187.5t-26 406.5z" />
<glyph unicode="H" horiz-adv-x="1394" d="M147 0v1366h256v-563h588v563h256v-1366h-256v582h-588v-582h-256z" />
<glyph unicode="I" horiz-adv-x="550" d="M147 0v1366h256v-1366h-256z" />
<glyph unicode="J" horiz-adv-x="847" d="M25 16l32 215q97 -22 136.5 -28t85.5 -6q95 0 131 47.5t36 171.5v950h256v-938q0 -231 -101.5 -341t-317.5 -110q-111 0 -258 39z" />
<glyph unicode="K" horiz-adv-x="1261" d="M147 0v1366h256v-618l523 618h315l-489 -580l512 -786h-308l-376 582l-177 -209v-373h-256z" />
<glyph unicode="L" horiz-adv-x="1105" d="M147 0v1366h256v-1149h646v-217h-902z" />
<glyph unicode="M" horiz-adv-x="1730" d="M147 0v1366h332l383 -852h6l381 852h334v-1366h-256v1024l-76 -205l-276 -618h-219l-279 618l-74 205v-1024h-256z" />
<glyph unicode="N" horiz-adv-x="1411" d="M147 0v1366h314l448 -819l99 -205v1024h256v-1366h-316l-446 819l-99 205v-1024h-256z" />
<glyph unicode="O" horiz-adv-x="1384" d="M125 682q0 285 27 407t96 189q67 66 158.5 88.5t285.5 22.5t286 -22.5t159 -88.5q69 -67 96 -189t27 -407q0 -284 -27 -407t-96 -187q-69 -65 -161.5 -88t-283.5 -23t-283 23t-161 88q-69 64 -96 187t-27 407zM385 682q0 -212 11 -310t38 -128q18 -20 38 -28.5t71 -13.5 t149 -5t149 5t71 13.5t38 28.5q27 30 38 128t11 310q0 213 -11 311.5t-38 128.5q-18 20 -38 28.5t-71 13.5t-149 5t-149 -5t-71 -13.5t-38 -28.5q-27 -30 -38 -128.5t-11 -311.5z" />
<glyph unicode="P" horiz-adv-x="1232" d="M147 0v1366h490q170 0 265 -28t153 -95q96 -111 96 -342q0 -233 -96 -344q-58 -67 -153 -95t-265 -28h-234v-434h-256zM399 653h248q85 0 130 5.5t71 23.5q30 21 40.5 69t10.5 148q0 103 -10 150t-41 69q-38 29 -203 29h-246v-494z" />
<glyph unicode="Q" horiz-adv-x="1386" d="M125 682q0 285 27 407t96 189q67 66 158.5 88.5t285.5 22.5t286 -22.5t159 -88.5q69 -67 96 -189t27 -407q0 -284 -27 -407t-96 -187q-39 -36 -84 -59l153 -234h-286l-119 185q-53 -3 -109 -3q-191 0 -283 23t-161 88q-69 64 -96 187t-27 407zM385 682q0 -212 11 -310 t38 -128q18 -20 38 -28.5t71 -13.5t149 -5t149 5t71 13.5t38 28.5q27 30 38 128t11 310q0 213 -11 311.5t-38 128.5q-18 20 -38 28.5t-71 13.5t-149 5t-149 -5t-71 -13.5t-38 -28.5q-27 -30 -38 -128.5t-11 -311.5z" />
<glyph unicode="R" horiz-adv-x="1277" d="M147 0v1366h490q170 0 265.5 -27t152.5 -92q96 -108 96 -332q0 -118 -23 -198t-73 -137q-52 -59 -121 -82l252 -498h-281l-227 461h-275v-461h-256zM399 680h185q72 0 111 1t87 7t66 19q30 21 40.5 66t10.5 140q0 96 -10.5 142t-40.5 67q-16 12 -60 18t-79.5 6.5 t-103.5 0.5h-21h-185v-467z" />
<glyph unicode="S" horiz-adv-x="1171" d="M76 436h258q3 -92 7.5 -124t16.5 -54q40 -63 238 -63q156 0 199 38q22 19 27 46.5t5 93.5q0 74 -28.5 111t-106.5 63l-293 96q-146 50 -213 138t-67 233q0 195 108 285t344 90q125 0 200 -13.5t130 -44.5q96 -56 129 -138t41 -239h-252q-4 62 -6 85t-8.5 48.5t-18.5 40.5 q-23 28 -67.5 39t-147.5 11q-130 0 -168 -29.5t-38 -128.5q0 -72 26 -106.5t98 -57.5l291 -98q166 -56 235.5 -142.5t69.5 -238.5q0 -236 -149 -330q-58 -37 -136.5 -53.5t-203.5 -16.5q-181 0 -283 33.5t-159 110.5q-39 56 -55.5 118.5t-22.5 196.5z" />
<glyph unicode="T" horiz-adv-x="1157" d="M37 1147v219h1083v-219h-413v-1147h-256v1147h-414z" />
<glyph unicode="U" horiz-adv-x="1384" d="M143 451v915h256v-915q0 -92 6.5 -138t28.5 -71q26 -28 82.5 -36.5t175.5 -8.5q116 0 172 8.5t84 36.5q23 25 30 70.5t7 138.5v915h256v-915q0 -150 -27.5 -239.5t-91.5 -141.5q-66 -55 -151.5 -74t-278.5 -19t-278.5 19t-151.5 74q-64 52 -91.5 141.5t-27.5 239.5z" />
<glyph unicode="V" horiz-adv-x="1265" d="M0 1366h272l357 -1042h8l356 1042h273l-484 -1366h-299z" />
<glyph unicode="W" horiz-adv-x="1873" d="M4 1366h270l252 -1042h6l279 1011h252l278 -1011h7l254 1042h268l-379 -1366h-295l-256 899h-6l-256 -899h-295z" />
<glyph unicode="X" horiz-adv-x="1239" d="M10 0l463 702l-432 664h289l288 -467l291 467h289l-432 -664l463 -702h-297l-314 506l-313 -506h-295z" />
<glyph unicode="Y" horiz-adv-x="1218" d="M0 1366h274l332 -635h6l332 635h275l-482 -889v-477h-256v477z" />
<glyph unicode="Z" horiz-adv-x="1191" d="M66 0v195l722 952h-684v219h998v-192l-719 -955h739v-219h-1056z" />
<glyph unicode="[" horiz-adv-x="731" d="M121 -414v1968h442v-211h-192v-1546h192v-211h-442z" />
<glyph unicode="\" horiz-adv-x="1220" d="M-23 1434h256l1010 -1727h-256z" />
<glyph unicode="]" horiz-adv-x="731" d="M168 -203h192v1546h-192v211h442v-1968h-442v211z" />
<glyph unicode="^" horiz-adv-x="1134" d="M39 670l414 698h231l412 -698h-248l-281 467l-280 -467h-248z" />
<glyph unicode="_" horiz-adv-x="1140" d="M16 -96h1106v-211h-1106v211z" />
<glyph unicode="`" horiz-adv-x="1058" d="M188 1399h271l178 -283h-221z" />
<glyph unicode="a" horiz-adv-x="1073" d="M88 307q0 183 117 262q48 32 116.5 46t184.5 14h94q76 0 125 -29v41q-2 67 -6.5 100t-18.5 50q-18 20 -52.5 27t-102.5 7q-86 0 -122 -10t-49.5 -35.5t-17.5 -89.5h-233q12 177 86 248q92 86 328 86q126 0 204.5 -20t128.5 -72t69 -132t19 -208v-592h-231v72 q-73 -53 -135.5 -74t-153.5 -21q-178 0 -264 81t-86 249zM326 311q0 -86 30 -110q32 -25 119 -25q82 0 136.5 16t113.5 56v190h-219q-122 0 -152 -28q-28 -22 -28 -99z" />
<glyph unicode="b" horiz-adv-x="1101" d="M127 0v1434h233v-502q74 51 137.5 71.5t153.5 20.5q201 0 283 -111q40 -54 58 -151.5t18 -261.5q0 -316 -76 -416q-79 -107 -279 -107q-95 0 -158 20.5t-137 74.5v-72h-233zM362 272q56 -50 111.5 -71t130.5 -21q32 0 51 1t38 7.5t29 13.5t19.5 26t13.5 38.5t7 57.5 t3.5 76t0.5 100t-0.5 100t-3.5 76t-7 57.5t-13.5 38.5t-19.5 26.5t-29 14t-38.5 7.5t-50.5 1q-74 0 -130.5 -20.5t-111.5 -65.5v-463z" />
<glyph unicode="c" horiz-adv-x="1026" d="M92 500q0 109 7.5 185t27.5 137t50.5 98t80.5 61t114 33.5t154 9.5q131 0 212 -23.5t126 -76.5q67 -78 76 -260h-238q-3 57 -9 84t-26 46t-50.5 23t-92.5 4q-37 0 -59.5 -1t-45 -7.5t-33.5 -13.5t-22.5 -26.5t-15.5 -38.5t-7.5 -57.5t-4 -76t-0.5 -100.5q0 -60 0.5 -95.5 t4 -73.5t8 -57.5t14.5 -39.5t22 -28t32.5 -15.5t43.5 -9t57 -1.5q47 0 76.5 2t51.5 11t33 18.5t17.5 32t8 43.5t2.5 61h241q0 -197 -82 -282q-89 -89 -340 -89q-90 0 -154 9t-114 33.5t-80.5 61t-50.5 97.5t-27.5 137t-7.5 185z" />
<glyph unicode="d" horiz-adv-x="1103" d="M92 500q0 164 18 261.5t58 151.5q79 111 281 111q92 0 155 -20.5t137 -71.5v502h234v-1434h-234v72q-74 -54 -137 -74.5t-158 -20.5q-199 0 -278 107q-76 100 -76 416zM336 500q0 -63 0.5 -100t3.5 -75.5t6.5 -57.5t13 -38.5t19.5 -26.5t29 -13.5t38.5 -7.5t51.5 -1 q76 0 130.5 21t112.5 71v463q-57 45 -112.5 65.5t-130.5 20.5q-32 0 -51.5 -1t-38.5 -7.5t-29 -13t-19.5 -26.5t-13 -38.5t-6.5 -57.5t-3.5 -76t-0.5 -101z" />
<glyph unicode="e" horiz-adv-x="1052" d="M92 500q0 130 12 216t40 148.5t79.5 96t123 48.5t179.5 15q130 0 212 -23t128 -77q49 -57 69.5 -153.5t20.5 -254.5q0 -57 -4 -96h-618q4 -188 45 -219q31 -25 139 -25q34 0 51 0.5t40.5 1.5t34 4l24.5 7t19.5 11.5t13 17.5t9.5 24.5t3.5 31.5t1.5 41h237 q-3 -95 -17.5 -145.5t-47.5 -89.5q-46 -54 -129 -78.5t-223 -24.5q-110 0 -183 14.5t-126 48t-81 96t-40.5 148.5t-12.5 216zM334 598h389q-4 179 -41 205q-38 24 -147 24q-124 0 -158 -24q-21 -13 -30.5 -60.5t-12.5 -144.5z" />
<glyph unicode="f" horiz-adv-x="626" d="M20 805v196h136v119q0 174 82 256q80 80 245 80q79 0 164 -16l-29 -195q-80 10 -131 10q-55 0 -74.5 -25t-19.5 -97v-132h232v-196h-232v-805h-237v805h-136z" />
<glyph unicode="g" horiz-adv-x="1095" d="M92 500q0 164 18 261.5t58 151.5q79 111 283 111q91 0 155 -20.5t139 -69.5v67h230v-1003q0 -236 -98 -332t-342 -96q-93 0 -168 13.5t-213 51.5l32 211q135 -46 200 -59.5t161 -13.5q117 0 151 37q22 22 30.5 61.5t8.5 108.5v90q-71 -53 -133 -73t-155 -20 q-202 0 -281 107q-76 100 -76 416zM336 500q0 -63 0.5 -100t3.5 -75.5t6.5 -57.5t13 -38.5t19.5 -26.5t29 -13.5t38.5 -7.5t51.5 -1q76 0 130.5 21t112.5 71v467q-58 43 -113 62.5t-128 19.5q-26 0 -42.5 -0.5t-34 -4.5t-27.5 -7.5t-20.5 -14t-16 -20.5t-10.5 -31t-7 -40.5 t-4 -54t-2 -66v-82.5z" />
<glyph unicode="h" horiz-adv-x="1114" d="M127 0v1434h233v-502q74 51 136.5 71.5t148.5 20.5q190 0 273 -101.5t83 -330.5v-592h-237v612q0 130 -37 172q-32 37 -121 37q-73 0 -128.5 -20.5t-112.5 -65.5v-735h-238z" />
<glyph unicode="i" horiz-adv-x="487" d="M123 1130v236h242v-236h-242zM125 0v1001h237v-1001h-237z" />
<glyph unicode="j" horiz-adv-x="487" d="M-76 -414l31 199q61 -10 104 -10q37 0 52.5 25t15.5 89v1112h238v-1097q0 -173 -72.5 -252.5t-229.5 -79.5q-41 0 -139 14zM125 1130v236h242v-236h-242z" />
<glyph unicode="k" horiz-adv-x="1046" d="M127 0v1434h238v-801l376 368h299l-413 -411l436 -590h-297l-303 428l-98 -96v-332h-238z" />
<glyph unicode="l" horiz-adv-x="491" d="M127 0v1434h238v-1434h-238z" />
<glyph unicode="m" horiz-adv-x="1693" d="M121 0v1001h231v-73q70 53 130.5 74.5t144.5 21.5q186 0 274 -113q84 64 151.5 88.5t161.5 24.5q197 0 282 -100t85 -332v-592h-238v612q0 131 -36 172q-34 37 -123 37q-71 0 -118 -18.5t-101 -67.5q8 -81 8 -143v-592h-238v612q0 134 -35 174q-30 35 -110 35 q-72 0 -126 -20.5t-106 -67.5v-733h-237z" />
<glyph unicode="n" horiz-adv-x="1107" d="M121 0v1001h231v-73q75 53 138 74.5t151 21.5q190 0 272 -101t82 -331v-592h-237v612q0 130 -35 170q-36 39 -123 39q-74 0 -130 -20.5t-112 -67.5v-733h-237z" />
<glyph unicode="o" horiz-adv-x="1081" d="M92 500q0 109 8 185.5t28.5 137.5t52 97.5t83.5 61t117.5 33.5t159.5 9q93 0 158.5 -9t117 -33.5t83 -61t52 -97.5t28 -137.5t7.5 -185.5t-7.5 -185.5t-28 -137t-52 -97.5t-83 -61t-117 -33t-158.5 -9q-94 0 -159.5 9t-117.5 33t-83.5 61t-52 97.5t-28.5 137t-8 185.5z M336 500q0 -64 0.5 -101t4.5 -76t8 -58t16.5 -38.5t24.5 -26t37 -12.5t49 -7t65 -1q32 0 52.5 0.5t42.5 4t34 7t25 14.5t19.5 20.5t13 30.5t8.5 40t4 54t2.5 66.5t0.5 82.5q0 65 -0.5 102t-4.5 76.5t-8 58t-16 38t-24 26t-36.5 13t-48 7t-64.5 0.5t-65 -0.5t-49 -7t-37 -13 t-24.5 -26t-16.5 -38.5t-8 -58t-4.5 -76t-0.5 -102z" />
<glyph unicode="p" horiz-adv-x="1095" d="M121 -406v1407h229v-71q72 53 137 73.5t158 20.5q203 0 283 -109q76 -103 76 -415q0 -315 -76 -418q-77 -105 -279 -105q-96 0 -159 20t-134 75v-478h-235zM356 272q55 -50 110.5 -71t131.5 -21q32 0 51 1t38.5 7t29 13.5t19 26.5t13.5 38t7 57.5t3.5 76t0.5 100.5 t-0.5 101t-3.5 76t-7 57.5t-13.5 38.5t-19.5 26t-29 13.5t-38 7.5t-51 1q-76 0 -132 -20.5t-110 -67.5v-461z" />
<glyph unicode="q" horiz-adv-x="1095" d="M92 500q0 164 18 261.5t58 153.5q77 109 283 109q93 0 157.5 -20.5t136.5 -73.5v71h230v-1407h-234v478q-73 -55 -135 -75t-157 -20q-204 0 -281 105q-76 103 -76 418zM336 500q0 -64 0.5 -101t3.5 -75.5t6.5 -57.5t13 -38.5t19.5 -26t29 -13t38.5 -7.5t51.5 -1 q77 0 131.5 20.5t111.5 71.5v461q-56 48 -111.5 68t-131.5 20q-32 0 -51.5 -1t-38.5 -7.5t-29 -13t-19.5 -26.5t-13 -38.5t-6.5 -57.5t-3.5 -76t-0.5 -101z" />
<glyph unicode="r" horiz-adv-x="669" d="M121 0v1001h231v-83q65 55 111 76.5t106 21.5q24 0 90 -15v-196q-53 6 -100 6q-60 0 -107 -22t-94 -70v-719h-237z" />
<glyph unicode="s" horiz-adv-x="999" d="M80 338h242q0 -40 2 -64.5t11 -44t19 -28.5t35.5 -15t50.5 -7t72 -1q94 0 125 18.5t31 73.5q0 52 -18 76t-68 37l-234 72q-120 35 -176.5 104.5t-56.5 179.5q0 148 90.5 216.5t286.5 68.5q134 0 213.5 -23.5t125.5 -76.5q34 -38 47 -88t19 -160h-235q0 40 -1 61.5 t-8.5 41.5t-16.5 27.5t-31.5 14t-47 7.5t-70.5 1q-85 0 -113 -17t-28 -67q0 -41 16 -60.5t60 -33.5l233 -69q134 -40 194 -111.5t60 -191.5q0 -161 -93.5 -231.5t-307.5 -70.5q-149 0 -231 24t-132 83q-33 39 -48.5 96.5t-16.5 157.5z" />
<glyph unicode="t" horiz-adv-x="688" d="M10 805v196h135v238h238v-238h231v-196h-231v-512q0 -65 18.5 -89t67.5 -24q53 0 170 27l31 -197q-86 -23 -117.5 -28t-81.5 -5q-196 0 -274 115q-52 79 -52 213v500h-135z" />
<glyph unicode="u" horiz-adv-x="1097" d="M113 406v595h237v-614q0 -132 33 -170q29 -37 117 -37q79 0 132.5 20t106.5 70v731h238v-1001h-234v72q-67 -53 -127.5 -74t-146.5 -21q-191 0 -273.5 99.5t-82.5 329.5z" />
<glyph unicode="v" horiz-adv-x="978" d="M-2 1001h258l229 -755h9l229 755h258l-354 -1001h-275z" />
<glyph unicode="w" horiz-adv-x="1437" d="M0 1001h254l156 -745h8l166 715h270l166 -715h8l156 745h254l-273 -1001h-276l-168 713h-4l-168 -713h-277z" />
<glyph unicode="x" horiz-adv-x="960" d="M-6 0l352 528l-313 473h276l170 -294l170 294h279l-316 -473l355 -528h-283l-205 348l-203 -348h-282z" />
<glyph unicode="y" horiz-adv-x="956" d="M-2 1001h258l231 -755h7l213 755h249l-358 -1112q-37 -115 -48.5 -145.5t-33.5 -60.5q-82 -111 -260 -111q-59 0 -129 16l31 195q52 -10 94 -10q48 0 72.5 34t60.5 158l10 35h-37z" />
<glyph unicode="z" horiz-adv-x="862" d="M41 0v188l498 617h-473v196h757v-180l-501 -622h512v-199h-793z" />
<glyph unicode="{" horiz-adv-x="808" d="M86 483v181q48 13 60.5 17.5t25.5 14.5q27 24 27 101v331q0 232 82.5 329t279.5 97l101 -2v-217l-91 2q-71 0 -96 -32q-17 -18 -21.5 -47.5t-4.5 -114.5v-352q0 -77 -25.5 -130t-83.5 -92q58 -39 83.5 -91.5t25.5 -129.5v-350q0 -86 5.5 -116.5t24.5 -49.5q29 -29 92 -29 l91 2v-219l-103 -2q-195 0 -277.5 98t-82.5 328v332q0 64 -15 89.5t-59 39.5z" />
<glyph unicode="|" horiz-adv-x="1103" d="M426 -406v1840h250v-1840h-250z" />
<glyph unicode="}" horiz-adv-x="808" d="M147 -195l91 -2q68 0 96 31q17 20 21.5 49t4.5 115v350q0 77 26 129.5t85 91.5q-59 39 -85 92t-26 130v352q0 86 -5.5 116.5t-24.5 49.5q-28 28 -92 28l-91 -2v217l101 2q197 0 279.5 -97t82.5 -329v-331q0 -84 33 -105q14 -10 80 -28v-181l-39 -12q-44 -14 -59 -39.5 t-15 -89.5v-332q0 -230 -82.5 -328t-277.5 -98l-103 2v219z" />
<glyph unicode="~" horiz-adv-x="1302" d="M106 1235q36 79 60 117q57 90 121.5 131t148.5 41q85 0 248 -78q85 -39 118.5 -50.5t65.5 -11.5q37 0 64 16.5t55 55.5q12 14 55 86l154 -90q-38 -76 -52 -100t-38 -54q-47 -61 -115.5 -96t-140.5 -35q-49 0 -104 19t-199 86q-75 35 -121 35q-41 0 -75 -29.5t-72 -99.5 l-21 -39z" />
<glyph unicode="&#xa1;" horiz-adv-x="555" d="M147 -362l25 995h211l25 -995h-261zM152 737v264h251v-264h-251z" />
<glyph unicode="&#xa2;" d="M213 682q0 193 29 300t98 159q65 49 203 59v166h239v-168q122 -15 187 -74q83 -83 92 -278h-238q-6 96 -26 121q-16 20 -48.5 26t-103.5 6q-98 0 -131 -16q-38 -21 -47.5 -81t-9.5 -220q0 -149 8 -203q6 -66 43 -90t131 -24q81 0 119.5 8.5t50.5 29.5q10 15 13 37t5 90 h242q0 -180 -65 -262t-222 -100v-168h-239v166q-138 10 -203 59q-69 52 -98 159t-29 298z" />
<glyph unicode="&#xa3;" d="M82 0v201q38 6 59 14t37 21.5t22.5 41.5t9.5 64t3 100v142h-131v221h131q0 86 2 131q7 126 33.5 215.5t93.5 151.5q57 52 128.5 69t219.5 17q144 0 216.5 -17.5t129.5 -64.5q62 -52 89.5 -144t35.5 -231h-248q-6 104 -14 145.5t-27 61.5q-15 16 -51 23t-137 7 q-138 0 -166 -28q-26 -26 -37.5 -91t-11.5 -251h381v-215h-381v-203q0 -77 -5.5 -106.5t-29.5 -57.5h770v-217h-1122z" />
<glyph unicode="&#xa4;" d="M8 1167l144 144l198 -199q78 51 143.5 71.5t147.5 20.5q83 0 147.5 -20t141.5 -70l198 195l144 -142l-199 -196q51 -79 71.5 -144t20.5 -145q0 -78 -20.5 -142.5t-69.5 -142.5l199 -196l-144 -146l-196 199q-136 -90 -291 -90q-145 0 -291 90l-196 -199l-142 144l193 196 q-48 78 -69 144.5t-21 144.5q0 79 21 144t71 141zM338 684q0 -126 89 -215.5t214 -89.5q126 0 214.5 89.5t88.5 215.5t-88.5 215.5t-214.5 89.5t-214.5 -89.5t-88.5 -215.5z" />
<glyph unicode="&#xa5;" d="M31 1366h274l332 -635h6l332 635h274l-243 -448h151v-187h-254l-41 -78h295v-186h-389v-467h-256v467h-389v186h293l-41 78h-252v187h149z" />
<glyph unicode="&#xa6;" horiz-adv-x="1103" d="M426 317h250v-723h-250v723zM426 711v723h250v-723h-250z" />
<glyph unicode="&#xa7;" horiz-adv-x="1308" d="M131 35h254q3 -123 27 -172q22 -47 73.5 -61.5t167.5 -14.5q146 0 193 30.5t47 125.5q0 60 -27 94q-19 20 -36.5 28.5t-100.5 36.5l-291 99q-148 50 -227.5 141.5t-79.5 212.5q0 78 21.5 139t72.5 125q-55 88 -55 211q0 187 109 273t344 86q213 0 321 -54 q44 -22 75.5 -54t49.5 -65t29 -81.5t15 -87.5t7 -99h-252q-2 128 -14 160q-15 40 -67 56t-166 16q-49 0 -74 -1.5t-55.5 -9t-43.5 -23t-22.5 -43.5t-9.5 -71q0 -67 26 -98.5t101 -56.5l293 -99q157 -54 231 -145.5t74 -229.5q0 -72 -17 -117t-67 -104q84 -84 84 -243 q0 -218 -152 -306q-111 -63 -336 -63q-212 0 -322 48t-157 161q-20 49 -30 100t-13 156zM377 575q0 -54 40.5 -99.5t108.5 -67.5l338 -115q31 61 31 110q0 54 -40.5 99.5t-109.5 68.5l-335 117q-33 -67 -33 -113z" />
<glyph unicode="&#xa8;" horiz-adv-x="1058" d="M240 1130v236h229v-236h-229zM590 1130v236h229v-236h-229z" />
<glyph unicode="&#xa9;" horiz-adv-x="1640" d="M121 682q0 143 55.5 272.5t149 223t223 149t272.5 55.5q190 0 351 -93.5t254.5 -255t93.5 -351.5q0 -189 -94 -350t-255 -254.5t-350 -93.5q-143 0 -272.5 55.5t-223 149t-149 222.5t-55.5 271zM264 682q0 -153 74.5 -282.5t203 -205t279.5 -75.5q150 0 278 75.5 t202.5 205t74.5 282.5t-74 283t-202 206t-279 76t-279.5 -75.5t-203 -205.5t-74.5 -284zM508 684q0 111 8 168t29 96q34 59 94 81t188 22q100 0 149.5 -13t88.5 -49q32 -31 45.5 -73t19.5 -132h-182q-5 91 -22 105q-16 12 -105 12q-59 0 -78 -3.5t-30 -12.5 q-19 -17 -19 -201q0 -178 19 -201q14 -18 114 -18q57 0 78.5 2.5t28.5 11.5q11 15 18 111h185q-4 -92 -21 -138t-49 -75q-39 -36 -89 -49t-153 -13q-137 0 -199 27.5t-91 99.5q-27 71 -27 242z" />
<glyph unicode="&#xaa;" horiz-adv-x="735" d="M109 1006q0 91 53.5 129.5t179.5 38.5h53q39 0 64 -11v41q0 40 -17 50t-84 10q-59 0 -76.5 -12t-17.5 -54h-137q9 103 57.5 139.5t175.5 36.5q137 0 186.5 -47t49.5 -176v-307h-135v33q-65 -41 -156 -41q-100 0 -148 41.5t-48 128.5zM115 649v119h481v-119h-481z M248 1008q0 -40 15 -52t65 -12q78 0 131 33v92h-117q-60 0 -77 -10.5t-17 -50.5z" />
<glyph unicode="&#xab;" horiz-adv-x="1038" d="M98 430v150l451 376v-235l-260 -215l260 -215v-236zM502 430v150l450 376v-235l-260 -215l260 -215v-236z" />
<glyph unicode="&#xac;" horiz-adv-x="1073" d="M51 416v213h969v-629h-221v416h-748z" />
<glyph unicode="&#xad;" horiz-adv-x="620" d="M51 391v230h516v-230h-516z" />
<glyph unicode="&#xae;" horiz-adv-x="1640" d="M121 682q0 143 55.5 272.5t149 223t223 149t272.5 55.5q190 0 351 -93.5t254.5 -255t93.5 -351.5q0 -189 -94 -350t-255 -254.5t-350 -93.5q-143 0 -272.5 55.5t-223 149t-149 222.5t-55.5 271zM264 682q0 -153 74.5 -282.5t203 -205t279.5 -75.5q150 0 278 75.5 t202.5 205t74.5 282.5t-74 283t-202 206t-279 76t-279.5 -75.5t-203 -205.5t-74.5 -284zM539 324v718h288q167 0 235 -54.5t68 -188.5q0 -82 -25 -131.5t-85 -83.5l143 -260h-202l-123 229h-41h-74v-229h-184zM721 702h70q88 0 116 4.5t35 24.5q6 14 6 68q0 55 -6 67 q-8 19 -35 23t-108 4h-78v-191z" />
<glyph unicode="&#xaf;" horiz-adv-x="1058" d="M240 1167v185h579v-185h-579z" />
<glyph unicode="&#xb0;" horiz-adv-x="772" d="M88 1153q0 124 87 210.5t210 86.5t210 -86.5t87 -210.5q0 -123 -87 -209t-210 -86t-210 86t-87 209zM236 1153q0 -65 43 -110.5t106 -45.5q62 0 106 46t44 110q0 66 -44 112t-106 46t-105.5 -46t-43.5 -112z" />
<glyph unicode="&#xb1;" d="M125 0v211h1028v-211h-1028zM125 702v211h403v408h222v-408h403v-211h-403v-409h-222v409h-403z" />
<glyph unicode="&#xb2;" horiz-adv-x="765" d="M88 844v114q0 61 6.5 96.5t27.5 65.5t54.5 50.5t95.5 46.5l150 61q42 17 56 33.5t14 48.5q0 40 -17 50.5t-82 10.5q-72 0 -89.5 -12t-20.5 -63l-2 -39h-181v41q2 78 26 125.5t75 70.5q64 25 188 25q136 0 195 -33q90 -53 90 -180q0 -146 -176 -217l-154 -64 q-43 -18 -57.5 -31.5t-14.5 -39.5v-13h406v-147h-590z" />
<glyph unicode="&#xb3;" horiz-adv-x="765" d="M80 1085h180q-1 -75 17.5 -89.5t107.5 -14.5q78 0 96.5 14.5t18.5 75.5q0 50 -13 63t-61 13h-127v133h129q41 0 54.5 10.5t13.5 42.5q0 63 -13 76q-9 9 -31 11.5t-83 2.5q-70 0 -82 -12q-17 -17 -17 -94h-178q3 90 14 127t44 67q64 58 241 58q152 0 209 -43 q74 -56 74 -170q0 -92 -62 -142q70 -47 70 -155q0 -114 -64 -172q-33 -30 -79.5 -40.5t-143.5 -10.5q-119 0 -173 11t-87 44t-43.5 69t-11.5 125z" />
<glyph unicode="&#xb4;" horiz-adv-x="1058" d="M463 1116l178 283h270l-227 -283h-221z" />
<glyph unicode="&#xb5;" horiz-adv-x="1097" d="M113 -406v1407h237v-544q0 -170 41 -224q21 -30 55.5 -41.5t92.5 -11.5q70 0 113 19t87 71v731h238v-1001h-234v72q-49 -52 -94 -73.5t-104 -21.5q-62 0 -108 22t-87 73v-478h-237z" />
<glyph unicode="&#xb6;" horiz-adv-x="1296" d="M121 930q0 165 25.5 254t91.5 131q75 51 258 51h278v-1772h-225v902h-53q-193 0 -269 57q-60 43 -83 131t-23 246zM883 -406v1772h225v-1772h-225z" />
<glyph unicode="&#xb7;" horiz-adv-x="335" d="M41 543v264h252v-264h-252z" />
<glyph unicode="&#xb8;" horiz-adv-x="1058" d="M291 -420l137 283h264l-186 -283h-215z" />
<glyph unicode="&#xb9;" horiz-adv-x="765" d="M143 844v147h174v389l-174 -61v166l224 76h135v-570h145v-147h-504z" />
<glyph unicode="&#xba;" horiz-adv-x="741" d="M119 1104q0 163 49.5 216.5t200.5 53.5q152 0 202 -53.5t50 -216.5q0 -161 -50 -214.5t-202 -53.5q-151 0 -200.5 53.5t-49.5 214.5zM125 649v119h489v-119h-489zM262 1104q0 -43 0.5 -65t5 -43t9.5 -28.5t20 -14t29.5 -7t44.5 -0.5q29 0 43.5 0.5t29 7t19 14t9 29 t5 42.5t0.5 65t-0.5 65.5t-5 43t-9 28.5t-19 13.5t-28.5 7t-44 0.5t-44.5 -0.5t-29.5 -7t-20 -14t-9.5 -28.5t-5 -43t-0.5 -65z" />
<glyph unicode="&#xbb;" horiz-adv-x="1038" d="M86 55v236l260 215l-260 215v235l451 -376v-150zM489 55v236l259 215l-259 215v235l451 -376v-150z" />
<glyph unicode="&#xbc;" horiz-adv-x="1929" d="M264 1126v164l223 76h136v-717h-185v537zM393 0l819 1366h203l-819 -1366h-203zM993 127v129l357 461h196v-445h94v-145h-94v-127h-180v127h-373zM1210 272h164v230z" />
<glyph unicode="&#xbd;" horiz-adv-x="1929" d="M203 1126v164l223 76h135v-717h-184v537zM332 0l819 1366h203l-819 -1366h-203zM1067 0v117q0 116 33 162.5t151 93.5l150 61q41 17 55 33.5t14 48.5q0 42 -17 53t-81 11q-72 0 -89.5 -12.5t-20.5 -63.5l-2 -39h-181v41q1 78 25.5 124.5t75.5 69.5q54 25 186 25 q140 0 197 -33q43 -25 66.5 -71.5t23.5 -106.5q0 -148 -176 -219l-154 -62q-44 -19 -58 -33t-14 -40v-13h406v-147h-590z" />
<glyph unicode="&#xbe;" horiz-adv-x="1929" d="M182 891h180q-1 -28 0 -43.5t6.5 -28.5t11.5 -18.5t23.5 -9.5t33.5 -4.5t50 -0.5q78 0 96.5 14.5t18.5 76.5q0 50 -13 62.5t-61 12.5h-127v133h129q41 0 54.5 11t13.5 43q0 63 -12 75q-15 15 -115 15q-70 0 -82 -12q-16 -16 -16 -95h-178q3 91 13.5 128t43.5 67 q63 57 242 57q151 0 208 -43q74 -56 74 -170q0 -92 -61 -141q69 -46 69 -156q0 -115 -63 -172q-33 -30 -79.5 -40.5t-143.5 -10.5q-119 0 -173 11t-87 44t-44 70t-12 125zM485 0l820 1366h200l-819 -1366h-201zM1083 127v129l357 461h198v-445h95v-145h-95v-127h-182v127 h-373zM1300 272h166v230z" />
<glyph unicode="&#xbf;" horiz-adv-x="1044" d="M41 -20q0 125 61 210q36 51 77 81.5t145 84.5l77 41q44 23 57 47t13 82v109h258v-109q0 -74 -8.5 -116.5t-30.5 -81.5q-52 -82 -137 -121l-125 -55q-74 -34 -102.5 -71.5t-28.5 -103.5q0 -86 33 -112q22 -19 62.5 -26t113.5 -7h70.5t51.5 5t39 8t25.5 19t18 27t9 43.5 t6.5 56.5t3 77h250q-2 -160 -26 -243t-89 -136q-53 -41 -139.5 -56.5t-216.5 -15.5q-231 0 -326 57q-68 41 -104.5 120.5t-36.5 185.5zM473 739v265h254v-265h-254z" />
<glyph unicode="&#xc0;" horiz-adv-x="1296" d="M2 0l502 1366h289l501 -1366h-272l-94 264h-559l-97 -264h-270zM350 1757h271l178 -282h-221zM446 483h404l-199 557h-6z" />
<glyph unicode="&#xc1;" horiz-adv-x="1296" d="M2 0l502 1366h289l501 -1366h-272l-94 264h-559l-97 -264h-270zM446 483h404l-199 557h-6zM500 1475l178 282h270l-227 -282h-221z" />
<glyph unicode="&#xc2;" horiz-adv-x="1296" d="M2 0l502 1366h289l501 -1366h-272l-94 264h-559l-97 -264h-270zM334 1491l201 250h225l203 -250h-226l-90 113l-88 -113h-225zM446 483h404l-199 557h-6z" />
<glyph unicode="&#xc3;" horiz-adv-x="1296" d="M2 0l502 1366h289l501 -1366h-272l-94 264h-559l-97 -264h-270zM342 1491q0 137 29 188q44 78 145 78q73 0 125 -37l100 -73q21 -15 35 -15q27 0 27 72v33h153q0 -82 -4.5 -116t-19.5 -60q-42 -80 -148 -80q-71 0 -127 41l-100 71q-24 19 -37 19q-24 0 -24 -72v-49h-154z M446 483h404l-199 557h-6z" />
<glyph unicode="&#xc4;" horiz-adv-x="1296" d="M2 0l502 1366h289l501 -1366h-272l-94 264h-559l-97 -264h-270zM358 1489v235h230v-235h-230zM446 483h404l-199 557h-6zM709 1489v235h229v-235h-229z" />
<glyph unicode="&#xc5;" horiz-adv-x="1296" d="M2 0l502 1366h289l501 -1366h-272l-94 264h-559l-97 -264h-270zM446 483h404l-199 557h-6zM475 1622q0 70 51 120t123 50t123 -50t51 -120q0 -71 -51 -121.5t-123 -50.5t-123 50.5t-51 121.5zM578 1622q0 -30 21 -51t50 -21q31 0 51.5 20.5t20.5 51.5q0 29 -20.5 49.5 t-51.5 20.5q-29 0 -50 -20.5t-21 -49.5z" />
<glyph unicode="&#xc6;" horiz-adv-x="1939" d="M-2 0l790 1366h1070v-217h-644v-348h594v-217h-594v-367h660v-217h-913v264h-519l-149 -264h-295zM567 483h394v666h-19z" />
<glyph unicode="&#xc7;" horiz-adv-x="1300" d="M125 682q0 286 26 408.5t93 187.5q68 65 157.5 88t274.5 23q169 0 259 -25t142 -86q52 -62 76 -136.5t33 -213.5h-254q-8 106 -18.5 150.5t-39.5 64.5q-24 17 -67 21.5t-139 4.5q-124 0 -170.5 -9.5t-67.5 -35.5q-26 -32 -35.5 -122t-9.5 -318q0 -223 10.5 -318 t34.5 -124q21 -26 67.5 -35.5t170.5 -9.5q103 0 148 5t71 25q26 23 35 69t18 155h256q-9 -151 -33 -228t-78 -135q-60 -63 -146.5 -87t-262.5 -24q-185 0 -274.5 23t-157.5 88q-67 65 -93 187.5t-26 406.5zM436 -420l137 283h265l-187 -283h-215z" />
<glyph unicode="&#xc8;" horiz-adv-x="1126" d="M147 0v1366h897v-217h-643v-348h596v-217h-596v-367h660v-217h-914zM305 1757h270l179 -282h-222z" />
<glyph unicode="&#xc9;" horiz-adv-x="1126" d="M147 0v1366h897v-217h-643v-348h596v-217h-596v-367h660v-217h-914zM455 1475l178 282h270l-227 -282h-221z" />
<glyph unicode="&#xca;" horiz-adv-x="1126" d="M147 0v1366h897v-217h-643v-348h596v-217h-596v-367h660v-217h-914zM291 1491l201 250h225l203 -250h-226l-90 113l-88 -113h-225z" />
<glyph unicode="&#xcb;" horiz-adv-x="1126" d="M147 0v1366h897v-217h-643v-348h596v-217h-596v-367h660v-217h-914zM315 1489v235h230v-235h-230zM666 1489v235h229v-235h-229z" />
<glyph unicode="&#xcc;" horiz-adv-x="550" d="M-25 1757h271l178 -282h-221zM147 0v1366h256v-1366h-256z" />
<glyph unicode="&#xcd;" horiz-adv-x="550" d="M139 1475l178 282h271l-228 -282h-221zM150 0v1366h256v-1366h-256z" />
<glyph unicode="&#xce;" horiz-adv-x="550" d="M-39 1491l201 250h225l203 -250h-225l-91 113l-88 -113h-225zM147 0v1366h256v-1366h-256z" />
<glyph unicode="&#xcf;" horiz-adv-x="550" d="M-14 1489v235h229v-235h-229zM147 0v1366h256v-1366h-256zM336 1489v235h229v-235h-229z" />
<glyph unicode="&#xd0;" horiz-adv-x="1402" d="M78 584v221h125v561h547q159 0 249 -30t164 -111q33 -36 56 -85t35 -94.5t18 -116t7 -118t1 -131.5t-1 -131.5t-7 -117.5t-18 -115.5t-35 -94t-56 -84.5q-73 -80 -162.5 -108.5t-250.5 -28.5h-547v584h-125zM457 217h276q99 0 150.5 15t79.5 49q35 46 47 125.5t12 275.5 q0 197 -12 277t-47 126q-28 34 -79.5 49t-150.5 15h-276v-344h342v-221h-342v-367z" />
<glyph unicode="&#xd1;" horiz-adv-x="1411" d="M147 0v1366h314l448 -819l99 -205v1024h256v-1366h-316l-446 819l-99 205v-1024h-256zM399 1491q0 137 29 188q44 78 145 78q73 0 125 -37l101 -73q21 -15 35 -15q26 0 26 72v33h154q0 -81 -5 -115.5t-20 -60.5q-42 -80 -147 -80q-71 0 -127 41l-101 71q-24 19 -36 19 q-25 0 -25 -72v-49h-154z" />
<glyph unicode="&#xd2;" horiz-adv-x="1384" d="M125 682q0 285 27 407t96 189q67 66 158.5 88.5t285.5 22.5t286 -22.5t159 -88.5q69 -67 96 -189t27 -407q0 -284 -27 -407t-96 -187q-69 -65 -161.5 -88t-283.5 -23t-283 23t-161 88q-69 64 -96 187t-27 407zM385 682q0 -212 11 -310t38 -128q18 -20 38 -28.5t71 -13.5 t149 -5t149 5t71 13.5t38 28.5q27 30 38 128t11 310q0 213 -11 311.5t-38 128.5q-18 20 -38 28.5t-71 13.5t-149 5t-149 -5t-71 -13.5t-38 -28.5q-27 -30 -38 -128.5t-11 -311.5zM393 1757h271l178 -282h-221z" />
<glyph unicode="&#xd3;" horiz-adv-x="1384" d="M125 682q0 285 27 407t96 189q67 66 158.5 88.5t285.5 22.5t286 -22.5t159 -88.5q69 -67 96 -189t27 -407q0 -284 -27 -407t-96 -187q-69 -65 -161.5 -88t-283.5 -23t-283 23t-161 88q-69 64 -96 187t-27 407zM385 682q0 -212 11 -310t38 -128q18 -20 38 -28.5t71 -13.5 t149 -5t149 5t71 13.5t38 28.5q27 30 38 128t11 310q0 213 -11 311.5t-38 128.5q-18 20 -38 28.5t-71 13.5t-149 5t-149 -5t-71 -13.5t-38 -28.5q-27 -30 -38 -128.5t-11 -311.5zM543 1475l178 282h270l-227 -282h-221z" />
<glyph unicode="&#xd4;" horiz-adv-x="1384" d="M125 682q0 285 27 407t96 189q67 66 158.5 88.5t285.5 22.5t286 -22.5t159 -88.5q69 -67 96 -189t27 -407q0 -284 -27 -407t-96 -187q-69 -65 -161.5 -88t-283.5 -23t-283 23t-161 88q-69 64 -96 187t-27 407zM379 1491l201 250h225l203 -250h-226l-90 113l-88 -113h-225 zM385 682q0 -212 11 -310t38 -128q18 -20 38 -28.5t71 -13.5t149 -5t149 5t71 13.5t38 28.5q27 30 38 128t11 310q0 213 -11 311.5t-38 128.5q-18 20 -38 28.5t-71 13.5t-149 5t-149 -5t-71 -13.5t-38 -28.5q-27 -30 -38 -128.5t-11 -311.5z" />
<glyph unicode="&#xd5;" horiz-adv-x="1384" d="M125 682q0 285 27 407t96 189q67 66 158.5 88.5t285.5 22.5t286 -22.5t159 -88.5q69 -67 96 -189t27 -407q0 -284 -27 -407t-96 -187q-69 -65 -161.5 -88t-283.5 -23t-283 23t-161 88q-69 64 -96 187t-27 407zM385 682q0 -212 11 -310t38 -128q18 -20 38 -28.5t71 -13.5 t149 -5t149 5t71 13.5t38 28.5q27 30 38 128t11 310q0 213 -11 311.5t-38 128.5q-18 20 -38 28.5t-71 13.5t-149 5t-149 -5t-71 -13.5t-38 -28.5q-27 -30 -38 -128.5t-11 -311.5zM385 1491q0 137 29 188q44 78 145 78q73 0 125 -37l100 -73q21 -15 35 -15q27 0 27 72v33h153 q0 -82 -4.5 -116t-19.5 -60q-42 -80 -148 -80q-71 0 -127 41l-100 71q-24 19 -37 19q-24 0 -24 -72v-49h-154z" />
<glyph unicode="&#xd6;" horiz-adv-x="1384" d="M125 682q0 285 27 407t96 189q67 66 158.5 88.5t285.5 22.5t286 -22.5t159 -88.5q69 -67 96 -189t27 -407q0 -284 -27 -407t-96 -187q-69 -65 -161.5 -88t-283.5 -23t-283 23t-161 88q-69 64 -96 187t-27 407zM385 682q0 -212 11 -310t38 -128q18 -20 38 -28.5t71 -13.5 t149 -5t149 5t71 13.5t38 28.5q27 30 38 128t11 310q0 213 -11 311.5t-38 128.5q-18 20 -38 28.5t-71 13.5t-149 5t-149 -5t-71 -13.5t-38 -28.5q-27 -30 -38 -128.5t-11 -311.5zM403 1489v235h230v-235h-230zM754 1489v235h229v-235h-229z" />
<glyph unicode="&#xd7;" d="M147 354l338 338l-338 340l154 152l338 -338l338 338l153 -152l-337 -340l337 -338l-153 -153l-338 340l-338 -340z" />
<glyph unicode="&#xd8;" horiz-adv-x="1384" d="M125 682q0 285 27 407t96 189q67 66 158.5 88.5t285.5 22.5q143 0 212 -8t128 -35l49 77h162l-100 -155q33 -33 55.5 -82t34.5 -98.5t18.5 -125t7.5 -131.5t1 -149q0 -284 -27 -407t-96 -187q-69 -65 -161.5 -88t-283.5 -23q-148 0 -213 8.5t-127 34.5l-49 -77h-162 l101 155q-33 33 -55.5 82t-34.5 98t-18.5 125t-7.5 131.5t-1 147.5zM385 682q0 -233 14 -334l510 801q-54 20 -217 20q-98 0 -149 -5t-71 -13.5t-38 -28.5q-27 -30 -38 -128.5t-11 -311.5zM475 217q54 -20 217 -20q98 0 149 5t71 13.5t38 28.5q27 30 38 128t11 310 q0 231 -14 336z" />
<glyph unicode="&#xd9;" horiz-adv-x="1384" d="M143 451v915h256v-915q0 -92 6.5 -138t28.5 -71q26 -28 82.5 -36.5t175.5 -8.5q116 0 172 8.5t84 36.5q23 25 30 70.5t7 138.5v915h256v-915q0 -150 -27.5 -239.5t-91.5 -141.5q-66 -55 -151.5 -74t-278.5 -19t-278.5 19t-151.5 74q-64 52 -91.5 141.5t-27.5 239.5z M393 1757h271l178 -282h-221z" />
<glyph unicode="&#xda;" horiz-adv-x="1384" d="M143 451v915h256v-915q0 -92 6.5 -138t28.5 -71q26 -28 82.5 -36.5t175.5 -8.5q116 0 172 8.5t84 36.5q23 25 30 70.5t7 138.5v915h256v-915q0 -150 -27.5 -239.5t-91.5 -141.5q-66 -55 -151.5 -74t-278.5 -19t-278.5 19t-151.5 74q-64 52 -91.5 141.5t-27.5 239.5z M543 1475l178 282h270l-227 -282h-221z" />
<glyph unicode="&#xdb;" horiz-adv-x="1384" d="M143 451v915h256v-915q0 -92 6.5 -138t28.5 -71q26 -28 82.5 -36.5t175.5 -8.5q116 0 172 8.5t84 36.5q23 25 30 70.5t7 138.5v915h256v-915q0 -150 -27.5 -239.5t-91.5 -141.5q-66 -55 -151.5 -74t-278.5 -19t-278.5 19t-151.5 74q-64 52 -91.5 141.5t-27.5 239.5z M379 1491l201 250h225l203 -250h-226l-90 113l-88 -113h-225z" />
<glyph unicode="&#xdc;" horiz-adv-x="1384" d="M143 451v915h256v-915q0 -92 6.5 -138t28.5 -71q26 -28 82.5 -36.5t175.5 -8.5q116 0 172 8.5t84 36.5q23 25 30 70.5t7 138.5v915h256v-915q0 -150 -27.5 -239.5t-91.5 -141.5q-66 -55 -151.5 -74t-278.5 -19t-278.5 19t-151.5 74q-64 52 -91.5 141.5t-27.5 239.5z M403 1489v235h230v-235h-230zM754 1489v235h229v-235h-229z" />
<glyph unicode="&#xdd;" horiz-adv-x="1218" d="M0 1366h274l332 -635h6l332 635h275l-482 -889v-477h-256v477zM461 1475l178 282h270l-227 -282h-221z" />
<glyph unicode="&#xde;" horiz-adv-x="1232" d="M147 0v1366h252v-217h238q170 0 265 -28t153 -95q96 -111 96 -342q0 -233 -96 -344q-58 -67 -153 -95t-265 -28h-234v-217h-256zM399 436h246q161 0 203 29q30 21 40.5 69t10.5 148q0 101 -10.5 148.5t-40.5 70.5q-38 29 -203 29h-246v-494z" />
<glyph unicode="&#xdf;" horiz-adv-x="1116" d="M123 0v1069q0 199 98 293t301 94q199 0 305.5 -96.5t106.5 -278.5q0 -83 -20.5 -135t-73.5 -102v-4q100 -57 141 -150.5t41 -261.5q0 -138 -25.5 -224.5t-81.5 -137.5q-100 -89 -292 -89q-59 0 -100.5 7t-104.5 28l28 195q92 -27 154 -27q102 0 135 33q25 25 34 78.5 t9 159.5q0 94 -8.5 141t-34.5 72q-25 25 -70.5 33t-134.5 8h-61v198h66q70 0 98 7t43 28q29 39 29 131q0 114 -37 153.5t-146 39.5q-93 0 -135 -48q-15 -19 -21 -46t-6 -87v-1081h-237z" />
<glyph unicode="&#xe0;" horiz-adv-x="1073" d="M88 307q0 183 117 262q48 32 116.5 46t184.5 14h94q76 0 125 -29v41q-2 67 -6.5 100t-18.5 50q-18 20 -52.5 27t-102.5 7q-86 0 -122 -10t-49.5 -35.5t-17.5 -89.5h-233q12 177 86 248q92 86 328 86q126 0 204.5 -20t128.5 -72t69 -132t19 -208v-592h-231v72 q-73 -53 -135.5 -74t-153.5 -21q-178 0 -264 81t-86 249zM250 1399h270l178 -283h-221zM326 311q0 -86 30 -110q32 -25 119 -25q82 0 136.5 16t113.5 56v190h-219q-122 0 -152 -28q-28 -22 -28 -99z" />
<glyph unicode="&#xe1;" horiz-adv-x="1073" d="M88 307q0 183 117 262q48 32 116.5 46t184.5 14h94q76 0 125 -29v41q-2 67 -6.5 100t-18.5 50q-18 20 -52.5 27t-102.5 7q-86 0 -122 -10t-49.5 -35.5t-17.5 -89.5h-233q12 177 86 248q92 86 328 86q126 0 204.5 -20t128.5 -72t69 -132t19 -208v-592h-231v72 q-73 -53 -135.5 -74t-153.5 -21q-178 0 -264 81t-86 249zM326 311q0 -86 30 -110q32 -25 119 -25q82 0 136.5 16t113.5 56v190h-219q-122 0 -152 -28q-28 -22 -28 -99zM412 1116l178 283h270l-227 -283h-221z" />
<glyph unicode="&#xe2;" horiz-adv-x="1073" d="M88 307q0 183 117 262q48 32 116.5 46t184.5 14h94q76 0 125 -29v41q-2 67 -6.5 100t-18.5 50q-18 20 -52.5 27t-102.5 7q-86 0 -122 -10t-49.5 -35.5t-17.5 -89.5h-233q12 177 86 248q92 86 328 86q126 0 204.5 -20t128.5 -72t69 -132t19 -208v-592h-231v72 q-73 -53 -135.5 -74t-153.5 -21q-178 0 -264 81t-86 249zM233 1133l201 249h225l203 -249h-225l-90 112l-88 -112h-226zM326 311q0 -86 30 -110q32 -25 119 -25q82 0 136.5 16t113.5 56v190h-219q-122 0 -152 -28q-28 -22 -28 -99z" />
<glyph unicode="&#xe3;" horiz-adv-x="1073" d="M88 307q0 183 117 262q48 32 116.5 46t184.5 14h94q76 0 125 -29v41q-2 67 -6.5 100t-18.5 50q-18 20 -52.5 27t-102.5 7q-86 0 -122 -10t-49.5 -35.5t-17.5 -89.5h-233q12 177 86 248q92 86 328 86q126 0 204.5 -20t128.5 -72t69 -132t19 -208v-592h-231v72 q-73 -53 -135.5 -74t-153.5 -21q-178 0 -264 81t-86 249zM242 1133q0 139 28 188q44 78 146 78q73 0 125 -37l100 -74q20 -14 35 -14q26 0 26 72v32h154q0 -81 -5 -115.5t-20 -60.5q-42 -80 -147 -80q-71 0 -127 41l-100 72q-23 18 -37 18q-25 0 -25 -71v-49h-153zM326 311 q0 -86 30 -110q32 -25 119 -25q82 0 136.5 16t113.5 56v190h-219q-122 0 -152 -28q-28 -22 -28 -99z" />
<glyph unicode="&#xe4;" horiz-adv-x="1073" d="M88 307q0 183 117 262q48 32 116.5 46t184.5 14h94q76 0 125 -29v41q-2 67 -6.5 100t-18.5 50q-18 20 -52.5 27t-102.5 7q-86 0 -122 -10t-49.5 -35.5t-17.5 -89.5h-233q12 177 86 248q92 86 328 86q126 0 204.5 -20t128.5 -72t69 -132t19 -208v-592h-231v72 q-73 -53 -135.5 -74t-153.5 -21q-178 0 -264 81t-86 249zM246 1130v236h229v-236h-229zM326 311q0 -86 30 -110q32 -25 119 -25q82 0 136.5 16t113.5 56v190h-219q-122 0 -152 -28q-28 -22 -28 -99zM596 1130v236h229v-236h-229z" />
<glyph unicode="&#xe5;" horiz-adv-x="1073" d="M88 307q0 183 117 262q48 32 116.5 46t184.5 14h94q76 0 125 -29v41q-2 67 -6.5 100t-18.5 50q-18 20 -52.5 27t-102.5 7q-86 0 -122 -10t-49.5 -35.5t-17.5 -89.5h-233q12 177 86 248q92 86 328 86q126 0 204.5 -20t128.5 -72t69 -132t19 -208v-592h-231v72 q-73 -53 -135.5 -74t-153.5 -21q-178 0 -264 81t-86 249zM326 311q0 -86 30 -110q32 -25 119 -25q82 0 136.5 16t113.5 56v190h-219q-122 0 -152 -28q-28 -22 -28 -99zM375 1264q0 70 51 120t123 50t123 -50t51 -120q0 -71 -51 -121.5t-123 -50.5t-123 50.5t-51 121.5z M477 1264q0 -30 21 -51t51 -21q31 0 51.5 20.5t20.5 51.5q0 29 -20.5 49t-51.5 20q-30 0 -51 -20t-21 -49z" />
<glyph unicode="&#xe6;" horiz-adv-x="1683" d="M88 307q0 185 117 262q48 32 116.5 46t184.5 14h94q76 0 125 -29v41q-3 125 -25 152q-18 19 -51.5 25.5t-103.5 6.5q-86 0 -122 -10t-49.5 -35.5t-17.5 -89.5h-233q12 177 86 248q89 86 330 86q214 0 309 -92q95 92 311 92q130 0 212 -23t128 -77q49 -57 69.5 -153.5 t20.5 -254.5q0 -61 -4 -96h-618q4 -188 45 -219q31 -25 139 -25q34 0 51 0.5t40.5 1.5t34 4l24.5 7t19.5 11.5t13 17.5t9.5 24.5t3.5 31.5t1.5 41h237q-6 -98 -19.5 -147.5t-45.5 -87.5q-46 -54 -130 -78.5t-223 -24.5q-142 0 -225.5 24.5t-130.5 80.5q-59 -36 -91 -53 t-102.5 -34.5t-156.5 -17.5q-192 0 -282.5 80.5t-90.5 249.5zM326 311q0 -86 30 -110q32 -25 119 -25q82 0 136.5 16t113.5 56v190h-219q-122 0 -152 -28q-28 -22 -28 -99zM967 598h389q-4 179 -41 205q-38 24 -148 24q-123 0 -157 -24q-21 -13 -30.5 -60.5t-12.5 -144.5z " />
<glyph unicode="&#xe7;" horiz-adv-x="1026" d="M92 500q0 109 7.5 185t27.5 137t50.5 98t80.5 61t114 33.5t154 9.5q131 0 212 -23.5t126 -76.5q67 -78 76 -260h-238q-3 57 -9 84t-26 46t-50.5 23t-92.5 4q-37 0 -59.5 -1t-45 -7.5t-33.5 -13.5t-22.5 -26.5t-15.5 -38.5t-7.5 -57.5t-4 -76t-0.5 -100.5q0 -60 0.5 -95.5 t4 -73.5t8 -57.5t14.5 -39.5t22 -28t32.5 -15.5t43.5 -9t57 -1.5q47 0 76.5 2t51.5 11t33 18.5t17.5 32t8 43.5t2.5 61h241q0 -197 -82 -282q-89 -89 -340 -89q-90 0 -154 9t-114 33.5t-80.5 61t-50.5 97.5t-27.5 137t-7.5 185zM295 -420l137 283h264l-186 -283h-215z" />
<glyph unicode="&#xe8;" horiz-adv-x="1052" d="M92 500q0 130 12 216t40 148.5t79.5 96t123 48.5t179.5 15q130 0 212 -23t128 -77q49 -57 69.5 -153.5t20.5 -254.5q0 -57 -4 -96h-618q4 -188 45 -219q31 -25 139 -25q34 0 51 0.5t40.5 1.5t34 4l24.5 7t19.5 11.5t13 17.5t9.5 24.5t3.5 31.5t1.5 41h237 q-3 -95 -17.5 -145.5t-47.5 -89.5q-46 -54 -129 -78.5t-223 -24.5q-110 0 -183 14.5t-126 48t-81 96t-40.5 148.5t-12.5 216zM238 1399h270l178 -283h-221zM334 598h389q-4 179 -41 205q-38 24 -147 24q-124 0 -158 -24q-21 -13 -30.5 -60.5t-12.5 -144.5z" />
<glyph unicode="&#xe9;" horiz-adv-x="1052" d="M92 500q0 130 12 216t40 148.5t79.5 96t123 48.5t179.5 15q130 0 212 -23t128 -77q49 -57 69.5 -153.5t20.5 -254.5q0 -57 -4 -96h-618q4 -188 45 -219q31 -25 139 -25q34 0 51 0.5t40.5 1.5t34 4l24.5 7t19.5 11.5t13 17.5t9.5 24.5t3.5 31.5t1.5 41h237 q-3 -95 -17.5 -145.5t-47.5 -89.5q-46 -54 -129 -78.5t-223 -24.5q-110 0 -183 14.5t-126 48t-81 96t-40.5 148.5t-12.5 216zM334 598h389q-4 179 -41 205q-38 24 -147 24q-124 0 -158 -24q-21 -13 -30.5 -60.5t-12.5 -144.5zM387 1116l178 283h271l-228 -283h-221z" />
<glyph unicode="&#xea;" horiz-adv-x="1052" d="M92 500q0 130 12 216t40 148.5t79.5 96t123 48.5t179.5 15q130 0 212 -23t128 -77q49 -57 69.5 -153.5t20.5 -254.5q0 -57 -4 -96h-618q4 -188 45 -219q31 -25 139 -25q34 0 51 0.5t40.5 1.5t34 4l24.5 7t19.5 11.5t13 17.5t9.5 24.5t3.5 31.5t1.5 41h237 q-3 -95 -17.5 -145.5t-47.5 -89.5q-46 -54 -129 -78.5t-223 -24.5q-110 0 -183 14.5t-126 48t-81 96t-40.5 148.5t-12.5 216zM211 1133l201 249h225l203 -249h-226l-90 112l-88 -112h-225zM334 598h389q-4 179 -41 205q-38 24 -147 24q-124 0 -158 -24q-21 -13 -30.5 -60.5 t-12.5 -144.5z" />
<glyph unicode="&#xeb;" horiz-adv-x="1052" d="M92 500q0 130 12 216t40 148.5t79.5 96t123 48.5t179.5 15q130 0 212 -23t128 -77q49 -57 69.5 -153.5t20.5 -254.5q0 -57 -4 -96h-618q4 -188 45 -219q31 -25 139 -25q34 0 51 0.5t40.5 1.5t34 4l24.5 7t19.5 11.5t13 17.5t9.5 24.5t3.5 31.5t1.5 41h237 q-3 -95 -17.5 -145.5t-47.5 -89.5q-46 -54 -129 -78.5t-223 -24.5q-110 0 -183 14.5t-126 48t-81 96t-40.5 148.5t-12.5 216zM236 1130v236h229v-236h-229zM334 598h389q-4 179 -41 205q-38 24 -147 24q-124 0 -158 -24q-21 -13 -30.5 -60.5t-12.5 -144.5zM586 1130v236h229 v-236h-229z" />
<glyph unicode="&#xec;" horiz-adv-x="483" d="M-70 1399h271l178 -283h-221zM123 0v1001h237v-1001h-237z" />
<glyph unicode="&#xed;" horiz-adv-x="483" d="M104 1116l179 283h270l-227 -283h-222zM123 0v1001h237v-1001h-237z" />
<glyph unicode="&#xee;" horiz-adv-x="483" d="M-74 1133l201 249h225l203 -249h-225l-90 112l-88 -112h-226zM123 0v1001h237v-1001h-237z" />
<glyph unicode="&#xef;" horiz-adv-x="483" d="M-49 1130v236h229v-236h-229zM123 0v1001h237v-1001h-237zM301 1130v236h229v-236h-229z" />
<glyph unicode="&#xf0;" horiz-adv-x="1079" d="M94 500q0 164 18 261.5t58 151.5q77 109 281 109q126 0 225 -47q-25 83 -72 149l-184 -94l-74 137l125 62q-39 15 -162 49l62 162q136 -29 191.5 -49t111.5 -60l219 111l74 -137l-174 -86q91 -105 142.5 -300t51.5 -427q0 -301 -86 -406q-51 -60 -139.5 -84.5 t-261.5 -24.5q-138 0 -211.5 25t-118.5 84q-76 100 -76 414zM338 416q0 -30 2 -67t3.5 -54t7.5 -39.5t11 -31t17.5 -20t23 -14t31.5 -6.5t39 -4h49h60t47 4t38 6.5t28 15t21 21t13 34t9.5 44.5t4 61t2.5 75v96q0 84 -20 213q-93 71 -217 71q-34 0 -54 -1t-40.5 -7.5 t-30.5 -13t-20.5 -26t-14 -38t-6.5 -58t-3.5 -76.5t-0.5 -101v-84z" />
<glyph unicode="&#xf1;" horiz-adv-x="1107" d="M121 0v1001h231v-73q75 53 138 74.5t151 21.5q190 0 272 -101t82 -331v-592h-237v612q0 130 -35 170q-36 39 -123 39q-74 0 -130 -20.5t-112 -67.5v-733h-237zM252 1133q0 137 29 188q44 78 145 78q73 0 125 -37l100 -74q20 -14 35 -14q27 0 27 72v32h153 q0 -82 -4.5 -116t-19.5 -60q-42 -80 -148 -80q-71 0 -127 41l-100 72q-23 18 -37 18q-24 0 -24 -71v-49h-154z" />
<glyph unicode="&#xf2;" horiz-adv-x="1081" d="M92 500q0 109 8 185.5t28.5 137.5t52 97.5t83.5 61t117.5 33.5t159.5 9q93 0 158.5 -9t117 -33.5t83 -61t52 -97.5t28 -137.5t7.5 -185.5t-7.5 -185.5t-28 -137t-52 -97.5t-83 -61t-117 -33t-158.5 -9q-94 0 -159.5 9t-117.5 33t-83.5 61t-52 97.5t-28.5 137t-8 185.5z M254 1399h270l178 -283h-221zM336 500q0 -64 0.5 -101t4.5 -76t8 -58t16.5 -38.5t24.5 -26t37 -12.5t49 -7t65 -1q32 0 52.5 0.5t42.5 4t34 7t25 14.5t19.5 20.5t13 30.5t8.5 40t4 54t2.5 66.5t0.5 82.5q0 65 -0.5 102t-4.5 76.5t-8 58t-16 38t-24 26t-36.5 13t-48 7 t-64.5 0.5t-65 -0.5t-49 -7t-37 -13t-24.5 -26t-16.5 -38.5t-8 -58t-4.5 -76t-0.5 -102z" />
<glyph unicode="&#xf3;" horiz-adv-x="1081" d="M92 500q0 109 8 185.5t28.5 137.5t52 97.5t83.5 61t117.5 33.5t159.5 9q93 0 158.5 -9t117 -33.5t83 -61t52 -97.5t28 -137.5t7.5 -185.5t-7.5 -185.5t-28 -137t-52 -97.5t-83 -61t-117 -33t-158.5 -9q-94 0 -159.5 9t-117.5 33t-83.5 61t-52 97.5t-28.5 137t-8 185.5z M336 500q0 -64 0.5 -101t4.5 -76t8 -58t16.5 -38.5t24.5 -26t37 -12.5t49 -7t65 -1q32 0 52.5 0.5t42.5 4t34 7t25 14.5t19.5 20.5t13 30.5t8.5 40t4 54t2.5 66.5t0.5 82.5q0 65 -0.5 102t-4.5 76.5t-8 58t-16 38t-24 26t-36.5 13t-48 7t-64.5 0.5t-65 -0.5t-49 -7t-37 -13 t-24.5 -26t-16.5 -38.5t-8 -58t-4.5 -76t-0.5 -102zM416 1116l178 283h270l-227 -283h-221z" />
<glyph unicode="&#xf4;" horiz-adv-x="1081" d="M92 500q0 109 8 185.5t28.5 137.5t52 97.5t83.5 61t117.5 33.5t159.5 9q93 0 158.5 -9t117 -33.5t83 -61t52 -97.5t28 -137.5t7.5 -185.5t-7.5 -185.5t-28 -137t-52 -97.5t-83 -61t-117 -33t-158.5 -9q-94 0 -159.5 9t-117.5 33t-83.5 61t-52 97.5t-28.5 137t-8 185.5z M225 1133l201 249h225l203 -249h-225l-90 112l-88 -112h-226zM336 500q0 -64 0.5 -101t4.5 -76t8 -58t16.5 -38.5t24.5 -26t37 -12.5t49 -7t65 -1q32 0 52.5 0.5t42.5 4t34 7t25 14.5t19.5 20.5t13 30.5t8.5 40t4 54t2.5 66.5t0.5 82.5q0 65 -0.5 102t-4.5 76.5t-8 58 t-16 38t-24 26t-36.5 13t-48 7t-64.5 0.5t-65 -0.5t-49 -7t-37 -13t-24.5 -26t-16.5 -38.5t-8 -58t-4.5 -76t-0.5 -102z" />
<glyph unicode="&#xf5;" horiz-adv-x="1081" d="M92 500q0 109 8 185.5t28.5 137.5t52 97.5t83.5 61t117.5 33.5t159.5 9q93 0 158.5 -9t117 -33.5t83 -61t52 -97.5t28 -137.5t7.5 -185.5t-7.5 -185.5t-28 -137t-52 -97.5t-83 -61t-117 -33t-158.5 -9q-94 0 -159.5 9t-117.5 33t-83.5 61t-52 97.5t-28.5 137t-8 185.5z M233 1133q0 137 29 188q44 78 146 78q72 0 124 -37l101 -74q20 -14 35 -14q26 0 26 72v32h154q0 -81 -5 -115.5t-20 -60.5q-42 -80 -147 -80q-71 0 -127 41l-100 72q-22 18 -37 18q-25 0 -25 -71v-49h-154zM336 500q0 -64 0.5 -101t4.5 -76t8 -58t16.5 -38.5t24.5 -26 t37 -12.5t49 -7t65 -1q32 0 52.5 0.5t42.5 4t34 7t25 14.5t19.5 20.5t13 30.5t8.5 40t4 54t2.5 66.5t0.5 82.5q0 65 -0.5 102t-4.5 76.5t-8 58t-16 38t-24 26t-36.5 13t-48 7t-64.5 0.5t-65 -0.5t-49 -7t-37 -13t-24.5 -26t-16.5 -38.5t-8 -58t-4.5 -76t-0.5 -102z" />
<glyph unicode="&#xf6;" horiz-adv-x="1081" d="M92 500q0 109 8 185.5t28.5 137.5t52 97.5t83.5 61t117.5 33.5t159.5 9q93 0 158.5 -9t117 -33.5t83 -61t52 -97.5t28 -137.5t7.5 -185.5t-7.5 -185.5t-28 -137t-52 -97.5t-83 -61t-117 -33t-158.5 -9q-94 0 -159.5 9t-117.5 33t-83.5 61t-52 97.5t-28.5 137t-8 185.5z M250 1130v236h229v-236h-229zM336 500q0 -64 0.5 -101t4.5 -76t8 -58t16.5 -38.5t24.5 -26t37 -12.5t49 -7t65 -1q32 0 52.5 0.5t42.5 4t34 7t25 14.5t19.5 20.5t13 30.5t8.5 40t4 54t2.5 66.5t0.5 82.5q0 65 -0.5 102t-4.5 76.5t-8 58t-16 38t-24 26t-36.5 13t-48 7 t-64.5 0.5t-65 -0.5t-49 -7t-37 -13t-24.5 -26t-16.5 -38.5t-8 -58t-4.5 -76t-0.5 -102zM600 1130v236h229v-236h-229z" />
<glyph unicode="&#xf7;" d="M125 588v211h1028v-211h-1028zM492 326q0 62 43 104.5t104 42.5t104 -42.5t43 -104.5q0 -60 -43.5 -104t-103.5 -44t-103.5 44t-43.5 104zM492 1061q0 60 43 102.5t104 42.5t104 -42.5t43 -102.5q0 -61 -43.5 -104.5t-103.5 -43.5t-103.5 43.5t-43.5 104.5z" />
<glyph unicode="&#xf8;" horiz-adv-x="1079" d="M92 502q0 109 8 185t28.5 136.5t52 97.5t83.5 61t117.5 33t159.5 9q148 0 239 -31l41 64h150l-82 -127q53 -55 75.5 -154t22.5 -276q0 -110 -7.5 -186.5t-28.5 -137t-52 -97t-83 -60.5t-117.5 -33t-159.5 -9q-150 0 -238 29l-41 -63h-151l81 127q-60 62 -79 169t-19 263z M334 483q0 -113 8 -176l322 504q-54 14 -121 14q-34 0 -55 -0.5t-44 -4t-35 -7t-26 -15t-20 -21t-13 -32.5t-9 -43t-4.5 -58t-2.5 -71.5v-89.5zM418 190q41 -14 121 -14q43 0 66.5 0.5t49.5 7.5t37 13t24 27.5t16.5 40.5t7.5 62.5t4.5 83t0.5 111.5q0 96 -8 172z" />
<glyph unicode="&#xf9;" horiz-adv-x="1097" d="M113 406v595h237v-614q0 -132 33 -170q29 -37 117 -37q79 0 132.5 20t106.5 70v731h238v-1001h-234v72q-67 -53 -127.5 -74t-146.5 -21q-191 0 -273.5 99.5t-82.5 329.5zM246 1399h270l178 -283h-221z" />
<glyph unicode="&#xfa;" horiz-adv-x="1097" d="M113 406v595h237v-614q0 -132 33 -170q29 -37 117 -37q79 0 132.5 20t106.5 70v731h238v-1001h-234v72q-67 -53 -127.5 -74t-146.5 -21q-191 0 -273.5 99.5t-82.5 329.5zM395 1116l178 283h271l-228 -283h-221z" />
<glyph unicode="&#xfb;" horiz-adv-x="1097" d="M113 406v595h237v-614q0 -132 33 -170q29 -37 117 -37q79 0 132.5 20t106.5 70v731h238v-1001h-234v72q-67 -53 -127.5 -74t-146.5 -21q-191 0 -273.5 99.5t-82.5 329.5zM231 1133l201 249h225l203 -249h-225l-90 112l-88 -112h-226z" />
<glyph unicode="&#xfc;" horiz-adv-x="1097" d="M113 406v595h237v-614q0 -132 33 -170q29 -37 117 -37q79 0 132.5 20t106.5 70v731h238v-1001h-234v72q-67 -53 -127.5 -74t-146.5 -21q-191 0 -273.5 99.5t-82.5 329.5zM256 1130v236h229v-236h-229zM606 1130v236h230v-236h-230z" />
<glyph unicode="&#xfd;" horiz-adv-x="956" d="M-2 1001h258l231 -755h7l213 755h249l-358 -1112q-37 -115 -48.5 -145.5t-33.5 -60.5q-82 -111 -260 -111q-59 0 -129 16l31 195q52 -10 94 -10q48 0 72.5 34t60.5 158l10 35h-37zM328 1116l178 283h270l-227 -283h-221z" />
<glyph unicode="&#xfe;" horiz-adv-x="1107" d="M133 -406v1840h229v-504q71 53 135.5 73.5t159.5 20.5q205 0 283 -106q40 -56 58 -154.5t18 -263.5q0 -315 -76 -418q-77 -105 -278 -105q-96 0 -159 20t-134 75v-478h-236zM369 272q55 -50 110 -71t131 -21q32 0 51 1t38.5 7t29 13.5t19 26.5t13.5 38t7 57.5t3.5 76 t0.5 100.5t-0.5 101t-3.5 76.5t-6.5 58t-13.5 38.5t-19.5 26t-29 13t-38.5 7t-51 1q-76 0 -131.5 -20.5t-109.5 -67.5v-461z" />
<glyph unicode="&#xff;" horiz-adv-x="956" d="M-2 1001h258l231 -755h7l213 755h249l-358 -1112q-37 -115 -48.5 -145.5t-33.5 -60.5q-82 -111 -260 -111q-59 0 -129 16l31 195q52 -10 94 -10q48 0 72.5 34t60.5 158l10 35h-37zM188 1130v236h230v-236h-230zM539 1130v236h229v-236h-229z" />
<glyph unicode="&#x152;" horiz-adv-x="1980" d="M125 682q0 194 13 311t37 178t69 107q64 66 151.5 88.5t274.5 22.5q169 0 243 -31q48 -17 97 -66v74h888v-217h-643v-348h598v-217h-598v-367h660v-217h-905v72q-42 -42 -84 -60q-80 -35 -258 -35q-182 0 -270 23t-154 88q-66 64 -92.5 187.5t-26.5 406.5zM385 682 q0 -217 10 -310t39 -128q22 -28 71.5 -37.5t178.5 -9.5q141 0 192.5 9.5t73.5 37.5q29 36 39 128.5t10 309.5t-10 310.5t-39 129.5q-22 28 -73 37.5t-189 9.5q-132 0 -182 -9.5t-72 -37.5q-29 -36 -39 -129.5t-10 -310.5z" />
<glyph unicode="&#x153;" horiz-adv-x="1703" d="M92 500q0 109 8 185t28.5 137t52 98t83.5 61t118 33.5t159 9.5q225 0 323 -92q92 92 314 92q130 0 212 -23t128 -77q49 -57 69.5 -153.5t20.5 -254.5q0 -59 -4 -96h-619q4 -188 45 -219q31 -25 139 -25q34 0 51 0.5t40.5 1.5t34 4l24.5 7t19.5 11.5t13 17.5t9.5 24.5 t3.5 31.5t1.5 41h238q-4 -95 -18.5 -145.5t-47.5 -89.5q-46 -54 -129 -78.5t-223 -24.5q-221 0 -322 91q-94 -91 -323 -91q-93 0 -159 9t-118 33.5t-83.5 61t-52 97.5t-28.5 137t-8 185zM336 500q0 -64 0.5 -101t4.5 -75.5t8 -57.5t16.5 -38.5t24.5 -26t37 -13t49 -7.5 t65 -1q40 0 64 1t48.5 7.5t36.5 13t24 26t16 38t8 58t4.5 76t0.5 100.5q0 65 -0.5 101.5t-4.5 76t-8 58t-16 38t-24 26t-36.5 13t-48 7.5t-64.5 1q-33 0 -53.5 -0.5t-42.5 -4t-34.5 -7t-25.5 -14.5t-19.5 -20.5t-13.5 -31t-9 -40.5t-4 -53.5t-2.5 -66.5t-0.5 -83zM987 598 h389q-4 179 -41 205q-41 26 -147 26q-121 0 -158 -26q-21 -13 -30.5 -60.5t-12.5 -144.5z" />
<glyph unicode="&#x178;" horiz-adv-x="1218" d="M0 1366h274l332 -635h6l332 635h275l-482 -889v-477h-256v477zM319 1489v235h230v-235h-230zM670 1489v235h229v-235h-229z" />
<glyph unicode="&#x2c6;" horiz-adv-x="1058" d="M215 1133l201 249h225l203 -249h-226l-90 112l-88 -112h-225z" />
<glyph unicode="&#x2dc;" horiz-adv-x="1058" d="M223 1133q0 137 29 188q44 78 145 78q73 0 125 -37l101 -74q20 -14 34 -14q27 0 27 72v32h154q0 -81 -5 -115.5t-20 -60.5q-42 -80 -147 -80q-71 0 -127 41l-101 72q-22 18 -37 18q-24 0 -24 -71v-49h-154z" />
<glyph unicode="&#x2000;" horiz-adv-x="896" />
<glyph unicode="&#x2001;" horiz-adv-x="1792" />
<glyph unicode="&#x2002;" horiz-adv-x="896" />
<glyph unicode="&#x2003;" horiz-adv-x="1792" />
<glyph unicode="&#x2004;" horiz-adv-x="597" />
<glyph unicode="&#x2005;" horiz-adv-x="448" />
<glyph unicode="&#x2006;" horiz-adv-x="298" />
<glyph unicode="&#x2007;" horiz-adv-x="298" />
<glyph unicode="&#x2008;" horiz-adv-x="224" />
<glyph unicode="&#x2009;" horiz-adv-x="358" />
<glyph unicode="&#x200a;" horiz-adv-x="99" />
<glyph unicode="&#x2010;" horiz-adv-x="620" d="M51 391v230h516v-230h-516z" />
<glyph unicode="&#x2011;" horiz-adv-x="620" d="M51 391v230h516v-230h-516z" />
<glyph unicode="&#x2012;" horiz-adv-x="620" d="M51 391v230h516v-230h-516z" />
<glyph unicode="&#x2013;" horiz-adv-x="1271" d="M188 391v230h895v-230h-895z" />
<glyph unicode="&#x2014;" horiz-adv-x="1615" d="M53 391v230h1510v-230h-1510z" />
<glyph unicode="&#x2018;" horiz-adv-x="444" d="M25 1016l178 418h190l-108 -418h-260z" />
<glyph unicode="&#x2019;" horiz-adv-x="444" d="M51 1016l109 418h260l-178 -418h-191z" />
<glyph unicode="&#x201a;" horiz-adv-x="485" d="M31 -236l108 426h260l-178 -426h-190z" />
<glyph unicode="&#x201c;" horiz-adv-x="786" d="M25 1016l178 418h190l-108 -418h-260zM367 1016l176 418h192l-110 -418h-258z" />
<glyph unicode="&#x201d;" horiz-adv-x="786" d="M51 1016l109 418h260l-178 -418h-191zM393 1016l109 418h260l-178 -418h-191z" />
<glyph unicode="&#x201e;" horiz-adv-x="786" d="M25 -236l108 416h260l-178 -416h-190zM367 -236l108 416h260l-178 -416h-190z" />
<glyph unicode="&#x2022;" horiz-adv-x="1345" d="M358 690q0 129 92.5 221.5t221.5 92.5q130 0 222.5 -92.5t92.5 -221.5q0 -130 -92.5 -222.5t-222.5 -92.5q-129 0 -221.5 92.5t-92.5 222.5z" />
<glyph unicode="&#x2026;" horiz-adv-x="1325" d="M113 0v264h252v-264h-252zM537 0v264h251v-264h-251zM958 0v264h254v-264h-254z" />
<glyph unicode="&#x202f;" horiz-adv-x="358" />
<glyph unicode="&#x2039;" horiz-adv-x="636" d="M100 430v150l451 376v-235l-260 -215l260 -215v-236z" />
<glyph unicode="&#x203a;" horiz-adv-x="636" d="M86 55v236l260 215l-260 215v235l451 -376v-150z" />
<glyph unicode="&#x205f;" horiz-adv-x="448" />
<glyph unicode="&#x20ac;" d="M16 467v186h166v76h-166v189h172q4 62 8.5 100t15.5 90t33 94t56 76q68 65 157.5 88t274.5 23q169 0 259.5 -25t142.5 -86t75.5 -135.5t32.5 -214.5h-254q-8 108 -18.5 151.5t-38.5 63.5q-24 17 -67.5 21.5t-139.5 4.5q-124 0 -170.5 -9.5t-67.5 -35.5q-6 -8 -10.5 -17.5 t-8.5 -18t-7 -21.5t-5 -20.5t-3.5 -23t-2.5 -21.5t-2 -23t-1 -20.5t-0.5 -21.5t-0.5 -19h394v-189h-398v-76h398v-186h-394q4 -114 19 -176q6 -26 22 -49q21 -26 67.5 -35.5t170.5 -9.5q103 0 148 5t71 25q26 23 35 69t18 155h256q-9 -151 -33 -228t-77 -135 q-60 -63 -147 -87t-263 -24q-185 0 -274.5 23t-157.5 88q-41 41 -61 88q-25 51 -35 117q-11 64 -19 174h-170z" />
<glyph unicode="&#x2122;" horiz-adv-x="1728" d="M51 1217v149h631v-149h-223v-568h-185v568h-223zM750 649v717h217l194 -397l195 397h217v-717h-182v443l-154 -344h-150l-155 344v-443h-182z" />
<glyph unicode="&#x25fc;" horiz-adv-x="1003" d="M0 0v1004h1004v-1004h-1004z" />
</font>
</defs>
</svg>
